<?xml version='1.0' encoding='UTF-8'?>
<svg height="42mm" version="1.1" viewBox="0 0 42 42" width="42mm" xmlns="http://www.w3.org/2000/svg"><path d="M 32 12 L 32 14 L 34 14 L 34 12 z M 28 34 L 28 36 L 30 36 L 30 34 z M 38 38 L 38 40 L 40 40 L 40 38 z M 20 34 L 20 36 L 22 36 L 22 34 z M 0 40 L 0 42 L 2 42 L 2 40 z M 32 18 L 32 20 L 34 20 L 34 18 z M 28 8 L 28 10 L 30 10 L 30 8 z M 30 40 L 30 42 L 32 42 L 32 40 z M 40 40 L 40 42 L 42 42 L 42 40 z M 36 8 L 36 10 L 38 10 L 38 8 z M 2 12 L 2 14 L 4 14 L 4 12 z M 0 20 L 0 22 L 2 22 L 2 20 z M 10 16 L 10 18 L 12 18 L 12 16 z M 8 0 L 8 2 L 10 2 L 10 0 z M 20 16 L 20 18 L 22 18 L 22 16 z M 18 0 L 18 2 L 20 2 L 20 0 z M 32 6 L 32 8 L 34 8 L 34 6 z M 12 20 L 12 22 L 14 22 L 14 20 z M 24 12 L 24 14 L 26 14 L 26 12 z M 38 28 L 38 30 L 40 30 L 40 28 z M 20 36 L 20 38 L 22 38 L 22 36 z M 34 4 L 34 6 L 36 6 L 36 4 z M 0 34 L 0 36 L 2 36 L 2 34 z M 28 2 L 28 4 L 30 4 L 30 2 z M 40 18 L 40 20 L 42 20 L 42 18 z M 24 34 L 24 36 L 26 36 L 26 34 z M 36 18 L 36 20 L 38 20 L 38 18 z M 0 8 L 0 10 L 2 10 L 2 8 z M 26 40 L 26 42 L 28 42 L 28 40 z M 40 8 L 40 10 L 42 10 L 42 8 z M 16 30 L 16 32 L 18 32 L 18 30 z M 8 20 L 8 22 L 10 22 L 10 20 z M 6 4 L 6 6 L 8 6 L 8 4 z M 4 12 L 4 14 L 6 14 L 6 12 z M 18 28 L 18 30 L 20 30 L 20 28 z M 16 4 L 16 6 L 18 6 L 18 4 z M 18 6 L 18 8 L 20 8 L 20 6 z M 12 0 L 12 2 L 14 2 L 14 0 z M 8 32 L 8 34 L 10 34 L 10 32 z M 22 0 L 22 2 L 24 2 L 24 0 z M 32 0 L 32 2 L 34 2 L 34 0 z M 24 22 L 24 24 L 26 24 L 26 22 z M 38 26 L 38 28 L 40 28 L 40 26 z M 30 28 L 30 30 L 32 30 L 32 28 z M 28 4 L 28 6 L 30 6 L 30 4 z M 26 20 L 26 22 L 28 22 L 28 20 z M 40 28 L 40 30 L 42 30 L 42 28 z M 4 34 L 4 36 L 6 36 L 6 34 z M 36 20 L 36 22 L 38 22 L 38 20 z M 0 2 L 0 4 L 2 4 L 2 2 z M 32 38 L 32 40 L 34 40 L 34 38 z M 2 24 L 2 26 L 4 26 L 4 24 z M 18 18 L 18 20 L 20 20 L 20 18 z M 10 28 L 10 30 L 12 30 L 12 28 z M 6 36 L 6 38 L 8 38 L 8 36 z M 16 36 L 16 38 L 18 38 L 18 36 z M 14 16 L 14 18 L 16 18 L 16 16 z M 28 16 L 28 18 L 30 18 L 30 16 z M 32 26 L 32 28 L 34 28 L 34 26 z M 12 32 L 12 34 L 14 34 L 14 32 z M 36 0 L 36 2 L 38 2 L 38 0 z M 32 32 L 32 34 L 34 34 L 34 32 z M 40 6 L 40 8 L 42 8 L 42 6 z M 4 36 L 4 38 L 6 38 L 6 36 z M 0 28 L 0 30 L 2 30 L 2 28 z M 16 18 L 16 20 L 18 20 L 18 18 z M 4 24 L 4 26 L 6 26 L 6 24 z M 6 34 L 6 36 L 8 36 L 8 34 z M 12 28 L 12 30 L 14 30 L 14 28 z M 24 4 L 24 6 L 26 6 L 26 4 z M 34 12 L 34 14 L 36 14 L 36 12 z M 32 20 L 32 22 L 34 22 L 34 20 z M 28 10 L 28 12 L 30 12 L 30 10 z M 24 26 L 24 28 L 26 28 L 26 26 z M 30 0 L 30 2 L 32 2 L 32 0 z M 40 0 L 40 2 L 42 2 L 42 0 z M 0 22 L 0 24 L 2 24 L 2 22 z M 6 12 L 6 14 L 8 14 L 8 12 z M 4 4 L 4 6 L 6 6 L 6 4 z M 2 20 L 2 22 L 4 22 L 4 20 z M 16 12 L 16 14 L 18 14 L 18 12 z M 18 14 L 18 16 L 20 16 L 20 14 z M 12 8 L 12 10 L 14 10 L 14 8 z M 20 8 L 20 10 L 22 10 L 22 8 z M 32 8 L 32 10 L 34 10 L 34 8 z M 24 14 L 24 16 L 26 16 L 26 14 z M 22 18 L 22 20 L 24 20 L 24 18 z M 38 34 L 38 36 L 40 36 L 40 34 z M 0 36 L 0 38 L 2 38 L 2 36 z M 28 12 L 28 14 L 30 14 L 30 12 z M 40 20 L 40 22 L 42 22 L 42 20 z M 24 36 L 24 38 L 26 38 L 26 36 z M 36 12 L 36 14 L 38 14 L 38 12 z M 0 10 L 0 12 L 2 12 L 2 10 z M 26 38 L 26 40 L 28 40 L 28 38 z M 40 10 L 40 12 L 42 12 L 42 10 z M 2 0 L 2 2 L 4 2 L 4 0 z M 0 16 L 0 18 L 2 18 L 2 16 z M 18 26 L 18 28 L 20 28 L 20 26 z M 8 12 L 8 14 L 10 14 L 10 12 z M 20 20 L 20 22 L 22 22 L 22 20 z M 18 4 L 18 6 L 20 6 L 20 4 z M 12 2 L 12 4 L 14 4 L 14 2 z M 8 34 L 8 36 L 10 36 L 10 34 z M 22 6 L 22 8 L 24 8 L 24 6 z M 12 40 L 12 42 L 14 42 L 14 40 z M 10 40 L 10 42 L 12 42 L 12 40 z M 24 8 L 24 10 L 26 10 L 26 8 z M 30 18 L 30 20 L 32 20 L 32 18 z M 28 6 L 28 8 L 30 8 L 30 6 z M 0 4 L 0 6 L 2 6 L 2 4 z M 16 26 L 16 28 L 18 28 L 18 26 z M 8 16 L 8 18 L 10 18 L 10 16 z M 6 0 L 6 2 L 8 2 L 8 0 z M 4 16 L 4 18 L 6 18 L 6 16 z M 18 16 L 18 18 L 20 18 L 20 16 z M 20 30 L 20 32 L 22 32 L 22 30 z M 16 38 L 16 40 L 18 40 L 18 38 z M 12 4 L 12 6 L 14 6 L 14 4 z M 22 28 L 22 30 L 24 30 L 24 28 z M 18 36 L 18 38 L 20 38 L 20 36 z M 32 28 L 32 30 L 34 30 L 34 28 z M 28 18 L 28 20 L 30 20 L 30 18 z M 12 34 L 12 36 L 14 36 L 14 34 z M 30 38 L 30 40 L 32 40 L 32 38 z M 22 38 L 22 40 L 24 40 L 24 38 z M 2 40 L 2 42 L 4 42 L 4 40 z M 30 24 L 30 26 L 32 26 L 32 24 z M 32 34 L 32 36 L 34 36 L 34 34 z M 40 24 L 40 26 L 42 26 L 42 24 z M 24 40 L 24 42 L 26 42 L 26 40 z M 0 30 L 0 32 L 2 32 L 2 30 z M 6 20 L 6 22 L 8 22 L 8 20 z M 2 28 L 2 30 L 4 30 L 4 28 z M 16 20 L 16 22 L 18 22 L 18 20 z M 18 22 L 18 24 L 20 24 L 20 22 z M 10 0 L 10 2 L 12 2 L 12 0 z M 6 32 L 6 34 L 8 34 L 8 32 z M 16 32 L 16 34 L 18 34 L 18 32 z M 12 30 L 12 32 L 14 32 L 14 30 z M 22 26 L 22 28 L 24 28 L 24 26 z M 32 22 L 32 24 L 34 24 L 34 22 z M 12 36 L 12 38 L 14 38 L 14 36 z M 24 28 L 24 30 L 26 30 L 26 28 z M 38 12 L 38 14 L 40 14 L 40 12 z M 36 4 L 36 6 L 38 6 L 38 4 z M 26 30 L 26 32 L 28 32 L 28 30 z M 40 2 L 40 4 L 42 4 L 42 2 z M 4 40 L 4 42 L 6 42 L 6 40 z M 36 34 L 36 36 L 38 36 L 38 34 z M 4 6 L 4 8 L 6 8 L 6 6 z M 2 18 L 2 20 L 4 20 L 4 18 z M 16 14 L 16 16 L 18 16 L 18 14 z M 8 4 L 8 6 L 10 6 L 10 4 z M 4 28 L 4 30 L 6 30 L 6 28 z M 12 10 L 12 12 L 14 12 L 14 10 z M 22 14 L 22 16 L 24 16 L 24 14 z M 12 16 L 12 18 L 14 18 L 14 16 z M 24 0 L 24 2 L 26 2 L 26 0 z M 22 16 L 22 18 L 24 18 L 24 16 z M 38 32 L 38 34 L 40 34 L 40 32 z M 34 0 L 34 2 L 36 2 L 36 0 z M 0 38 L 0 40 L 2 40 L 2 38 z M 40 22 L 40 24 L 42 24 L 42 22 z M 0 12 L 0 14 L 2 14 L 2 12 z M 30 12 L 30 14 L 32 14 L 32 12 z M 26 36 L 26 38 L 28 38 L 28 36 z M 40 12 L 40 14 L 42 14 L 42 12 z M 6 8 L 6 10 L 8 10 L 8 8 z M 4 8 L 4 10 L 6 10 L 6 8 z M 18 2 L 18 4 L 20 4 L 20 2 z M 12 12 L 12 14 L 14 14 L 14 12 z M 10 12 L 10 14 L 12 14 L 12 12 z M 8 36 L 8 38 L 10 38 L 10 36 z M 22 4 L 22 6 L 24 6 L 24 4 z M 20 12 L 20 14 L 22 14 L 22 12 z M 32 4 L 32 6 L 34 6 L 34 4 z M 24 10 L 24 12 L 26 12 L 26 10 z M 34 6 L 34 8 L 36 8 L 36 6 z M 0 32 L 0 34 L 2 34 L 2 32 z M 28 0 L 28 2 L 30 2 L 30 0 z M 26 16 L 26 18 L 28 18 L 28 16 z M 24 32 L 24 34 L 26 34 L 26 32 z M 38 0 L 38 2 L 40 2 L 40 0 z M 36 16 L 36 18 L 38 18 L 38 16 z M 0 6 L 0 8 L 2 8 L 2 6 z M 6 28 L 6 30 L 8 30 L 8 28 z M 16 28 L 16 30 L 18 30 L 18 28 z M 8 18 L 8 20 L 10 20 L 10 18 z M 6 6 L 6 8 L 8 8 L 8 6 z M 18 30 L 18 32 L 20 32 L 20 30 z M 8 8 L 8 10 L 10 10 L 10 8 z M 6 40 L 6 42 L 8 42 L 8 40 z M 20 24 L 20 26 L 22 26 L 22 24 z M 16 40 L 16 42 L 18 42 L 18 40 z M 12 6 L 12 8 L 14 8 L 14 6 z M 22 2 L 22 4 L 24 4 L 24 2 z M 18 34 L 18 36 L 20 36 L 20 34 z M 30 36 L 30 38 L 32 38 L 32 36 z M 28 28 L 28 30 L 30 30 L 30 28 z M 24 20 L 24 22 L 26 22 L 26 20 z M 38 20 L 38 22 L 40 22 L 40 20 z M 22 36 L 22 38 L 24 38 L 24 36 z M 34 28 L 34 30 L 36 30 L 36 28 z M 30 30 L 30 32 L 32 32 L 32 30 z M 32 36 L 32 38 L 34 38 L 34 36 z M 40 36 L 40 38 L 42 38 L 42 36 z M 40 26 L 40 28 L 42 28 L 42 26 z M 4 32 L 4 34 L 6 34 L 6 32 z M 0 0 L 0 2 L 2 2 L 2 0 z M 34 38 L 34 40 L 36 40 L 36 38 z M 8 28 L 8 30 L 10 30 L 10 28 z M 18 20 L 18 22 L 20 22 L 20 20 z M 20 2 L 20 4 L 22 4 L 22 2 z M 12 24 L 12 26 L 14 26 L 14 24 z M 8 40 L 8 42 L 10 42 L 10 40 z M 38 40 L 38 42 L 40 42 L 40 40 z M 34 8 L 34 10 L 36 10 L 36 8 z M 32 24 L 32 26 L 34 26 L 34 24 z M 12 38 L 12 40 L 14 40 L 14 38 z M 38 18 L 38 20 L 40 20 L 40 18 z M 36 6 L 36 8 L 38 8 L 38 6 z M 34 18 L 34 20 L 36 20 L 36 18 z M 22 34 L 22 36 L 24 36 L 24 34 z M 40 4 L 40 6 L 42 6 L 42 4 z M 36 28 L 36 30 L 38 30 L 38 28 z M 4 0 L 4 2 L 6 2 L 6 0 z M 2 16 L 2 18 L 4 18 L 4 16 z M 16 16 L 16 18 L 18 18 L 18 16 z M 8 6 L 8 8 L 10 8 L 10 6 z" id="qr-path" style="fill:#000000;fill-opacity:1;fill-rule:nonzero;stroke:none"/></svg>