<?xml version="1.0" encoding="utf-8"?>
<!-- Generator: Adobe Illustrator 15.0.0, SVG Export Plug-In . SVG Version: 6.00 Build 0)  -->
<!DOCTYPE svg PUBLIC "-//W3C//DTD SVG 1.1//EN" "http://www.w3.org/Graphics/SVG/1.1/DTD/svg11.dtd">
<svg version="1.1" id="Layer_1" xmlns="http://www.w3.org/2000/svg" xmlns:xlink="http://www.w3.org/1999/xlink" x="0px" y="0px"
	 width="144px" height="144px" viewBox="0 0 144 144" enable-background="new 0 0 144 144" xml:space="preserve">
<g>
	<path d="M46.548-252.521v-32.3c0-0.487,0.194-0.927,0.586-1.318c0.39-0.39,0.854-0.586,1.392-0.586h2.71
		c0.537,0,0.989,0.183,1.355,0.548c0.366,0.365,0.549,0.816,0.549,1.352v32.214c0,6.866,1.538,12.065,4.614,15.596
		c3.076,3.531,7.495,5.295,13.257,5.295c2.344,0,4.614-0.34,6.812-1.022s4.016-1.485,5.457-2.411
		c1.439-0.925,2.771-1.936,3.992-3.032c1.22-1.095,2.075-1.959,2.563-2.593c0.487-0.633,0.83-1.095,1.025-1.388v-42.659
		c0-1.266,0.634-1.9,1.904-1.9h2.71c0.537,0,1,0.196,1.392,0.586c0.39,0.392,0.586,0.831,0.586,1.318v56.104
		c0,0.538-0.196,1.001-0.586,1.392c-0.392,0.392-0.855,0.586-1.392,0.586h-1.831c-0.978,0-1.563-0.622-1.758-1.864l-0.586-5.893
		c-0.586,0.744-1.38,1.55-2.38,2.417c-1.001,0.868-2.356,1.86-4.065,2.974c-1.71,1.116-3.834,2.034-6.372,2.752
		c-2.54,0.718-5.176,1.078-7.91,1.078c-8.155,0-14.198-2.355-18.127-7.068C48.513-237.054,46.548-243.78,46.548-252.521z"/>
</g>
<g>
	<path d="M208.388-256.073c0-5.846,1.416-11.191,4.248-16.039c2.831-4.848,6.652-8.623,11.462-11.326
		c4.809-2.703,10.021-4.056,15.637-4.056c5.224,0,9.778,1,13.66,2.999c3.882,1.998,6.726,4.143,8.533,6.434
		c0.83,0.975,0.732,1.877-0.293,2.706l-1.465,1.536c-0.928,0.927-1.978,0.83-3.149-0.291c-1.271-1.46-3.442-2.981-6.519-4.564
		c-3.076-1.582-6.665-2.374-10.767-2.374c-6.885,0-12.733,2.374-17.542,7.121c-4.81,4.747-7.214,10.651-7.214,17.709
		c0,7.157,2.417,13.157,7.251,18.002c4.834,4.844,10.62,7.266,17.358,7.266c2.637,0,5.065-0.329,7.288-0.985
		c2.221-0.657,4.175-1.607,5.859-2.849c1.685-1.24,2.807-2.117,3.369-2.628c0.561-0.51,1.306-1.277,2.234-2.3
		c0.976-1.119,1.928-1.218,2.856-0.293l1.685,1.461c0.487,0.487,0.732,0.974,0.732,1.46c0,0.297-0.099,0.617-0.293,0.963
		c-0.635,1.036-1.624,2.158-2.966,3.367c-1.344,1.208-2.992,2.467-4.944,3.774c-1.954,1.307-4.321,2.38-7.104,3.218
		c-2.783,0.838-5.64,1.258-8.569,1.258c-8.595,0-15.967-3.021-22.119-9.066S208.388-247.117,208.388-256.073z"/>
</g>
<g>
	<path d="M379.749-273.639v-2.356c0-0.952,0.58-1.428,1.742-1.428h6.973v-16.463c0-0.591,0.197-1.07,0.594-1.44
		c0.395-0.368,0.863-0.554,1.406-0.554l2.594-0.146c0.492,0,0.949,0.209,1.369,0.627c0.418,0.419,0.629,0.874,0.629,1.365v16.611
		h20.734c0.584,0,1.059,0.179,1.424,0.536s0.547,0.797,0.547,1.321v1.928c0,0.572-0.182,1.036-0.547,1.393s-0.84,0.536-1.424,0.536
		h-20.734v38.347c0,3.967,0.477,6.783,1.43,8.448c0.951,1.665,3.063,2.497,6.334,2.497c2.295,0,4.785-0.465,7.471-1.395
		s4.736-1.813,6.152-2.646c1.025-0.587,1.832-0.391,2.418,0.588l1.025,1.837c0.244,0.441,0.365,0.833,0.365,1.175
		c0,0.538-0.268,1.001-0.805,1.392c-1.611,1.27-3.969,2.502-7.068,3.7c-3.102,1.196-6.531,1.794-10.291,1.794
		c-2.979,0-5.426-0.404-7.342-1.212s-3.307-2.068-4.17-3.781c-0.865-1.713-1.432-3.439-1.703-5.177
		c-0.273-1.737-0.408-4.002-0.408-6.793v-38.774h-6.973C380.329-271.71,379.749-272.353,379.749-273.639z"/>
</g>
<g>
	<path d="M44.681-80.284c0-8.924,2.807-16.398,8.423-22.422c5.614-6.023,12.671-9.035,21.167-9.035c3.369,0,6.592,0.501,9.668,1.501
		c3.076,1.001,5.321,2.014,6.738,3.04l2.051,1.465v-47.534c0-0.537,0.174-1,0.524-1.392c0.349-0.39,0.824-0.586,1.424-0.586h2.772
		c0.448,0,0.873,0.208,1.272,0.623c0.399,0.416,0.6,0.868,0.6,1.355v101.074c0,0.538-0.201,1.001-0.602,1.392
		c-0.4,0.392-0.876,0.586-1.427,0.586h-1.504c-1.304,0-2.03-0.665-2.18-1.997l-0.429-5.25c-0.635,0.689-1.453,1.439-2.455,2.252
		c-1.002,0.813-2.383,1.747-4.141,2.806c-1.759,1.059-3.884,1.932-6.375,2.621s-5.08,1.033-7.767,1.033
		c-7.764,0-14.332-3.054-19.702-9.166C47.365-64.03,44.681-71.484,44.681-80.284z M51.272-80.284c0,7.07,2.051,13.092,6.152,18.065
		c4.102,4.974,9.252,7.459,15.454,7.459c2.441,0,4.785-0.353,7.031-1.06c2.245-0.708,4.089-1.536,5.53-2.487
		c1.439-0.951,2.747-1.987,3.918-3.108s1.989-2.011,2.454-2.67c0.463-0.658,0.769-1.109,0.916-1.353v-33.57
		c-0.196-0.146-0.465-0.365-0.806-0.658c-0.342-0.293-1.111-0.805-2.307-1.536c-1.197-0.731-2.442-1.365-3.735-1.902
		c-1.294-0.536-2.942-1.036-4.944-1.499c-2.003-0.462-4.028-0.695-6.079-0.695c-6.837,0-12.477,2.377-16.919,7.131
		C53.494-93.411,51.272-87.45,51.272-80.284z"/>
</g>
<g>
	<path d="M214.906-105.999c0-1.697,0.387-3.431,1.161-5.201c0.773-1.769,1.922-3.431,3.446-4.983
		c1.523-1.552,3.578-2.825,6.167-3.82c2.587-0.993,5.501-1.491,8.742-1.491c6.428,0,12.096,1.592,17.003,4.775
		c0.442,0.29,0.724,0.7,0.847,1.23c0.123,0.531,0.035,1.062-0.261,1.592l-0.89,1.592c-0.297,0.531-0.718,0.87-1.262,1.014
		c-0.545,0.144-1.088,0.07-1.632-0.226c-0.686-0.44-1.591-0.943-2.717-1.507c-1.126-0.563-2.766-1.164-4.92-1.801
		c-2.154-0.637-4.21-0.957-6.168-0.957c-4.308,0-7.54,1.006-9.693,3.016c-2.154,2.011-3.23,4.217-3.23,6.62
		c0,2.795,1.138,5.063,3.414,6.804c2.276,1.742,5.887,3.495,10.832,5.26c2.104,0.785,3.711,1.386,4.821,1.802
		c1.109,0.417,2.551,1.03,4.326,1.839c1.775,0.809,3.144,1.52,4.105,2.132c0.961,0.613,2.033,1.41,3.217,2.391
		c1.183,0.981,2.083,1.974,2.698,2.979c0.616,1.006,1.134,2.184,1.553,3.532s0.629,2.782,0.629,4.302
		c0,4.534-2.082,8.434-6.243,11.7s-9.246,4.899-15.254,4.899c-7.26,0-13.747-2.237-19.457-6.712
		c-0.823-0.632-1.022-1.314-0.597-2.044l1.418-2.407c0.236-0.389,0.602-0.607,1.099-0.657c0.497-0.048,1.005,0.124,1.524,0.515
		c4.874,3.923,10.212,5.885,16.013,5.885c4.209,0,7.673-1.042,10.39-3.125s4.075-4.622,4.075-7.614c0-3.138-1.311-5.613-3.929-7.428
		c-2.62-1.814-6.94-3.849-12.96-6.105c-5.973-2.108-10.51-4.524-13.613-7.245C216.457-98.166,214.906-101.683,214.906-105.999z"/>
</g>
<g>
	<path d="M372.717-52.195V-153.27c0-0.537,0.195-1,0.586-1.392c0.391-0.39,0.83-0.586,1.318-0.586h2.564
		c0.537,0,1,0.196,1.391,0.586c0.391,0.392,0.586,0.855,0.586,1.392v47.534c0.201-0.146,0.492-0.354,0.869-0.623
		c0.377-0.268,1.209-0.756,2.494-1.465c1.285-0.707,2.621-1.318,4.006-1.831s3.148-0.989,5.289-1.428
		c2.143-0.439,4.32-0.659,6.539-0.659c8.318,0,15.219,3,20.701,8.999c5.48,5.999,8.223,13.438,8.223,22.313
		c0,8.799-2.637,16.278-7.904,22.438c-5.27,6.159-11.705,9.239-19.309,9.239c-2.602,0-5.107-0.344-7.52-1.033
		s-4.469-1.563-6.172-2.621c-1.703-1.057-3.063-2.018-4.078-2.878c-1.016-0.861-1.809-1.637-2.377-2.326l-0.615,5.397
		c-0.176,1.331-0.996,1.996-2.461,1.996h-1.846c-0.586,0-1.113-0.194-1.582-0.586C372.951-51.194,372.717-51.657,372.717-52.195z
		 M379.309-65.436c0.146,0.293,0.451,0.744,0.916,1.353c0.463,0.61,1.27,1.488,2.418,2.633c1.146,1.146,2.439,2.194,3.881,3.145
		c1.439,0.951,3.271,1.779,5.494,2.487c2.221,0.707,4.527,1.06,6.92,1.06c6.201,0,11.377-2.486,15.527-7.459
		s6.227-10.995,6.227-18.065c0-7.167-2.246-13.127-6.738-17.881c-4.494-4.754-10.156-7.131-16.992-7.131
		c-3.176,0-6.238,0.524-9.191,1.572c-2.955,1.048-5.092,2.085-6.41,3.108l-2.051,1.609V-65.436z"/>
</g>
<g>
	<path d="M43.655,71.854c0-8.837,2.71-16.271,8.13-22.302s12.572-9.046,21.46-9.046c7.861,0,14.343,2.589,19.446,7.764
		c5.102,5.176,7.654,11.744,7.654,19.702c0,0.928-0.013,1.6-0.037,2.014c-0.025,0.416-0.099,0.989-0.22,1.722
		c-0.123,0.732-0.342,1.271-0.659,1.611c-0.318,0.342-0.745,0.513-1.282,0.513h-47.9c0.293,6.571,2.624,12.157,6.995,16.758
		c4.369,4.601,9.851,6.899,16.443,6.899c6.299,0,12.206-1.833,17.725-5.501c0.683-0.434,1.196-0.651,1.538-0.651
		c0.341,0,0.707,0.22,1.099,0.659l1.538,2.051c0.537,0.685,0.341,1.49-0.586,2.417c-1.661,1.66-4.614,3.248-8.862,4.761
		s-8.545,2.271-12.891,2.271c-8.936,0-16.102-3.015-21.497-9.046C46.353,88.419,43.655,80.888,43.655,71.854z M50.394,68.411h43.359
		c0-6.2-1.807-11.4-5.42-15.601c-3.614-4.199-8.643-6.299-15.088-6.299s-11.768,2.076-15.967,6.226
		C53.078,56.888,50.784,62.112,50.394,68.411z"/>
</g>
<g>
	<path d="M428.146,41.045c0.584,0,1.058,0.179,1.423,0.535c0.365,0.357,0.548,0.798,0.548,1.321v1.928
		c0,0.572-0.183,1.036-0.548,1.394c-0.365,0.356-0.839,0.535-1.423,0.535h-24.729c0,0-3.269,36.113-3.477,38.571
		s0.476,6.783,1.429,8.448c0.951,1.665,3.063,2.497,6.335,2.497c2.295,0,4.785-0.465,7.471-1.396c2.685-0.93,3.59-1.295,5.007-2.128
		c1.025-0.587,1.831-0.392,2.417,0.588l1.025,1.837c0.244,0.442,0.366,0.833,0.366,1.176c0,0.538-0.269,1.001-0.806,1.392
		c-1.611,1.271-2.822,1.985-5.923,3.182s-10.623,2.171-12.716,2.013c-1.448-0.109-3.001-0.622-4.917-1.43
		c-1.915-0.808-3.306-2.068-4.17-3.781s-1.432-3.438-1.703-5.177c-0.272-1.737-0.499-4.472-0.407-6.794s3.477-38.998,3.477-38.998
		s-17.619-0.305-18.68,0s-4.767,2.26-4.767,2.26c-1.045,0.512-1.848,0.19-2.414-0.965l-1.036-2.115
		c-0.42-0.856,2.189-2.716,3.195-3.301c1.205-0.701,3.072-1.359,4.688-1.592"/>
</g>
<g>
	<path d="M537.094-253.882c0-2.031,0.357-3.924,1.071-5.679c0.713-1.755,1.616-3.194,2.707-4.315
		c1.092-1.12,2.006-1.977,2.741-2.569c0.734-0.593,1.396-1.037,1.983-1.333c-0.974-1.229-1.894-3.021-2.761-5.372
		s-1.3-4.906-1.3-7.661c0-6.397,2.071-11.662,6.219-15.793c4.146-4.13,9.666-6.195,16.563-6.195h21.321
		c0.508,0,0.91,0.169,1.206,0.508c0.295,0.339,0.444,0.74,0.444,1.205v1.396c0,0.931-0.381,1.459-1.143,1.586l-9.392,0.635
		c0.762,0.382,1.544,0.943,2.348,1.685c0.803,0.742,1.66,1.749,2.569,3.021c0.91,1.271,1.66,2.946,2.254,5.023
		c0.592,2.077,0.888,4.387,0.888,6.93c0,5.956-1.989,11.036-5.965,15.239c-3.977,4.203-9.18,6.304-15.61,6.304
		c-3.512,0-6.473-0.47-8.884-1.409c-2.412-0.94-4.167-1.994-5.268-3.164c-0.419,0.169-0.922,0.444-1.509,0.824
		c-0.587,0.381-1.288,0.931-2.104,1.648c-0.817,0.718-1.51,1.689-2.075,2.915c-0.564,1.226-0.848,2.536-0.848,3.931
		c0,5.086,3.385,7.63,10.153,7.63h18.847c5.9,0,10.6,1.379,14.102,4.137c3.502,2.759,5.254,6.896,5.254,12.414
		c0,5.697-2.503,10.646-7.506,14.845c-5.005,4.198-11.365,6.298-19.083,6.298c-4.221,0-8.008-0.58-11.363-1.739
		c-3.354-1.16-6.014-2.688-7.976-4.586c-1.962-1.898-3.449-3.943-4.462-6.135c-1.013-2.193-1.52-4.429-1.52-6.705
		c0-5.691,2.707-10.257,8.123-13.697c-0.757-0.168-1.65-0.505-2.681-1.012c-1.029-0.505-2.123-1.211-3.278-2.116
		c-1.156-0.907-2.124-2.129-2.901-3.667S537.094-252.069,537.094-253.882z M544.709-229.003c0,3.867,1.755,7.267,5.267,10.201
		c3.512,2.932,8.25,4.398,14.215,4.398c5.838,0,10.734-1.531,14.689-4.59c3.956-3.061,5.934-6.801,5.934-11.221
		c0-3.316-1.078-6.058-3.236-8.225c-2.157-2.168-5.499-3.252-10.026-3.252h-16.372c-0.466,0.042-1.205,0.318-2.221,0.829
		c-1.016,0.509-2.168,1.242-3.458,2.199c-1.291,0.956-2.411,2.296-3.364,4.017C545.185-232.925,544.709-231.043,544.709-229.003z
		 M546.866-280.938c0,4.79,1.438,8.773,4.315,11.952c2.876,3.179,6.938,4.769,12.184,4.769c4.78,0,8.641-1.6,11.58-4.8
		c2.94-3.199,4.411-7.174,4.411-11.921c0-5.256-1.534-9.346-4.601-12.271c-3.067-2.925-6.864-4.388-11.391-4.388
		c-4.908,0-8.884,1.59-11.93,4.769S546.866-285.687,546.866-280.938z"/>
</g>
<g>
	<path d="M528.807,122.725v-2.578l60.938-93.922v-0.294h-54.271c-0.539,0-1.002-0.212-1.393-0.638
		c-0.391-0.424-0.586-0.943-0.586-1.559v-2.337c0-0.52,0.207-0.968,0.623-1.346c0.414-0.378,0.867-0.566,1.355-0.566h61.742
		c0.586,0,1.063,0.188,1.43,0.566c0.365,0.378,0.549,0.826,0.549,1.346v2.337l-61.084,94.188v0.147h55.957
		c0.586,0,1.063,0.191,1.428,0.573c0.367,0.383,0.549,0.836,0.549,1.36v2.578c0,0.526-0.182,0.979-0.549,1.361
		c-0.365,0.382-0.842,0.572-1.428,0.572h-63.135c-0.586,0-1.088-0.179-1.502-0.537C529.014,123.62,528.807,123.202,528.807,122.725z
		"/>
</g>
<g>
	<path d="M502.674,185.463c-0.049-0.194-0.073-0.391-0.073-0.586c0-0.927,0.564-1.392,1.693-1.392h3.686
		c0.441,0,0.821,0.171,1.141,0.509c0.319,0.339,0.529,0.728,0.627,1.163l25.191,87.893l0.257,0.012l26.438-89.723
		c0.293-0.879,1.025-1.318,2.197-1.318h0.366c1.172,0,1.904,0.439,2.197,1.318l26.587,89.722h0.293l25.051-87.89
		c0.097-0.439,0.304-0.829,0.619-1.172c0.316-0.342,0.693-0.514,1.131-0.514h3.646c1.118,0,1.678,0.462,1.678,1.386
		c0,0.194-0.025,0.39-0.073,0.584L595.605,288.93c-0.189,0.699-0.641,1.05-1.352,1.05h-1.565c-0.712,0-1.21-0.347-1.493-1.039
		l-26.985-91.323l-0.513-0.035l-26.986,91.323c-0.283,0.716-0.777,1.074-1.482,1.074h-1.553c-0.753,0-1.2-0.342-1.341-1.024
		L502.674,185.463z"/>
</g>
<path d="M260.866,32.391c-0.392-0.391-0.855-0.586-1.392-0.586h-2.71c-1.271,0-1.904,0.633-1.904,1.898v42.66
	c-0.196,0.293-0.538,0.756-1.025,1.389c-0.489,0.633-1.344,1.498-2.563,2.592c-1.221,1.098-2.552,2.107-3.992,3.031
	c-1.441,0.926-3.259,1.73-5.457,2.412s-4.468,1.021-6.812,1.021c-5.762,0-10.181-1.764-13.257-5.295s-4.614-8.729-4.614-15.596
	v-32.17v-0.045c0-0.047-0.009-0.09-0.012-0.135c-0.046-0.869-0.422-1.41-1.132-1.617c-0.231-0.098-0.484-0.146-0.76-0.146h-2.71
	c-0.538,0-1.001,0.195-1.392,0.586c-0.392,0.391-0.586,0.83-0.586,1.318v0.045v32.254v23.645v0.205v20.434
	c0,0.488,0.196,0.928,0.586,1.318c0.392,0.391,0.855,0.586,1.392,0.586h2.71c1.271,0,1.904-0.633,1.904-1.898v-7.195
	c0,0-0.301-6.123-0.439-7.67c-0.138-1.549-0.585-3.34-0.659-4.861s0.445-4.34,0.445-4.34c3.931,4.682,9.957,7.023,18.085,7.023
	c2.734,0,5.371-0.359,7.91-1.078c2.538-0.719,4.662-1.637,6.372-2.752c1.708-1.115,3.063-2.107,4.065-2.975
	c1-0.867,1.794-1.672,2.38-2.416l0.586,5.893c0.194,1.242,0.78,1.863,1.758,1.863h1.831c0.537,0,1-0.193,1.392-0.586
	c0.39-0.391,0.586-0.854,0.586-1.391V33.709C261.452,33.221,261.256,32.781,260.866,32.391z"/>
<path d="M592.555-134.824c-0.146-0.537-0.538-0.806-1.172-0.806h-3.296c-0.879,0-1.538,0.439-1.978,1.318l-19.466,41.126
	l-19.825-39.918c-0.439-0.879-1.099-1.318-1.978-1.318h-0.28h-3.016h-4.195c-0.536,0-1,0.195-1.392,0.586
	c-0.39,0.391-0.586,0.83-0.586,1.318v2.564c0,0.537,0.196,1,0.586,1.391c0.392,0.391,0.855,0.586,1.392,0.586h5.332l20.472,42.332
	v35.296c0,0.536,0.195,1,0.586,1.392c0.391,0.39,0.854,0.586,1.391,0.586h2.564c0.488,0,0.928-0.196,1.318-0.586
	c0.391-0.392,0.586-0.855,0.586-1.392v-35.344l22.663-47.52c0.244-0.39,0.366-0.78,0.366-1.172
	C592.628-134.531,592.603-134.677,592.555-134.824z"/>
<path d="M102.15,205.557c-0.196-0.487-0.586-0.707-1.172-0.659h-3.296c-0.879,0-1.514,0.439-1.904,1.318l-34.5,48.159
	c0,0-8.069-40.632-9.257-43.43s-6.945-7.029-7.625-6.36l-1.678,1.652c-0.917,0.903-1.418,2.213-0.602,3.042
	c0,0,3.028,2.896,3.652,3.806c0.078,0.114,0.23,0.479,0.436,1.03l11.019,52.053c0.39,0.879,1,1.318,1.831,1.318h0.586
	c0.732,0,1.318-0.439,1.758-1.318l40.533-59c0.244-0.391,0.366-0.757,0.366-1.099C102.247,205.875,102.198,205.703,102.15,205.557z"
	/>
<g>
	<path d="M75.641,267.403c0-5.052,1.549-9.3,4.646-12.745c3.099-3.447,7.186-5.172,12.265-5.172c4.492,0,8.197,1.48,11.114,4.438
		c2.916,2.959,4.374,6.712,4.374,11.262c0,0.528-0.007,0.913-0.021,1.15c-0.014,0.238-0.056,0.565-0.125,0.982
		c-0.07,0.418-0.196,0.727-0.378,0.921c-0.181,0.196-0.425,0.293-0.731,0.293H79.408c0.168,3.757,1.5,6.949,3.998,9.578
		c2.497,2.631,5.631,3.943,9.398,3.943c3.6,0,6.976-1.047,10.13-3.145c0.391-0.247,0.683-0.371,0.879-0.371
		c0.195,0,0.404,0.125,0.628,0.378l0.879,1.17c0.307,0.393,0.195,0.853-0.335,1.382c-0.949,0.949-2.637,1.855-5.065,2.721
		c-2.428,0.864-4.884,1.298-7.367,1.298c-5.107,0-9.203-1.724-12.286-5.17C77.183,276.871,75.641,272.566,75.641,267.403z
		 M79.493,265.435h24.781c0-3.542-1.033-6.515-3.098-8.914c-2.066-2.401-4.939-3.602-8.623-3.602s-6.726,1.188-9.125,3.559
		C81.026,258.849,79.715,261.836,79.493,265.435z"/>
</g>
<path d="M273.72,246.575c-0.221-0.222-0.483-0.332-0.787-0.332h-1.534c-0.719,0-1.077,0.357-1.077,1.074v24.136
	c-0.111,0.166-0.305,0.428-0.581,0.787c-0.277,0.357-0.76,0.847-1.45,1.466c-0.69,0.62-1.444,1.191-2.258,1.714
	c-0.815,0.523-1.844,0.979-3.087,1.366c-1.243,0.385-2.528,0.578-3.854,0.578c-3.26,0-5.76-0.999-7.5-2.997
	c-1.741-1.997-2.611-4.938-2.611-8.823v-18.202v-0.024c0-0.026-0.005-0.051-0.007-0.077c-0.026-0.491-0.239-0.798-0.641-0.915
	c-0.131-0.055-0.274-0.082-0.43-0.082h-1.533c-0.305,0-0.566,0.11-0.788,0.332c-0.222,0.22-0.332,0.469-0.332,0.745v0.026v18.248
	v13.378v0.116v11.561c0,0.276,0.111,0.524,0.332,0.746c0.221,0.22,0.483,0.331,0.788,0.331h1.533c0.719,0,1.078-0.358,1.078-1.073
	v-4.071c0,0-0.17-3.465-0.249-4.341s-0.331-1.889-0.373-2.75c-0.041-0.86,0.252-2.455,0.252-2.455
	c2.224,2.648,5.634,3.974,10.232,3.974c1.547,0,3.039-0.203,4.476-0.609c1.436-0.407,2.638-0.927,3.605-1.558
	c0.966-0.631,1.733-1.192,2.299-1.683c0.566-0.491,1.015-0.945,1.347-1.366l0.332,3.333c0.109,0.703,0.441,1.054,0.995,1.054h1.036
	c0.303,0,0.565-0.109,0.787-0.331c0.221-0.221,0.332-0.483,0.332-0.787V247.32C274.051,247.044,273.941,246.795,273.72,246.575z"/>
<g>
	<path d="M436.396,251.334c0.314,0,0.569,0.096,0.766,0.288c0.197,0.192,0.295,0.429,0.295,0.711v1.036
		c0,0.309-0.098,0.558-0.295,0.75c-0.196,0.191-0.451,0.288-0.766,0.288h-13.301c0,0-1.759,19.425-1.871,20.747
		c-0.111,1.322,0.256,3.649,0.77,4.545c0.512,0.896,1.647,1.343,3.407,1.343c1.234,0,2.573-0.25,4.019-0.751
		c1.443-0.5,1.931-0.696,2.693-1.145c0.551-0.315,0.984-0.21,1.3,0.316l0.552,0.988c0.131,0.238,0.197,0.448,0.197,0.633
		c0,0.289-0.145,0.538-0.434,0.748c-0.867,0.684-1.519,1.068-3.187,1.712c-1.667,0.644-5.714,1.167-6.84,1.082
		c-0.778-0.059-1.614-0.334-2.645-0.769s-1.778-1.113-2.243-2.034s-0.77-1.85-0.916-2.784s-0.269-2.405-0.219-3.655
		c0.049-1.249,1.869-20.977,1.869-20.977s-9.477-0.164-10.047,0s-2.564,1.215-2.564,1.215c-0.563,0.275-0.994,0.103-1.299-0.519
		l-0.557-1.138c-0.227-0.461,1.178-1.461,1.719-1.775c0.648-0.377,1.652-0.731,2.521-0.856"/>
</g>
<path d="M266.15,205.557c-0.196-0.487-0.586-0.707-1.172-0.659h-3.296c-0.879,0-1.514,0.439-1.904,1.318l-34.5,48.159
	c0,0-8.069-40.632-9.257-43.43s-6.945-7.029-7.625-6.36l-1.678,1.652c-0.917,0.903-1.418,2.213-0.602,3.042
	c0,0,3.028,2.896,3.652,3.806c0.078,0.114,0.23,0.479,0.436,1.03l11.019,52.053c0.39,0.879,1,1.318,1.831,1.318h0.586
	c0.732,0,1.318-0.439,1.758-1.318l40.533-59c0.244-0.391,0.366-0.757,0.366-1.099C266.247,205.875,266.198,205.703,266.15,205.557z"
	/>
<path d="M430.149,205.557c-0.196-0.487-0.586-0.707-1.172-0.659h-3.296c-0.879,0-1.514,0.439-1.904,1.318l-34.5,48.159
	c0,0-8.07-40.632-9.258-43.43s-6.945-7.029-7.625-6.36l-1.678,1.652c-0.916,0.903-1.418,2.213-0.602,3.042
	c0,0,3.027,2.896,3.652,3.806c0.078,0.114,0.23,0.479,0.436,1.03l11.019,52.053c0.39,0.879,1,1.318,1.831,1.318h0.586
	c0.732,0,1.318-0.439,1.758-1.318l40.533-59c0.244-0.391,0.366-0.757,0.366-1.099C430.246,205.875,430.197,205.703,430.149,205.557z
	"/>
</svg>
