<?xml version="1.0" encoding="UTF-8" standalone="no"?>
<!-- Created with Inkscape (http://www.inkscape.org/) -->

<svg
   width="59.999996mm"
   height="150mm"
   viewBox="0 0 59.999997 150"
   version="1.1"
   id="svg5"
   sodipodi:docname="name.svg"
   inkscape:version="1.2.2 (b0a8486541, 2022-12-01)"
   xmlns:inkscape="http://www.inkscape.org/namespaces/inkscape"
   xmlns:sodipodi="http://sodipodi.sourceforge.net/DTD/sodipodi-0.dtd"
   xmlns="http://www.w3.org/2000/svg"
   xmlns:svg="http://www.w3.org/2000/svg">
  <sodipodi:namedview
     id="namedview7"
     pagecolor="#ffffff"
     bordercolor="#000000"
     borderopacity="0.25"
     inkscape:showpageshadow="2"
     inkscape:pageopacity="0.0"
     inkscape:pagecheckerboard="0"
     inkscape:deskcolor="#d1d1d1"
     inkscape:document-units="mm"
     showgrid="false"
     inkscape:zoom="0.47495893"
     inkscape:cx="-191.59551"
     inkscape:cy="395.82369"
     inkscape:window-width="1864"
     inkscape:window-height="1002"
     inkscape:window-x="0"
     inkscape:window-y="0"
     inkscape:window-maximized="1"
     inkscape:current-layer="text186" />
  <defs
     id="defs2" />
  <g
     inkscape:label="Layer 1"
     inkscape:groupmode="layer"
     id="layer1"
     transform="translate(27.458573,-7.7353192)">
    <g
       aria-label="陈泰乐"
       id="text186"
       style="font-weight:bold;font-size:4.5861px;font-family:'Source Han Serif SC';-inkscape-font-specification:'Source Han Serif SC Bold';fill:#ffffff;stroke-linecap:round">
      <rect
         style="fill:none;fill-opacity:1;stroke:#000000;stroke-width:0.999998;stroke-dasharray:none;stroke-opacity:1"
         id="rect3859"
         width="59"
         height="149"
         x="-26.958574"
         y="8.2353182" />
      <rect
         style="font-weight:bold;font-size:4.5861px;font-family:'Source Han Serif SC';-inkscape-font-specification:'Source Han Serif SC Bold';fill:none;fill-opacity:1;stroke:#000000;stroke-width:0.999992;stroke-linecap:round;stroke-dasharray:none;stroke-opacity:1"
         id="rect3859-3"
         width="55.000008"
         height="145"
         x="-24.958578"
         y="10.235314" />
      <path
         d="m 12.139153,42.360748 -0.401571,0.241397 c 1.766946,2.856179 3.65437,6.838719 4.015792,10.338538 4.417373,3.821642 8.593793,-5.591661 -3.614213,-10.579899 z M 5.5130896,43.567581 -0.34996317,41.556192 C -1.5145436,46.584659 -3.6830766,51.452218 -5.931916,54.549758 l 0.4818678,0.362008 c 3.694527,-2.252759 6.9874756,-5.833023 9.3567947,-10.579901 0.9236298,0.08069 1.4456893,-0.28157 1.6063175,-0.764364 z M 9.6895186,21.643443 3.7863017,19.994107 c -0.4417618,1.609109 -1.2448943,4.143457 -2.1685336,6.83872 h -5.5819442 l 0.3212744,1.166605 h 4.818951 c -1.20473814,3.37913 -2.5701041,6.878948 -3.7346845,9.292614 -0.52206,0.281571 -1.0039439,0.603404 -1.3653661,0.88501 l 4.33704856,2.695263 1.36537464,-1.488431 h 4.5378447 v 12.752205 c 0,0.44253 -0.2007855,0.68384 -0.8031413,0.68384 -0.7630365,0 -4.4575304,-0.241397 -4.4575304,-0.241397 v 0.522966 c 1.8874265,0.321833 2.7307425,0.8448 3.2929491,1.528649 0.481868,0.683839 0.6826521,1.810254 0.7228443,3.258448 5.0197447,-0.402268 5.7425807,-2.574573 5.7425807,-5.672114 V 39.383827 h 7.268593 c 0.562251,0 1.003944,-0.201135 1.124416,-0.643665 -1.566161,-1.448203 -4.136265,-3.459592 -4.136265,-3.459592 l -2.289005,2.936633 H 10.813969 V 32.78645 c 1.003953,-0.160872 1.325218,-0.563141 1.405531,-1.086152 L 6.4367544,31.056632 v 7.160544 H 2.0193829 C 3.1438069,35.44146 4.6698093,31.499138 5.9950181,27.999319 H 19.528242 c 0.562251,0 1.003952,-0.201135 1.124424,-0.643665 -1.807111,-1.528649 -4.738636,-3.660725 -4.738636,-3.660725 l -2.610262,3.137766 H 6.4367544 l 1.5260035,-4.384827 c 1.0842653,0.08069 1.5661593,-0.321832 1.7267957,-0.804539 z M -15.569816,21.160739 v 36.768183 h 0.763036 c 2.168523,0 3.493733,-1.126379 3.493733,-1.407976 v -32.34312 h 3.493741 c -0.4417616,3.057305 -1.3653655,7.482359 -2.0480512,9.976479 1.8874232,2.534356 2.6102588,5.390525 2.6102588,8.085789 0,1.206833 -0.2810811,1.850472 -0.7630363,2.172295 -0.2409779,0.160873 -0.4417619,0.201136 -0.8433329,0.201136 -0.4015699,0 -1.5259934,0 -2.1685244,0 v 0.482704 c 0.843334,0.201135 1.4055245,0.563229 1.7267885,1.005689 0.3212739,0.563231 0.4818669,2.212532 0.4818669,3.419365 4.3370574,-0.08069 5.7425896,-2.292986 5.7425896,-6.034164 0,-3.177994 -1.7267968,-6.878957 -5.7827466,-9.45353 1.9677385,-2.333211 4.2969005,-6.315762 5.6622664,-8.689201 0.9236385,0 1.4858462,-0.120698 1.7669544,-0.482704 l -4.3370584,-4.103232 -2.3693182,2.252759 h -2.6905836 z"
         id="path396"
         style="fill:#1d1d1d;fill-opacity:1;stroke-width:0.999998" />
      <path
         d="M 12.111848,72.566282 9.7826873,75.462679 H 1.0282639 c 0.6023566,-1.407976 1.164573,-2.815943 1.6063181,-4.264146 h 15.621436 c 0.56225,0 1.003944,-0.201136 1.124415,-0.643665 -1.766946,-1.488431 -4.537844,-3.540047 -4.537844,-3.540047 L 12.3528,70.0319 H 2.9959957 c 0.2810811,-1.00569 0.5220588,-2.011388 0.7630366,-3.057305 0.9236385,0 1.4456892,-0.362007 1.5661603,-0.965472 l -6.746534,-1.367741 C -1.662319,66.411401 -1.9835933,68.221655 -2.4252852,70.0319 H -14.75377 l 0.321274,1.166606 h 11.7261112 c -0.401571,1.407976 -0.8834733,2.85617 -1.4055236,4.264147 h -9.0756926 l 0.321274,1.126379 h 8.2725348 c -0.6023566,1.488422 -1.3653756,2.976851 -2.2086904,4.384819 h -9.8788514 l 0.321273,1.166606 h 8.7945858 c -2.2890042,3.459591 -5.3811568,6.637586 -9.5174298,9.252386 l 0.321275,0.442531 c 3.172477,-1.247069 5.903216,-2.73549 8.1922199,-4.425054 1.0039435,1.247059 1.9275728,3.017078 2.0882095,4.626188 3.6543703,2.856171 7.6300063,-3.861869 -1.3252075,-5.189383 1.8472587,-1.448194 3.4134186,-3.017077 4.7787847,-4.706652 H 8.1362823 c 2.0480527,4.223921 5.4213257,7.763965 9.5977457,9.614438 0.200785,-1.770018 1.405532,-3.137758 3.333114,-4.264138 l 0.04028,-0.563229 C 16.971153,86.525275 11.911259,85.036845 9.2608312,82.140439 H 19.420785 c 0.602357,0 1.044111,-0.201134 1.124424,-0.643665 -1.766948,-1.568883 -4.73864,-3.741189 -4.73864,-3.741189 l -2.610454,3.218291 H -2.1442127 c 1.0039438,-1.407966 1.88741606,-2.85617 2.61026155,-4.384818 H 15.284325 c 0.602357,0 1.04411,-0.201134 1.124424,-0.643665 -1.646474,-1.407977 -4.296901,-3.379128 -4.296901,-3.379128 z M 5.2448431,83.427779 -0.69853264,82.945073 v 8.930571 C -6.1600052,94.047941 -11.179749,95.978878 -13.589223,96.783436 l 3.7748486,4.022804 c 0.3613787,-0.20113 0.6826524,-0.60341 0.7629484,-1.126388 3.5740557,-2.534357 6.2646398,-4.626215 8.35285006,-6.315786 v 4.42507 c 0,0.482706 -0.16059337,0.643669 -0.72284436,0.643669 -0.7228454,0 -4.3370496,-0.281574 -4.3370496,-0.281574 v 0.522966 c 1.8472596,0.321834 2.570104,0.80455 3.1323117,1.327533 0.5220588,0.6034 0.6826522,1.48844 0.7630364,2.7355 5.019745,-0.40227 5.7024335,-1.93094 5.7024335,-4.948049 v -5.109017 c 3.6945273,2.77572 6.7063673,5.953719 7.9111053,7.723756 4.015794,2.293 7.670164,-4.948036 -5.2606869,-8.327176 1.5661589,-0.764364 3.2126322,-1.729791 4.6583229,-2.695262 0.843334,0.241397 1.445681,0 1.726789,-0.442531 L 7.9354188,85.881644 C 6.9314665,87.973486 5.8070511,90.145783 4.8834126,91.714666 L 3.8393117,91.473271 v -6.95941 c 0.9236291,-0.160872 1.3252089,-0.442532 1.4055226,-1.086143 z"
         id="path398"
         style="fill:#1d1d1d;fill-opacity:1;stroke-width:0.999998" />
      <path
         d="m -2.4328233,132.45379 -5.822894,-2.81593 c -2.2086907,5.79278 -6.0236887,11.14309 -9.5174317,14.28085 l 0.401572,0.40227 c 5.019745,-2.25276 9.7182151,-5.83303 13.2521145,-11.26378 0.8834723,0.16096 1.4858461,-0.1207 1.6866392,-0.60341 z m 10.0796486,-2.53434 -0.4015703,0.28157 c 2.971681,3.4596 6.626052,8.44782 8.111899,12.67175 5.341002,3.58027 8.513479,-7.28122 -7.71032,-12.95334 z M 5.036556,141.38436 v -14.20039 h 13.372585 c 0.602357,0 1.044111,-0.20114 1.164582,-0.64367 -1.887417,-1.60911 -4.939423,-3.94233 -4.939423,-3.94233 l -2.73074,3.4596 H 5.036556 v -8.2467 C 6.0405084,117.65 6.3216077,117.2879 6.4019309,116.72473 l -6.14417014,-0.6034 v 9.93626 H -8.3360313 c 0.7228437,-3.45959 1.7267875,-8.89034 2.2488377,-11.90743 6.98748473,0.12071 14.7781195,-0.24139 20.0388066,-0.80453 1.204738,0.52296 2.128376,0.56322 2.61027,0.16087 l -4.337059,-4.58598 c -3.935477,1.40799 -10.9631108,3.01709 -17.3080642,4.06302 l -5.4614818,-1.2873 c -0.240976,3.01709 -1.526003,10.09718 -2.489789,13.95904 -0.481868,0.28157 -0.963787,0.60341 -1.285052,0.92524 l 4.3772151,2.49413 1.6063166,-1.89072 h 8.59379206 v 13.99928 c 0,0.52295 -0.2007855,0.76435 -0.96378615,0.76435 -0.96379611,0 -5.90321841,-0.32184 -5.90321841,-0.32184 v 0.52297 c 2.3291619,0.362 3.2929482,0.88503 4.0559501,1.52866 0.7228443,0.68384 0.9637949,1.72979 1.124424,3.13777 5.6622677,-0.48271 6.4654257,-2.25276 6.4654257,-5.43076 z"
         id="path400"
         style="fill:#1d1d1d;fill-opacity:1;stroke-width:0.999998" />
    </g>
  </g>
</svg>
