<?xml version="1.0" encoding="UTF-8" standalone="no"?>
<!-- Created with Inkscape (http://www.inkscape.org/) -->

<svg
   width="13.247719mm"
   height="4.3430481mm"
   viewBox="0 0 13.247719 4.3430481"
   version="1.1"
   id="svg5"
   xmlns:inkscape="http://www.inkscape.org/namespaces/inkscape"
   xmlns:sodipodi="http://sodipodi.sourceforge.net/DTD/sodipodi-0.dtd"
   xmlns="http://www.w3.org/2000/svg"
   xmlns:svg="http://www.w3.org/2000/svg">
  <sodipodi:namedview
     id="namedview7"
     pagecolor="#ffffff"
     bordercolor="#000000"
     borderopacity="0.25"
     inkscape:showpageshadow="2"
     inkscape:pageopacity="0.0"
     inkscape:pagecheckerboard="0"
     inkscape:deskcolor="#d1d1d1"
     inkscape:document-units="mm"
     showgrid="false" />
  <defs
     id="defs2" />
  <g
     inkscape:label="Layer 1"
     inkscape:groupmode="layer"
     id="layer1"
     transform="translate(-39.733636,-59.491793)">
    <g
       aria-label="陈泰乐"
       id="text186"
       style="font-weight:bold;font-size:4.5861px;font-family:'Source Han Serif SC';-inkscape-font-specification:'Source Han Serif SC Bold';fill:#ffffff;stroke-linecap:round">
      <path
         d="m 42.898045,62.055428 -0.04586,0.02752 c 0.201788,0.325614 0.417335,0.779637 0.45861,1.178628 0.504471,0.43568 0.981425,-0.637468 -0.412749,-1.206144 z m -0.756707,0.137583 -0.66957,-0.229305 c -0.132997,0.573262 -0.380647,1.12818 -0.637468,1.48131 l 0.05503,0.04127 c 0.421921,-0.256822 0.797981,-0.664984 1.068561,-1.206144 0.10548,0.0092 0.1651,-0.0321 0.183444,-0.08714 z m 0.476955,-2.499425 -0.674157,-0.18803 c -0.05045,0.183444 -0.142169,0.472368 -0.24765,0.779637 h -0.637467 l 0.03669,0.132997 h 0.550332 c -0.137583,0.385232 -0.29351,0.784223 -0.426507,1.059389 -0.05962,0.0321 -0.114652,0.06879 -0.155927,0.100894 l 0.495298,0.307269 0.155928,-0.169686 h 0.518229 v 1.453794 c 0,0.05045 -0.02293,0.07796 -0.09172,0.07796 -0.08714,0 -0.509057,-0.02752 -0.509057,-0.02752 v 0.05962 c 0.215547,0.03669 0.311855,0.09631 0.37606,0.174271 0.05503,0.07796 0.07796,0.206375 0.08255,0.371474 0.573263,-0.04586 0.655812,-0.29351 0.655812,-0.64664 v -1.462966 h 0.830085 c 0.06421,0 0.114652,-0.02293 0.12841,-0.07338 -0.178858,-0.1651 -0.472368,-0.394405 -0.472368,-0.394405 l -0.261408,0.334786 h -0.224719 v -0.619124 c 0.114653,-0.01834 0.151342,-0.0642 0.160514,-0.123825 l -0.660399,-0.07338 v 0.816326 h -0.504471 c 0.128411,-0.316441 0.302683,-0.765879 0.454024,-1.16487 h 1.545516 c 0.06421,0 0.114653,-0.02293 0.128411,-0.07338 -0.206375,-0.174271 -0.54116,-0.417335 -0.54116,-0.417335 l -0.298096,0.357716 h -0.784224 l 0.174272,-0.499885 c 0.123825,0.0092 0.178858,-0.03669 0.197203,-0.09172 z m -2.884657,-0.05503 v 4.191696 h 0.08714 c 0.247649,0 0.39899,-0.128411 0.39899,-0.160514 v -3.687224 h 0.398991 c -0.05045,0.348543 -0.155927,0.853014 -0.233891,1.137352 0.215547,0.288925 0.298096,0.614538 0.298096,0.921807 0,0.137583 -0.0321,0.21096 -0.08714,0.247649 -0.02752,0.01834 -0.05045,0.02293 -0.09631,0.02293 -0.04586,0 -0.174271,0 -0.247649,0 v 0.05503 c 0.09631,0.02293 0.160513,0.06421 0.197202,0.114652 0.03669,0.06421 0.05503,0.252236 0.05503,0.389819 0.495299,-0.0092 0.655813,-0.261408 0.655813,-0.687915 0,-0.362302 -0.197203,-0.784224 -0.660399,-1.077734 0.224719,-0.265994 0.490713,-0.720018 0.64664,-0.990598 0.105481,0 0.169686,-0.01376 0.201789,-0.05503 l -0.495299,-0.467782 -0.27058,0.256822 H 40.27479 Z"
         id="path396" />
      <path
         d="m 47.438275,60.39526 -0.265994,0.330199 h -0.999769 c 0.06879,-0.160514 0.132996,-0.321027 0.183444,-0.486127 h 1.783993 c 0.06421,0 0.114652,-0.02293 0.12841,-0.07338 -0.201788,-0.169686 -0.518229,-0.403577 -0.518229,-0.403577 l -0.284338,0.343957 H 46.39723 c 0.0321,-0.114652 0.05962,-0.229305 0.08714,-0.348543 0.105481,0 0.1651,-0.04127 0.178858,-0.110067 l -0.770465,-0.155927 c -0.02752,0.201788 -0.06421,0.408163 -0.114652,0.614537 h -1.407933 l 0.03669,0.132997 h 1.339141 c -0.04586,0.160514 -0.100894,0.325613 -0.160513,0.486127 h -1.036459 l 0.03669,0.128411 h 0.944737 c -0.06879,0.169685 -0.155928,0.339371 -0.252236,0.499884 h -1.128181 l 0.03669,0.132997 h 1.004356 c -0.261408,0.394405 -0.614537,0.756707 -1.086906,1.054803 l 0.03669,0.05045 c 0.362302,-0.14217 0.674157,-0.311855 0.935565,-0.504471 0.114652,0.142169 0.220132,0.343957 0.238477,0.527401 0.417335,0.325613 0.871359,-0.440266 -0.151341,-0.591607 0.21096,-0.165099 0.389818,-0.343957 0.545745,-0.536574 h 1.274936 c 0.233891,0.481541 0.619124,0.885118 1.096078,1.096078 0.02293,-0.201788 0.160514,-0.357715 0.380647,-0.486126 l 0.0046,-0.06421 c -0.472369,-0.04586 -1.050217,-0.215546 -1.3529,-0.545746 h 1.160283 c 0.06879,0 0.119239,-0.02293 0.128411,-0.07338 -0.201788,-0.178858 -0.54116,-0.426508 -0.54116,-0.426508 L 47.5621,61.353754 h -1.75189 c 0.114652,-0.160513 0.215546,-0.325613 0.298096,-0.499884 h 1.692271 c 0.06879,0 0.119239,-0.02293 0.128411,-0.07338 -0.18803,-0.160514 -0.490713,-0.385232 -0.490713,-0.385232 z m -0.784223,1.238247 -0.678743,-0.05503 v 1.018115 c -0.623709,0.247649 -1.196972,0.467782 -1.472138,0.559504 l 0.431094,0.45861 c 0.04127,-0.02293 0.07796,-0.06879 0.08713,-0.128411 0.408163,-0.288924 0.715432,-0.527401 0.953909,-0.720018 v 0.504471 c 0,0.05503 -0.01834,0.07338 -0.08255,0.07338 -0.08255,0 -0.495298,-0.0321 -0.495298,-0.0321 v 0.05962 c 0.21096,0.03669 0.29351,0.09172 0.357715,0.151341 0.05962,0.06879 0.07796,0.169686 0.08714,0.311855 0.573263,-0.04586 0.651227,-0.220133 0.651227,-0.564091 V 62.68831 c 0.421921,0.316441 0.765878,0.678742 0.903461,0.880531 0.45861,0.261408 0.875945,-0.56409 -0.600779,-0.949323 0.178858,-0.08714 0.366888,-0.197202 0.531988,-0.307269 0.09631,0.02752 0.165099,0 0.197202,-0.05045 l -0.56409,-0.348543 c -0.114653,0.238477 -0.243063,0.486126 -0.348544,0.664984 l -0.119238,-0.02752 v -0.793396 c 0.10548,-0.01834 0.151341,-0.05045 0.160513,-0.123824 z"
         id="path398" />
      <path
         d="M 50.45592,62.197597 49.790936,61.87657 c -0.252236,0.660398 -0.687915,1.27035 -1.086906,1.628065 l 0.04586,0.04586 c 0.573263,-0.256821 1.109836,-0.664984 1.513413,-1.284108 0.100894,0.01835 0.169686,-0.01376 0.192617,-0.06879 z m 1.151112,-0.288924 -0.04586,0.0321 c 0.339371,0.394405 0.756706,0.963081 0.926392,1.444622 0.609951,0.408163 0.972253,-0.830084 -0.880531,-1.476724 z m -0.298097,1.307038 v -1.618893 h 1.527171 c 0.06879,0 0.119239,-0.02293 0.132997,-0.07338 C 52.753557,61.339994 52.405013,61.074 52.405013,61.074 l -0.311855,0.394405 h -0.784223 v -0.940151 c 0.114653,-0.01834 0.146755,-0.05962 0.155928,-0.123824 l -0.701674,-0.06879 v 1.132767 h -0.981425 c 0.08255,-0.394405 0.197202,-1.013528 0.256821,-1.357486 0.797982,0.01376 1.687685,-0.02752 2.288464,-0.09172 0.137583,0.05962 0.243064,0.06421 0.298097,0.01834 l -0.495299,-0.522816 c -0.449438,0.160514 -1.252005,0.343958 -1.976609,0.463196 l -0.62371,-0.146755 c -0.02752,0.343958 -0.174272,1.151111 -0.284338,1.591377 -0.05503,0.0321 -0.110066,0.06879 -0.146755,0.10548 l 0.499885,0.284339 0.183444,-0.215547 h 0.981425 v 1.595963 c 0,0.05962 -0.02293,0.08714 -0.110066,0.08714 -0.110067,0 -0.674157,-0.03669 -0.674157,-0.03669 v 0.05962 c 0.265994,0.04127 0.37606,0.100894 0.463196,0.174272 0.08255,0.07796 0.110067,0.197202 0.128411,0.357716 0.64664,-0.05503 0.738362,-0.256822 0.738362,-0.619124 z"
         id="path400" />
    </g>
  </g>
</svg>
