<?xml version="1.0" standalone="no"?>
<!DOCTYPE svg PUBLIC "-//W3C//DTD SVG 1.1//EN" "http://www.w3.org/Graphics/SVG/1.1/DTD/svg11.dtd" >
<svg>
<metadata>
Created by FontForge 20090622 at Thu Apr 13 02:54:44 2017
 By deploy user
Font software Copyright 1990, 1991, 1998 Adobe Systems Incorporated. Typeface designs Copyright The Monotype Corporation. All rights reserved.
</metadata>
<defs>
<font id="GillSansMTPro-MediumItalic" horiz-adv-x="469" >
  <font-face 
    font-family="Gill Sans MT Pro Medium"
    font-weight="500"
    font-style="italic"
    font-stretch="normal"
    units-per-em="1000"
    panose-1="2 11 6 2 2 1 4 9 2 3"
    ascent="682"
    descent="-318"
    x-height="449"
    cap-height="682"
    bbox="-201 -233 1009 931"
    underline-thickness="50"
    underline-position="-50"
    slope="-8"
    unicode-range="U+0020-U+FB04"
  />
<missing-glyph horiz-adv-x="500" 
d="M12 0v665h475v-665h-475zM88 618l162 -243l161 243h-323zM60 575v-484l40 61l80 120l41 61zM440 575l-162 -242l162 -243v485zM411 48l-161 242l-162 -242h323z" />
    <glyph glyph-name="f_f" unicode="ff" horiz-adv-x="521" 
d="M521 449l-8 -75h-70l-84 -563h-84l84 563h-163l-85 -563h-83l83 563h-74l12 75h72q17 91 31.5 127.5t43.5 65.5q49 49 119 49q76 0 138 -45q61 45 129 45q52 0 91 -21l-13 -72q-46 15 -74 15q-66 0 -103 -56q-20 -28 -30 -108h68zM206 449h161q20 103 37 139
q-41 31 -88 31q-90 0 -110 -170z" />
    <glyph glyph-name="fi" unicode="fi" horiz-adv-x="479" 
d="M299 449l-12 -73h-94l-84 -565h-83l83 565h-66l11 73h65q8 49 13.5 74t20 57t36.5 58q46 53 130 53q10 0 22.5 -1t37 -8.5t43.5 -19.5t33.5 -37.5t14.5 -60.5h-83q-4 23 -20.5 36.5t-28 15.5t-21.5 2q-25 0 -44.5 -10.5t-30 -23.5t-19 -39.5t-12 -44t-8.5 -51.5h96z
M452 449l-65 -449h-85l67 449h83z" />
    <glyph glyph-name="fl" unicode="fl" horiz-adv-x="479" 
d="M302 449l-14 -74h-93l-86 -564h-83l83 564h-65l11 74h64l6.5 39.5t10 43.5t16 47t23.5 42t33.5 37t46 23.5t60.5 9.5q29 0 51 -9l-10 -69q-25 5 -37 5q-57 0 -81.5 -44t-33.5 -125h98zM489 682l-102 -682h-85l101 682h86z" />
    <glyph glyph-name="f_f_i" unicode="ffi" horiz-adv-x="729" 
d="M551 449l-11 -75h-93l-86 -563h-83l83 563h-164l-83 -563h-83l83 563h-73l11 75h73l13.5 73.5t15 50.5t25.5 48q52 70 133 70q79 0 135 -44q54 44 121 44q21 0 44.5 -5.5t50 -18.5t43 -40t16.5 -64h-83q-14 53 -73 53q-95 0 -110 -167h95zM209 449h162q9 85 37 138
q-48 31 -87 31q-57 0 -87 -61q-15 -32 -25 -108zM705 449l-67 -449h-87l70 449h84z" />
    <glyph glyph-name="f_f_l" unicode="ffl" horiz-adv-x="729" 
d="M552 449l-14 -75h-95l-83 -563h-84l84 563h-164l-84 -563h-83l83 563h-74l12 75h73q11 88 39 145q21 43 63 70t90 27q73 0 136 -44q46 44 114 44q30 0 51 -9l-11 -70q-18 4 -34 4q-61 0 -85.5 -42.5t-34.5 -124.5h101zM208 449h161q13 84 36 138q-44 30 -89 30
q-24 0 -47.5 -16t-35.5 -44q-15 -36 -25 -108zM737 682l-101 -682h-84l101 682h84z" />
    <glyph glyph-name=".notdef" horiz-adv-x="500" 
d="M12 0v665h475v-665h-475zM88 618l162 -243l161 243h-323zM60 575v-484l40 61l80 120l41 61zM440 575l-162 -242l162 -243v485zM411 48l-161 242l-162 -242h323z" />
    <glyph glyph-name=".null" horiz-adv-x="0" 
 />
    <glyph glyph-name="nonmarkingreturn" horiz-adv-x="333" 
 />
    <glyph glyph-name="space" unicode=" " horiz-adv-x="278" 
 />
    <glyph glyph-name="exclam" unicode="!" horiz-adv-x="250" 
d="M130 165h-37q10 76 29 375q8 151 66 151q16 0 28 -13.5t12 -42.5q0 -46 -31 -171q-34 -133 -45 -189q-9 -40 -22 -110zM149 41q0 -21 -16 -38t-40 -17q-22 0 -38 16t-16 38t15.5 38t38.5 16q24 0 40 -16.5t16 -36.5z" />
    <glyph glyph-name="quotedbl" unicode="&#x22;" horiz-adv-x="355" 
d="M88 429l6 134l26 119h100l-26 -119l-51 -134h-55zM251 429l6 134l25 119h100l-25 -119l-52 -134h-54z" />
    <glyph glyph-name="numbersign" unicode="#" horiz-adv-x="584" 
d="M57 410h155l41 195h72l-41 -195h194l41 195h71l-41 -195h92v-69h-106l-35 -170h141v-71h-155l-41 -193h-71l40 193h-195l-40 -193h-71l40 193h-91v71h106l34 170h-140v69zM464 341h-195l-35 -170h195z" />
    <glyph glyph-name="dollar" unicode="$" horiz-adv-x="500" 
d="M483 604l-13 -90q-63 41 -130 53l-30 -214q152 -80 152 -185q0 -84 -73 -134q-47 -34 -131 -43l-14 -101h-75l15 101q-89 15 -144 54l14 98q70 -45 143 -64l30 214q-74 43 -112 83t-38 101q0 69 56 119.5t145 54.5l6 40h74l-6 -40q80 -11 131 -47zM242 395l24 175
q-33 -5 -55 -17t-30 -27t-10.5 -24t-2.5 -16q0 -47 74 -91zM296 254l-26 -181q46 4 74 29t28 58q0 53 -76 94z" />
    <glyph glyph-name="percent" unicode="%" horiz-adv-x="708" 
d="M531 297q62 0 107 -44.5t45 -107.5t-45 -107.5t-107 -44.5q-63 0 -108 44.5t-45 107.5t45 107.5t108 44.5zM530 223q-32 0 -55 -22.5t-23 -55.5t23 -56t55 -23q33 0 56 23t23 56t-23 55.5t-56 22.5zM209 690q63 0 107.5 -45t44.5 -108q0 -62 -44.5 -107t-107.5 -45
t-107.5 45t-44.5 107q0 64 44.5 108.5t107.5 44.5zM208 616q-32 0 -55.5 -23t-23.5 -56q0 -32 23.5 -55.5t55.5 -23.5q33 0 56 23.5t23 55.5q0 33 -23.5 56t-55.5 23zM630 692l-449 -701h-75l449 701h75z" />
    <glyph glyph-name="ampersand" unicode="&#x26;" horiz-adv-x="688" 
d="M669 66l-33 -70q-7 -5 -19 -5q-78 0 -151 75q-98 -75 -210 -75q-57 0 -98 20.5t-60.5 52.5t-28 60t-8.5 53q0 72 48 126t111 81q-38 86 -38 144q0 65 44.5 114t111.5 49q65 0 100 -43.5t35 -95.5q0 -38 -14.5 -71t-41.5 -58.5t-44 -38t-44 -28.5q48 -82 137 -184
q67 67 109 171h88q-62 -150 -139 -223q57 -57 124 -57q12 0 21 3zM291 423q18 9 36.5 22.5t39 42t20.5 59.5q0 28 -15.5 48t-42.5 20q-26 0 -46 -24t-20 -65q0 -43 28 -103zM408 118q-92 102 -149 196q-106 -59 -106 -137q0 -51 38 -81.5t81 -30.5q59 0 136 53z" />
    <glyph glyph-name="quotesingle" unicode="'" horiz-adv-x="191" 
d="M87 429l6 134l26 119h100l-26 -119l-51 -134h-55z" />
    <glyph glyph-name="parenleft" unicode="(" horiz-adv-x="292" 
d="M196 -230h-42q-11 19 -29.5 59t-44.5 137t-26 188q0 189 117 377q16 26 52 78t64 82h47q-70 -90 -124 -217q-40 -94 -58.5 -209.5t-18.5 -190.5q0 -169 63 -304z" />
    <glyph glyph-name="parenright" unicode=")" horiz-adv-x="292" 
d="M83 691h41q10 -18 21.5 -43.5t32 -79.5t34 -123.5t13.5 -137.5q0 -188 -117 -378q-70 -110 -117 -159h-47q72 91 124 217q40 95 58.5 210.5t18.5 189.5q0 170 -62 304z" />
    <glyph glyph-name="asterisk" unicode="*" horiz-adv-x="448" 
d="M285 528l85 80q25 25 46 25q13 0 22 -10t9 -25q0 -18 -10.5 -28t-37.5 -18l-107 -39q2 -8 2 -12q0 -5 -2 -11l101 -35q55 -21 55 -51q0 -10 -9 -22t-24 -12q-22 0 -56 34l-74 72q-8 -10 -19 -10l19 -103q5 -25 5 -46q0 -42 -35 -42q-16 0 -24 13t-8 30q0 18 3 28
q4 12 5 17l19 103q-9 0 -19 10l-78 -72q-36 -33 -55 -33q-16 0 -24 11.5t-8 21.5q0 13 11 24t21.5 16t27.5 11l99 35q-2 4 -2 12q0 6 2 11l-113 42q-44 15 -44 42q0 15 10.5 26t23.5 11q15 0 44 -26l85 -80q9 9 19 10l-19 101q-6 31 -6 45q0 19 8 30q9 12 26 12q33 0 33 -39
q0 -13 -7 -48l-19 -101q13 0 19 -10z" />
    <glyph glyph-name="plus" unicode="+" horiz-adv-x="584" 
d="M266 105v195h-195v82h195v195h82v-195h196v-82h-196v-195h-82z" />
    <glyph glyph-name="comma" unicode="," horiz-adv-x="198" 
d="M-24 -144l6 44q66 21 66 86q-39 17 -39 52q0 27 18.5 42.5t42.5 15.5q29 0 47 -22.5t18 -55.5q0 -49 -38.5 -96.5t-120.5 -65.5z" />
    <glyph glyph-name="hyphen" unicode="-" horiz-adv-x="250" 
d="M250 265l-12 -85h-238l12 85h238z" />
    <glyph glyph-name="period" unicode="." horiz-adv-x="198" 
d="M68 109q23 0 41.5 -17.5t18.5 -43.5t-18 -44t-42 -18t-41.5 18t-17.5 43q0 27 17.5 44.5t41.5 17.5z" />
    <glyph glyph-name="slash" unicode="/" horiz-adv-x="281" 
d="M-30 -9l295 700h74l-294 -700h-75z" />
    <glyph glyph-name="zero" unicode="0" horiz-adv-x="521" 
d="M501 449q0 -66 -14.5 -140t-45 -148t-86.5 -122t-129 -48q-94 0 -137 73q-38 62 -38 165q0 56 9 115.5t30 122.5t51.5 112t79 80.5t106.5 31.5q99 0 146 -91q28 -58 28 -151zM409 435q0 23 -0.5 36.5t-4.5 43t-12 47t-25.5 32.5t-42.5 15q-52 0 -95.5 -66.5t-64.5 -151.5
t-21 -157q0 -163 88 -163q52 0 95 70t63 152t20 142z" />
    <glyph glyph-name="one" unicode="1" horiz-adv-x="521" 
d="M373 682l-107 -682h-90l108 682h89z" />
    <glyph glyph-name="two" unicode="2" horiz-adv-x="521" 
d="M183 82h260l-12 -82h-414q19 19 104.5 127.5t127.5 168.5q34 48 53 77.5t40.5 75t21.5 74.5q0 38 -27 59.5t-70 21.5q-69 0 -149 -57l14 97q78 47 153 47q76 0 121 -46t45 -111q0 -57 -25.5 -111.5t-78.5 -129.5q-57 -80 -164 -211z" />
    <glyph glyph-name="three" unicode="3" horiz-adv-x="521" 
d="M24 29l12 81q81 -38 150 -38q76 0 111.5 39t35.5 90q0 60 -40.5 87t-85.5 24l11 79q55 7 80 20q72 36 72 104q0 50 -34.5 72t-71.5 22q-71 0 -135 -42l13 94q68 30 137 30q78 0 132.5 -44.5t54.5 -127.5q0 -119 -133 -168q45 -19 68.5 -57.5t23.5 -89.5q0 -83 -60 -148
t-173 -65q-82 0 -168 38z" />
    <glyph glyph-name="four" unicode="4" horiz-adv-x="521" 
d="M455 691l-63 -408h99l-12 -73h-100l-33 -210h-87l36 210h-256v39l362 442h54zM306 283l34 215l-180 -215h146z" />
    <glyph glyph-name="five" unicode="5" horiz-adv-x="521" 
d="M477 682l-15 -84h-196l-27 -171q99 -5 147 -62t48 -134q0 -41 -14 -81.5t-43 -77t-80.5 -59t-117.5 -22.5q-97 0 -164 51l31 79q60 -47 134 -47q70 0 115 43t45 109q0 59 -39.5 90t-99.5 31q-33 0 -63 -8l61 343h278z" />
    <glyph glyph-name="six" unicode="6" horiz-adv-x="521" 
d="M414 682l-196 -288q41 23 91 23q74 0 117.5 -47.5t43.5 -117.5q0 -100 -68 -180.5t-167 -80.5q-84 0 -132.5 57t-48.5 142q0 50 20.5 105t42 90t64.5 99l133 198h100zM382 240q0 39 -24 68t-73 29q-63 0 -102.5 -46.5t-39.5 -104.5q0 -43 25.5 -76t73.5 -33
q61 0 100.5 50.5t39.5 112.5z" />
    <glyph glyph-name="seven" unicode="7" horiz-adv-x="521" 
d="M528 682v-6l-319 -685h-93l279 606h-274l12 85h395z" />
    <glyph glyph-name="eight" unicode="8" horiz-adv-x="521" 
d="M376 356q91 -36 91 -141q0 -88 -63.5 -156t-171.5 -68q-88 0 -140 54t-52 132q0 91 61 146q33 29 85 44q-77 49 -77 131q0 79 57.5 136t146.5 57q80 0 129.5 -49t49.5 -120q0 -29 -8 -57t-36 -60.5t-72 -48.5zM404 515q0 40 -25.5 66.5t-68.5 26.5q-49 0 -81.5 -35
t-32.5 -80q0 -42 27 -67.5t69 -25.5q54 0 83 38t29 77zM377 211q0 52 -31.5 79t-77.5 27q-61 0 -99.5 -42t-38.5 -98q0 -52 35 -78t76 -26q54 0 95 39.5t41 98.5z" />
    <glyph glyph-name="nine" unicode="9" horiz-adv-x="521" 
d="M134 0l196 288q-41 -23 -91 -23q-74 0 -117.5 47.5t-43.5 117.5q0 100 68 180.5t167 80.5q84 0 132.5 -57t48.5 -142q0 -50 -21 -106t-41.5 -89l-64.5 -99l-133 -198h-100zM166 442q0 -39 24 -68t73 -29q63 0 102.5 46.5t39.5 104.5q0 43 -25.5 76t-73.5 33
q-61 0 -100.5 -50.5t-39.5 -112.5z" />
    <glyph glyph-name="colon" unicode=":" horiz-adv-x="198" 
d="M180 408q0 -23 -15.5 -40.5t-38.5 -17.5q-22 0 -39 17t-17 40t16 39.5t39 16.5q24 0 39.5 -16t15.5 -39zM127 40q0 -22 -16 -38t-40 -16q-23 0 -38 16t-15 39t15.5 38.5t37.5 15.5q24 0 40 -16t16 -39z" />
    <glyph glyph-name="semicolon" unicode=";" horiz-adv-x="198" 
d="M-10 -144l6 44q66 22 66 86q-40 17 -40 52q0 27 19 42.5t42 15.5q29 0 47.5 -22.5t18.5 -55.5q0 -49 -39 -96.5t-120 -65.5zM190 408q0 -23 -15 -40.5t-38 -17.5t-40 17t-17 40t16 39.5t39 16.5q24 0 39.5 -16t15.5 -39z" />
    <glyph glyph-name="less" unicode="&#x3c;" horiz-adv-x="584" 
d="M71 301v82l473 200v-87l-376 -154l376 -156v-87z" />
    <glyph glyph-name="equal" unicode="=" horiz-adv-x="584" 
d="M544 191h-473v82h473v-82zM544 409h-473v82h473v-82z" />
    <glyph glyph-name="greater" unicode="&#x3e;" horiz-adv-x="584" 
d="M544 381v-82l-473 -200v87l376 154l-376 156v87z" />
    <glyph glyph-name="question" unicode="?" horiz-adv-x="354" 
d="M157 166h-55q2 81 28 137.5t76 114.5q36 42 51.5 67.5t15.5 50.5q0 34 -21.5 53.5t-50.5 19.5q-49 0 -113 -56l14 100q58 38 113 38q63 0 104.5 -41t41.5 -108q0 -35 -13.5 -66.5t-29.5 -51.5t-54 -62q-48 -53 -72.5 -93t-34.5 -103zM169 40q0 -22 -15.5 -38t-38.5 -16
q-24 0 -39.5 16t-15.5 38q0 21 16 37t38 16q23 0 39 -15.5t16 -37.5z" />
    <glyph glyph-name="at" unicode="@" horiz-adv-x="1010" 
d="M651 418l16 76h88l-71 -328q-14 -70 -14 -76q0 -15 11 -23.5t22 -8.5q21 0 52.5 19.5t62.5 52.5t52.5 86.5t21.5 112.5q0 135 -101.5 221.5t-247.5 86.5q-123 0 -217.5 -59.5t-142 -154.5t-47.5 -207q0 -84 25 -150t65 -107.5t96 -68.5t113.5 -38t121.5 -11
q75 0 137.5 15.5t102.5 40.5t63.5 46.5t39.5 44.5h88q-7 -15 -19.5 -34t-48 -54.5t-80 -62.5t-119.5 -48t-163 -21q-128 0 -225 36t-154.5 98t-86 139t-28.5 167q0 42 7 87t24 94.5t42 94.5t64.5 86.5t88 71.5t115 48t143.5 18q99 0 180 -32.5t131.5 -87t78 -122
t27.5 -139.5q0 -111 -54 -191.5t-119 -122.5q-55 -36 -122 -36q-30 0 -50 7.5t-28.5 22t-11 24.5t-4.5 27q-69 -81 -149 -81q-76 0 -126.5 63.5t-50.5 155.5q0 74 34 146t93 119t126 47q93 0 148 -90zM340 189q0 -64 31.5 -101.5t72.5 -37.5q67 0 123 74.5t56 171.5
q0 66 -33 103t-80 37q-52 0 -93 -44t-59 -99t-18 -104z" />
    <glyph glyph-name="A" unicode="A" horiz-adv-x="521" 
d="M352 686l133 -686h-84l-41 214h-214l-90 -214h-91l301 686h86zM346 286l-53 280l-117 -280h170z" />
    <glyph glyph-name="B" unicode="B" horiz-adv-x="530" 
d="M135 682h79q84 0 129 -16q45 -18 77 -54.5t32 -95.5q0 -34 -10 -60t-29 -43t-29.5 -24t-26.5 -15q72 -25 106 -72.5t34 -106.5q0 -61 -33 -106.5t-90 -68.5q-52 -20 -138 -20h-198zM214 604l-27 -195q45 -2 85 4q42 8 63.5 36.5t21.5 63.5q0 103 -143 91zM139 76h45
q99 0 135 9q36 10 60.5 38.5t24.5 69.5q0 42 -27 78t-71 52q-32 11 -130 11z" />
    <glyph glyph-name="C" unicode="C" horiz-adv-x="550" 
d="M570 691l-18 -86q-122 2 -210 -27q-57 -19 -99 -55t-64.5 -79.5t-32.5 -84.5t-10 -79q0 -91 48 -147t123 -56q105 0 211 84l-13 -110q-103 -60 -203 -60q-108 0 -185.5 75t-77.5 213q0 17 2 35.5t8 55t21.5 71.5t39 73t65 72t94.5 58q114 52 301 47z" />
    <glyph glyph-name="D" unicode="D" horiz-adv-x="656" 
d="M136 682h86q183 0 289 -90t106 -252q0 -198 -148 -291q-36 -22 -83 -33.5t-81.5 -13.5t-88.5 -2h-177zM142 81h41q133 0 195 23q67 26 105 89.5t38 146.5q0 159 -135 227q-42 22 -78.5 27.5t-91.5 5.5z" />
    <glyph glyph-name="E" unicode="E" horiz-adv-x="510" 
d="M498 682l-11 -81h-273l-30 -214h241l-11 -81h-242l-33 -225h359l-12 -81h-448l99 682h361z" />
    <glyph glyph-name="F" unicode="F" horiz-adv-x="417" 
d="M455 682l-11 -81h-237l-30 -212h218l-12 -83h-218l-43 -306h-91l99 682h325z" />
    <glyph glyph-name="G" unicode="G" horiz-adv-x="604" 
d="M578 299l-35 -248q-113 -60 -225 -60q-129 0 -206.5 86.5t-77.5 213.5q0 85 35.5 161.5t90.5 126.5q124 112 345 112q65 0 116 -9l-12 -82q-47 8 -107 8q-174 0 -271.5 -88.5t-97.5 -224.5q0 -99 54.5 -160.5t134.5 -61.5q70 0 137 33l17 118h-98l11 75h189z" />
    <glyph glyph-name="H" unicode="H" horiz-adv-x="698" 
d="M686 682l-94 -682h-94l43 302h-369l-42 -302h-95l95 682h95l-42 -296h370l39 296h94z" />
    <glyph glyph-name="I" unicode="I" horiz-adv-x="240" 
d="M229 682l-95 -682h-95l95 682h95z" />
    <glyph glyph-name="J" unicode="J" horiz-adv-x="240" 
d="M234 682l-100 -699q-5 -34 -8.5 -54.5t-16.5 -54.5t-30.5 -54t-50.5 -35.5t-76 -15.5q-32 0 -63 7l-24 87q40 -8 70 -8q56 0 77 27t30 90l101 710h91z" />
    <glyph glyph-name="K" unicode="K" horiz-adv-x="563" 
d="M589 682l-314 -315l289 -367h-107l-280 357l-53 -357h-90l97 682h90l-44 -294l292 294h120z" />
    <glyph glyph-name="L" unicode="L" horiz-adv-x="417" 
d="M221 682l-89 -605h280l-11 -77h-367l98 682h89z" />
    <glyph glyph-name="M" unicode="M" horiz-adv-x="813" 
d="M731 682l17 -682h-88l-7 517l-276 -517l-120 524l-169 -524h-89l225 682h79l106 -462l244 462h78z" />
    <glyph glyph-name="N" unicode="N" horiz-adv-x="688" 
d="M678 682l-97 -682h-48l-338 498l-71 -498h-85l97 682h45l341 -502l71 502h85z" />
    <glyph glyph-name="O" unicode="O" horiz-adv-x="656" 
d="M625 409q0 -17 -2.5 -42t-10.5 -68t-28.5 -92t-50.5 -89q-40 -54 -101 -90.5t-138 -36.5q-100 0 -172 76.5t-72 212.5q0 96 38 188.5t116 157.5t176 65q56 0 100 -19.5t70.5 -49.5t44 -69.5t24 -74.5t6.5 -69zM527 417q0 12 -1 23.5t-4.5 37.5t-13 46.5t-24.5 42
t-42 33.5t-62 12q-57 0 -104 -34.5t-74 -88t-41.5 -112t-14.5 -114.5q0 -99 45 -147t106 -48q69 0 123 53t80.5 131.5t26.5 164.5z" />
    <glyph glyph-name="P" unicode="P" horiz-adv-x="448" 
d="M128 682h95q89 0 136 -18q43 -18 76 -58t33 -109q0 -64 -33 -117t-92 -75q-44 -17 -124 -17h-52l-39 -288h-95zM212 602l-33 -233q50 -3 84 1q35 4 59 19t34 36.5t14 38.5t4 33q0 28 -19 58t-61 41q-26 6 -82 6z" />
    <glyph glyph-name="Q" unicode="Q" horiz-adv-x="656" 
d="M627 0h11q0 -15 -2 -33.5t-12.5 -49t-27 -54t-49.5 -41t-77 -17.5q-89 0 -158 77q-32 35 -64 118q-63 15 -102 49q-96 80 -96 237q0 55 14 111.5t42 109t67 93.5t93.5 66t116.5 25q112 0 175 -78t63 -208q0 -90 -27 -171t-90.5 -146.5t-154.5 -87.5q20 -55 60 -83.5
t81 -28.5q60 0 105 51q18 21 32 61zM528 416q0 88 -38.5 140.5t-107.5 52.5q-60 0 -107.5 -35.5t-74.5 -90t-41 -112.5t-14 -112q0 -95 43.5 -145t107.5 -50q72 0 126.5 56t80 134.5t25.5 161.5z" />
    <glyph glyph-name="R" unicode="R" horiz-adv-x="531" 
d="M131 682h124q99 0 145 -25q87 -49 87 -154q0 -61 -34.5 -108t-105.5 -65q21 -14 35.5 -37t34.5 -65l109 -228h-98q-64 135 -69 143q-25 51 -40.5 77.5t-30 46.5t-32 26t-34.5 8t-50 1l-41 -302h-94zM251 603h-36l-32 -220q85 0 106 4q53 10 77.5 43t24.5 73
q0 28 -11 48.5t-25 30t-36.5 15t-35 6t-32.5 0.5z" />
    <glyph glyph-name="S" unicode="S" horiz-adv-x="458" 
d="M440 664l-14 -93q-51 36 -111 36q-58 0 -93.5 -26.5t-35.5 -71.5q0 -24 13.5 -47.5t27.5 -37t41 -34.5q39 -31 57.5 -48t44 -45.5t36.5 -59t11 -65.5q0 -72 -53 -126.5t-149 -54.5q-84 0 -165 49l14 100q33 -29 77.5 -46.5t80.5 -17.5q38 0 70.5 22.5t32.5 64.5
q0 38 -25.5 67.5t-88.5 80.5q-22 18 -36.5 31t-36 39t-33 57.5t-11.5 66.5q0 80 64.5 133t157.5 53q62 0 124 -27z" />
    <glyph glyph-name="T" unicode="T" horiz-adv-x="510" 
d="M554 682l-13 -86h-188l-85 -596h-93l85 596h-193l13 86h474z" />
    <glyph glyph-name="U" unicode="U" horiz-adv-x="635" 
d="M636 682l-58 -406q-16 -112 -53 -170q-75 -115 -230 -115q-114 0 -173.5 61.5t-59.5 148.5q0 35 6 75l57 406h92l-62 -432q-3 -18 -3 -50q0 -49 37.5 -87t110.5 -38q55 0 94.5 23.5t58.5 58.5q19 33 34 128l56 397h93z" />
    <glyph glyph-name="V" unicode="V" horiz-adv-x="510" 
d="M565 682l-332 -686h-36l-133 686h88l90 -476l229 476h94z" />
    <glyph glyph-name="W" unicode="W" horiz-adv-x="927" 
d="M986 682l-329 -686h-36l-132 482l-231 -482h-37l-161 686h86l112 -483l231 483h35l133 -491l234 491h95z" />
    <glyph glyph-name="X" unicode="X" horiz-adv-x="667" 
d="M703 682l-292 -331l222 -351h-107l-177 281l-245 -281h-122l317 361l-202 321h104l161 -251l222 251h119z" />
    <glyph glyph-name="Y" unicode="Y" horiz-adv-x="490" 
d="M549 682l-238 -342l-49 -340h-91l49 340l-161 342h95l117 -250l174 250h104z" />
    <glyph glyph-name="Z" unicode="Z" horiz-adv-x="583" 
d="M647 682l-497 -597h404l-12 -85h-574l495 597h-388l12 85h560z" />
    <glyph glyph-name="bracketleft" unicode="[" horiz-adv-x="333" 
d="M377 682l-10 -67h-128l-110 -769h129l-10 -67h-211l129 903h211z" />
    <glyph glyph-name="backslash" unicode="\" horiz-adv-x="281" 
d="M174 -9l-98 700h67l97 -700h-66z" />
    <glyph glyph-name="bracketright" unicode="]" horiz-adv-x="333" 
d="M-49 -221l9 67h129l109 769h-128l9 67h211l-128 -903h-211z" />
    <glyph glyph-name="asciicircum" unicode="^" 
d="M134 291h-90l172 391h71l173 -391h-88l-121 292z" />
    <glyph glyph-name="underscore" unicode="_" horiz-adv-x="500" 
d="M-6 -75h512v-50h-512v50z" />
    <glyph glyph-name="grave" unicode="`" horiz-adv-x="333" 
d="M210 657l68 -146h-56l-113 146h101z" />
    <glyph glyph-name="a" unicode="a" 
d="M446 449l-64 -449h-84l7 54q-60 -60 -123 -60q-67 0 -107 54.5t-40 116.5q0 17 2.5 38t9.5 53t25.5 65.5t44.5 59.5q82 82 222 82q59 0 107 -14zM316 132l37 257q-62 4 -108 -14.5t-68.5 -45t-35.5 -62t-15 -54.5t-2 -33q0 -52 25 -85.5t63 -33.5q31 0 60 24.5t44 46.5z
" />
    <glyph glyph-name="b" unicode="b" horiz-adv-x="471" 
d="M213 682l-39 -269q53 50 110 50q74 0 116.5 -59t42.5 -146q0 -121 -76 -197q-76 -75 -222 -75q-67 0 -115 7l93 689h90zM163 332l-40 -276q3 0 14.5 -0.5t19.5 -0.5q66 0 106 22q92 53 92 183q0 71 -30.5 99.5t-67.5 28.5q-26 0 -57 -15t-37 -41z" />
    <glyph glyph-name="c" unicode="c" horiz-adv-x="385" 
d="M400 455l-11 -75q-42 7 -65 7q-98 0 -151 -61t-53 -133q0 -12 2 -26t10 -33.5t20 -34.5t36 -26t55 -11q64 0 125 46l-13 -90q-59 -32 -125 -32q-54 0 -94.5 19.5t-62 51t-31.5 65.5t-10 70q0 46 16.5 91.5t50 87t93 67t136.5 25.5q34 0 72 -8z" />
    <glyph glyph-name="d" unicode="d" horiz-adv-x="471" 
d="M480 682l-98 -682q-56 -14 -115 -14q-116 0 -176 56q-60 57 -60 146q0 80 50 153t134 103q57 20 148 18l31 220h86zM305 58l48 334q-67 0 -104 -14q-64 -22 -96.5 -74.5t-32.5 -111.5t36 -98t111 -39q23 0 38 3z" />
    <glyph glyph-name="e" unicode="e" horiz-adv-x="438" 
d="M389 125l-13 -89q-70 -50 -149 -50q-86 0 -137.5 60t-51.5 153q0 110 59.5 187t150.5 77q71 0 117 -51.5t46 -134.5q0 -24 -4 -44h-281q-2 -32 -2 -44q0 -60 33 -96.5t77 -36.5q64 0 155 69zM140 292h188q1 48 -21.5 75t-58.5 27q-73 0 -108 -102z" />
    <glyph glyph-name="f" unicode="f" horiz-adv-x="271" 
d="M287 449l-11 -76h-91l-72 -562h-83l71 562h-71l11 76h72q9 103 48 159q58 83 167 83q49 0 109 -21l-12 -84q-45 25 -92 25q-64 0 -97.5 -45t-39.5 -117h91z" />
    <glyph glyph-name="g" unicode="g" horiz-adv-x="427" 
d="M445 449l-9 -67h-87q30 -44 30 -90t-20.5 -85.5t-57.5 -61.5q-17 -10 -36.5 -17t-33 -9.5t-46.5 -7.5q-3 0 -17 -3.5t-31 -13t-17 -22.5q0 -16 22.5 -25t79.5 -22q145 -37 145 -127q0 -48 -46.5 -88.5t-137.5 -40.5q-77 0 -135.5 31.5t-58.5 82.5q0 23 12 40t36 28
t39.5 16t41.5 11q-15 6 -23 10t-23.5 13.5t-23.5 24t-8 31.5q0 27 25 50t64 34q-81 38 -81 129q0 27 8 57t37.5 65.5t76.5 48.5q26 8 76 8h199zM298 289q0 41 -23.5 66t-55.5 25q-41 0 -65.5 -34.5t-24.5 -72.5q0 -36 22.5 -62.5t57.5 -26.5q38 0 63.5 31.5t25.5 73.5z
M186 -46q-117 -27 -117 -70q0 -24 36 -37.5t80 -13.5q49 0 74 17t25 39q0 21 -28 38t-70 27z" />
    <glyph glyph-name="h" unicode="h" 
d="M203 682l-44 -307q80 88 161 88q40 0 71 -30t31 -91q0 -28 -5 -57l-40 -285h-86l41 292q4 21 4 41q0 27 -11 42q-16 22 -41 22q-37 0 -82 -45q-33 -33 -54 -60l-43 -292h-85l98 682h85z" />
    <glyph glyph-name="i" unicode="i" horiz-adv-x="188" 
d="M171 449l-64 -449h-85l64 449h85zM196 592q0 -18 -13.5 -33t-34.5 -15t-35 14.5t-14 33.5t14 33t34 14q21 0 35 -14t14 -33z" />
    <glyph glyph-name="j" unicode="j" horiz-adv-x="183" 
d="M163 449l-64 -505q-9 -69 -23 -97q-40 -78 -132 -78q-27 0 -55 10l11 75q17 -5 37 -5q18 0 32 6.5t21 15t12.5 24.5t7.5 26.5t4 29.5l64 498h85zM188 593q0 -18 -13 -32t-34 -14q-20 0 -34 14t-14 32t13.5 32t33.5 14q21 0 34.5 -14.5t13.5 -31.5z" />
    <glyph glyph-name="k" unicode="k" horiz-adv-x="458" 
d="M204 682l-63 -428l192 195h114l-206 -212l217 -237h-111l-206 228l-34 -228h-84l97 682h84z" />
    <glyph glyph-name="l" unicode="l" horiz-adv-x="188" 
d="M204 682l-97 -682h-85l97 682h85z" />
    <glyph glyph-name="m" unicode="m" horiz-adv-x="740" 
d="M170 449l-11 -80q78 87 157 87q37 0 66 -23.5t37 -76.5q78 100 167 100q40 0 73 -27.5t33 -95.5q0 -23 -6 -67l-38 -266h-85l41 285q3 33 3 38q0 38 -15 52.5t-33 14.5q-34 0 -72 -32.5t-68 -72.5l-42 -285h-85l35 245q7 53 7 81q0 36 -16.5 49.5t-35.5 13.5
q-55 0 -135 -104l-41 -285h-84l64 449h84z" />
    <glyph glyph-name="n" unicode="n" horiz-adv-x="471" 
d="M172 449l-12 -81q75 88 150 88q59 0 86 -42t27 -89q0 -20 -5 -55l-41 -270h-85l36 270q5 35 5 54q0 23 -13.5 42.5t-37.5 19.5q-26 0 -58.5 -24t-49.5 -43.5t-26 -32.5l-41 -286h-85l64 449h86z" />
    <glyph glyph-name="o" unicode="o" horiz-adv-x="448" 
d="M418 266q0 -133 -65.5 -206.5t-150.5 -73.5q-63 0 -109 41q-57 52 -57 160q0 131 67 203.5t149 72.5q74 0 120 -53.5t46 -143.5zM331 271q0 50 -20 85.5t-60 35.5q-55 0 -91.5 -64.5t-36.5 -161.5q0 -58 26 -86t52 -28q41 0 72 36t44.5 84.5t13.5 98.5z" />
    <glyph glyph-name="p" unicode="p" horiz-adv-x="490" 
d="M208 563l-16 -114q28 9 48 12q13 2 31 2q60 0 103 -35t61.5 -82t18.5 -96q0 -83 -48 -151.5t-122 -95.5q-52 -18 -159 -16l-31 -208h-82l82 559q-38 -29 -65 -71q-8 -11 -11 -11q-4 0 -4 6q0 19 20 55q22 39 66 83l25 163h83zM183 386l-47 -328q12 -2 30 -2q54 0 95 19
t63 50t32.5 63t10.5 64q0 67 -38.5 107t-89.5 40q-22 0 -56 -13z" />
    <glyph glyph-name="q" unicode="q" 
d="M445 462l-96 -683h-87l33 234q-54 -27 -97 -27q-76 0 -122 58.5t-46 142.5q0 37 10 75.5t40 82.5t77 71q79 46 225 46h63zM304 76l45 317q-69 0 -117 -18q-57 -23 -85.5 -77t-28.5 -116q0 -67 35.5 -97.5t78.5 -30.5q26 0 72 22z" />
    <glyph glyph-name="r" unicode="r" horiz-adv-x="313" 
d="M184 449l-13 -96q53 103 122 103q16 0 37 -7v-96q-28 15 -51 15q-46 0 -92 -64q-19 -27 -30 -51l-36 -253h-85l64 449h84z" />
    <glyph glyph-name="s" unicode="s" horiz-adv-x="354" 
d="M323 413v-89q-78 59 -137 59q-26 0 -42.5 -12.5t-16.5 -31.5q0 -12 12 -26.5t23.5 -23l33.5 -24.5q41 -29 60 -45t34.5 -43t15.5 -60q0 -53 -37.5 -92t-103.5 -39q-40 0 -74 13t-80 46l14 82q88 -67 141 -67q24 0 40 14t16 35q0 16 -11.5 31.5t-27 27.5t-62.5 46
q-75 52 -75 121q0 52 36.5 88.5t102.5 36.5q65 0 138 -47z" />
    <glyph glyph-name="t" unicode="t" horiz-adv-x="292" 
d="M300 449l-11 -66h-89l-30 -171q-16 -92 -16 -114q0 -36 49 -36q40 0 80 29l-5 -85q-50 -20 -93 -20q-62 0 -90.5 31t-28.5 69q0 22 17 111l32 186h-79l10 66h82l17 92h84l-16 -92h87z" />
    <glyph glyph-name="u" unicode="u" 
d="M436 449l-64 -449h-85l11 77q-82 -82 -150 -82q-48 0 -78.5 32t-30.5 87q0 21 9 82l36 253h85l-38 -274q-6 -36 -6 -53q0 -27 12.5 -42.5t21.5 -17.5t16 -2q41 0 87 46q34 34 48 51l41 292h85z" />
    <glyph glyph-name="v" unicode="v" horiz-adv-x="375" 
d="M411 449l-231 -458h-42l-102 458h85l59 -276l144 276h87z" />
    <glyph glyph-name="w" unicode="w" horiz-adv-x="615" 
d="M647 449l-231 -458h-40l-59 294l-153 -294h-39l-93 458h83l55 -293l147 293h42l57 -293l148 293h83z" />
    <glyph glyph-name="x" unicode="x" horiz-adv-x="427" 
d="M443 449l-181 -222l114 -227h-91l-82 159l-130 -159h-104l196 238l-106 211h91l71 -142l117 142h105z" />
    <glyph glyph-name="y" unicode="y" horiz-adv-x="375" 
d="M396 449l-323 -679h-89l122 257l-85 422h85l59 -300l142 300h89z" />
    <glyph glyph-name="z" unicode="z" horiz-adv-x="458" 
d="M448 449l-299 -373h261l-16 -76h-407l293 372h-228l11 77h385z" />
    <glyph glyph-name="braceleft" unicode="{" horiz-adv-x="333" 
d="M299 682h27v-74h-15q-61 0 -72.5 -25.5t-11.5 -143.5q1 -104 -22.5 -146t-79.5 -68q22 -9 38 -21t27 -23.5t18 -33.5t11 -36.5t6 -49t2 -54v-66.5q0 -62 17 -80t67 -18h15v-75h-27q-23 0 -36 1t-36.5 8t-37 20t-26.5 40.5t-16 66.5q-1 16 -2.5 89.5t-1.5 80.5
q-6 111 -99 113v77q24 1 42 7.5t28.5 21.5t17 28t9 39t3.5 41t1 47q0 87 5 124.5t28 66.5q15 20 39 30t40 11.5t42 1.5z" />
    <glyph glyph-name="bar" unicode="|" horiz-adv-x="260" 
d="M108 -232v914h76v-914h-76z" />
    <glyph glyph-name="braceright" unicode="}" horiz-adv-x="333" 
d="M66 -232h-28v75h16q61 0 72.5 25.5t10.5 142.5q0 72 13 115.5t33 62.5t57 36q-31 12 -50.5 31t-30 38t-15.5 57.5t-5.5 67.5t-0.5 91t-17 80t-67 18h-16v74h28q23 0 36 -1t36 -8t37 -20t26.5 -40.5t15.5 -66.5q1 -11 2 -47.5l2 -75.5t1 -47q6 -110 99 -112v-77
q-24 -1 -42 -7.5t-28.5 -21.5t-17 -28t-9 -39.5t-3.5 -41.5t-1 -47q0 -85 -5.5 -123t-27.5 -68q-15 -20 -39 -30t-40 -11.5t-42 -1.5z" />
    <glyph glyph-name="asciitilde" unicode="~" horiz-adv-x="584" 
d="M58 262v99q51 59 136 59q54 0 133 -34q72 -31 104 -31q60 0 126 66v-103q-60 -56 -135 -56q-53 0 -119 30q-79 36 -118 36q-27 0 -53 -11.5t-39.5 -23t-34.5 -31.5z" />
    <glyph glyph-name="uni00A0" unicode="&#xa0;" horiz-adv-x="278" 
 />
    <glyph glyph-name="exclamdown" unicode="&#xa1;" horiz-adv-x="250" 
d="M115 291h40q-17 -99 -22 -270q0 -70 -9 -136q-10 -77 -54 -77q-15 0 -28.5 12.5t-13.5 42.5q0 40 53 252q19 67 34 176zM207 417q0 -22 -15.5 -39t-39.5 -17q-23 0 -39 16t-16 39t15.5 39.5t38.5 16.5q24 0 40 -17t16 -38z" />
    <glyph glyph-name="cent" unicode="&#xa2;" horiz-adv-x="385" 
d="M394 454l-11 -74q-3 0 -17 2t-27 3.5t-19 1.5l-100 -325q71 -6 142 46l-11 -90q-53 -32 -122 -32q-12 0 -32 5l-56 -179h-46l58 188q-36 13 -60 34q-65 58 -65 157q0 109 73 187t197 83l53 176h49l-55 -176q32 -3 49 -7zM177 74l96 309q-78 -16 -118 -69.5t-40 -117.5
q0 -83 62 -122z" />
    <glyph glyph-name="sterling" unicode="&#xa3;" 
d="M506 682l-11 -87q-30 10 -52 10q-59 0 -107 -67q-39 -54 -77 -163h109l-25 -80h-110l-67 -201q16 2 28 2q24 0 75 -9q53 -8 76 -8q50 0 113 27l-14 -93q-48 -22 -111 -22q-23 0 -72 7q-58 10 -106 10q-54 0 -93 -11q-19 -5 -26 -5l104 303h-88l26 80h88q19 52 34.5 89
t41.5 83.5t52.5 75t65.5 48.5t83 20q29 0 63 -9z" />
    <glyph glyph-name="currency" unicode="&#xa4;" horiz-adv-x="552" 
d="M119 456l-68 67l56 58l68 -69q51 36 116 36q63 0 116 -36l67 69l57 -58l-68 -67q35 -55 35 -115t-35 -115l68 -66l-57 -58l-67 68q-53 -36 -116 -36q-65 0 -116 36l-68 -68l-56 58l68 66q-35 53 -35 115t35 115zM164 341q0 -52 37 -89.5t89 -37.5t89.5 37t37.5 90
t-37.5 90t-89.5 37t-89 -37t-37 -90z" />
    <glyph glyph-name="yen" unicode="&#xa5;" horiz-adv-x="552" 
d="M243 361l-129 355h88l58 -154q50 -132 64 -185q22 48 63 105l169 234h111l-266 -355h167l-14 -68h-201l-16 -77h203l-14 -68h-204l-31 -148h-89l32 148h-203l14 68h203l16 77h-205l14 68h170z" />
    <glyph glyph-name="brokenbar" unicode="&#xa6;" horiz-adv-x="260" 
d="M108 -232v374h76v-374h-76zM108 309v373h76v-373h-76z" />
    <glyph glyph-name="section" unicode="&#xa7;" horiz-adv-x="490" 
d="M25 -87l77 43q-2 -14 -2 -24q0 -91 86 -91q46 0 68.5 23.5t22.5 51.5q0 31 -21 59t-70 71l-54 49t-41 43.5t-32.5 51.5t-9.5 53q0 52 35 100.5t113 66.5q-28 33 -41 57t-13 59q0 65 48.5 115t135.5 50q68 0 102.5 -33t34.5 -87q0 -12 -3 -27l-79 -29q10 23 10 40
q0 35 -22.5 49.5t-46.5 14.5q-35 0 -64 -23t-29 -58q0 -22 12 -42.5t26 -34t43 -37.5q31 -26 48 -41.5t42 -44t37 -58.5t12 -62q0 -31 -11.5 -58t-25 -44t-36.5 -33.5t-34 -22.5t-28 -14q17 -23 25.5 -36t17 -37t8.5 -49q0 -59 -45 -106.5t-134 -47.5q-80 0 -121.5 38.5
t-40.5 104.5zM263 350q-60 -2 -93.5 -31t-33.5 -69q0 -31 26.5 -61.5t92.5 -86.5q42 11 74 38.5t32 67.5q0 30 -25 65.5t-45 53.5t-28 23z" />
    <glyph glyph-name="dieresis" unicode="&#xa8;" horiz-adv-x="333" 
d="M126 632q19 0 32.5 -13.5t13.5 -32.5t-13.5 -32.5t-32.5 -13.5t-32.5 13.5t-13.5 32.5t13.5 32.5t32.5 13.5zM314 632q19 0 32.5 -13.5t13.5 -32.5t-13.5 -32.5t-32.5 -13.5t-32.5 13.5t-13.5 32.5t13.5 32.5t32.5 13.5z" />
    <glyph glyph-name="copyright" unicode="&#xa9;" horiz-adv-x="740" 
d="M497 263l60 -18q-16 -67 -65.5 -100t-111.5 -33q-86 0 -139.5 56t-53.5 154q0 96 52 151.5t145 55.5q60 0 104.5 -28.5t61.5 -86.5l-58 -14q-12 29 -31 46q-33 29 -79 29q-66 0 -97.5 -46t-31.5 -109q0 -74 34.5 -112.5t88.5 -38.5q13 0 27.5 3t34 12t36 29.5t23.5 49.5z
M379 691q153 0 261 -107.5t108 -260.5q0 -152 -108 -260.5t-261 -108.5q-152 0 -260 108t-108 261t108 260.5t260 107.5zM379 630q-127 0 -217 -89.5t-90 -217.5t90 -218t217 -90t217 90t90 218t-90 217.5t-217 89.5z" />
    <glyph glyph-name="ordfeminine" unicode="&#xaa;" horiz-adv-x="312" 
d="M327 682l-42 -270h-66l4 23q-35 -26 -71 -26q-46 0 -73 33t-27 71q0 77 52 127.5t148 50.5q40 0 75 -9zM232 493l23 149q-39 0 -63 -9q-34 -13 -53 -45t-19 -67q0 -27 14 -47t37 -20q26 0 61 39z" />
    <glyph glyph-name="guillemotleft" unicode="&#xab;" horiz-adv-x="438" 
d="M105 0l-88 225l165 224h78l-171 -234l84 -215h-68zM291 0l-84 214l186 235h79l-193 -247l79 -202h-67z" />
    <glyph glyph-name="logicalnot" unicode="&#xac;" horiz-adv-x="584" 
d="M544 191h-82v218h-391v82h473v-300z" />
    <glyph glyph-name="uni00AD" unicode="&#xad;" horiz-adv-x="323" 
d="M283 269v-95h-243v95h243z" />
    <glyph glyph-name="registered" unicode="&#xae;" horiz-adv-x="740" 
d="M217 119v396h137q98 0 131 -27q38 -33 38 -80q0 -39 -28.5 -73.5t-84.5 -38.5q21 -8 40 -27t52 -73l48 -77h-78l-35 63q-37 65 -58.5 85t-59.5 20h-37v-168h-65zM282 461v-119h77q96 0 96 61q0 20 -9 33t-27.5 18t-31 6t-33.5 1h-72zM379 691q153 0 261 -107.5
t108 -260.5q0 -152 -108 -260.5t-261 -108.5q-152 0 -260 108t-108 261t108 260.5t260 107.5zM379 630q-127 0 -217 -89.5t-90 -217.5t90 -218t217 -90t217 90t90 218t-90 217.5t-217 89.5z" />
    <glyph glyph-name="macron" unicode="&#xaf;" horiz-adv-x="333" 
d="M375 617l-8 -64h-322l8 64h322z" />
    <glyph glyph-name="degree" unicode="&#xb0;" horiz-adv-x="396" 
d="M104 556q0 56 39.5 95.5t95.5 39.5t96 -39.5t40 -95.5q0 -57 -40 -96.5t-96 -39.5t-95.5 39.5t-39.5 96.5zM157 556q0 -34 24 -58.5t58 -24.5t58.5 24.5t24.5 58.5t-24.5 58t-58.5 24t-58 -24t-24 -58z" />
    <glyph glyph-name="plusminus" unicode="&#xb1;" horiz-adv-x="584" 
d="M544 -12h-473v82h473v-82zM266 116v195h-195v82h195v196h82v-196h196v-82h-196v-195h-82z" />
    <glyph glyph-name="two.superior" unicode="&#xb2;" horiz-adv-x="323" 
d="M140 321h151l-8 -48h-260q16 14 67 70.5t76 86.5q66 81 66 113q0 38 -51 38q-42 0 -96 -35l10 60q52 26 96 26q47 0 75.5 -24t28.5 -60q0 -45 -49 -107q-37 -47 -106 -120z" />
    <glyph glyph-name="three.superior" unicode="&#xb3;" horiz-adv-x="323" 
d="M56 289l8 49q53 -22 93 -22q44 0 62.5 19t18.5 44q0 29 -22.5 42.5t-52.5 10.5l8 46q17 2 24.5 3.5t26.5 8t28.5 19t9.5 30.5q0 19 -13 30t-24 13t-20 2q-43 0 -87 -27l10 58q44 17 86 17q48 0 82 -23.5t34 -67.5q0 -60 -74 -86q50 -21 50 -75q0 -44 -37.5 -78
t-105.5 -34q-51 0 -105 21z" />
    <glyph glyph-name="acute" unicode="&#xb4;" horiz-adv-x="333" 
d="M219 657h101l-113 -146h-56z" />
    <glyph glyph-name="mu" unicode="&#xb5;" horiz-adv-x="552" 
d="M391 450h85l-40 -286q-6 -41 -6 -49q0 -7 1.5 -15.5t10.5 -20.5t26 -12q22 0 49 11l-10 -73q-43 -18 -75 -18q-24 0 -40.5 8t-22.5 15.5t-13 22.5q-55 -45 -104 -45q-40 0 -71 26q-20 18 -30 46l-42 -289h-85l97 679h86l-35 -247q-6 -36 -6 -50q0 -35 25 -62t66 -27
q27 0 46 10t28.5 30t13 32.5t6.5 33.5z" />
    <glyph glyph-name="paragraph" unicode="&#xb6;" horiz-adv-x="542" 
d="M226 -232v510q-97 5 -147.5 61.5t-50.5 136.5q0 61 27.5 110.5t80.5 72.5t123 23h309v-84h-70v-830h-82v830h-109v-830h-81z" />
    <glyph glyph-name="periodcentered" unicode="&#xb7;" horiz-adv-x="260" 
d="M130 360q23 0 38.5 -16t15.5 -39q0 -22 -16 -38t-38 -16t-38 16t-16 38q0 23 16 39t38 16z" />
    <glyph glyph-name="cedilla" unicode="&#xb8;" horiz-adv-x="333" 
d="M180 7l-9 -24q46 -21 46 -67q0 -31 -26 -59t-82 -28q-35 0 -66 7l12 46q27 -7 42 -7q18 0 32.5 9t14.5 28q0 9 -4 15.5t-8 10t-15 10.5l29 59h34z" />
    <glyph glyph-name="one.superior" unicode="&#xb9;" horiz-adv-x="323" 
d="M253 628l-64 -355h-65l64 355h65z" />
    <glyph glyph-name="ordmasculine" unicode="&#xba;" horiz-adv-x="302" 
d="M316 572q0 -81 -43.5 -124.5t-99.5 -43.5q-14 0 -29 3.5t-36.5 14.5t-34.5 37.5t-13 65.5q0 79 44.5 122.5t99.5 43.5q49 0 80.5 -32t31.5 -87zM249 575q0 28 -11.5 48t-33.5 20q-33 0 -55 -38t-22 -92q0 -31 15 -47.5t31 -16.5q35 0 55.5 40t20.5 86z" />
    <glyph glyph-name="guillemotright" unicode="&#xbb;" horiz-adv-x="438" 
d="M336 449l88 -226l-165 -223h-78l171 232l-84 217h68zM150 449l84 -215l-186 -234h-79l193 246l-79 203h67z" />
    <glyph glyph-name="onequarter" unicode="&#xbc;" horiz-adv-x="844" 
d="M778 360l-37 -209h59l-9 -43h-58l-20 -108h-63l21 108h-151v23l217 229h41zM679 151l16 91l-88 -91h72zM727 691l-541 -718h-70l544 718h67zM262 686l-64 -355h-65l64 355h65z" />
    <glyph glyph-name="onehalf" unicode="&#xbd;" horiz-adv-x="844" 
d="M264 687l-64 -355h-65l64 355h65zM704 691l-542 -718h-69l543 718h68zM620 48h150l-8 -48h-259q11 10 39 40.5l53 58.5l25 28q92 106 92 143q0 39 -52 39q-39 0 -95 -36l10 59q53 28 96 28q47 0 75.5 -24.5t28.5 -60.5q0 -43 -49 -107q-29 -37 -106 -120z" />
    <glyph glyph-name="threequarters" unicode="&#xbe;" horiz-adv-x="844" 
d="M44 348l8 49q53 -22 93 -22q44 0 62.5 19t18.5 44q0 29 -22 42t-53 11l8 46q17 2 24.5 3.5t26.5 8t28.5 19t9.5 30.5q0 19 -13 30t-24 13t-20 2q-43 0 -87 -27l10 58q44 17 86 17q48 0 82 -23.5t34 -67.5q0 -60 -74 -86q50 -21 50 -75q0 -44 -37.5 -78t-105.5 -34
q-51 0 -105 21zM745 691l-541 -718h-70l543 718h68zM778 360l-37 -209h59l-9 -43h-58l-20 -108h-63l21 108h-151v23l217 229h41zM679 151l16 91l-88 -91h72z" />
    <glyph glyph-name="questiondown" unicode="&#xbf;" horiz-adv-x="354" 
d="M282 -49l-16 -102q-59 -41 -126 -41q-60 0 -100.5 42.5t-40.5 105.5q0 49 24.5 85t90.5 103q36 37 55 66.5t22.5 43.5t4.5 36h58q-1 -66 -20.5 -114t-81.5 -109q-22 -22 -32 -33.5t-21.5 -32t-11.5 -40.5q0 -27 20.5 -50t52.5 -23q50 0 122 63zM293 416
q0 -21 -15.5 -38.5t-39.5 -17.5q-22 0 -38.5 16t-16.5 39t16 39.5t39 16.5q24 0 39.5 -17.5t15.5 -37.5z" />
    <glyph glyph-name="Agrave" unicode="&#xc0;" horiz-adv-x="521" 
d="M352 686l133 -686h-84l-41 214h-214l-90 -214h-91l301 686h86zM346 286l-53 280l-117 -280h170zM307 879l74 -150h-51l-166 150h143z" />
    <glyph glyph-name="Aacute" unicode="&#xc1;" horiz-adv-x="521" 
d="M352 686l133 -686h-84l-41 214h-214l-90 -214h-91l301 686h86zM346 286l-53 280l-117 -280h170zM483 879l-166 -150h-52l73 150h145z" />
    <glyph glyph-name="Acircumflex" unicode="&#xc2;" horiz-adv-x="521" 
d="M352 686l133 -686h-84l-41 214h-214l-90 -214h-91l301 686h86zM346 286l-53 280l-117 -280h170zM468 729h-48l-81 85l-141 -85h-60l138 150h124z" />
    <glyph glyph-name="Atilde" unicode="&#xc3;" horiz-adv-x="521" 
d="M352 686l133 -686h-84l-41 214h-214l-90 -214h-91l301 686h86zM346 286l-53 280l-117 -280h170zM196 729h-52q0 62 33 91.5t70 29.5q30 0 78 -24q4 -2 14 -7.5t16 -8.5t14.5 -5.5t15.5 -2.5q31 0 38 48h52q0 -52 -26.5 -86.5t-73.5 -34.5q-36 0 -84 25q-43 23 -57 23
q-18 0 -27.5 -15.5t-10.5 -32.5z" />
    <glyph glyph-name="Adieresis" unicode="&#xc4;" horiz-adv-x="521" 
d="M352 686l133 -686h-84l-41 214h-214l-90 -214h-91l301 686h86zM346 286l-53 280l-117 -280h170zM421 858q22 0 37.5 -15.5t15.5 -37.5t-15.5 -37.5t-37.5 -15.5t-37.5 15.5t-15.5 37.5t15.5 37.5t37.5 15.5zM215 858q22 0 37.5 -15.5t15.5 -37.5q0 -20 -14.5 -36.5
t-38.5 -16.5q-22 0 -37.5 15.5t-15.5 37.5t15.5 37.5t37.5 15.5z" />
    <glyph glyph-name="Aring" unicode="&#xc5;" horiz-adv-x="521" 
d="M352 686l133 -686h-84l-41 214h-214l-90 -214h-91l301 686h86zM346 286l-53 280l-117 -280h170zM319 931q45 0 73 -31.5t28 -69.5q0 -41 -28 -71t-73 -30q-44 0 -72.5 30t-28.5 71q0 42 29.5 71.5t71.5 29.5zM319 775q23 0 39 16.5t16 38.5t-16 38.5t-39 16.5t-39 -16.5
t-16 -38.5t16 -38.5t39 -16.5z" />
    <glyph glyph-name="AE" unicode="&#xc6;" horiz-adv-x="833" 
d="M801 682l-10 -83h-263l-29 -209h245l-11 -81h-246l-32 -227h357l-11 -82h-448l44 309h-151l-170 -309h-97l389 682h433zM409 381l31 226h-31l-124 -226h124z" />
    <glyph glyph-name="Ccedilla" unicode="&#xc7;" horiz-adv-x="547" 
d="M518 160l-12 -109q-99 -57 -191 -59q30 -8 42 -17q27 -22 27 -58q0 -40 -38.5 -74t-120.5 -34q-48 0 -81 8l16 53q32 -7 58 -7t45 12t19 33q0 31 -42 39l27 45q-58 9 -101.5 35t-67 57t-37.5 69.5t-18 66.5t-4 55t3.5 57.5t18 77.5t38 88t68.5 82t104 66q124 51 296 45
l-15 -84q-54 -1 -80.5 -3t-71 -10.5t-84.5 -24.5q-51 -21 -88.5 -58.5t-56 -80.5t-27 -79.5t-8.5 -69.5q0 -93 49.5 -149t125.5 -56q58 0 116.5 28.5t90.5 55.5z" />
    <glyph glyph-name="Egrave" unicode="&#xc8;" horiz-adv-x="510" 
d="M498 682l-11 -81h-273l-30 -214h241l-11 -81h-242l-33 -225h359l-12 -81h-448l99 682h361zM312 879l74 -150h-51l-166 150h143z" />
    <glyph glyph-name="Eacute" unicode="&#xc9;" horiz-adv-x="510" 
d="M498 682l-11 -81h-273l-30 -214h241l-11 -81h-242l-33 -225h359l-12 -81h-448l99 682h361zM518 879l-166 -150h-52l73 150h145z" />
    <glyph glyph-name="Ecircumflex" unicode="&#xca;" horiz-adv-x="510" 
d="M498 682l-11 -81h-273l-30 -214h241l-11 -81h-242l-33 -225h359l-12 -81h-448l99 682h361zM473 729h-48l-81 85l-141 -85h-60l138 150h124z" />
    <glyph glyph-name="Edieresis" unicode="&#xcb;" horiz-adv-x="510" 
d="M498 682l-11 -81h-273l-30 -214h241l-11 -81h-242l-33 -225h359l-12 -81h-448l99 682h361zM426 858q22 0 37.5 -15.5t15.5 -37.5t-15.5 -37.5t-37.5 -15.5t-37.5 15.5t-15.5 37.5t15.5 37.5t37.5 15.5zM220 858q22 0 37.5 -15.5t15.5 -37.5q0 -20 -14.5 -36.5
t-38.5 -16.5q-22 0 -37.5 15.5t-15.5 37.5t15.5 37.5t37.5 15.5z" />
    <glyph glyph-name="Igrave" unicode="&#xcc;" horiz-adv-x="240" 
d="M229 682l-95 -682h-95l95 682h95zM161 879l74 -150h-51l-166 150h143z" />
    <glyph glyph-name="Iacute" unicode="&#xcd;" horiz-adv-x="240" 
d="M229 682l-95 -682h-95l95 682h95zM362 879l-166 -150h-52l73 150h145z" />
    <glyph glyph-name="Icircumflex" unicode="&#xce;" horiz-adv-x="240" 
d="M229 682l-95 -682h-95l95 682h95zM338 729h-48l-81 85l-141 -85h-60l138 150h124z" />
    <glyph glyph-name="Idieresis" unicode="&#xcf;" horiz-adv-x="240" 
d="M229 682l-95 -682h-95l95 682h95zM291 858q22 0 37.5 -15.5t15.5 -37.5t-15.5 -37.5t-37.5 -15.5t-37.5 15.5t-15.5 37.5t15.5 37.5t37.5 15.5zM85 858q22 0 37.5 -15.5t15.5 -37.5q0 -20 -14.5 -36.5t-38.5 -16.5q-22 0 -37.5 15.5t-15.5 37.5t15.5 37.5t37.5 15.5z" />
    <glyph glyph-name="Eth" unicode="&#xd0;" horiz-adv-x="656" 
d="M83 308h-79l8 66h80l44 308h86q183 0 289 -90t106 -252q0 -198 -148 -291q-36 -22 -83 -33.5t-81.5 -13.5t-88.5 -2h-177zM332 308h-158l-32 -227h41q133 0 195 23q68 26 105.5 89.5t37.5 146.5q0 133 -94 202q-36 27 -77.5 40.5t-66.5 15.5t-67 2l-33 -226h158z" />
    <glyph glyph-name="Ntilde" unicode="&#xd1;" horiz-adv-x="688" 
d="M678 682l-97 -682h-48l-338 498l-71 -498h-85l97 682h45l341 -502l71 502h85zM305 729h-52q0 62 33 91.5t70 29.5q30 0 78 -24q4 -2 14 -7.5t16 -8.5t14.5 -5.5t15.5 -2.5q31 0 38 48h52q0 -52 -26.5 -86.5t-73.5 -34.5q-36 0 -84 25q-43 23 -57 23q-18 0 -27.5 -15.5
t-10.5 -32.5z" />
    <glyph glyph-name="Ograve" unicode="&#xd2;" horiz-adv-x="656" 
d="M625 409q0 -17 -2.5 -42t-10.5 -68t-28.5 -92t-50.5 -89q-40 -54 -101 -90.5t-138 -36.5q-100 0 -172 76.5t-72 212.5q0 96 38 188.5t116 157.5t176 65q56 0 100 -19.5t70.5 -49.5t44 -69.5t24 -74.5t6.5 -69zM527 417q0 12 -1 23.5t-4.5 37.5t-13 46.5t-24.5 42
t-42 33.5t-62 12q-57 0 -104 -34.5t-74 -88t-41.5 -112t-14.5 -114.5q0 -99 45 -147t106 -48q69 0 123 53t80.5 131.5t26.5 164.5zM395 879l74 -150h-51l-166 150h143z" />
    <glyph glyph-name="Oacute" unicode="&#xd3;" horiz-adv-x="656" 
d="M625 409q0 -17 -2.5 -42t-10.5 -68t-28.5 -92t-50.5 -89q-40 -54 -101 -90.5t-138 -36.5q-100 0 -172 76.5t-72 212.5q0 96 38 188.5t116 157.5t176 65q56 0 100 -19.5t70.5 -49.5t44 -69.5t24 -74.5t6.5 -69zM527 417q0 12 -1 23.5t-4.5 37.5t-13 46.5t-24.5 42
t-42 33.5t-62 12q-57 0 -104 -34.5t-74 -88t-41.5 -112t-14.5 -114.5q0 -99 45 -147t106 -48q69 0 123 53t80.5 131.5t26.5 164.5zM551 879l-166 -150h-52l73 150h145z" />
    <glyph glyph-name="Ocircumflex" unicode="&#xd4;" horiz-adv-x="656" 
d="M625 409q0 -17 -2.5 -42t-10.5 -68t-28.5 -92t-50.5 -89q-40 -54 -101 -90.5t-138 -36.5q-100 0 -172 76.5t-72 212.5q0 96 38 188.5t116 157.5t176 65q56 0 100 -19.5t70.5 -49.5t44 -69.5t24 -74.5t6.5 -69zM527 417q0 12 -1 23.5t-4.5 37.5t-13 46.5t-24.5 42
t-42 33.5t-62 12q-57 0 -104 -34.5t-74 -88t-41.5 -112t-14.5 -114.5q0 -99 45 -147t106 -48q69 0 123 53t80.5 131.5t26.5 164.5zM556 729h-48l-81 85l-141 -85h-60l138 150h124z" />
    <glyph glyph-name="Otilde" unicode="&#xd5;" horiz-adv-x="656" 
d="M625 409q0 -17 -2.5 -42t-10.5 -68t-28.5 -92t-50.5 -89q-40 -54 -101 -90.5t-138 -36.5q-100 0 -172 76.5t-72 212.5q0 96 38 188.5t116 157.5t176 65q56 0 100 -19.5t70.5 -49.5t44 -69.5t24 -74.5t6.5 -69zM527 417q0 12 -1 23.5t-4.5 37.5t-13 46.5t-24.5 42
t-42 33.5t-62 12q-57 0 -104 -34.5t-74 -88t-41.5 -112t-14.5 -114.5q0 -99 45 -147t106 -48q69 0 123 53t80.5 131.5t26.5 164.5zM279 729h-52q0 62 33 91.5t70 29.5q30 0 78 -24q4 -2 14 -7.5t16 -8.5t14.5 -5.5t15.5 -2.5q31 0 38 48h52q0 -52 -26.5 -86.5t-73.5 -34.5
q-36 0 -84 25q-43 23 -57 23q-18 0 -27.5 -15.5t-10.5 -32.5z" />
    <glyph glyph-name="Odieresis" unicode="&#xd6;" horiz-adv-x="656" 
d="M625 409q0 -17 -2.5 -42t-10.5 -68t-28.5 -92t-50.5 -89q-40 -54 -101 -90.5t-138 -36.5q-100 0 -172 76.5t-72 212.5q0 96 38 188.5t116 157.5t176 65q56 0 100 -19.5t70.5 -49.5t44 -69.5t24 -74.5t6.5 -69zM527 417q0 12 -1 23.5t-4.5 37.5t-13 46.5t-24.5 42
t-42 33.5t-62 12q-57 0 -104 -34.5t-74 -88t-41.5 -112t-14.5 -114.5q0 -99 45 -147t106 -48q69 0 123 53t80.5 131.5t26.5 164.5zM499 858q22 0 37.5 -15.5t15.5 -37.5t-15.5 -37.5t-37.5 -15.5t-37.5 15.5t-15.5 37.5t15.5 37.5t37.5 15.5zM293 858q22 0 37.5 -15.5
t15.5 -37.5q0 -20 -14.5 -36.5t-38.5 -16.5q-22 0 -37.5 15.5t-15.5 37.5t15.5 37.5t37.5 15.5z" />
    <glyph glyph-name="multiply" unicode="&#xd7;" horiz-adv-x="583" 
d="M95 188l154 153l-154 153l59 60l154 -153l153 153l59 -60l-153 -153l153 -153l-59 -60l-153 154l-154 -154z" />
    <glyph glyph-name="Oslash" unicode="&#xd8;" horiz-adv-x="656" 
d="M651 655l-66 -78q40 -66 40 -176q0 -170 -94.5 -290t-232.5 -120q-90 0 -156 56l-75 -88l-38 41l74 92q-20 27 -35.5 77t-15.5 108q0 69 22 140t62 133t106 101.5t144 39.5q102 0 165 -66l62 75zM520 499l-324 -387q45 -45 103 -45q74 0 128.5 58t78.5 134.5t24 153.5
q0 52 -10 86zM164 164l333 393q-41 55 -111 55q-59 0 -106.5 -34.5t-75 -88t-42 -111.5t-14.5 -111q0 -61 16 -103z" />
    <glyph glyph-name="Ugrave" unicode="&#xd9;" horiz-adv-x="635" 
d="M636 682l-58 -406q-16 -112 -53 -170q-75 -115 -230 -115q-114 0 -173.5 61.5t-59.5 148.5q0 35 6 75l57 406h92l-62 -432q-3 -18 -3 -50q0 -49 37.5 -87t110.5 -38q55 0 94.5 23.5t58.5 58.5q19 33 34 128l56 397h93zM359 879l74 -150h-51l-166 150h143z" />
    <glyph glyph-name="Uacute" unicode="&#xda;" horiz-adv-x="635" 
d="M636 682l-58 -406q-16 -112 -53 -170q-75 -115 -230 -115q-114 0 -173.5 61.5t-59.5 148.5q0 35 6 75l57 406h92l-62 -432q-3 -18 -3 -50q0 -49 37.5 -87t110.5 -38q55 0 94.5 23.5t58.5 58.5q19 33 34 128l56 397h93zM555 879l-166 -150h-52l73 150h145z" />
    <glyph glyph-name="Ucircumflex" unicode="&#xdb;" horiz-adv-x="635" 
d="M636 682l-58 -406q-16 -112 -53 -170q-75 -115 -230 -115q-114 0 -173.5 61.5t-59.5 148.5q0 35 6 75l57 406h92l-62 -432q-3 -18 -3 -50q0 -49 37.5 -87t110.5 -38q55 0 94.5 23.5t58.5 58.5q19 33 34 128l56 397h93zM535 729h-48l-81 85l-141 -85h-60l138 150h124z" />
    <glyph glyph-name="Udieresis" unicode="&#xdc;" horiz-adv-x="635" 
d="M636 682l-58 -406q-16 -112 -53 -170q-75 -115 -230 -115q-114 0 -173.5 61.5t-59.5 148.5q0 35 6 75l57 406h92l-62 -432q-3 -18 -3 -50q0 -49 37.5 -87t110.5 -38q55 0 94.5 23.5t58.5 58.5q19 33 34 128l56 397h93zM488 858q22 0 37.5 -15.5t15.5 -37.5t-15.5 -37.5
t-37.5 -15.5t-37.5 15.5t-15.5 37.5t15.5 37.5t37.5 15.5zM282 858q22 0 37.5 -15.5t15.5 -37.5q0 -20 -14.5 -36.5t-38.5 -16.5q-22 0 -37.5 15.5t-15.5 37.5t15.5 37.5t37.5 15.5z" />
    <glyph glyph-name="Yacute" unicode="&#xdd;" horiz-adv-x="490" 
d="M549 682l-238 -342l-49 -340h-91l49 340l-161 342h95l117 -250l174 250h104zM493 879l-166 -150h-52l73 150h145z" />
    <glyph glyph-name="Thorn" unicode="&#xde;" horiz-adv-x="448" 
d="M128 682h95l-19 -144h15q73 0 120 -18q44 -17 77 -58t33 -109q0 -64 -33 -117t-92 -75q-44 -17 -124 -17h-52l-20 -144h-95zM192 458l-33 -233q50 -3 85 1t59 19t34 36.5t14 38.5t4 33q0 28 -19 58t-62 41q-26 6 -82 6z" />
    <glyph glyph-name="germandbls" unicode="&#xdf;" horiz-adv-x="500" 
d="M40 0l66 449q33 242 199 242q72 0 119 -45t47 -113q0 -54 -30.5 -94t-80.5 -54q50 -24 71 -69.5t21 -91.5q0 -97 -58 -167.5t-138 -70.5q-30 0 -53 14l9 64q19 -4 34 -4q60 0 90.5 51t30.5 120q0 120 -112 133l8 58q58 -6 95 25.5t37 83.5q0 43 -26.5 68.5t-64.5 25.5
q-54 0 -78.5 -44t-35.5 -122l-65 -459h-85z" />
    <glyph glyph-name="agrave" unicode="&#xe0;" 
d="M446 449l-64 -449h-84l7 54q-60 -60 -123 -60q-67 0 -107 54.5t-40 116.5q0 17 2.5 38t9.5 53t25.5 65.5t44.5 59.5q82 82 222 82q59 0 107 -14zM316 132l37 257q-62 4 -108 -14.5t-68.5 -45t-35.5 -62t-15 -54.5t-2 -33q0 -52 25 -85.5t63 -33.5q31 0 60 24.5t44 46.5z
M303 657l68 -146h-56l-113 146h101z" />
    <glyph glyph-name="aacute" unicode="&#xe1;" 
d="M446 449l-64 -449h-84l7 54q-60 -60 -123 -60q-67 0 -107 54.5t-40 116.5q0 17 2.5 38t9.5 53t25.5 65.5t44.5 59.5q82 82 222 82q59 0 107 -14zM316 132l37 257q-62 4 -108 -14.5t-68.5 -45t-35.5 -62t-15 -54.5t-2 -33q0 -52 25 -85.5t63 -33.5q31 0 60 24.5t44 46.5z
M312 657h101l-113 -146h-56z" />
    <glyph glyph-name="acircumflex" unicode="&#xe2;" 
d="M446 449l-64 -449h-84l7 54q-60 -60 -123 -60q-67 0 -107 54.5t-40 116.5q0 17 2.5 38t9.5 53t25.5 65.5t44.5 59.5q82 82 222 82q59 0 107 -14zM316 132l37 257q-62 4 -108 -14.5t-68.5 -45t-35.5 -62t-15 -54.5t-2 -33q0 -52 25 -85.5t63 -33.5q31 0 60 24.5t44 46.5z
M381 659l75 -148h-41l-83 99l-134 -99h-47l131 148h99z" />
    <glyph glyph-name="atilde" unicode="&#xe3;" 
d="M446 449l-64 -449h-84l7 54q-60 -60 -123 -60q-67 0 -107 54.5t-40 116.5q0 17 2.5 38t9.5 53t25.5 65.5t44.5 59.5q82 82 222 82q59 0 107 -14zM316 132l37 257q-62 4 -108 -14.5t-68.5 -45t-35.5 -62t-15 -54.5t-2 -33q0 -52 25 -85.5t63 -33.5q31 0 60 24.5t44 46.5z
M191 539h-40q2 38 8 56q10 27 30 42.5t40 15.5t93 -26q34 -12 49 -12q31 0 35 37h39q-3 -33 -7 -48q-9 -31 -29.5 -48.5t-45.5 -17.5q-15 0 -69 20q-41 18 -71 18q-10 0 -20.5 -9t-11.5 -28z" />
    <glyph glyph-name="adieresis" unicode="&#xe4;" 
d="M446 449l-64 -449h-84l7 54q-60 -60 -123 -60q-67 0 -107 54.5t-40 116.5q0 17 2.5 38t9.5 53t25.5 65.5t44.5 59.5q82 82 222 82q59 0 107 -14zM316 132l37 257q-62 4 -108 -14.5t-68.5 -45t-35.5 -62t-15 -54.5t-2 -33q0 -52 25 -85.5t63 -33.5q31 0 60 24.5t44 46.5z
M219 632q19 0 32.5 -13.5t13.5 -32.5t-13.5 -32.5t-32.5 -13.5t-32.5 13.5t-13.5 32.5t13.5 32.5t32.5 13.5zM407 632q19 0 32.5 -13.5t13.5 -32.5t-13.5 -32.5t-32.5 -13.5t-32.5 13.5t-13.5 32.5t13.5 32.5t32.5 13.5z" />
    <glyph glyph-name="aring" unicode="&#xe5;" 
d="M446 449l-64 -449h-84l7 54q-60 -60 -123 -60q-67 0 -107 54.5t-40 116.5q0 17 2.5 38t9.5 53t25.5 65.5t44.5 59.5q82 82 222 82q59 0 107 -14zM316 132l37 257q-62 4 -108 -14.5t-68.5 -45t-35.5 -62t-15 -54.5t-2 -33q0 -52 25 -85.5t63 -33.5q31 0 60 24.5t44 46.5z
M314 696q35 0 63 -26t28 -66q0 -39 -27 -66t-66 -27q-38 0 -65 26.5t-27 65.5q0 40 28.5 66.5t65.5 26.5zM311 656q-25 0 -40 -14.5t-15 -38.5t16.5 -40.5t40.5 -16.5q23 0 39.5 16.5t16.5 39.5q0 24 -17.5 39t-40.5 15z" />
    <glyph glyph-name="ae" unicode="&#xe6;" horiz-adv-x="646" 
d="M588 119l-12 -87q-71 -46 -146 -46q-103 0 -153 85q-78 -85 -156 -85q-43 0 -76 28.5t-33 75.5q0 35 20 63.5t45.5 45.5t66 31t63 19.5t55.5 11.5q8 30 8 61q0 36 -20 51.5t-43 15.5q-64 0 -147 -83l14 96q77 61 146 61q73 0 104 -61q27 29 65 45t71 16q70 0 111 -58
t41 -150q0 -10 -3 -40h-267q-6 -24 -6 -50q0 -58 33.5 -83t67.5 -25q69 0 151 62zM350 274h182q3 50 -20 84.5t-64 34.5q-52 0 -78 -48q-17 -33 -20 -71zM241 106l13 93q-58 -11 -105 -37t-47 -63q0 -18 12 -29.5t31 -11.5q44 0 96 48z" />
    <glyph glyph-name="ccedilla" unicode="&#xe7;" horiz-adv-x="383" 
d="M400 449l-13 -70q-38 6 -67 6q-53 0 -94.5 -19.5t-63.5 -50t-33 -61.5t-11 -60q0 -16 4 -35t15 -43.5t37.5 -40.5t64.5 -16q70 0 127 49l-11 -91q-27 -14 -51 -21t-38.5 -8t-41.5 -2l-7 -16q33 -8 47.5 -29t14.5 -41q0 -48 -51 -74q-36 -18 -90 -18q-53 0 -86 11l14 45
q36 -8 60 -8q33 0 47.5 12.5t14.5 27.5q0 26 -39 36l32 54q-62 14 -105.5 64t-43.5 134q0 126 83.5 202.5t201.5 76.5q47 0 83 -14z" />
    <glyph glyph-name="egrave" unicode="&#xe8;" horiz-adv-x="438" 
d="M389 125l-13 -89q-70 -50 -149 -50q-86 0 -137.5 60t-51.5 153q0 110 59.5 187t150.5 77q71 0 117 -51.5t46 -134.5q0 -24 -4 -44h-281q-2 -32 -2 -44q0 -60 33 -96.5t77 -36.5q64 0 155 69zM140 292h188q1 48 -21.5 75t-58.5 27q-73 0 -108 -102zM263 657l68 -146h-56
l-113 146h101z" />
    <glyph glyph-name="eacute" unicode="&#xe9;" horiz-adv-x="438" 
d="M389 125l-13 -89q-70 -50 -149 -50q-86 0 -137.5 60t-51.5 153q0 110 59.5 187t150.5 77q71 0 117 -51.5t46 -134.5q0 -24 -4 -44h-281q-2 -32 -2 -44q0 -60 33 -96.5t77 -36.5q64 0 155 69zM140 292h188q1 48 -21.5 75t-58.5 27q-73 0 -108 -102zM262 657h101l-113 -146
h-56z" />
    <glyph glyph-name="ecircumflex" unicode="&#xea;" horiz-adv-x="438" 
d="M389 125l-13 -89q-70 -50 -149 -50q-86 0 -137.5 60t-51.5 153q0 110 59.5 187t150.5 77q71 0 117 -51.5t46 -134.5q0 -24 -4 -44h-281q-2 -32 -2 -44q0 -60 33 -96.5t77 -36.5q64 0 155 69zM140 292h188q1 48 -21.5 75t-58.5 27q-73 0 -108 -102zM331 659l75 -148h-41
l-83 99l-134 -99h-47l131 148h99z" />
    <glyph glyph-name="edieresis" unicode="&#xeb;" horiz-adv-x="438" 
d="M389 125l-13 -89q-70 -50 -149 -50q-86 0 -137.5 60t-51.5 153q0 110 59.5 187t150.5 77q71 0 117 -51.5t46 -134.5q0 -24 -4 -44h-281q-2 -32 -2 -44q0 -60 33 -96.5t77 -36.5q64 0 155 69zM140 292h188q1 48 -21.5 75t-58.5 27q-73 0 -108 -102zM169 632
q19 0 32.5 -13.5t13.5 -32.5t-13.5 -32.5t-32.5 -13.5t-32.5 13.5t-13.5 32.5t13.5 32.5t32.5 13.5zM357 632q19 0 32.5 -13.5t13.5 -32.5t-13.5 -32.5t-32.5 -13.5t-32.5 13.5t-13.5 32.5t13.5 32.5t32.5 13.5z" />
    <glyph glyph-name="igrave" unicode="&#xec;" horiz-adv-x="188" 
d="M171 449l-64 -449h-85l64 449h85zM138 657l68 -146h-56l-113 146h101z" />
    <glyph glyph-name="iacute" unicode="&#xed;" horiz-adv-x="188" 
d="M171 449l-64 -449h-85l64 449h85zM147 657h101l-113 -146h-56z" />
    <glyph glyph-name="icircumflex" unicode="&#xee;" horiz-adv-x="188" 
d="M171 449l-64 -449h-85l64 449h85zM216 659l75 -148h-41l-83 99l-134 -99h-47l131 148h99z" />
    <glyph glyph-name="idieresis" unicode="&#xef;" horiz-adv-x="188" 
d="M171 449l-64 -449h-85l64 449h85zM54 632q19 0 32.5 -13.5t13.5 -32.5t-13.5 -32.5t-32.5 -13.5t-32.5 13.5t-13.5 32.5t13.5 32.5t32.5 13.5zM242 632q19 0 32.5 -13.5t13.5 -32.5t-13.5 -32.5t-32.5 -13.5t-32.5 13.5t-13.5 32.5t13.5 32.5t32.5 13.5z" />
    <glyph glyph-name="eth" unicode="&#xf0;" horiz-adv-x="448" 
d="M303 631l88 59l23 -37l-80 -52q91 -109 91 -278q0 -176 -69 -260q-64 -77 -156 -77q-70 0 -117 50t-47 151q0 129 67 202.5t151 73.5q33 0 71 -17q-8 39 -19 63t-36 50l-98 -62l-23 37l89 57q-34 25 -66 40l30 59q60 -20 101 -59zM334 275q0 53 -21.5 86t-56.5 33
q-43 0 -74.5 -37t-45 -86t-13.5 -99q0 -63 26.5 -90.5t55.5 -27.5q58 0 93.5 69t35.5 152z" />
    <glyph glyph-name="ntilde" unicode="&#xf1;" 
d="M172 449l-12 -81q75 88 150 88q59 0 86 -42t27 -89q0 -20 -5 -55l-41 -270h-85l36 270q5 35 5 54q0 23 -13.5 42.5t-37.5 19.5q-26 0 -58.5 -24t-49.5 -43.5t-26 -32.5l-41 -286h-85l64 449h86zM181 539h-40q2 38 8 56q10 27 30 42.5t40 15.5t93 -26q34 -12 49 -12
q31 0 35 37h39q-3 -33 -7 -48q-9 -31 -29.5 -48.5t-45.5 -17.5q-15 0 -69 20q-41 18 -71 18q-10 0 -20.5 -9t-11.5 -28z" />
    <glyph glyph-name="ograve" unicode="&#xf2;" horiz-adv-x="448" 
d="M418 266q0 -133 -65.5 -206.5t-150.5 -73.5q-63 0 -109 41q-57 52 -57 160q0 131 67 203.5t149 72.5q74 0 120 -53.5t46 -143.5zM331 271q0 50 -20 85.5t-60 35.5q-55 0 -91.5 -64.5t-36.5 -161.5q0 -58 26 -86t52 -28q41 0 72 36t44.5 84.5t13.5 98.5zM268 657l68 -146
h-56l-113 146h101z" />
    <glyph glyph-name="oacute" unicode="&#xf3;" horiz-adv-x="448" 
d="M418 266q0 -133 -65.5 -206.5t-150.5 -73.5q-63 0 -109 41q-57 52 -57 160q0 131 67 203.5t149 72.5q74 0 120 -53.5t46 -143.5zM331 271q0 50 -20 85.5t-60 35.5q-55 0 -91.5 -64.5t-36.5 -161.5q0 -58 26 -86t52 -28q41 0 72 36t44.5 84.5t13.5 98.5zM277 657h101
l-113 -146h-56z" />
    <glyph glyph-name="ocircumflex" unicode="&#xf4;" horiz-adv-x="448" 
d="M418 266q0 -133 -65.5 -206.5t-150.5 -73.5q-63 0 -109 41q-57 52 -57 160q0 131 67 203.5t149 72.5q74 0 120 -53.5t46 -143.5zM331 271q0 50 -20 85.5t-60 35.5q-55 0 -91.5 -64.5t-36.5 -161.5q0 -58 26 -86t52 -28q41 0 72 36t44.5 84.5t13.5 98.5zM346 659l75 -148
h-41l-83 99l-134 -99h-47l131 148h99z" />
    <glyph glyph-name="otilde" unicode="&#xf5;" horiz-adv-x="448" 
d="M418 266q0 -133 -65.5 -206.5t-150.5 -73.5q-63 0 -109 41q-57 52 -57 160q0 131 67 203.5t149 72.5q74 0 120 -53.5t46 -143.5zM331 271q0 50 -20 85.5t-60 35.5q-55 0 -91.5 -64.5t-36.5 -161.5q0 -58 26 -86t52 -28q41 0 72 36t44.5 84.5t13.5 98.5zM143 539h-40
q2 38 8 56q10 27 30 42.5t40 15.5t93 -26q34 -12 49 -12q31 0 35 37h39q-3 -33 -7 -48q-9 -31 -29.5 -48.5t-45.5 -17.5q-15 0 -69 20q-41 18 -71 18q-10 0 -20.5 -9t-11.5 -28z" />
    <glyph glyph-name="odieresis" unicode="&#xf6;" horiz-adv-x="448" 
d="M418 266q0 -133 -65.5 -206.5t-150.5 -73.5q-63 0 -109 41q-57 52 -57 160q0 131 67 203.5t149 72.5q74 0 120 -53.5t46 -143.5zM331 271q0 50 -20 85.5t-60 35.5q-55 0 -91.5 -64.5t-36.5 -161.5q0 -58 26 -86t52 -28q41 0 72 36t44.5 84.5t13.5 98.5zM184 632
q19 0 32.5 -13.5t13.5 -32.5t-13.5 -32.5t-32.5 -13.5t-32.5 13.5t-13.5 32.5t13.5 32.5t32.5 13.5zM372 632q19 0 32.5 -13.5t13.5 -32.5t-13.5 -32.5t-32.5 -13.5t-32.5 13.5t-13.5 32.5t13.5 32.5t32.5 13.5z" />
    <glyph glyph-name="divide" unicode="&#xf7;" horiz-adv-x="584" 
d="M544 300h-473v82h473v-82zM307 540q23 0 38.5 -15.5t15.5 -37.5t-16 -37.5t-38 -15.5t-37.5 15.5t-15.5 37.5t15.5 37.5t37.5 15.5zM307 248q22 0 38 -15.5t16 -37.5t-16 -37.5t-38 -15.5t-37.5 15.5t-15.5 37.5t15.5 37.5t37.5 15.5z" />
    <glyph glyph-name="oslash" unicode="&#xf8;" horiz-adv-x="448" 
d="M430 429l-40 -47q27 -47 27 -122q0 -122 -63.5 -198t-154.5 -76q-57 0 -112 43l-39 -45l-30 33l42 51q-25 48 -25 118q0 126 66 201.5t149 75.5q53 0 91 -26q7 -7 23 -19l37 43zM328 309l-188 -218q28 -38 63 -38q57 0 92.5 68.5t35.5 152.5q0 20 -3 35zM124 140l187 217
q-20 36 -59 36q-44 0 -75 -39.5t-43 -87.5t-12 -95q0 -13 2 -31z" />
    <glyph glyph-name="ugrave" unicode="&#xf9;" 
d="M436 449l-64 -449h-85l11 77q-82 -82 -150 -82q-48 0 -78.5 32t-30.5 87q0 21 9 82l36 253h85l-38 -274q-6 -36 -6 -53q0 -27 12.5 -42.5t21.5 -17.5t16 -2q41 0 87 46q34 34 48 51l41 292h85zM278 657l68 -146h-56l-113 146h101z" />
    <glyph glyph-name="uacute" unicode="&#xfa;" 
d="M436 449l-64 -449h-85l11 77q-82 -82 -150 -82q-48 0 -78.5 32t-30.5 87q0 21 9 82l36 253h85l-38 -274q-6 -36 -6 -53q0 -27 12.5 -42.5t21.5 -17.5t16 -2q41 0 87 46q34 34 48 51l41 292h85zM287 657h101l-113 -146h-56z" />
    <glyph glyph-name="ucircumflex" unicode="&#xfb;" 
d="M436 449l-64 -449h-85l11 77q-82 -82 -150 -82q-48 0 -78.5 32t-30.5 87q0 21 9 82l36 253h85l-38 -274q-6 -36 -6 -53q0 -27 12.5 -42.5t21.5 -17.5t16 -2q41 0 87 46q34 34 48 51l41 292h85zM341 659l75 -148h-41l-83 99l-134 -99h-47l131 148h99z" />
    <glyph glyph-name="udieresis" unicode="&#xfc;" 
d="M436 449l-64 -449h-85l11 77q-82 -82 -150 -82q-48 0 -78.5 32t-30.5 87q0 21 9 82l36 253h85l-38 -274q-6 -36 -6 -53q0 -27 12.5 -42.5t21.5 -17.5t16 -2q41 0 87 46q34 34 48 51l41 292h85zM194 632q19 0 32.5 -13.5t13.5 -32.5t-13.5 -32.5t-32.5 -13.5t-32.5 13.5
t-13.5 32.5t13.5 32.5t32.5 13.5zM382 632q19 0 32.5 -13.5t13.5 -32.5t-13.5 -32.5t-32.5 -13.5t-32.5 13.5t-13.5 32.5t13.5 32.5t32.5 13.5z" />
    <glyph glyph-name="yacute" unicode="&#xfd;" horiz-adv-x="375" 
d="M400 449l-323 -679h-89l122 257l-85 422h85l59 -300l142 300h89zM240 657h101l-113 -146h-56z" />
    <glyph glyph-name="thorn" unicode="&#xfe;" horiz-adv-x="490" 
d="M225 682l-33 -233q28 9 48 12q13 2 31 2q60 0 103 -35t61.5 -82t18.5 -96q0 -83 -48 -151.5t-122 -95.5q-52 -18 -159 -16l-31 -208h-82l130 903h83zM183 386l-47 -328q12 -2 30 -2q54 0 95 19t63 50t32.5 63t10.5 64q0 67 -38.5 107t-89.5 40q-22 0 -56 -13z" />
    <glyph glyph-name="ydieresis" unicode="&#xff;" horiz-adv-x="375" 
d="M400 449l-323 -679h-89l122 257l-85 422h85l59 -300l142 300h89zM147 632q19 0 32.5 -13.5t13.5 -32.5t-13.5 -32.5t-32.5 -13.5t-32.5 13.5t-13.5 32.5t13.5 32.5t32.5 13.5zM335 632q19 0 32.5 -13.5t13.5 -32.5t-13.5 -32.5t-32.5 -13.5t-32.5 13.5t-13.5 32.5
t13.5 32.5t32.5 13.5z" />
    <glyph glyph-name="Amacron" unicode="&#x100;" horiz-adv-x="521" 
d="M352 686l133 -686h-84l-41 214h-214l-90 -214h-91l301 686h86zM346 286l-53 280l-117 -280h170zM457 824l-12 -70h-280l10 70h282z" />
    <glyph glyph-name="amacron" unicode="&#x101;" 
d="M446 449l-64 -449h-84l7 54q-60 -60 -123 -60q-67 0 -107 54.5t-40 116.5q0 17 2.5 38t9.5 53t25.5 65.5t44.5 59.5q82 82 222 82q59 0 107 -14zM316 132l37 257q-62 4 -108 -14.5t-68.5 -45t-35.5 -62t-15 -54.5t-2 -33q0 -52 25 -85.5t63 -33.5q31 0 60 24.5t44 46.5z
M473 617l-8 -64h-322l8 64h322z" />
    <glyph glyph-name="Abreve" unicode="&#x102;" horiz-adv-x="521" 
d="M352 686l133 -686h-84l-41 214h-214l-90 -214h-91l301 686h86zM346 286l-53 280l-117 -280h170zM179 870h62q5 -66 70 -66q24 0 44 11.5t29.5 22t25.5 32.5h63q-4 -12 -15 -31t-31.5 -46t-53 -45.5t-69.5 -18.5t-63 14t-38.5 37t-18 44.5t-5.5 45.5z" />
    <glyph glyph-name="abreve" unicode="&#x103;" 
d="M446 449l-64 -449h-84l7 54q-60 -60 -123 -60q-67 0 -107 54.5t-40 116.5q0 17 2.5 38t9.5 53t25.5 65.5t44.5 59.5q82 82 222 82q59 0 107 -14zM316 132l37 257q-62 4 -108 -14.5t-68.5 -45t-35.5 -62t-15 -54.5t-2 -33q0 -52 25 -85.5t63 -33.5q31 0 60 24.5t44 46.5z
M201 639h47q1 -23 17 -43.5t51 -20.5q53 0 89 64h49q-16 -54 -53 -91t-89 -37q-54 0 -83.5 39.5t-27.5 88.5z" />
    <glyph glyph-name="Aogonek" unicode="&#x104;" horiz-adv-x="521" 
d="M567 -123l-10 -76q-40 -8 -67 -8q-60 0 -92.5 32.5t-32.5 69.5q0 43 36 105l-41 214h-214l-90 -214h-91l301 686h86l133 -686q-26 -43 -26 -78q0 -20 20 -36t46 -16q12 0 42 7zM346 286l-53 280l-117 -280h170z" />
    <glyph glyph-name="aogonek" unicode="&#x105;" 
d="M447 -111l-9 -68q-37 -8 -61 -8q-53 0 -82.5 29.5t-29.5 62.5q0 39 33 95l7 54q-60 -60 -123 -60q-67 0 -107 54.5t-40 116.5q0 17 2.5 38t9.5 53t25.5 65.5t44.5 59.5q82 82 222 82q59 0 107 -14l-64 -449h-7q-25 -45 -25 -69q0 -22 19 -35t40 -13q16 0 38 6zM316 132
l37 257q-62 4 -108 -14.5t-68 -45t-35 -62t-15.5 -54.5t-2.5 -33q0 -52 25 -85.5t63 -33.5q31 0 60 24.5t44 46.5z" />
    <glyph glyph-name="Cacute" unicode="&#x106;" horiz-adv-x="550" 
d="M570 691l-18 -86q-122 2 -210 -27q-57 -19 -99 -55t-64.5 -79.5t-32.5 -84.5t-10 -79q0 -91 48 -147t123 -56q105 0 211 84l-13 -110q-103 -60 -203 -60q-108 0 -185.5 75t-77.5 213q0 17 2 35.5t8 55t21.5 71.5t39 73t65 72t94.5 58q114 52 301 47zM584 879l-166 -150
h-52l73 150h145z" />
    <glyph glyph-name="cacute" unicode="&#x107;" horiz-adv-x="385" 
d="M400 455l-11 -75q-42 7 -65 7q-98 0 -151 -61t-53 -133q0 -12 2 -26t10 -33.5t20 -34.5t36 -26t55 -11q64 0 125 46l-13 -90q-59 -32 -125 -32q-54 0 -94.5 19.5t-62 51t-31.5 65.5t-10 70q0 46 16.5 91.5t50 87t93 67t136.5 25.5q34 0 72 -8zM283 657h101l-113 -146h-56
z" />
    <glyph glyph-name="Ccircumflex" unicode="&#x108;" horiz-adv-x="552" 
d="M580 691l-18 -86q-122 2 -210 -27q-57 -19 -99 -55t-64.5 -79.5t-32.5 -84.5t-10 -79q0 -91 48 -147t123 -56q105 0 211 84l-13 -110q-103 -60 -203 -60q-108 0 -185.5 75t-77.5 213q0 17 2 35.5t8 55t21.5 71.5t39 73t65 72t94.5 58q114 52 301 47zM549 729h-48l-81 85
l-141 -85h-60l138 150h124z" />
    <glyph glyph-name="ccircumflex" unicode="&#x109;" horiz-adv-x="385" 
d="M392 455l-11 -75q-42 7 -65 7q-98 0 -151 -61t-53 -133q0 -12 2 -26t10 -33.5t20 -34.5t36 -26t55 -11q64 0 125 46l-13 -90q-59 -32 -125 -32q-54 0 -94.5 19.5t-62 51t-31.5 65.5t-10 70q0 46 16.5 91.5t50 87t93 67t136.5 25.5q34 0 72 -8zM329 659l75 -148h-41
l-83 99l-134 -99h-47l131 148h99z" />
    <glyph glyph-name="Cdotaccent" unicode="&#x10a;" horiz-adv-x="552" 
d="M580 691l-18 -86q-122 2 -210 -27q-57 -19 -99 -55t-64.5 -79.5t-32.5 -84.5t-10 -79q0 -91 48 -147t123 -56q105 0 211 84l-13 -110q-103 -60 -203 -60q-108 0 -185.5 75t-77.5 213q0 17 2 35.5t8 55t21.5 71.5t39 73t65 72t94.5 58q114 52 301 47zM409 858
q22 0 37.5 -15.5t15.5 -37.5q0 -20 -14.5 -36.5t-38.5 -16.5q-22 0 -37.5 15.5t-15.5 37.5t15.5 37.5t37.5 15.5z" />
    <glyph glyph-name="cdotaccent" unicode="&#x10b;" horiz-adv-x="385" 
d="M392 455l-11 -75q-42 7 -65 7q-98 0 -151 -61t-53 -133q0 -12 2 -26t10 -33.5t20 -34.5t36 -26t55 -11q64 0 125 46l-13 -90q-59 -32 -125 -32q-54 0 -94.5 19.5t-62 51t-31.5 65.5t-10 70q0 46 16.5 91.5t50 87t93 67t136.5 25.5q34 0 72 -8zM271 632q19 0 32.5 -13.5
t13.5 -32.5t-13.5 -32.5t-32.5 -13.5t-32.5 13.5t-13.5 32.5t13.5 32.5t32.5 13.5z" />
    <glyph glyph-name="Ccaron" unicode="&#x10c;" horiz-adv-x="550" 
d="M570 691l-18 -86q-122 2 -210 -27q-57 -19 -99 -55t-64.5 -79.5t-32.5 -84.5t-10 -79q0 -91 48 -147t123 -56q105 0 211 84l-13 -110q-103 -60 -203 -60q-108 0 -185.5 75t-77.5 213q0 17 2 35.5t8 55t21.5 71.5t39 73t65 72t94.5 58q114 52 301 47zM604 880l-136 -151
h-123l-70 151h50l82 -86l138 86h59z" />
    <glyph glyph-name="ccaron" unicode="&#x10d;" horiz-adv-x="385" 
d="M400 455l-11 -75q-42 7 -65 7q-98 0 -151 -61t-53 -133q0 -12 2 -26t10 -33.5t20 -34.5t36 -26t55 -11q64 0 125 46l-13 -90q-59 -32 -125 -32q-54 0 -94.5 19.5t-62 51t-31.5 65.5t-10 70q0 46 16.5 91.5t50 87t93 67t136.5 25.5q34 0 72 -8zM448 660l-132 -149h-100
l-74 149h40l84 -97l133 97h49z" />
    <glyph glyph-name="Dcaron" unicode="&#x10e;" horiz-adv-x="656" 
d="M136 682h86q183 0 289 -90t106 -252q0 -198 -148 -291q-36 -22 -83 -33.5t-81.5 -13.5t-88.5 -2h-177zM142 81h41q133 0 195 23q67 26 105 89.5t38 146.5q0 159 -135 227q-42 22 -78.5 27.5t-91.5 5.5zM531 880l-136 -151h-123l-70 151h50l82 -86l138 86h59z" />
    <glyph glyph-name="dcaron" unicode="&#x10f;" horiz-adv-x="583" 
d="M481 682l-97 -682q-60 -14 -115 -14q-117 0 -177 56q-59 56 -59 146q0 80 50 153t133 103q57 20 148 18l31 220h86zM307 58l47 334q-66 0 -104 -14q-64 -22 -96 -74.5t-32 -111.5t35.5 -98t110.5 -39q22 0 39 3zM488 449l6 45q66 22 66 85q-40 18 -40 53q0 27 18.5 43
t42.5 16q29 0 47.5 -22.5t18.5 -56.5q0 -50 -39.5 -98t-119.5 -65z" />
    <glyph glyph-name="Dcroat" unicode="&#x110;" horiz-adv-x="656" 
d="M83 308h-79l8 66h80l44 308h86q183 0 289 -90t106 -252q0 -198 -148 -291q-36 -22 -83 -33.5t-81.5 -13.5t-88.5 -2h-177zM332 308h-158l-32 -227h41q133 0 195 23q68 26 105.5 89.5t37.5 146.5q0 133 -94 202q-36 27 -77.5 40.5t-66.5 15.5t-67 2l-33 -226h158z" />
    <glyph glyph-name="dcroat" unicode="&#x111;" 
d="M466 590h86l-7 -52h-86l-77 -538q-60 -14 -115 -14q-116 0 -176 56q-60 57 -60 146q0 80 50 153t134 103q57 20 148 18l10 76h-104l7 52h106l12 92h86zM305 58l48 334q-67 0 -104 -14q-64 -22 -96.5 -74.5t-32.5 -111.5t36 -98t111 -39q23 0 38 3z" />
    <glyph glyph-name="Emacron" unicode="&#x112;" horiz-adv-x="510" 
d="M498 682l-11 -81h-273l-30 -214h241l-11 -81h-242l-33 -225h359l-12 -81h-448l99 682h361zM472 824l-12 -70h-280l10 70h282z" />
    <glyph glyph-name="emacron" unicode="&#x113;" horiz-adv-x="438" 
d="M389 125l-13 -89q-70 -50 -149 -50q-86 0 -137.5 60t-51.5 153q0 110 59.5 187t150.5 77q71 0 117 -51.5t46 -134.5q0 -24 -4 -44h-281q-2 -32 -2 -44q0 -60 33 -96.5t77 -36.5q64 0 155 69zM140 292h188q1 48 -21.5 75t-58.5 27q-73 0 -108 -102zM428 617l-8 -64h-322
l8 64h322z" />
    <glyph glyph-name="Ebreve" unicode="&#x114;" horiz-adv-x="510" 
d="M498 682l-11 -81h-273l-30 -214h241l-11 -81h-242l-33 -225h359l-12 -81h-448l99 682h361zM194 870h62q5 -66 70 -66q24 0 44 11.5t29.5 22t25.5 32.5h63q-4 -12 -15 -31t-31.5 -46t-53 -45.5t-69.5 -18.5t-63 14t-38.5 37t-18 44.5t-5.5 45.5z" />
    <glyph glyph-name="ebreve" unicode="&#x115;" horiz-adv-x="438" 
d="M389 125l-13 -89q-70 -50 -149 -50q-86 0 -137.5 60t-51.5 153q0 110 59.5 187t150.5 77q71 0 117 -51.5t46 -134.5q0 -24 -4 -44h-281q-2 -32 -2 -44q0 -60 33 -96.5t77 -36.5q64 0 155 69zM140 292h188q1 48 -21.5 75t-58.5 27q-73 0 -108 -102zM151 639h47
q1 -23 17 -43.5t51 -20.5q53 0 89 64h49q-16 -54 -53 -91t-89 -37q-54 0 -83.5 39.5t-27.5 88.5z" />
    <glyph glyph-name="Edotaccent" unicode="&#x116;" horiz-adv-x="510" 
d="M498 682l-11 -81h-273l-30 -214h241l-11 -81h-242l-33 -225h359l-12 -81h-448l99 682h361zM333 858q22 0 37.5 -15.5t15.5 -37.5q0 -20 -14.5 -36.5t-38.5 -16.5q-22 0 -37.5 15.5t-15.5 37.5t15.5 37.5t37.5 15.5z" />
    <glyph glyph-name="edotaccent" unicode="&#x117;" horiz-adv-x="438" 
d="M389 125l-13 -89q-70 -50 -149 -50q-86 0 -137.5 60t-51.5 153q0 110 59.5 187t150.5 77q71 0 117 -51.5t46 -134.5q0 -24 -4 -44h-281q-2 -32 -2 -44q0 -60 33 -96.5t77 -36.5q64 0 155 69zM140 292h188q1 48 -21.5 75t-58.5 27q-73 0 -108 -102zM263 632
q19 0 32.5 -13.5t13.5 -32.5t-13.5 -32.5t-32.5 -13.5t-32.5 13.5t-13.5 32.5t13.5 32.5t32.5 13.5z" />
    <glyph glyph-name="Eogonek" unicode="&#x118;" horiz-adv-x="510" 
d="M486 -123l-8 -76q-43 -8 -68 -8q-59 0 -91.5 32.5t-32.5 69.5q0 43 36 105h-284l99 682h362l-13 -81h-272l-30 -213h241l-11 -82h-242l-35 -225h362l-13 -81h-80q-28 -51 -28 -76q0 -26 21.5 -40t44.5 -14q12 0 42 7z" />
    <glyph glyph-name="eogonek" unicode="&#x119;" horiz-adv-x="438" 
d="M357 -111l-9 -68q-37 -8 -61 -8q-53 0 -82.5 29t-29.5 63q0 38 26 83q-78 10 -120.5 68.5t-42.5 142.5q0 110 59.5 187t150.5 77q71 0 117 -51.5t46 -134.5q0 -24 -4 -44h-281q-2 -32 -2 -44q0 -60 33 -96.5t77 -36.5q64 0 155 69l-13 -89q-44 -32 -95 -43
q-21 -31 -21 -63q0 -20 18 -33.5t41 -13.5q16 0 38 6zM140 292h188q1 48 -21.5 75t-58.5 27q-73 0 -108 -102z" />
    <glyph glyph-name="Ecaron" unicode="&#x11a;" horiz-adv-x="510" 
d="M498 682l-11 -81h-273l-30 -214h241l-11 -81h-242l-33 -225h359l-12 -81h-448l99 682h361zM513 880l-136 -151h-123l-70 151h50l82 -86l138 86h59z" />
    <glyph glyph-name="ecaron" unicode="&#x11b;" horiz-adv-x="438" 
d="M389 125l-13 -89q-70 -50 -149 -50q-86 0 -137.5 60t-51.5 153q0 110 59.5 187t150.5 77q71 0 117 -51.5t46 -134.5q0 -24 -4 -44h-281q-2 -32 -2 -44q0 -60 33 -96.5t77 -36.5q64 0 155 69zM140 292h188q1 48 -21.5 75t-58.5 27q-73 0 -108 -102zM427 660l-132 -149
h-100l-74 149h40l84 -97l133 97h49z" />
    <glyph glyph-name="Gcircumflex" unicode="&#x11c;" horiz-adv-x="604" 
d="M578 299l-35 -248q-113 -60 -225 -60q-129 0 -206.5 86.5t-77.5 213.5q0 85 35.5 161.5t90.5 126.5q124 112 345 112q65 0 116 -9l-12 -82q-47 8 -107 8q-174 0 -271.5 -88.5t-97.5 -224.5q0 -99 54.5 -160.5t134.5 -61.5q70 0 137 33l17 118h-98l11 75h189zM590 729h-48
l-81 85l-141 -85h-60l138 150h124z" />
    <glyph glyph-name="gcircumflex" unicode="&#x11d;" horiz-adv-x="427" 
d="M445 449l-9 -67h-87q30 -44 30 -90t-20.5 -85.5t-57.5 -61.5q-17 -10 -36.5 -17t-33 -9.5t-46.5 -7.5q-3 0 -17 -3.5t-31 -13t-17 -22.5q0 -16 22.5 -25t79.5 -22q145 -37 145 -127q0 -48 -46.5 -88.5t-137.5 -40.5q-77 0 -135.5 31.5t-58.5 82.5q0 23 12 40t36 28
t39.5 16t41.5 11q-15 6 -23 10t-23.5 13.5t-23.5 24t-8 31.5q0 27 25 50t64 34q-81 38 -81 129q0 27 8 57t37.5 65.5t76.5 48.5q26 8 76 8h199zM298 289q0 41 -23.5 66t-55.5 25q-41 0 -65.5 -34.5t-24.5 -72.5q0 -36 22.5 -62.5t57.5 -26.5q38 0 63.5 31.5t25.5 73.5z
M186 -46q-117 -27 -117 -70q0 -24 36 -37.5t80 -13.5q49 0 74 17t25 39q0 21 -28 38t-70 27zM335 659l75 -148h-41l-83 99l-134 -99h-47l131 148h99z" />
    <glyph glyph-name="Gbreve" unicode="&#x11e;" horiz-adv-x="604" 
d="M578 299l-35 -248q-113 -60 -225 -60q-129 0 -206.5 86.5t-77.5 213.5q0 85 35.5 161.5t90.5 126.5q124 112 345 112q65 0 116 -9l-12 -82q-47 8 -107 8q-174 0 -271.5 -88.5t-97.5 -224.5q0 -99 54.5 -160.5t134.5 -61.5q70 0 137 33l17 118h-98l11 75h189zM311 870h62
q5 -66 70 -66q24 0 44 11.5t29.5 22t25.5 32.5h63q-4 -12 -15 -31t-31.5 -46t-53 -45.5t-69.5 -18.5t-63 14t-38.5 37t-18 44.5t-5.5 45.5z" />
    <glyph glyph-name="gbreve" unicode="&#x11f;" horiz-adv-x="427" 
d="M445 449l-9 -67h-87q30 -44 30 -90t-20.5 -85.5t-57.5 -61.5q-17 -10 -36.5 -17t-33 -9.5t-46.5 -7.5q-3 0 -17 -3.5t-31 -13t-17 -22.5q0 -16 22.5 -25t79.5 -22q145 -37 145 -127q0 -48 -46.5 -88.5t-137.5 -40.5q-77 0 -135.5 31.5t-58.5 82.5q0 23 12 40t36 28
t39.5 16t41.5 11q-15 6 -23 10t-23.5 13.5t-23.5 24t-8 31.5q0 27 25 50t64 34q-81 38 -81 129q0 27 8 57t37.5 65.5t76.5 48.5q26 8 76 8h199zM298 289q0 41 -23.5 66t-55.5 25q-41 0 -65.5 -34.5t-24.5 -72.5q0 -36 22.5 -62.5t57.5 -26.5q38 0 63.5 31.5t25.5 73.5z
M186 -46q-117 -27 -117 -70q0 -24 36 -37.5t80 -13.5q49 0 74 17t25 39q0 21 -28 38t-70 27zM155 639h47q1 -23 17 -43.5t51 -20.5q53 0 89 64h49q-16 -54 -53 -91t-89 -37q-54 0 -83.5 39.5t-27.5 88.5z" />
    <glyph glyph-name="Gdotaccent" unicode="&#x120;" horiz-adv-x="604" 
d="M578 299l-35 -248q-113 -60 -225 -60q-129 0 -206.5 86.5t-77.5 213.5q0 85 35.5 161.5t90.5 126.5q124 112 345 112q65 0 116 -9l-12 -82q-47 8 -107 8q-174 0 -271.5 -88.5t-97.5 -224.5q0 -99 54.5 -160.5t134.5 -61.5q70 0 137 33l17 118h-98l11 75h189zM440 858
q22 0 37.5 -15.5t15.5 -37.5q0 -20 -14.5 -36.5t-38.5 -16.5q-22 0 -37.5 15.5t-15.5 37.5t15.5 37.5t37.5 15.5z" />
    <glyph glyph-name="gdotaccent" unicode="&#x121;" horiz-adv-x="427" 
d="M445 449l-9 -67h-87q30 -44 30 -90t-20.5 -85.5t-57.5 -61.5q-17 -10 -36.5 -17t-33 -9.5t-46.5 -7.5q-3 0 -17 -3.5t-31 -13t-17 -22.5q0 -16 22.5 -25t79.5 -22q145 -37 145 -127q0 -48 -46.5 -88.5t-137.5 -40.5q-77 0 -135.5 31.5t-58.5 82.5q0 23 12 40t36 28
t39.5 16t41.5 11q-15 6 -23 10t-23.5 13.5t-23.5 24t-8 31.5q0 27 25 50t64 34q-81 38 -81 129q0 27 8 57t37.5 65.5t76.5 48.5q26 8 76 8h199zM298 289q0 41 -23.5 66t-55.5 25q-41 0 -65.5 -34.5t-24.5 -72.5q0 -36 22.5 -62.5t57.5 -26.5q38 0 63.5 31.5t25.5 73.5z
M186 -46q-117 -27 -117 -70q0 -24 36 -37.5t80 -13.5q49 0 74 17t25 39q0 21 -28 38t-70 27zM267 632q19 0 32.5 -13.5t13.5 -32.5t-13.5 -32.5t-32.5 -13.5t-32.5 13.5t-13.5 32.5t13.5 32.5t32.5 13.5z" />
    <glyph glyph-name="Gcommaaccent" unicode="&#x122;" horiz-adv-x="604" 
d="M578 299l-35 -248q-113 -60 -225 -60q-129 0 -206.5 86.5t-77.5 213.5q0 85 35.5 161.5t90.5 126.5q124 112 345 112q65 0 116 -9l-12 -82q-47 8 -107 8q-174 0 -271.5 -88.5t-97.5 -224.5q0 -99 54.5 -160.5t134.5 -61.5q70 0 137 33l17 118h-98l11 75h189zM175 -211
l16 51q36 -8 58 -8q25 0 43 11t18 29q0 15 -8.5 24t-26 12t-29.5 4t-34 1l20 50q34 0 60 -2t54.5 -10t44.5 -26.5t16 -46.5q0 -36 -35.5 -66.5t-107.5 -30.5q-50 0 -89 8z" />
    <glyph glyph-name="gcommaaccent" unicode="&#x123;" horiz-adv-x="427" 
d="M445 449l-9 -67h-87q30 -44 30 -90t-20.5 -85.5t-57.5 -61.5q-17 -10 -36.5 -17t-33 -9.5t-46.5 -7.5q-3 0 -17 -3.5t-31 -13t-17 -22.5q0 -16 22.5 -25t79.5 -22q145 -37 145 -127q0 -48 -46.5 -88.5t-137.5 -40.5q-77 0 -135.5 31.5t-58.5 82.5q0 23 12 40t36 28
t39.5 16t41.5 11q-15 6 -23 10t-23.5 13.5t-23.5 24t-8 31.5q0 27 25 50t64 34q-81 38 -81 129q0 27 8 57t37.5 65.5t76.5 48.5q26 8 76 8h199zM298 289q0 41 -23.5 66t-55.5 25q-41 0 -65.5 -34.5t-24.5 -72.5q0 -36 22.5 -62.5t57.5 -26.5q38 0 63.5 31.5t25.5 73.5z
M186 -46q-117 -27 -117 -70q0 -24 36 -37.5t80 -13.5q49 0 74 17t25 39q0 21 -28 38t-70 27zM355 701l-6 -39q-57 -19 -60 -78q36 -14 36 -46q0 -24 -16.5 -38t-38.5 -14q-26 0 -42.5 20t-16.5 50q0 42 33 85t111 60z" />
    <glyph glyph-name="Hcircumflex" unicode="&#x124;" horiz-adv-x="698" 
d="M686 682l-94 -682h-94l43 302h-369l-42 -302h-95l95 682h95l-42 -296h370l39 296h94zM567 729h-48l-81 85l-141 -85h-60l138 150h124z" />
    <glyph glyph-name="hcircumflex" unicode="&#x125;" 
d="M203 682l-44 -307q80 88 161 88q40 0 71 -30t31 -91q0 -28 -5 -57l-40 -285h-86l41 292q4 21 4 41q0 27 -11 42q-16 22 -41 22q-37 0 -82 -45q-33 -33 -54 -60l-43 -292h-85l98 682h85zM356 871l75 -148h-41l-83 99l-134 -99h-47l131 148h99z" />
    <glyph glyph-name="Hbar" unicode="&#x126;" horiz-adv-x="698" 
d="M668 548h93l-9 -65h-93l-67 -483h-94l43 302h-369l-42 -302h-95l67 483h-86l7 65h89l18 134h95l-19 -134h368l18 134h94zM566 483h-369l-14 -97h370z" />
    <glyph glyph-name="hbar" unicode="&#x127;" 
d="M189 586h139l-9 -52h-137l-23 -159q80 88 161 88q40 0 71 -30t31 -91q0 -28 -5 -57l-40 -285h-86l41 292q4 21 4 41q0 27 -11 42q-16 22 -41 22q-37 0 -82 -45q-33 -33 -54 -60l-43 -292h-85l76 534h-92l8 52h92l14 96h85z" />
    <glyph glyph-name="Itilde" unicode="&#x128;" horiz-adv-x="240" 
d="M229 682l-95 -682h-95l95 682h95zM71 729h-52q0 62 33 91.5t70 29.5q30 0 78 -24q4 -2 14 -7.5t16 -8.5t14.5 -5.5t15.5 -2.5q31 0 38 48h52q0 -52 -26.5 -86.5t-73.5 -34.5q-36 0 -84 25q-43 23 -57 23q-18 0 -27.5 -15.5t-10.5 -32.5z" />
    <glyph glyph-name="itilde" unicode="&#x129;" horiz-adv-x="188" 
d="M171 449l-64 -449h-85l64 449h85zM41 539h-40q2 38 8 56q10 27 30 42.5t40 15.5t93 -26q34 -12 49 -12q31 0 35 37h39q-3 -33 -7 -48q-9 -31 -29.5 -48.5t-45.5 -17.5q-15 0 -69 20q-41 18 -71 18q-10 0 -20.5 -9t-11.5 -28z" />
    <glyph glyph-name="Imacron" unicode="&#x12a;" horiz-adv-x="240" 
d="M229 682l-95 -682h-95l95 682h95zM336 824l-12 -70h-280l10 70h282z" />
    <glyph glyph-name="imacron" unicode="&#x12b;" horiz-adv-x="188" 
d="M171 449l-64 -449h-85l64 449h85zM303 617l-8 -64h-322l8 64h322z" />
    <glyph glyph-name="Ibreve" unicode="&#x12c;" horiz-adv-x="240" 
d="M229 682l-95 -682h-95l95 682h95zM67 870h62q5 -66 70 -66q24 0 44 11.5t29.5 22t25.5 32.5h63q-4 -12 -15 -31t-31.5 -46t-53 -45.5t-69.5 -18.5t-63 14t-38.5 37t-18 44.5t-5.5 45.5z" />
    <glyph glyph-name="ibreve" unicode="&#x12d;" horiz-adv-x="188" 
d="M171 449l-64 -449h-85l64 449h85zM36 639h47q1 -23 17 -43.5t51 -20.5q53 0 89 64h49q-16 -54 -53 -91t-89 -37q-54 0 -83.5 39.5t-27.5 88.5z" />
    <glyph glyph-name="Iogonek" unicode="&#x12e;" horiz-adv-x="240" 
d="M203 -123l-8 -76q-40 -8 -67 -8q-59 0 -92 32.5t-33 68.5q0 44 36 106l95 682h95l-95 -682h-11q-28 -51 -28 -76t21.5 -39.5t44.5 -14.5q12 0 42 7z" />
    <glyph glyph-name="iogonek" unicode="&#x12f;" horiz-adv-x="188" 
d="M172 -111l-9 -68q-37 -8 -61 -8q-53 0 -82.5 29.5t-29.5 62.5q0 39 32 95l64 449h85l-64 -449h-7q-25 -45 -25 -69q0 -22 19 -35t40 -13q14 0 38 6zM196 592q0 -18 -13.5 -33t-34.5 -15t-35 14.5t-14 33.5t14 33t34 14q21 0 35 -14t14 -33z" />
    <glyph glyph-name="Idotaccent" unicode="&#x130;" horiz-adv-x="240" 
d="M229 682l-95 -682h-95l95 682h95zM188 858q22 0 37.5 -15.5t15.5 -37.5q0 -20 -14.5 -36.5t-38.5 -16.5q-22 0 -37.5 15.5t-15.5 37.5t15.5 37.5t37.5 15.5z" />
    <glyph glyph-name="dotlessi" unicode="&#x131;" horiz-adv-x="188" 
d="M171 449l-64 -449h-85l64 449h85z" />
    <glyph glyph-name="IJ" unicode="&#x132;" horiz-adv-x="479" 
d="M229 682l-95 -682h-95l95 682h95zM473 682l-99 -699l-6 -38t-8.5 -39.5t-14 -41.5t-21.5 -35.5t-31.5 -31.5t-43.5 -19.5t-57 -8.5q-33 0 -63 7l-25 87q40 -8 71 -8q56 0 76.5 27t29.5 90l101 710h91z" />
    <glyph glyph-name="ij" unicode="&#x133;" horiz-adv-x="375" 
d="M171 449l-64 -449h-85l64 449h85zM340 638q20 0 34.5 -14.5t14.5 -34.5t-14.5 -34.5t-34.5 -14.5t-35 14.5t-15 34.5q0 21 14.5 35t35.5 14zM364 449l-56 -449q-8 -68 -16 -103.5t-25 -62.5q-41 -64 -123 -64q-44 0 -89 21l24 70q30 -9 49 -9q53 0 68 29.5t25 118.5
l60 449h83zM147 639q20 0 34.5 -14t14.5 -35q0 -20 -14.5 -34.5t-34.5 -14.5t-34.5 14.5t-14.5 34.5q0 21 14.5 35t34.5 14z" />
    <glyph glyph-name="Jcircumflex" unicode="&#x134;" horiz-adv-x="240" 
d="M234 682l-100 -699q-5 -34 -8.5 -54.5t-16.5 -54.5t-30.5 -54t-50.5 -35.5t-76 -15.5q-32 0 -63 7l-24 87q40 -8 70 -8q56 0 77 27t30 90l101 710h91zM338 729h-48l-81 85l-141 -85h-60l138 150h124z" />
    <glyph glyph-name="jcircumflex" unicode="&#x135;" horiz-adv-x="188" 
d="M176 449l-69 -541q-9 -68 -50.5 -103.5t-99.5 -35.5q-27 0 -55 10l11 75q17 -5 37 -5q39 0 54.5 23t22.5 79l64 498h85zM198 670l75 -148h-41l-83 99l-133 -99h-48l131 148h99z" />
    <glyph glyph-name="Kcommaaccent" unicode="&#x136;" horiz-adv-x="563" 
d="M589 682l-314 -315l289 -367h-107l-280 357l-53 -357h-90l97 682h90l-44 -294l292 294h120zM134 -211l16 51q36 -8 58 -8q25 0 43 11t18 29q0 15 -8.5 24t-26 12t-30 4t-33.5 1l20 50q34 0 60 -2t54.5 -10t44.5 -26.5t16 -46.5q0 -36 -35.5 -66.5t-107.5 -30.5
q-50 0 -89 8z" />
    <glyph glyph-name="kcommaaccent" unicode="&#x137;" horiz-adv-x="458" 
d="M204 682l-63 -428l192 195h114l-206 -212l217 -237h-111l-206 228l-34 -228h-84l97 682h84zM106 -195l12 46q30 -7 44 -7q20 0 31 8.5t12.5 14.5t1.5 11q0 11 -8 18.5t-14 9.5t-21 6v50q22 -2 34 -4t30 -7t27.5 -12t17 -20t7.5 -31q0 -39 -29 -64.5t-78 -25.5
q-36 0 -67 7z" />
    <glyph glyph-name="kgreenlandic" unicode="&#x138;" horiz-adv-x="458" 
d="M171 449l-30 -195l192 195h114l-206 -212l217 -237h-111l-206 228l-34 -228h-84l64 449h84z" />
    <glyph glyph-name="Lacute" unicode="&#x139;" horiz-adv-x="417" 
d="M221 682l-89 -605h280l-11 -77h-367l98 682h89zM396 879l-166 -150h-52l73 150h145z" />
    <glyph glyph-name="lacute" unicode="&#x13a;" horiz-adv-x="188" 
d="M204 682l-97 -682h-85l97 682h85zM176 869h101l-113 -146h-56z" />
    <glyph glyph-name="Lcommaaccent" unicode="&#x13b;" horiz-adv-x="417" 
d="M221 682l-89 -605h280l-11 -77h-367l98 682h89zM71 -211l16 51q36 -8 58 -8q25 0 43 11t18 29q0 15 -8.5 24t-26 12t-29.5 4t-34 1l20 50q34 0 60 -2t54.5 -10t44.5 -26.5t16 -46.5q0 -36 -35.5 -66.5t-107.5 -30.5q-50 0 -89 8z" />
    <glyph glyph-name="lcommaaccent" unicode="&#x13c;" horiz-adv-x="188" 
d="M204 682l-97 -682h-85l97 682h85zM-29 -195l12 46q30 -7 44 -7q20 0 31 8.5t12.5 14.5t1.5 11q0 11 -8 18.5t-14 9.5t-21 6v50q22 -2 34 -4t30 -7t27.5 -12t17 -20t7.5 -31q0 -39 -29 -64.5t-78 -25.5q-36 0 -67 7z" />
    <glyph glyph-name="Lcaron" unicode="&#x13d;" horiz-adv-x="417" 
d="M221 682l-89 -605h280l-11 -77h-367l98 682h89zM275 449l6 45q66 21 66 85q-39 18 -39 53q0 27 18.5 43t42.5 16q29 0 47 -22.5t18 -56.5q0 -50 -39.5 -98t-119.5 -65z" />
    <glyph glyph-name="lcaron" unicode="&#x13e;" horiz-adv-x="302" 
d="M203 682l-98 -682h-84l97 682h85zM209 449l7 45q62 20 66 85q-40 18 -40 53q0 27 18.5 43t42.5 16q29 0 47.5 -22.5t18.5 -56.5q0 -50 -40 -98t-120 -65z" />
    <glyph glyph-name="Ldot" unicode="&#x13f;" horiz-adv-x="417" 
d="M222 682l-89 -605h279l-11 -77h-367l99 682h89zM306 387q22 0 38 -15.5t16 -38.5q0 -22 -16 -38t-38 -16q-23 0 -39 16t-16 38q0 23 16 38.5t39 15.5z" />
    <glyph glyph-name="ldot" unicode="&#x140;" horiz-adv-x="292" 
d="M207 682l-97 -682h-85l97 682h85zM313 340q0 -20 -15 -37t-38 -17q-21 0 -36.5 15.5t-15.5 36.5t15 37t37 16q23 0 38 -16t15 -35z" />
    <glyph glyph-name="Lslash" unicode="&#x141;" horiz-adv-x="417" 
d="M84 349l48 333h89l-36 -249l129 107l-13 -91l-130 -108l-39 -264h280l-11 -77h-367l37 258l-74 -61l12 90z" />
    <glyph glyph-name="lslash" unicode="&#x142;" horiz-adv-x="188" 
d="M70 333l49 349h85l-38 -271l75 61l-9 -63l-75 -60l-50 -349h-85l39 272l-76 -62l10 63z" />
    <glyph glyph-name="Nacute" unicode="&#x143;" horiz-adv-x="688" 
d="M678 682l-97 -682h-48l-338 498l-71 -498h-85l97 682h45l341 -502l71 502h85zM602 879l-166 -150h-52l73 150h145z" />
    <glyph glyph-name="nacute" unicode="&#x144;" 
d="M172 449l-12 -81q75 88 150 88q59 0 86 -42t27 -89q0 -20 -5 -55l-41 -270h-85l36 270q5 35 5 54q0 23 -13.5 42.5t-37.5 19.5q-26 0 -58.5 -24t-49.5 -43.5t-26 -32.5l-41 -286h-85l64 449h86zM287 657h101l-113 -146h-56z" />
    <glyph glyph-name="Ncommaaccent" unicode="&#x145;" horiz-adv-x="688" 
d="M678 682l-97 -682h-48l-338 498l-71 -498h-85l97 682h45l341 -502l71 502h85zM197 -211l16 51q36 -8 58 -8q25 0 43 11t18 29q0 15 -8.5 24t-26 12t-29.5 4t-34 1l20 50q34 0 60 -2t54.5 -10t44.5 -26.5t16 -46.5q0 -36 -35.5 -66.5t-107.5 -30.5q-50 0 -89 8z" />
    <glyph glyph-name="ncommaaccent" unicode="&#x146;" 
d="M172 449l-12 -81q75 88 150 88q59 0 86 -42t27 -89q0 -20 -5 -55l-41 -270h-85l36 270q5 35 5 54q0 23 -13.5 42.5t-37.5 19.5q-26 0 -58.5 -24t-49.5 -43.5t-26 -32.5l-41 -286h-85l64 449h86zM111 -195l12 46q30 -7 44 -7q20 0 31 8.5t12.5 14.5t1.5 11q0 11 -8 18.5
t-14 9.5t-21 6v50q22 -2 34 -4t30 -7t27.5 -12t17 -20t7.5 -31q0 -39 -29 -64.5t-78 -25.5q-36 0 -67 7z" />
    <glyph glyph-name="Ncaron" unicode="&#x147;" horiz-adv-x="688" 
d="M678 682l-97 -682h-48l-338 498l-71 -498h-85l97 682h45l341 -502l71 502h85zM612 880l-136 -151h-123l-70 151h50l82 -86l138 86h59z" />
    <glyph glyph-name="ncaron" unicode="&#x148;" 
d="M172 449l-12 -81q75 88 150 88q59 0 86 -42t27 -89q0 -20 -5 -55l-41 -270h-85l36 270q5 35 5 54q0 23 -13.5 42.5t-37.5 19.5q-26 0 -58.5 -24t-49.5 -43.5t-26 -32.5l-41 -286h-85l64 449h86zM452 660l-132 -149h-100l-74 149h40l84 -97l133 97h49z" />
    <glyph glyph-name="napostrophe" unicode="&#x149;" horiz-adv-x="635" 
d="M58 449l7 45q66 22 66 85q-40 18 -40 53q0 27 18.5 43t42.5 16q29 0 47.5 -22.5t18.5 -56.5q0 -50 -40 -98t-120 -65zM340 449l-12 -81q75 88 150 88q59 0 86 -42t27 -89q0 -20 -5 -55l-41 -270h-85l36 270q5 35 5 54q0 23 -13.5 42.5t-37.5 19.5q-26 0 -58.5 -24
t-49.5 -43.5t-26 -32.5l-41 -286h-85l64 449h86z" />
    <glyph glyph-name="Eng" unicode="&#x14a;" horiz-adv-x="691" 
d="M362 -2l-16 89q43 -10 71 -10q50 0 71 23.5t30 81.5l30 208q15 108 -31 165t-121 57q-114 0 -197 -119l-69 -493h-95l95 682h94l-8 -73q97 82 203 82q47 0 89.5 -17.5t77.5 -51.5t51 -94t5 -137l-31 -218q-15 -103 -61.5 -142.5t-119.5 -39.5q-24 0 -68 7z" />
    <glyph glyph-name="eng" unicode="&#x14b;" 
d="M418 270l-44 -304q-5 -37 -9 -57.5t-14.5 -51.5t-25 -47t-41 -28.5t-61.5 -12.5q-25 0 -65 9l13 77q26 -7 41 -7q36 0 51.5 26.5t25.5 101.5l3 24l36 270q5 35 5 54q0 24 -13.5 43t-36.5 19q-26 0 -59 -24t-50.5 -44t-25.5 -32l-41 -286h-85l64 449h86l-12 -81
q76 88 150 88q57 0 85 -40.5t28 -89.5q0 -22 -5 -56z" />
    <glyph glyph-name="Omacron" unicode="&#x14c;" horiz-adv-x="656" 
d="M625 409q0 -17 -2.5 -42t-10.5 -68t-28.5 -92t-50.5 -89q-40 -54 -101 -90.5t-138 -36.5q-100 0 -172 76.5t-72 212.5q0 96 38 188.5t116 157.5t176 65q56 0 100 -19.5t70.5 -49.5t44 -69.5t24 -74.5t6.5 -69zM527 417q0 12 -1 23.5t-4.5 37.5t-13 46.5t-24.5 42
t-42 33.5t-62 12q-57 0 -104 -34.5t-74 -88t-41.5 -112t-14.5 -114.5q0 -99 45 -147t106 -48q69 0 123 53t80.5 131.5t26.5 164.5zM550 824l-12 -70h-280l10 70h282z" />
    <glyph glyph-name="omacron" unicode="&#x14d;" horiz-adv-x="448" 
d="M418 266q0 -133 -65.5 -206.5t-150.5 -73.5q-63 0 -109 41q-57 52 -57 160q0 131 67 203.5t149 72.5q74 0 120 -53.5t46 -143.5zM331 271q0 50 -20 85.5t-60 35.5q-55 0 -91.5 -64.5t-36.5 -161.5q0 -58 26 -86t52 -28q41 0 72 36t44.5 84.5t13.5 98.5zM433 617l-8 -64
h-322l8 64h322z" />
    <glyph glyph-name="Obreve" unicode="&#x14e;" horiz-adv-x="656" 
d="M625 409q0 -17 -2.5 -42t-10.5 -68t-28.5 -92t-50.5 -89q-40 -54 -101 -90.5t-138 -36.5q-100 0 -172 76.5t-72 212.5q0 96 38 188.5t116 157.5t176 65q56 0 100 -19.5t70.5 -49.5t44 -69.5t24 -74.5t6.5 -69zM527 417q0 12 -1 23.5t-4.5 37.5t-13 46.5t-24.5 42
t-42 33.5t-62 12q-57 0 -104 -34.5t-74 -88t-41.5 -112t-14.5 -114.5q0 -99 45 -147t106 -48q69 0 123 53t80.5 131.5t26.5 164.5zM267 870h62q5 -66 70 -66q24 0 44 11.5t29.5 22t25.5 32.5h63q-4 -12 -15 -31t-31.5 -46t-53 -45.5t-69.5 -18.5t-63 14t-38.5 37t-18 44.5
t-5.5 45.5z" />
    <glyph glyph-name="obreve" unicode="&#x14f;" horiz-adv-x="448" 
d="M418 266q0 -133 -65.5 -206.5t-150.5 -73.5q-63 0 -109 41q-57 52 -57 160q0 131 67 203.5t149 72.5q74 0 120 -53.5t46 -143.5zM331 271q0 50 -20 85.5t-60 35.5q-55 0 -91.5 -64.5t-36.5 -161.5q0 -58 26 -86t52 -28q41 0 72 36t44.5 84.5t13.5 98.5zM166 639h47
q1 -23 17 -43.5t51 -20.5q53 0 89 64h49q-16 -54 -53 -91t-89 -37q-54 0 -83.5 39.5t-27.5 88.5z" />
    <glyph glyph-name="Ohungarumlaut" unicode="&#x150;" horiz-adv-x="656" 
d="M625 409q0 -17 -2.5 -42t-10.5 -68t-28.5 -92t-50.5 -89q-40 -54 -101 -90.5t-138 -36.5q-100 0 -172 76.5t-72 212.5q0 96 38 188.5t116 157.5t176 65q56 0 100 -19.5t70.5 -49.5t44 -69.5t24 -74.5t6.5 -69zM527 417q0 12 -1 23.5t-4.5 37.5t-13 46.5t-24.5 42
t-42 33.5t-62 12q-57 0 -104 -34.5t-74 -88t-41.5 -112t-14.5 -114.5q0 -99 45 -147t106 -48q69 0 123 53t80.5 131.5t26.5 164.5zM429 879l-122 -150h-49l49 150h122zM591 879l-122 -150h-49l49 150h122z" />
    <glyph glyph-name="ohungarumlaut" unicode="&#x151;" horiz-adv-x="448" 
d="M418 266q0 -133 -65.5 -206.5t-150.5 -73.5q-63 0 -109 41q-57 52 -57 160q0 131 67 203.5t149 72.5q74 0 120 -53.5t46 -143.5zM331 271q0 50 -20 85.5t-60 35.5q-55 0 -91.5 -64.5t-36.5 -161.5q0 -58 26 -86t52 -28q41 0 72 36t44.5 84.5t13.5 98.5zM492 658
l-114 -147h-55l67 147h102zM334 658l-114 -147h-55l67 147h102z" />
    <glyph glyph-name="OE" unicode="&#x152;" horiz-adv-x="969" 
d="M932 682l-12 -84h-272l-30 -209h256l-12 -82h-256l-32 -226h366l-11 -81h-451q-24 -2 -38 -2q-15 -1 -64 -1q-44 0 -70 2t-68.5 15t-77.5 39q-59 44 -84 111.5t-25 130.5q0 44 11 91t36.5 96t62 89.5t92.5 70t123 37.5q31 4 116 4q14 -1 76 -1h364zM482 81l74 517h-52
q-6 0 -42 1.5t-43 1.5q-67 0 -120 -23q-73 -32 -111.5 -111.5t-38.5 -176.5q0 -138 90 -187q20 -11 42 -15.5t40 -5.5t58 -1h103z" />
    <glyph glyph-name="oe" unicode="&#x153;" horiz-adv-x="719" 
d="M679 235h-280q-5 -30 -5 -47q0 -52 21 -84q33 -48 99 -48q76 0 143 67l-12 -94q-66 -43 -134 -43q-108 0 -169 93q-20 -25 -36 -41t-49 -34t-69 -18q-10 0 -22.5 1.5t-39.5 12.5t-47 30t-36 60t-16 97q0 118 63.5 197t149.5 79q62 0 107 -42q16 -16 28 -38q64 80 146 80
q63 0 110.5 -45.5t47.5 -141.5v-41zM312 280q0 32 -7.5 54.5t-17 33.5t-22.5 17t-19 6.5t-12 0.5q-33 0 -59 -25.5t-39 -63.5t-19 -72t-6 -61q0 -55 25 -84t54 -29q54 0 88 65t34 158zM408 293h188q-1 56 -26.5 79.5t-54.5 23.5q-55 0 -86 -49q-14 -22 -21 -54z" />
    <glyph glyph-name="Racute" unicode="&#x154;" horiz-adv-x="531" 
d="M131 682h124q99 0 145 -25q87 -49 87 -154q0 -61 -34.5 -108t-105.5 -65q21 -14 35.5 -37t34.5 -65l109 -228h-98q-64 135 -69 143q-25 51 -40.5 77.5t-30 46.5t-32 26t-34.5 8t-50 1l-41 -302h-94zM251 603h-36l-32 -220q85 0 106 4q53 10 77.5 43t24.5 73
q0 28 -11 48.5t-25 30t-36.5 15t-35 6t-32.5 0.5zM470 879l-166 -150h-52l73 150h145z" />
    <glyph glyph-name="racute" unicode="&#x155;" horiz-adv-x="313" 
d="M184 449l-13 -96q53 103 122 103q16 0 37 -7v-96q-28 15 -51 15q-46 0 -92 -64q-19 -27 -30 -51l-36 -253h-85l64 449h84zM219 657h101l-113 -146h-56z" />
    <glyph glyph-name="Rcommaaccent" unicode="&#x156;" horiz-adv-x="531" 
d="M131 682h124q99 0 145 -25q87 -49 87 -154q0 -61 -34.5 -108t-105.5 -65q21 -14 35.5 -37t34.5 -65l109 -228h-98q-64 135 -69 143q-25 51 -40.5 77.5t-30 46.5t-32 26t-34.5 8t-50 1l-41 -302h-94zM251 603h-36l-32 -220q85 0 106 4q53 10 77.5 43t24.5 73
q0 28 -11 48.5t-25 30t-36.5 15t-35 6t-32.5 0.5zM128 -211l16 51q36 -8 58 -8q25 0 43 11t18 29q0 15 -8.5 24t-26 12t-30 4t-33.5 1l20 50q34 0 60 -2t54.5 -10t44.5 -26.5t16 -46.5q0 -36 -35.5 -66.5t-107.5 -30.5q-50 0 -89 8z" />
    <glyph glyph-name="rcommaaccent" unicode="&#x157;" horiz-adv-x="313" 
d="M184 449l-13 -96q53 103 122 103q16 0 37 -7v-96q-28 15 -51 15q-46 0 -92 -64q-19 -27 -30 -51l-36 -253h-85l64 449h84zM33 -195l12 46q30 -7 44 -7q20 0 31 8.5t12.5 14.5t1.5 11q0 11 -8 18.5t-14 9.5t-21 6v50q22 -2 34 -4t30 -7t27.5 -12t17 -20t7.5 -31
q0 -39 -29 -64.5t-78 -25.5q-36 0 -67 7z" />
    <glyph glyph-name="Rcaron" unicode="&#x158;" horiz-adv-x="531" 
d="M131 682h124q99 0 145 -25q87 -49 87 -154q0 -61 -34.5 -108t-105.5 -65q21 -14 35.5 -37t34.5 -65l109 -228h-98q-64 135 -69 143q-25 51 -40.5 77.5t-30 46.5t-32 26t-34.5 8t-50 1l-41 -302h-94zM251 603h-36l-32 -220q85 0 106 4q53 10 77.5 43t24.5 73
q0 28 -11 48.5t-25 30t-36.5 15t-35 6t-32.5 0.5zM488 880l-136 -151h-123l-70 151h50l82 -86l138 86h59z" />
    <glyph glyph-name="rcaron" unicode="&#x159;" horiz-adv-x="313" 
d="M184 449l-13 -96q53 103 122 103q16 0 37 -7v-96q-28 15 -51 15q-46 0 -92 -64q-19 -27 -30 -51l-36 -253h-85l64 449h84zM384 660l-132 -149h-100l-74 149h40l84 -97l133 97h49z" />
    <glyph glyph-name="Sacute" unicode="&#x15a;" horiz-adv-x="458" 
d="M440 664l-14 -93q-51 36 -111 36q-58 0 -93.5 -26.5t-35.5 -71.5q0 -24 13.5 -47.5t27.5 -37t41 -34.5q39 -31 57.5 -48t44 -45.5t36.5 -59t11 -65.5q0 -72 -53 -126.5t-149 -54.5q-84 0 -165 49l14 100q33 -29 77.5 -46.5t80.5 -17.5q38 0 70.5 22.5t32.5 64.5
q0 38 -25.5 67.5t-88.5 80.5q-22 18 -36.5 31t-36 39t-33 57.5t-11.5 66.5q0 80 64.5 133t157.5 53q62 0 124 -27zM487 879l-166 -150h-52l73 150h145z" />
    <glyph glyph-name="sacute" unicode="&#x15b;" horiz-adv-x="354" 
d="M323 413v-89q-78 59 -137 59q-26 0 -42.5 -12.5t-16.5 -31.5q0 -12 12 -26.5t23.5 -23l33.5 -24.5q41 -29 60 -45t34.5 -43t15.5 -60q0 -53 -37.5 -92t-103.5 -39q-40 0 -74 13t-80 46l14 82q88 -67 141 -67q24 0 40 14t16 35q0 16 -11.5 31.5t-27 27.5t-62.5 46
q-75 52 -75 121q0 52 36.5 88.5t102.5 36.5q65 0 138 -47zM230 657h101l-113 -146h-56z" />
    <glyph glyph-name="Scircumflex" unicode="&#x15c;" horiz-adv-x="458" 
d="M440 664l-14 -93q-51 36 -111 36q-58 0 -93.5 -26.5t-35.5 -71.5q0 -24 13.5 -47.5t27.5 -37t41 -34.5q39 -31 57.5 -48t44 -45.5t36.5 -59t11 -65.5q0 -72 -53 -126.5t-149 -54.5q-84 0 -165 49l14 100q33 -29 77.5 -46.5t80.5 -17.5q38 0 70.5 22.5t32.5 64.5
q0 38 -25.5 67.5t-88.5 80.5q-22 18 -36.5 31t-36 39t-33 57.5t-11.5 66.5q0 80 64.5 133t157.5 53q62 0 124 -27zM457 729h-48l-81 85l-141 -85h-60l138 150h124z" />
    <glyph glyph-name="scircumflex" unicode="&#x15d;" horiz-adv-x="354" 
d="M323 413v-89q-78 59 -137 59q-26 0 -42.5 -12.5t-16.5 -31.5q0 -12 12 -26.5t23.5 -23l33.5 -24.5q41 -29 60 -45t34.5 -43t15.5 -60q0 -53 -37.5 -92t-103.5 -39q-40 0 -74 13t-80 46l14 82q88 -67 141 -67q24 0 40 14t16 35q0 16 -11.5 31.5t-27 27.5t-62.5 46
q-75 52 -75 121q0 52 36.5 88.5t102.5 36.5q65 0 138 -47zM299 659l75 -148h-41l-83 99l-134 -99h-47l131 148h99z" />
    <glyph glyph-name="uni015E" unicode="&#x15e;" horiz-adv-x="458" 
d="M239 -8l-14 -25q13 -4 21 -7t21 -11t20 -22.5t7 -34.5q0 -40 -38.5 -74t-120.5 -34q-48 0 -81 8l16 53q32 -7 58 -7t45 12t19 33q0 31 -42 39q3 7 17 32l21 38q-72 7 -138 48l14 100q33 -29 77.5 -46.5t80.5 -17.5q38 0 70.5 22.5t32.5 64.5q0 38 -25.5 67.5t-88.5 80.5
q-22 18 -36.5 31t-36 39t-33 57.5t-11.5 66.5q0 80 64.5 133t157.5 53q62 0 124 -27l-14 -93q-51 36 -111 36q-58 0 -93.5 -26.5t-35.5 -71.5q0 -24 13.5 -47.5t27.5 -37t41 -34.5q39 -31 57.5 -48t44 -45.5t36.5 -59t11 -65.5q0 -64 -44.5 -117.5t-133.5 -62.5z" />
    <glyph glyph-name="uni015F" unicode="&#x15f;" horiz-adv-x="354" 
d="M169 -14l-7 -16q62 -21 62 -70q0 -48 -51 -74q-36 -18 -90 -18q-56 0 -85 11l13 45q36 -8 61 -8q32 0 46.5 12.5t14.5 27.5q0 26 -39 36l35 57q-52 10 -118 56l14 82q88 -67 141 -67q24 0 40 14t16 35q0 16 -11.5 31.5t-27 27.5t-62.5 46q-75 52 -75 121q0 52 36.5 88.5
t102.5 36.5q65 0 138 -47v-89q-78 59 -137 59q-26 0 -42.5 -12.5t-16.5 -31.5q0 -12 12 -26.5t23.5 -23l33.5 -24.5q41 -29 60 -45t34.5 -43t15.5 -60q0 -16 -5 -33.5t-17.5 -40t-42 -38.5t-72.5 -19z" />
    <glyph glyph-name="Scaron" unicode="&#x160;" horiz-adv-x="458" 
d="M440 664l-14 -93q-51 36 -111 36q-58 0 -93.5 -26.5t-35.5 -71.5q0 -24 13.5 -47.5t27.5 -37t41 -34.5q39 -31 57.5 -48t44 -45.5t36.5 -59t11 -65.5q0 -72 -53 -126.5t-149 -54.5q-84 0 -165 49l14 100q33 -29 77.5 -46.5t80.5 -17.5q38 0 70.5 22.5t32.5 64.5
q0 38 -25.5 67.5t-88.5 80.5q-22 18 -36.5 31t-36 39t-33 57.5t-11.5 66.5q0 80 64.5 133t157.5 53q62 0 124 -27zM497 880l-136 -151h-123l-70 151h50l82 -86l138 86h59z" />
    <glyph glyph-name="scaron" unicode="&#x161;" horiz-adv-x="354" 
d="M323 413v-89q-78 59 -137 59q-26 0 -42.5 -12.5t-16.5 -31.5q0 -12 12 -26.5t23.5 -23l33.5 -24.5q41 -29 60 -45t34.5 -43t15.5 -60q0 -53 -37.5 -92t-103.5 -39q-40 0 -74 13t-80 46l14 82q88 -67 141 -67q24 0 40 14t16 35q0 16 -11.5 31.5t-27 27.5t-62.5 46
q-75 52 -75 121q0 52 36.5 88.5t102.5 36.5q65 0 138 -47zM395 660l-132 -149h-100l-74 149h40l84 -97l133 97h49z" />
    <glyph glyph-name="Tcommaaccent" unicode="&#x162;" horiz-adv-x="510" 
d="M554 682l-13 -86h-188l-85 -596h-93l85 596h-193l13 86h474zM108 -211l16 51q36 -8 58 -8q25 0 43 11t18 29q0 15 -8.5 24t-26 12t-30 4t-33.5 1l20 50q34 0 60 -2t54.5 -10t44.5 -26.5t16 -46.5q0 -36 -35.5 -66.5t-107.5 -30.5q-50 0 -89 8z" />
    <glyph glyph-name="tcommaaccent" unicode="&#x163;" horiz-adv-x="292" 
d="M300 449l-11 -66h-89l-30 -171q-16 -92 -16 -114q0 -36 49 -36q40 0 80 29l-5 -85q-50 -20 -93 -20q-62 0 -90.5 31t-28.5 69q0 22 17 111l32 186h-79l10 66h82l17 92h84l-16 -92h87zM31 -195l12 46q30 -7 44 -7q20 0 31 8.5t12.5 14.5t1.5 11q0 11 -8 18.5t-14 9.5
t-21 6v50q22 -2 34 -4t30 -7t27.5 -12t17 -20t7.5 -31q0 -39 -29 -64.5t-78 -25.5q-36 0 -67 7z" />
    <glyph glyph-name="Tcaron" unicode="&#x164;" horiz-adv-x="510" 
d="M554 682l-13 -86h-188l-85 -596h-93l85 596h-193l13 86h474zM513 880l-136 -151h-123l-70 151h50l82 -86l138 86h59z" />
    <glyph glyph-name="tcaron" unicode="&#x165;" horiz-adv-x="433" 
d="M300 449l-11 -66h-88l-30 -171q-17 -98 -17 -114q0 -36 50 -36q40 0 80 29l-6 -85q-48 -20 -92 -20q-62 0 -90.5 31t-28.5 69q0 22 17 111l32 186h-80l11 66h82l16 92h85l-16 -92h86zM338 449l7 45q62 20 66 85q-40 18 -40 53q0 27 18.5 43t42.5 16q29 0 47.5 -22.5
t18.5 -56.5q0 -50 -40 -98t-120 -65z" />
    <glyph glyph-name="Tbar" unicode="&#x166;" horiz-adv-x="510" 
d="M319 356h185l-13 -65h-182l-41 -291h-93l41 291h-171l10 65h171l34 240h-193l13 86h474l-13 -86h-188z" />
    <glyph glyph-name="tbar" unicode="&#x167;" horiz-adv-x="281" 
d="M169 282h97l-9 -62h-99l-11 -62q-7 -42 -7 -60q0 -36 49 -36q40 0 80 29l-5 -85q-50 -20 -93 -20q-63 0 -91 31.5t-28 67.5q0 16 9 68l12 67h-76l8 62h79l17 101h-79l10 66h82l17 92h84l-16 -92h87l-11 -66h-89z" />
    <glyph glyph-name="Utilde" unicode="&#x168;" horiz-adv-x="635" 
d="M636 682l-58 -406q-16 -112 -53 -170q-75 -115 -230 -115q-114 0 -173.5 61.5t-59.5 148.5q0 35 6 75l57 406h92l-62 -432q-3 -18 -3 -50q0 -49 37.5 -87t110.5 -38q55 0 94.5 23.5t58.5 58.5q19 33 34 128l56 397h93zM268 729h-52q0 62 33 91.5t70 29.5q30 0 78 -24
q4 -2 14 -7.5t16 -8.5t14.5 -5.5t15.5 -2.5q31 0 38 48h52q0 -52 -26.5 -86.5t-73.5 -34.5q-36 0 -84 25q-43 23 -57 23q-18 0 -27.5 -15.5t-10.5 -32.5z" />
    <glyph glyph-name="utilde" unicode="&#x169;" 
d="M436 449l-64 -449h-85l11 77q-82 -82 -150 -82q-48 0 -78.5 32t-30.5 87q0 21 9 82l36 253h85l-38 -274q-6 -36 -6 -53q0 -27 12.5 -42.5t21.5 -17.5t16 -2q41 0 87 46q34 34 48 51l41 292h85zM181 539h-40q2 38 8 56q10 27 30 42.5t40 15.5t93 -26q34 -12 49 -12
q31 0 35 37h39q-3 -33 -7 -48q-9 -31 -29.5 -48.5t-45.5 -17.5q-15 0 -69 20q-41 18 -71 18q-10 0 -20.5 -9t-11.5 -28z" />
    <glyph glyph-name="Umacron" unicode="&#x16a;" horiz-adv-x="635" 
d="M636 682l-58 -406q-16 -112 -53 -170q-75 -115 -230 -115q-114 0 -173.5 61.5t-59.5 148.5q0 35 6 75l57 406h92l-62 -432q-3 -18 -3 -50q0 -49 37.5 -87t110.5 -38q55 0 94.5 23.5t58.5 58.5q19 33 34 128l56 397h93zM524 824l-12 -70h-280l10 70h282z" />
    <glyph glyph-name="umacron" unicode="&#x16b;" 
d="M436 449l-64 -449h-85l11 77q-82 -82 -150 -82q-48 0 -78.5 32t-30.5 87q0 21 9 82l36 253h85l-38 -274q-6 -36 -6 -53q0 -27 12.5 -42.5t21.5 -17.5t16 -2q41 0 87 46q34 34 48 51l41 292h85zM443 617l-8 -64h-322l8 64h322z" />
    <glyph glyph-name="Ubreve" unicode="&#x16c;" horiz-adv-x="635" 
d="M636 682l-58 -406q-16 -112 -53 -170q-75 -115 -230 -115q-114 0 -173.5 61.5t-59.5 148.5q0 35 6 75l57 406h92l-62 -432q-3 -18 -3 -50q0 -49 37.5 -87t110.5 -38q55 0 94.5 23.5t58.5 58.5q19 33 34 128l56 397h93zM256 870h62q5 -66 70 -66q24 0 44 11.5t29.5 22
t25.5 32.5h63q-4 -12 -15 -31t-31.5 -46t-53 -45.5t-69.5 -18.5t-63 14t-38.5 37t-18 44.5t-5.5 45.5z" />
    <glyph glyph-name="ubreve" unicode="&#x16d;" 
d="M436 449l-64 -449h-85l11 77q-82 -82 -150 -82q-48 0 -78.5 32t-30.5 87q0 21 9 82l36 253h85l-38 -274q-6 -36 -6 -53q0 -27 12.5 -42.5t21.5 -17.5t16 -2q41 0 87 46q34 34 48 51l41 292h85zM176 639h47q1 -23 17 -43.5t51 -20.5q53 0 89 64h49q-16 -54 -53 -91
t-89 -37q-54 0 -83.5 39.5t-27.5 88.5z" />
    <glyph glyph-name="Uring" unicode="&#x16e;" horiz-adv-x="635" 
d="M636 682l-58 -406q-16 -112 -53 -170q-75 -115 -230 -115q-114 0 -173.5 61.5t-59.5 148.5q0 35 6 75l57 406h92l-62 -432q-3 -18 -3 -50q0 -49 37.5 -87t110.5 -38q55 0 94.5 23.5t58.5 58.5q19 33 34 128l56 397h93zM386 931q45 0 73 -31.5t28 -69.5q0 -41 -28 -71
t-73 -30q-44 0 -72.5 30t-28.5 71q0 42 29.5 71.5t71.5 29.5zM386 775q22 0 38.5 16.5t16.5 38.5t-16.5 38.5t-38.5 16.5t-38.5 -16.5t-16.5 -38.5t16.5 -38.5t38.5 -16.5z" />
    <glyph glyph-name="uring" unicode="&#x16f;" 
d="M436 449l-64 -449h-85l11 77q-82 -82 -150 -82q-48 0 -78.5 32t-30.5 87q0 21 9 82l36 253h85l-38 -274q-6 -36 -6 -53q0 -27 12.5 -42.5t21.5 -17.5t16 -2q41 0 87 46q34 34 48 51l41 292h85zM289 696q35 0 63 -26t28 -66q0 -39 -27 -66t-66 -27q-38 0 -65 26.5
t-27 65.5q0 40 28.5 66.5t65.5 26.5zM286 656q-25 0 -40 -14.5t-15 -38.5t16.5 -40.5t40.5 -16.5q23 0 39.5 16.5t16.5 39.5q0 24 -17.5 39t-40.5 15z" />
    <glyph glyph-name="Uhungarumlaut" unicode="&#x170;" horiz-adv-x="635" 
d="M636 682l-58 -406q-16 -112 -53 -170q-75 -115 -230 -115q-114 0 -173.5 61.5t-59.5 148.5q0 35 6 75l57 406h92l-62 -432q-3 -18 -3 -50q0 -49 37.5 -87t110.5 -38q55 0 94.5 23.5t58.5 58.5q19 33 34 128l56 397h93zM423 879l-122 -150h-49l49 150h122zM585 879
l-122 -150h-49l49 150h122z" />
    <glyph glyph-name="uhungarumlaut" unicode="&#x171;" 
d="M436 449l-64 -449h-85l11 77q-82 -82 -150 -82q-48 0 -78.5 32t-30.5 87q0 21 9 82l36 253h85l-38 -274q-6 -36 -6 -53q0 -27 12.5 -42.5t21.5 -17.5t16 -2q41 0 87 46q34 34 48 51l41 292h85zM467 658l-114 -147h-55l67 147h102zM309 658l-114 -147h-55l67 147h102z" />
    <glyph glyph-name="Uogonek" unicode="&#x172;" horiz-adv-x="635" 
d="M531 -123l-8 -76q-43 -8 -68 -8q-59 0 -91.5 32.5t-32.5 68.5q0 43 34 104q-18 -4 -27 -5q-24 -2 -45 -2q-110 0 -170.5 60.5t-60.5 149.5q0 35 6 75l57 406h92l-62 -432q0 -1 -1.5 -20.5t-1.5 -30.5q0 -48 37 -86t111 -38q55 0 94.5 23.5t58.5 58.5q19 33 34 128l56 397
h93l-58 -406q-12 -86 -28 -122t-68 -108q-59 -81 -59 -123q0 -24 21 -38.5t45 -14.5q12 0 42 7z" />
    <glyph glyph-name="uogonek" unicode="&#x173;" 
d="M437 -111l-9 -68q-37 -8 -61 -8q-53 0 -82.5 29.5t-29.5 62.5q0 39 32 95l11 77q-82 -82 -150 -82q-48 0 -78.5 32t-30.5 87q0 21 9 82l36 253h85l-38 -274q-6 -36 -6 -53q0 -27 12.5 -42.5t21.5 -17.5t16 -2q41 0 87 46q34 34 48 51l41 292h85l-64 -449h-7
q-25 -45 -25 -69q0 -22 19 -35t40 -13q14 0 38 6z" />
    <glyph glyph-name="Wcircumflex" unicode="&#x174;" horiz-adv-x="927" 
d="M986 682l-329 -686h-36l-132 482l-231 -482h-37l-161 686h86l112 -483l231 483h35l133 -491l234 491h95zM666 729h-48l-81 85l-141 -85h-60l138 150h124z" />
    <glyph glyph-name="wcircumflex" unicode="&#x175;" horiz-adv-x="615" 
d="M647 449l-231 -458h-40l-59 294l-153 -294h-39l-93 458h83l55 -293l147 293h42l57 -293l148 293h83zM429 659l75 -148h-41l-83 99l-134 -99h-47l131 148h99z" />
    <glyph glyph-name="Ycircumflex" unicode="&#x176;" horiz-adv-x="490" 
d="M549 682l-238 -342l-49 -340h-91l49 340l-161 342h95l117 -250l174 250h104zM463 729h-48l-81 85l-141 -85h-60l138 150h124z" />
    <glyph glyph-name="ycircumflex" unicode="&#x177;" horiz-adv-x="375" 
d="M400 449l-323 -679h-89l122 257l-85 422h85l59 -300l142 300h89zM296 659l75 -148h-41l-83 99l-134 -99h-47l131 148h99z" />
    <glyph glyph-name="Ydieresis" unicode="&#x178;" horiz-adv-x="490" 
d="M549 682l-238 -342l-49 -340h-91l49 340l-161 342h95l117 -250l174 250h104zM398 858q22 0 37.5 -15.5t15.5 -37.5t-15.5 -37.5t-37.5 -15.5t-37.5 15.5t-15.5 37.5t15.5 37.5t37.5 15.5zM192 858q22 0 37.5 -15.5t15.5 -37.5q0 -20 -14.5 -36.5t-38.5 -16.5
q-22 0 -37.5 15.5t-15.5 37.5t15.5 37.5t37.5 15.5z" />
    <glyph glyph-name="Zacute" unicode="&#x179;" horiz-adv-x="583" 
d="M647 682l-497 -597h404l-12 -85h-574l495 597h-388l12 85h560zM529 879l-166 -150h-52l73 150h145z" />
    <glyph glyph-name="zacute" unicode="&#x17a;" horiz-adv-x="458" 
d="M448 449l-299 -373h261l-16 -76h-407l293 372h-228l11 77h385zM282 657h101l-113 -146h-56z" />
    <glyph glyph-name="Zdotaccent" unicode="&#x17b;" horiz-adv-x="583" 
d="M647 682l-497 -597h404l-12 -85h-574l495 597h-388l12 85h560zM359 858q22 0 37.5 -15.5t15.5 -37.5q0 -20 -14.5 -36.5t-38.5 -16.5q-22 0 -37.5 15.5t-15.5 37.5t15.5 37.5t37.5 15.5z" />
    <glyph glyph-name="zdotaccent" unicode="&#x17c;" horiz-adv-x="458" 
d="M448 449l-299 -373h261l-16 -76h-407l293 372h-228l11 77h385zM283 632q19 0 32.5 -13.5t13.5 -32.5t-13.5 -32.5t-32.5 -13.5t-32.5 13.5t-13.5 32.5t13.5 32.5t32.5 13.5z" />
    <glyph glyph-name="Zcaron" unicode="&#x17d;" horiz-adv-x="583" 
d="M647 682l-497 -597h404l-12 -85h-574l495 597h-388l12 85h560zM549 880l-136 -151h-123l-70 151h50l82 -86l138 86h59z" />
    <glyph glyph-name="zcaron" unicode="&#x17e;" horiz-adv-x="458" 
d="M448 449l-299 -373h261l-16 -76h-407l293 372h-228l11 77h385zM447 660l-132 -149h-100l-74 149h40l84 -97l133 97h49z" />
    <glyph glyph-name="florin" unicode="&#x192;" horiz-adv-x="552" 
d="M23 -198l17 76q51 -11 74 -11t37 12.5t17.5 25t7.5 37.5l87 508h-98l11 68h99l11 66q5 26 8.5 40t13.5 37.5t23.5 35.5t38 22t56.5 10q36 0 104 -19l-17 -75q-49 12 -76 12q-32 0 -43.5 -17.5t-19.5 -60.5l-9 -51h99l-12 -68h-100l-93 -533q-11 -65 -39 -96t-86 -31
q-50 0 -111 12z" />
    <glyph glyph-name="AEacute" unicode="&#x1fc;" horiz-adv-x="833" 
d="M801 682l-10 -83h-263l-29 -209h245l-11 -81h-246l-32 -227h357l-11 -82h-448l44 309h-151l-170 -309h-97l389 682h433zM409 381l31 226h-31l-124 -226h124zM749 879l-166 -150h-52l73 150h145z" />
    <glyph glyph-name="aeacute" unicode="&#x1fd;" horiz-adv-x="646" 
d="M588 119l-12 -87q-71 -46 -146 -46q-103 0 -153 85q-78 -85 -156 -85q-43 0 -76 28.5t-33 75.5q0 35 20 63.5t45.5 45.5t66 31t63 19.5t55.5 11.5q8 30 8 61q0 36 -20 51.5t-43 15.5q-64 0 -147 -83l14 96q77 61 146 61q73 0 104 -61q27 29 65 45t71 16q70 0 111 -58
t41 -150q0 -10 -3 -40h-267q-6 -24 -6 -50q0 -58 33.5 -83t67.5 -25q69 0 151 62zM350 274h182q3 50 -20 84.5t-64 34.5q-52 0 -78 -48q-17 -33 -20 -71zM241 106l13 93q-58 -11 -105 -37t-47 -63q0 -18 12 -29.5t31 -11.5q44 0 96 48zM376 657h101l-113 -146h-56z" />
    <glyph glyph-name="Oslashacute" unicode="&#x1fe;" horiz-adv-x="656" 
d="M651 655l-66 -78q40 -66 40 -176q0 -170 -94.5 -290t-232.5 -120q-90 0 -156 56l-75 -88l-38 41l74 92q-20 27 -35.5 77t-15.5 108q0 69 22 140t62 133t106 101.5t144 39.5q102 0 165 -66l62 75zM520 499l-324 -387q45 -45 103 -45q74 0 128.5 58t78.5 134.5t24 153.5
q0 52 -10 86zM164 164l333 393q-41 55 -111 55q-59 0 -106.5 -34.5t-75 -88t-42 -111.5t-14.5 -111q0 -61 16 -103zM551 879l-166 -150h-52l73 150h145z" />
    <glyph glyph-name="oslashacute" unicode="&#x1ff;" horiz-adv-x="448" 
d="M424 429l-40 -47q27 -47 27 -122q0 -122 -63.5 -198t-154.5 -76q-57 0 -112 43l-39 -45l-30 33l42 51q-25 48 -25 118q0 126 66 201.5t149 75.5q53 0 91 -26q7 -7 23 -19l37 43zM322 309l-188 -218q28 -38 63 -38q57 0 92.5 68.5t35.5 152.5q0 20 -3 35zM118 140l187 217
q-20 36 -59 36q-44 0 -75 -39.5t-43 -87.5t-12 -95q0 -13 2 -31zM277 657h101l-113 -146h-56z" />
    <glyph glyph-name="uni0218" unicode="&#x218;" horiz-adv-x="458" 
d="M440 664l-14 -93q-51 36 -111 36q-58 0 -93.5 -26.5t-35.5 -71.5q0 -24 13.5 -47.5t27.5 -37t41 -34.5q39 -31 57.5 -48t44 -45.5t36.5 -59t11 -65.5q0 -72 -53 -126.5t-149 -54.5q-84 0 -165 49l14 100q33 -29 77.5 -46.5t80.5 -17.5q38 0 70.5 22.5t32.5 64.5
q0 38 -25.5 67.5t-88.5 80.5q-22 18 -36.5 31t-36 39t-33 57.5t-11.5 66.5q0 80 64.5 133t157.5 53q62 0 124 -27zM82 -211l16 51q36 -8 58 -8q25 0 43 11t18 29q0 15 -8.5 24t-26 12t-30 4t-33.5 1l20 50q34 0 60 -2t54.5 -10t44.5 -26.5t16 -46.5q0 -36 -35.5 -66.5
t-107.5 -30.5q-50 0 -89 8z" />
    <glyph glyph-name="uni0219" unicode="&#x219;" horiz-adv-x="354" 
d="M323 413v-89q-78 59 -137 59q-26 0 -42.5 -12.5t-16.5 -31.5q0 -12 12 -26.5t23.5 -23l33.5 -24.5q41 -29 60 -45t34.5 -43t15.5 -60q0 -53 -37.5 -92t-103.5 -39q-40 0 -74 13t-80 46l14 82q88 -67 141 -67q24 0 40 14t16 35q0 16 -11.5 31.5t-27 27.5t-62.5 46
q-75 52 -75 121q0 52 36.5 88.5t102.5 36.5q65 0 138 -47zM54 -195l12 46q30 -7 44 -7q20 0 31 8.5t12.5 14.5t1.5 11q0 11 -8 18.5t-14 9.5t-21 6v50q22 -2 34 -4t30 -7t27.5 -12t17 -20t7.5 -31q0 -39 -29 -64.5t-78 -25.5q-36 0 -67 7z" />
    <glyph glyph-name="uni021A" unicode="&#x21a;" horiz-adv-x="510" 
d="M554 682l-13 -86h-188l-85 -596h-93l85 596h-193l13 86h474zM108 -211l16 51q36 -8 58 -8q25 0 43 11t18 29q0 15 -8.5 24t-26 12t-30 4t-33.5 1l20 50q34 0 60 -2t54.5 -10t44.5 -26.5t16 -46.5q0 -36 -35.5 -66.5t-107.5 -30.5q-50 0 -89 8z" />
    <glyph glyph-name="uni021B" unicode="&#x21b;" horiz-adv-x="292" 
d="M300 449l-11 -66h-89l-30 -171q-16 -92 -16 -114q0 -36 49 -36q40 0 80 29l-5 -85q-50 -20 -93 -20q-62 0 -90.5 31t-28.5 69q0 22 17 111l32 186h-79l10 66h82l17 92h84l-16 -92h87zM31 -195l12 46q30 -7 44 -7q20 0 31 8.5t12.5 14.5t1.5 11q0 11 -8 18.5t-14 9.5
t-21 6v50q22 -2 34 -4t30 -7t27.5 -12t17 -20t7.5 -31q0 -39 -29 -64.5t-78 -25.5q-36 0 -67 7z" />
    <glyph glyph-name="circumflex" unicode="&#x2c6;" horiz-adv-x="333" 
d="M288 659l75 -148h-41l-83 99l-134 -99h-47l131 148h99z" />
    <glyph glyph-name="caron" unicode="&#x2c7;" horiz-adv-x="333" 
d="M384 660l-132 -149h-100l-74 149h40l84 -97l133 97h49z" />
    <glyph glyph-name="uni02C9" unicode="&#x2c9;" horiz-adv-x="333" 
d="M375 617l-8 -64h-322l8 64h322z" />
    <glyph glyph-name="breve" unicode="&#x2d8;" horiz-adv-x="333" 
d="M108 639h47q1 -23 17 -43.5t51 -20.5q53 0 89 64h49q-16 -54 -53 -91t-89 -37q-54 0 -83.5 39.5t-27.5 88.5z" />
    <glyph glyph-name="dotaccent" unicode="&#x2d9;" horiz-adv-x="333" 
d="M220 632q19 0 32.5 -13.5t13.5 -32.5t-13.5 -32.5t-32.5 -13.5t-32.5 13.5t-13.5 32.5t13.5 32.5t32.5 13.5z" />
    <glyph glyph-name="ring" unicode="&#x2da;" horiz-adv-x="333" 
d="M221 696q35 0 63 -26t28 -66q0 -39 -27 -66t-66 -27q-38 0 -65 26.5t-27 65.5q0 40 28.5 66.5t65.5 26.5zM218 656q-25 0 -40 -14.5t-15 -38.5t16.5 -40.5t40.5 -16.5q23 0 39.5 16.5t16.5 39.5q0 24 -17.5 39t-40.5 15z" />
    <glyph glyph-name="ogonek" unicode="&#x2db;" horiz-adv-x="333" 
d="M220 -111l-9 -68q-37 -8 -61 -8q-53 0 -82.5 29.5t-29.5 62.5q0 44 37 102h77q-29 -52 -29 -76q0 -22 18.5 -35t40.5 -13q14 0 38 6z" />
    <glyph glyph-name="tilde" unicode="&#x2dc;" horiz-adv-x="333" 
d="M113 539h-40q2 38 8 56q10 27 30 42.5t40 15.5t93 -26q34 -12 49 -12q31 0 35 37h39q-3 -33 -7 -48q-9 -31 -29.5 -48.5t-45.5 -17.5q-15 0 -69 20q-41 18 -71 18q-10 0 -20.5 -9t-11.5 -28z" />
    <glyph glyph-name="hungarumlaut" unicode="&#x2dd;" horiz-adv-x="333" 
d="M399 658l-114 -147h-55l67 147h102zM241 658l-114 -147h-55l67 147h102z" />
    <glyph glyph-name="uni03A9" unicode="&#x3a9;" horiz-adv-x="670" 
d="M613 0h-223v81q119 121 119 292q0 114 -47 183.5t-131 69.5q-85 0 -134.5 -71t-49.5 -183q0 -174 121 -291v-81h-223v81h137q-139 127 -139 310q0 139 81 230t209 91q131 0 206 -87.5t75 -231.5q0 -188 -140 -312h139v-81z" />
    <glyph glyph-name="uni03BC" unicode="&#x3bc;" horiz-adv-x="552" 
d="M391 450h85l-40 -286q-6 -41 -6 -49q0 -7 1.5 -15.5t10.5 -20.5t26 -12q22 0 49 11l-10 -73q-43 -18 -75 -18q-24 0 -40.5 8t-22.5 15.5t-13 22.5q-55 -45 -104 -45q-40 0 -71 26q-20 18 -30 46l-42 -289h-85l97 679h86l-35 -247q-6 -36 -6 -50q0 -35 25 -62t66 -27
q27 0 46 10t28.5 30t13 32.5t6.5 33.5z" />
    <glyph glyph-name="pi" unicode="&#x3c0;" horiz-adv-x="588" 
d="M616 11q-28 -19 -81 -19q-69 0 -99 42t-30 104v280h-157v-278q0 -83 -15 -140h-112q16 61 16 146v272q-45 0 -86 -23l-29 72q54 33 149 33h437v-82h-92v-265q0 -79 50 -79q11 0 29 8q4 -13 10.5 -37t9.5 -34z" />
    <glyph glyph-name="Wgrave" unicode="&#x1e80;" horiz-adv-x="927" 
d="M986 682l-329 -686h-36l-132 482l-231 -482h-37l-161 686h86l112 -483l231 483h35l133 -491l234 491h95zM495 879l74 -150h-51l-166 150h143z" />
    <glyph glyph-name="wgrave" unicode="&#x1e81;" horiz-adv-x="615" 
d="M647 449l-231 -458h-40l-59 294l-153 -294h-39l-93 458h83l55 -293l147 293h42l57 -293l148 293h83zM351 657l68 -146h-56l-113 146h101z" />
    <glyph glyph-name="Wacute" unicode="&#x1e82;" horiz-adv-x="927" 
d="M986 682l-329 -686h-36l-132 482l-231 -482h-37l-161 686h86l112 -483l231 483h35l133 -491l234 491h95zM686 879l-166 -150h-52l73 150h145z" />
    <glyph glyph-name="wacute" unicode="&#x1e83;" horiz-adv-x="615" 
d="M647 449l-231 -458h-40l-59 294l-153 -294h-39l-93 458h83l55 -293l147 293h42l57 -293l148 293h83zM360 657h101l-113 -146h-56z" />
    <glyph glyph-name="Wdieresis" unicode="&#x1e84;" horiz-adv-x="927" 
d="M986 682l-329 -686h-36l-132 482l-231 -482h-37l-161 686h86l112 -483l231 483h35l133 -491l234 491h95zM624 858q22 0 37.5 -15.5t15.5 -37.5t-15.5 -37.5t-37.5 -15.5t-37.5 15.5t-15.5 37.5t15.5 37.5t37.5 15.5zM418 858q22 0 37.5 -15.5t15.5 -37.5
q0 -20 -14.5 -36.5t-38.5 -16.5q-22 0 -37.5 15.5t-15.5 37.5t15.5 37.5t37.5 15.5z" />
    <glyph glyph-name="wdieresis" unicode="&#x1e85;" horiz-adv-x="615" 
d="M647 449l-231 -458h-40l-59 294l-153 -294h-39l-93 458h83l55 -293l147 293h42l57 -293l148 293h83zM267 632q19 0 32.5 -13.5t13.5 -32.5t-13.5 -32.5t-32.5 -13.5t-32.5 13.5t-13.5 32.5t13.5 32.5t32.5 13.5zM455 632q19 0 32.5 -13.5t13.5 -32.5t-13.5 -32.5
t-32.5 -13.5t-32.5 13.5t-13.5 32.5t13.5 32.5t32.5 13.5z" />
    <glyph glyph-name="Ygrave" unicode="&#x1ef2;" horiz-adv-x="490" 
d="M549 682l-238 -342l-49 -340h-91l49 340l-161 342h95l117 -250l174 250h104zM277 879l74 -150h-51l-166 150h143z" />
    <glyph glyph-name="ygrave" unicode="&#x1ef3;" horiz-adv-x="375" 
d="M400 449l-323 -679h-89l122 257l-85 422h85l59 -300l142 300h89zM231 657l68 -146h-56l-113 146h101z" />
    <glyph glyph-name="endash" unicode="&#x2013;" horiz-adv-x="500" 
d="M509 282v-63h-518v63h518z" />
    <glyph glyph-name="emdash" unicode="&#x2014;" horiz-adv-x="1000" 
d="M1009 285v-64h-1018v64h1018z" />
    <glyph glyph-name="quoteleft" unicode="&#x2018;" horiz-adv-x="198" 
d="M237 689l-7 -44q-62 -20 -66 -86q40 -15 40 -52q0 -26 -18.5 -42t-42.5 -16q-29 0 -47.5 22.5t-18.5 56.5q0 49 39 96t121 65z" />
    <glyph glyph-name="quoteright" unicode="&#x2019;" horiz-adv-x="198" 
d="M60 449l6 45q66 22 66 85q-40 18 -40 53q0 27 18.5 43t42.5 16q29 0 47.5 -22.5t18.5 -56.5q0 -50 -39.5 -98t-119.5 -65z" />
    <glyph glyph-name="quotesinglbase" unicode="&#x201a;" horiz-adv-x="198" 
d="M-24 -146l6 44q66 21 66 86q-39 16 -39 53q0 27 18.5 43t42.5 16q29 0 47 -22.5t18 -56.5q0 -51 -39.5 -98.5t-119.5 -64.5z" />
    <glyph glyph-name="quotedblleft" unicode="&#x201c;" horiz-adv-x="406" 
d="M439 691l-7 -44q-62 -20 -66 -86q40 -15 40 -52q0 -26 -18.5 -42t-42.5 -16q-29 0 -47.5 22.5t-18.5 56.5q0 49 39 96t121 65zM224 691l-6 -44q-63 -20 -67 -86q40 -15 40 -52q0 -26 -18.5 -42t-42.5 -16q-29 0 -47.5 22.5t-18.5 56.5q0 49 39 96t121 65z" />
    <glyph glyph-name="quotedblright" unicode="&#x201d;" horiz-adv-x="406" 
d="M62 449l6 45q66 22 66 85q-40 18 -40 53q0 27 18.5 43t42.5 16q29 0 47.5 -22.5t18.5 -56.5q0 -50 -39.5 -98t-119.5 -65zM277 449l6 45q66 22 66 85q-40 18 -40 53q0 27 18.5 43t42.5 16q30 0 48 -22.5t18 -56.5q0 -51 -39.5 -98.5t-119.5 -64.5z" />
    <glyph glyph-name="quotedblbase" unicode="&#x201e;" horiz-adv-x="406" 
d="M-25 -144l7 44q66 22 66 86q-40 17 -40 52q0 27 19 42.5t42 15.5q30 0 48 -22.5t18 -55.5q0 -49 -39 -96.5t-121 -65.5zM190 -144l7 44q66 22 66 86q-40 17 -40 52q0 27 19 42.5t42 15.5q29 0 47.5 -22.5t18.5 -55.5q0 -49 -39 -96.5t-121 -65.5z" />
    <glyph glyph-name="dagger" unicode="&#x2020;" horiz-adv-x="479" 
d="M273 381q1 -74 -8.5 -221t-22.5 -238q-5 -35 -8.5 -54t-11.5 -46t-20.5 -39.5t-29.5 -12.5q-19 0 -30 19t-11 49q0 82 44.5 270.5t69.5 272.5q-93 -29 -137 -29q-28 0 -43 13t-15 27q0 19 19 30t44 11q28 0 96 -17q29 -10 36 -11q-5 110 -5 137q0 8 0.5 18.5t3.5 36
t9 44.5t18 34.5t29 15.5q39 0 39 -62q0 -85 -66 -224q80 29 140 29q22 0 40 -10.5t18 -28.5t-15 -28.5t-27 -12.5t-22 -2q-26 0 -70.5 11t-63.5 18z" />
    <glyph glyph-name="daggerdbl" unicode="&#x2021;" horiz-adv-x="458" 
d="M267 405q-7 -74 -7 -85q0 -6 2 -35t2 -33q0 -32 -22 -98q0 -1 -6.5 -24l-14 -48.5t-7.5 -27.5q81 27 131 27q54 0 54 -38q0 -41 -63 -41q-60 0 -122 29q4 -128 4 -129q0 -132 -59 -132q-22 0 -31 16.5t-9 35.5q0 61 69 209q-79 -30 -123 -30q-70 0 -70 37q0 19 18 31
t49 12q45 0 126 -27q7 38 7 72q0 33 -4 62q0 2 -1 14t-1 18q0 19 30 103l5 15l9 35t8 32q-83 -28 -126 -28q-26 0 -41 10t-17.5 17.5t-2.5 14.5q0 16 15.5 30t45.5 14q48 0 126 -33q-4 68 -4 131q0 130 56 130q42 0 42 -53q0 -47 -34 -131q-22 -57 -34 -77q69 33 129 33
q62 0 62 -40q0 -43 -68 -43q-51 0 -123 25z" />
    <glyph glyph-name="bullet" unicode="&#x2022;" horiz-adv-x="354" 
d="M66 341q0 52 36 88t87 36q52 0 88 -36.5t36 -87.5q0 -52 -36.5 -88t-87.5 -36t-87 36.5t-36 87.5z" />
    <glyph glyph-name="ellipsis" unicode="&#x2026;" horiz-adv-x="1000" 
d="M834 110q25 0 42.5 -18t17.5 -43t-17.5 -43t-42.5 -18q-26 0 -43.5 18t-17.5 43t17.5 43t43.5 18zM500 109q25 0 43 -17.5t18 -43.5q0 -25 -18 -43t-43 -18t-43 18t-18 43q0 26 17.5 43.5t43.5 17.5zM166 108q26 0 43.5 -18t17.5 -43t-18 -43t-43 -18t-42.5 18t-17.5 43
t17.5 43t42.5 18z" />
    <glyph glyph-name="perthousand" unicode="&#x2030;" horiz-adv-x="1010" 
d="M486 297q63 0 107.5 -44.5t44.5 -107.5t-44.5 -107.5t-107.5 -44.5t-107.5 44.5t-44.5 107.5t44.5 107.5t107.5 44.5zM486 223q-32 0 -55 -22.5t-23 -55.5t23 -56t55 -23q33 0 56 23t23 56t-23 55.5t-56 22.5zM165 690q63 0 107.5 -45t44.5 -108q0 -62 -44.5 -107
t-107.5 -45t-107.5 45t-44.5 107q0 64 44.5 108.5t107.5 44.5zM164 616q-32 0 -55.5 -23t-23.5 -56q0 -32 23 -55.5t56 -23.5t56 23.5t23 55.5q0 33 -23.5 56t-55.5 23zM846 297q62 0 107 -44.5t45 -107.5t-44.5 -107.5t-107.5 -44.5t-107.5 44.5t-44.5 107.5t44.5 107.5
t107.5 44.5zM846 223q-33 0 -56 -22.5t-23 -55.5t23 -56t56 -23q32 0 55 23t23 56t-23 55.5t-55 22.5zM586 692l-449 -701h-76l450 701h75z" />
    <glyph glyph-name="guilsinglleft" unicode="&#x2039;" horiz-adv-x="229" 
d="M256 449l-174 -235l84 -214h-67l-89 224l168 225h78z" />
    <glyph glyph-name="guilsinglright" unicode="&#x203a;" horiz-adv-x="229" 
d="M128 449l89 -226l-165 -223h-79l172 232l-85 217h68z" />
    <glyph glyph-name="fraction" unicode="&#x2044;" horiz-adv-x="208" 
d="M410 691l-542 -718h-69l543 718h68z" />
    <glyph glyph-name="Euro" unicode="&#x20ac;" horiz-adv-x="575" 
d="M224 440h282l-14 -72h-292q-6 -37 -8 -53h290l-14 -72h-276q1 -20 5.5 -39.5t17 -52.5t42.5 -53.5t74 -20.5q88 0 191 66l-13 -105q-101 -47 -185 -47q-24 0 -48.5 5t-55.5 21t-55 42t-43 74t-24 110h-73l14 72h59q2 27 7 53h-80l14 72h87q33 88 97.5 146.5t133.5 81.5
t144 23q42 0 102 -10l-16 -87q-52 10 -93 10q-88 0 -160 -41t-110 -123z" />
    <glyph glyph-name="afii61289" unicode="&#x2113;" horiz-adv-x="464" 
d="M380 46q-58 -60 -124 -60q-53 0 -86 33q-39 39 -39 125v96l-53 -59l-34 45l87 95v224q0 91 35.5 137t93.5 46q53 0 77.5 -34t24.5 -77q0 -119 -111 -263l-29 -37v-168q0 -92 56 -92q34 0 73 43q20 -36 29 -54zM303 606q0 50 -35 50q-46 0 -46 -101v-150q10 12 14 20
q67 96 67 181z" />
    <glyph glyph-name="trademark" unicode="&#x2122;" horiz-adv-x="1000" 
d="M260 285v338h-129v59h325v-59h-130v-338h-66zM501 285v397h97l101 -318l97 318h96v-397h-61v333l-103 -333h-59l-108 338v-338h-60z" />
    <glyph glyph-name="Omega" unicode="&#x2126;" horiz-adv-x="670" 
d="M613 0h-223v81q119 121 119 292q0 114 -47 183.5t-131 69.5q-85 0 -134.5 -71t-49.5 -183q0 -174 121 -291v-81h-223v81h137q-139 127 -139 310q0 139 81 230t209 91q131 0 206 -87.5t75 -231.5q0 -188 -140 -312h139v-81z" />
    <glyph glyph-name="estimated" unicode="&#x212e;" horiz-adv-x="637" 
d="M577 272h-420v-187q60 -60 149 -60q128 0 200 123l35 -21q-46 -70 -101 -104.5t-134 -34.5q-120 0 -193 81t-73 203t72.5 203t193.5 81q123 0 194.5 -79.5t76.5 -204.5zM456 309v148q-62 64 -151 64q-88 0 -148 -62v-150h299z" />
    <glyph glyph-name="onethird" unicode="&#x2153;" horiz-adv-x="844" 
d="M715 691l-541 -718h-69l543 718h67zM519 16l8 49q55 -22 94 -22q43 0 61.5 19t18.5 44q0 29 -22 42.5t-52 10.5l7 47q89 8 89 61q0 18 -12.5 29t-23.5 13t-20 2q-43 0 -87 -27l9 59q48 17 86 17q50 0 83.5 -24.5t33.5 -66.5q0 -61 -77 -87q53 -22 53 -75q0 -44 -37.5 -78
t-105.5 -34q-46 0 -106 21zM264 687l-64 -355h-65l64 355h65z" />
    <glyph glyph-name="twothirds" unicode="&#x2154;" horiz-adv-x="844" 
d="M144 380h151l-8 -48h-260q16 14 67 70.5t76 86.5q66 81 66 113q0 38 -51 38q-43 0 -95 -35l9 60q52 26 96 26q47 0 75.5 -24t28.5 -60q0 -45 -49 -107q-41 -53 -106 -120zM733 691l-541 -718h-70l544 718h67zM519 16l8 49q55 -22 94 -22q43 0 61.5 19t18.5 44
q0 29 -22 42.5t-52 10.5l7 47q89 8 89 61q0 18 -12.5 29t-23.5 13t-20 2q-43 0 -87 -27l9 59q48 17 86 17q49 0 83 -23.5t34 -68.5q0 -60 -74 -86q50 -21 50 -75q0 -44 -37.5 -78t-105.5 -34q-46 0 -106 21z" />
    <glyph glyph-name="oneeighth" unicode="&#x215b;" horiz-adv-x="844" 
d="M743 185q49 -22 49 -72q0 -47 -39 -82.5t-106 -35.5q-54 0 -86 28.5t-32 70.5q0 71 82 98q-42 24 -42 66t36.5 72t90.5 30q49 0 80 -26.5t31 -63.5q0 -61 -64 -85zM744 268q0 16 -13 29.5t-37 13.5q-27 0 -44 -16.5t-17 -39.5q0 -21 14 -32.5t36 -11.5q29 0 45 18t16 39z
M728 111q0 27 -18 39t-41 12q-34 0 -55 -20.5t-21 -47.5t19.5 -39t40.5 -12q30 0 52.5 19.5t22.5 48.5zM721 691l-541 -718h-69l543 718h67zM264 687l-64 -355h-65l64 355h65z" />
    <glyph glyph-name="threeeighths" unicode="&#x215c;" horiz-adv-x="844" 
d="M611 192q-42 23 -42 66q0 42 36.5 72t90.5 30q49 0 80 -26.5t31 -64.5q0 -28 -21 -57q-2 -2 -11.5 -8.5l-17.5 -11.5l-8 -6q0 -1 5 -5l11 -9t7 -6q20 -22 20 -53q0 -46 -39 -82t-106 -36q-54 0 -86 28.5t-32 70.5q0 69 82 98zM744 268q0 16 -13 29.5t-37 13.5
q-27 0 -44 -16.5t-17 -39.5q0 -21 14 -32.5t36 -11.5q29 0 45 18t16 39zM728 111q0 27 -18 39t-41 12q-34 0 -55 -20.5t-21 -47.5t19.5 -39t40.5 -12q30 0 52.5 19.5t22.5 48.5zM44 348l8 49q53 -22 93 -22q44 0 62.5 19t18.5 44q0 29 -22 42t-53 11l8 46q17 2 24.5 3.5
t26.5 8t28.5 19t9.5 30.5q0 19 -13 30t-24 13t-20 2q-43 0 -87 -27l10 58q44 17 86 17q48 0 82 -23.5t34 -67.5q0 -60 -74 -86q50 -21 50 -75q0 -44 -37.5 -78t-105.5 -34q-51 0 -105 21zM727 691l-541 -718h-72l546 718h67z" />
    <glyph glyph-name="fiveeighths" unicode="&#x215d;" horiz-adv-x="844" 
d="M743 185q49 -22 49 -72q0 -47 -39 -82.5t-106 -35.5q-54 0 -86 28.5t-32 70.5q0 69 82 98q-42 23 -42 66q0 42 36.5 72t90.5 30q49 0 80 -26.5t31 -63.5q0 -61 -64 -85zM744 268q0 16 -13 29.5t-37 13.5q-27 0 -44 -16.5t-17 -39.5q0 -21 14 -32.5t36 -11.5q29 0 45 18
t16 39zM728 111q0 27 -18 39t-41 12q-34 0 -55 -20.5t-21 -47.5t19.5 -39t40.5 -12q30 0 52.5 19.5t22.5 48.5zM323 687l-10 -50h-115l-15 -81q49 -3 81.5 -30t32.5 -73q0 -49 -40 -87.5t-116 -38.5q-61 0 -103 29l21 47q43 -27 82 -27q40 0 64.5 21t24.5 53q0 31 -22.5 45
t-53.5 14q-14 0 -44 -5l38 183h175zM733 691l-541 -718h-70l544 718h67z" />
    <glyph glyph-name="seveneighths" unicode="&#x215e;" horiz-adv-x="844" 
d="M743 185q49 -22 49 -72q0 -47 -39 -82.5t-106 -35.5q-54 0 -86 28.5t-32 70.5q0 69 82 98q-42 23 -42 66q0 42 36.5 72t90.5 30q49 0 80 -26.5t31 -63.5q0 -61 -64 -85zM744 268q0 16 -13 29.5t-37 13.5q-27 0 -44 -16.5t-17 -39.5q0 -21 14 -32.5t36 -11.5q29 0 45 18
t16 39zM728 111q0 27 -18 39t-41 12q-34 0 -55 -20.5t-21 -47.5t19.5 -39t40.5 -12q30 0 52.5 19.5t22.5 48.5zM347 687l-190 -360h-67l165 309h-160l8 51h244zM715 691l-541 -718h-69l543 718h67z" />
    <glyph glyph-name="partialdiff" unicode="&#x2202;" horiz-adv-x="537" 
d="M508 482q0 -92 -24 -193q-31 -125 -100 -212t-168 -87q-80 0 -130 52t-50 136q0 141 76.5 229.5t175.5 88.5q41 0 72 -17.5t45 -43.5h2q5 50 5 67q0 76 -32.5 113.5t-90.5 37.5q-45 0 -86 -23l-22 67q49 31 120 31q95 0 151 -63t56 -183zM396 352q-23 73 -96 73
q-66 0 -115.5 -75t-49.5 -178q0 -49 22 -77.5t59 -28.5q63 0 111 80t69 206z" />
    <glyph glyph-name="Delta" unicode="&#x2206;" horiz-adv-x="559" 
d="M571 0h-550v45l210 655h133l207 -655v-45zM454 82l-145 469l-8 32t-7 27h-3l-13 -57l-146 -471h322z" />
    <glyph glyph-name="product" unicode="&#x220f;" horiz-adv-x="667" 
d="M593 -230h-100v844h-318v-844h-100v930h518v-930z" />
    <glyph glyph-name="summation" unicode="&#x2211;" horiz-adv-x="589" 
d="M535 -230h-510v49l280 420l-260 406v55h469v-81h-353l244 -378l-260 -390h390v-81z" />
    <glyph glyph-name="minus" unicode="&#x2212;" horiz-adv-x="583" 
d="M544 300h-473v82h473v-82z" />
    <glyph glyph-name="uni2215" unicode="&#x2215;" horiz-adv-x="208" 
d="M410 691l-542 -718h-69l543 718h68z" />
    <glyph glyph-name="uni2219" unicode="&#x2219;" horiz-adv-x="260" 
d="M130 360q23 0 38.5 -16t15.5 -39q0 -22 -16 -38t-38 -16t-38 16t-16 38q0 23 16 39t38 16z" />
    <glyph glyph-name="radical" unicode="&#x221a;" horiz-adv-x="461" 
d="M474 728l-160 -740h-86l-118 323l-51 -32l-33 53l129 84l115 -314l134 626h70z" />
    <glyph glyph-name="infinity" unicode="&#x221e;" horiz-adv-x="723" 
d="M679 293q0 -70 -45 -117.5t-112 -47.5q-51 0 -94.5 27.5t-70.5 73.5h-2q-69 -101 -161 -101q-66 0 -113 44t-47 119q0 74 46.5 118.5t111.5 44.5q100 0 163 -100h2q25 40 66.5 70t95.5 30q68 0 114 -45.5t46 -115.5zM599 293q0 39 -22.5 65t-63.5 26q-64 0 -120 -92
q49 -94 120 -94q41 0 63.5 27.5t22.5 67.5zM319 292q-54 92 -120 92q-41 0 -63.5 -27t-22.5 -67q0 -39 24.5 -65.5t61.5 -26.5q67 0 120 94z" />
    <glyph glyph-name="integral" unicode="&#x222b;" horiz-adv-x="462" 
d="M383 665q-16 7 -39 7q-71 0 -71 -91v-631q0 -80 -39 -128t-117 -48q-45 0 -71 11l18 72q16 -6 39 -6q71 0 71 90v631q0 81 40.5 129t119.5 48q49 0 69 -13q-4 -13 -10.5 -37t-9.5 -34z" />
    <glyph glyph-name="approxequal" unicode="&#x2248;" horiz-adv-x="583" 
d="M523 421q-57 -86 -134 -86q-54 0 -104 31q-53 32 -88 32q-44 0 -82 -65l-54 61q28 41 59 63.5t75 22.5q52 0 103 -31q53 -32 89 -32q46 0 82 65zM523 198q-56 -86 -134 -86q-54 0 -104 31q-53 32 -88 32q-44 0 -82 -65l-54 61q28 41 59 63.5t75 22.5q52 0 103 -31
q53 -32 89 -32q45 0 82 64z" />
    <glyph glyph-name="notequal" unicode="&#x2260;" horiz-adv-x="583" 
d="M499 144h-233l-52 -117h-89l53 117h-94v82h131l64 142h-195v82h232l56 127h89l-57 -127h95v-82h-132l-64 -142h196v-82z" />
    <glyph glyph-name="lessequal" unicode="&#x2264;" horiz-adv-x="583" 
d="M499 0h-415v82h415v-82zM499 138l-415 186v68l415 186v-87l-306 -132v-2l306 -133v-86z" />
    <glyph glyph-name="greaterequal" unicode="&#x2265;" horiz-adv-x="583" 
d="M499 0h-415v82h415v-82zM499 324l-415 -185v87l306 132v2l-306 132v87l415 -186v-69z" />
    <glyph glyph-name="lozenge" unicode="&#x25ca;" horiz-adv-x="516" 
d="M451 350l-182 -350h-48l-181 349l181 351h48zM376 350l-131 255l-130 -255l130 -255z" />
    <glyph glyph-name="one.alt" unicode="&#xe000;" horiz-adv-x="521" 
d="M300 0h-89l83 528q-55 -47 -133 -86l16 98q5 5 15 11q77 54 101 74.5t63 65.5h53z" />
    <glyph glyph-name="zero.fitted" unicode="&#xf639;" horiz-adv-x="521" 
d="M501 449q0 -66 -14.5 -140t-45 -148t-86.5 -122t-129 -48q-94 0 -137 73q-38 62 -38 165q0 56 9 115.5t30 122.5t51.5 112t79 80.5t106.5 31.5q99 0 146 -91q28 -58 28 -151zM409 435q0 23 -0.5 36.5t-4.5 43t-12 47t-25.5 32.5t-42.5 15q-52 0 -95.5 -66.5t-64.5 -151.5
t-21 -157q0 -163 88 -163q52 0 95 70t63 152t20 142z" />
    <glyph glyph-name="two.fitted" unicode="&#xf63a;" horiz-adv-x="473" 
d="M156 82h260l-12 -82h-414q19 19 104.5 127.5t127.5 168.5q34 48 53 77.5t40.5 75t21.5 74.5q0 38 -27 59.5t-70 21.5q-69 0 -149 -57l14 97q78 47 153 47q76 0 121 -46t45 -111q0 -57 -25.5 -111.5t-78.5 -129.5q-57 -80 -164 -211z" />
    <glyph glyph-name="three.fitted" unicode="&#xf63b;" horiz-adv-x="472" 
d="M-1 29l12 81q81 -38 150 -38q76 0 111.5 39t35.5 90q0 60 -40.5 87t-85.5 24l11 79q55 7 80 20q72 36 72 104q0 50 -34.5 72t-71.5 22q-71 0 -135 -42l13 94q68 30 137 30q78 0 132.5 -44.5t54.5 -127.5q0 -119 -133 -168q45 -19 68.5 -57.5t23.5 -89.5q0 -83 -60 -148
t-173 -65q-82 0 -168 38z" />
    <glyph glyph-name="four.fitted" unicode="&#xf63c;" horiz-adv-x="491" 
d="M425 691l-63 -408h99l-12 -73h-100l-33 -210h-87l36 210h-256v39l362 442h54zM276 283l34 215l-180 -215h146z" />
    <glyph glyph-name="five.fitted" unicode="&#xf63d;" horiz-adv-x="477" 
d="M452 682l-15 -84h-196l-27 -171q99 -5 147 -62t48 -134q0 -41 -14 -81.5t-43 -77t-80.5 -59t-117.5 -22.5q-97 0 -164 51l31 79q60 -47 134 -47q70 0 115 43t45 109q0 59 -39.5 90t-99.5 31q-33 0 -63 -8l61 343h278z" />
    <glyph glyph-name="six.fitted" unicode="&#xf63e;" horiz-adv-x="521" 
d="M414 682l-196 -288q41 23 91 23q74 0 117.5 -47.5t43.5 -117.5q0 -100 -68 -180.5t-167 -80.5q-84 0 -132.5 57t-48.5 142q0 50 21 106t41.5 89l64.5 99l133 198h100zM382 240q0 39 -24 68t-73 29q-63 0 -102.5 -46.5t-39.5 -104.5q0 -43 25.5 -76t73.5 -33
q61 0 100.5 50.5t39.5 112.5z" />
    <glyph glyph-name="seven.fitted" unicode="&#xf63f;" horiz-adv-x="449" 
d="M486 682v-6l-319 -685h-93l279 606h-274l12 85h395z" />
    <glyph glyph-name="eight.fitted" unicode="&#xf640;" horiz-adv-x="521" 
d="M376 356q91 -36 91 -141q0 -88 -63.5 -156t-171.5 -68q-88 0 -140 54t-52 132q0 92 61 146q32 28 85 44q-77 49 -77 131q0 79 57.5 136t146.5 57q80 0 129.5 -49t49.5 -120q0 -29 -8 -57t-36 -60.5t-72 -48.5zM404 515q0 40 -25.5 66.5t-68.5 26.5q-49 0 -81.5 -35
t-32.5 -80q0 -42 27 -67.5t69 -25.5q54 0 83 38t29 77zM377 211q0 52 -31.5 79t-77.5 27q-61 0 -99.5 -42t-38.5 -98q0 -52 35 -78t76 -26q54 0 95 39.5t41 98.5z" />
    <glyph glyph-name="nine.fitted" unicode="&#xf641;" horiz-adv-x="521" 
d="M141 0l196 288q-41 -23 -91 -23q-74 0 -117.5 47.5t-43.5 117.5q0 100 68 180.5t167 80.5q84 0 132.5 -57t48.5 -142q0 -50 -21 -106t-41.5 -89l-64.5 -99l-133 -198h-100zM173 442q0 -39 24 -68t73 -29q63 0 102.5 46.5t39.5 104.5q0 43 -25.5 76t-73.5 33
q-61 0 -100.5 -50.5t-39.5 -112.5z" />
    <glyph glyph-name="zero.taboldstyle" unicode="&#xf643;" horiz-adv-x="510" 
d="M476 261q0 -66 -22.5 -119.5t-59.5 -85.5t-80.5 -48.5t-88.5 -16.5q-92 0 -146.5 56t-54.5 144q0 63 27 123.5t87.5 104.5t141.5 44q94 0 145 -58.5t51 -143.5zM381 272q0 49 -31 79t-76 30q-63 0 -109 -53t-46 -133q0 -55 31 -88.5t82 -33.5q59 0 104 47t45 152z" />
    <glyph glyph-name="one.taboldstyle" unicode="&#xf644;" horiz-adv-x="510" 
d="M211 0l51 326l-143 -82l16 95l198 124h37l-71 -463h-88z" />
    <glyph glyph-name="two.taboldstyle" unicode="&#xf645;" horiz-adv-x="510" 
d="M86 330l17 94q72 39 153 39q64 0 105 -32t41 -93q0 -37 -15 -74.5t-44 -73t-50.5 -57t-55.5 -51.5h178l-11 -82h-365l53.5 48l35 31l21 18.5t21.5 20.5l23.5 23t31 31t28.5 32t29 38.5t17 36t8 38.5q0 32 -25.5 48t-63.5 16q-72 0 -132 -51z" />
    <glyph glyph-name="three.taboldstyle" unicode="&#xf646;" horiz-adv-x="510" 
d="M316 367h-236l12 82h378l-218 -316q144 -31 144 -164q0 -94 -67.5 -148t-165.5 -54q-75 0 -169 39l13 83q94 -40 159 -40q69 0 103.5 39t34.5 78q0 44 -36.5 78.5t-106.5 34.5q-19 0 -39 -4z" />
    <glyph glyph-name="four.taboldstyle" unicode="&#xf647;" horiz-adv-x="510" 
d="M374 73h107l-12 -73h-107l-39 -230h-84l38 230h-284v33l404 430h40zM121 73h169l43 232z" />
    <glyph glyph-name="five.taboldstyle" unicode="&#xf648;" horiz-adv-x="510" 
d="M455 449l-14 -82h-173l-61 -204q91 -7 142 -56t51 -122q0 -96 -69 -157t-178 -61q-83 0 -167 46l29 76q71 -40 144 -40q45 0 77 13.5t46.5 34.5t20 37.5t5.5 30.5q0 51 -32.5 81t-77 37t-97.5 0l110 366h244z" />
    <glyph glyph-name="six.taboldstyle" unicode="&#xf649;" horiz-adv-x="510" 
d="M376 644l-174 -253q39 26 94 26q70 0 115.5 -48t45.5 -115q0 -62 -26.5 -121t-81.5 -100.5t-124 -41.5q-85 0 -134.5 58t-49.5 140q0 67 32.5 138t124.5 206l102 149zM365 237q0 47 -25 72.5t-68 25.5q-48 0 -81.5 -27.5t-45.5 -59.5t-12 -62q0 -52 27.5 -80.5
t68.5 -28.5q54 0 95 45.5t41 114.5z" />
    <glyph glyph-name="seven.taboldstyle" unicode="&#xf64a;" horiz-adv-x="510" 
d="M89 367l13 82h391l-319 -682l-87 37l276 563h-274z" />
    <glyph glyph-name="eight.taboldstyle" unicode="&#xf64b;" horiz-adv-x="510" 
d="M355 362q102 -41 102 -148q0 -87 -63 -155t-172 -68q-90 0 -141 55t-51 129q0 41 14.5 74.5t32.5 52t44 33t39 18.5t28 8q-41 24 -65 54.5t-24 83.5q0 77 57.5 134.5t147.5 57.5q81 0 129.5 -50t48.5 -118q0 -48 -29 -93.5t-98 -67.5zM395 515q0 42 -28.5 68t-66.5 26
q-46 0 -80 -32.5t-34 -83.5q0 -42 28.5 -68t67.5 -26q51 0 82 35t31 81zM367 211q0 52 -31.5 79t-77.5 27q-61 0 -99.5 -42t-38.5 -98q0 -52 35 -78t76 -26q54 0 95 39.5t41 98.5z" />
    <glyph glyph-name="nine.taboldstyle" unicode="&#xf64c;" horiz-adv-x="510" 
d="M122 -184l179 248q-47 -29 -99 -29q-66 0 -113.5 43.5t-47.5 119.5q0 110 71 187.5t168 77.5q81 0 129 -54.5t48 -140.5q0 -65 -28.5 -135.5t-106.5 -181.5l-130 -184zM365 265q0 54 -26 82t-68 28q-58 0 -98 -51.5t-40 -112.5q0 -47 25 -71.5t65 -24.5q54 0 98 42
t44 108z" />
    <glyph glyph-name="zero.denominator" unicode="&#xf655;" horiz-adv-x="323" 
d="M292 231q0 -32 -8.5 -69.5t-26.5 -76.5t-53 -64.5t-80 -25.5q-37 0 -61 14t-33.5 37.5t-12.5 40t-3 33.5q0 52 15 103.5t55.5 94t98.5 42.5q31 0 53 -12t32.5 -26.5t16.5 -36t6.5 -32t0.5 -22.5zM126 43q40 0 69.5 64.5t29.5 125.5q0 78 -44 78q-41 0 -70.5 -64
t-29.5 -125q0 -79 45 -79z" />
    <glyph glyph-name="one.denominator" unicode="&#xf656;" horiz-adv-x="323" 
d="M216 355l-63 -355h-65l64 355h64z" />
    <glyph glyph-name="two.denominator" unicode="&#xf657;" horiz-adv-x="323" 
d="M99 48h151l-8 -48h-260q17 15 68 71.5t75 86.5q66 81 66 112q0 39 -52 39q-39 0 -95 -36l10 60q49 27 96 27t75.5 -24.5t28.5 -60.5q0 -43 -49 -107q-32 -41 -106 -120z" />
    <glyph glyph-name="three.denominator" unicode="&#xf658;" horiz-adv-x="323" 
d="M-2 16l8 49q60 -22 94 -22q44 0 62.5 19t18.5 44q0 29 -22.5 42.5t-52.5 10.5l7 47q90 8 90 61q0 18 -12.5 29t-23.5 13t-21 2q-43 0 -87 -27l10 59q47 17 86 17q48 0 82 -23.5t34 -68.5q0 -60 -74 -86q50 -22 50 -75q0 -44 -37.5 -78t-105.5 -34q-46 0 -106 21z" />
    <glyph glyph-name="four.denominator" unicode="&#xf659;" horiz-adv-x="323" 
d="M257 360l-36 -209h58l-8 -43h-59l-20 -108h-63l22 108h-151v23l216 229h41zM158 151l17 91l-88 -91h71z" />
    <glyph glyph-name="five.denominator" unicode="&#xf65a;" horiz-adv-x="323" 
d="M278 355l-10 -50h-116l-15 -81q49 -2 82 -29t33 -74q0 -48 -39.5 -87t-117.5 -39q-58 0 -103 29l22 47q43 -27 82 -27t64 21t25 53q0 31 -22 45t-54 14q-14 0 -44 -5l37 183h176z" />
    <glyph glyph-name="six.denominator" unicode="&#xf65b;" horiz-adv-x="323" 
d="M243 355l-110 -140q23 5 37 5q52 0 77.5 -27t25.5 -61q0 -53 -42.5 -95t-103.5 -42q-51 0 -81 30t-30 76q0 27 11 53.5t24 45.5t41 54l80 101h71zM209 125q0 47 -49 47q-34 0 -56.5 -22.5t-22.5 -51.5q0 -21 13.5 -36.5t36.5 -15.5q31 0 54.5 24.5t23.5 54.5z" />
    <glyph glyph-name="seven.denominator" unicode="&#xf65c;" horiz-adv-x="323" 
d="M302 355l-190 -360h-67l165 310h-161l9 50h244z" />
    <glyph glyph-name="eight.denominator" unicode="&#xf65d;" horiz-adv-x="323" 
d="M222 185q49 -23 49 -72q0 -46 -39 -82t-105 -36q-55 0 -87 29t-32 70q0 71 82 98q-42 23 -42 66q0 42 36.5 72t90.5 30q49 0 80 -26.5t31 -63.5q0 -61 -64 -85zM223 267q0 17 -13 30.5t-37 13.5q-27 0 -44 -16.5t-17 -39.5q0 -21 14 -32.5t36 -11.5q29 0 45 18t16 38z
M207 110q0 27 -18 39.5t-41 12.5q-34 0 -54.5 -21t-20.5 -47q0 -27 19.5 -39t39.5 -12q29 0 52 19.5t23 47.5z" />
    <glyph glyph-name="nine.denominator" unicode="&#xf65e;" horiz-adv-x="323" 
d="M52 0l110 140q-22 -5 -37 -5q-52 0 -77.5 27t-25.5 61q0 53 42.5 95t103.5 42q51 0 81 -30t30 -76q0 -27 -11 -53.5t-24 -45.5t-41 -54l-80 -101h-71zM86 230q0 -47 49 -47q34 0 56.5 22.5t22.5 51.5q0 21 -13.5 36.5t-36.5 15.5q-31 0 -54.5 -24.5t-23.5 -54.5z" />
    <glyph glyph-name="zero.numerator" unicode="&#xf661;" horiz-adv-x="323" 
d="M339 564q0 -34 -9 -72t-27 -76.5t-52.5 -63.5t-79.5 -25q-59 0 -84.5 35.5t-25.5 88.5q0 52 15.5 104t55.5 94t98 42q38 0 62.5 -16t33.5 -42t11 -40t2 -29zM174 374q39 0 69 64.5t30 126.5q0 78 -45 78q-41 0 -70.5 -64t-29.5 -125q0 -80 46 -80z" />
    <glyph glyph-name="one.numerator" unicode="&#xf662;" horiz-adv-x="323" 
d="M264 687l-64 -355h-65l64 355h65z" />
    <glyph glyph-name="two.numerator" unicode="&#xf663;" horiz-adv-x="323" 
d="M146 380h151l-8 -48h-260q16 14 67 70.5t76 86.5q66 81 66 113q0 38 -51 38q-42 0 -96 -35l10 60q52 26 96 26q47 0 75.5 -24t28.5 -60q0 -45 -49 -107q-32 -41 -106 -120z" />
    <glyph glyph-name="three.numerator" unicode="&#xf664;" horiz-adv-x="323" 
d="M46 348l8 49q53 -22 93 -22q44 0 62.5 19t18.5 44q0 29 -22.5 42.5t-52.5 10.5l8 46q17 2 24.5 3.5t26.5 8t28.5 19t9.5 30.5q0 19 -13 30t-24 13t-20 2q-43 0 -87 -27l10 58q44 17 86 17q48 0 82 -23.5t34 -67.5q0 -60 -74 -86q50 -21 50 -75q0 -44 -37.5 -78
t-105.5 -34q-51 0 -105 21z" />
    <glyph glyph-name="four.numerator" unicode="&#xf665;" horiz-adv-x="323" 
d="M305 691l-37 -208h58l-8 -44h-59l-20 -107h-63l22 107h-151v23l216 229h42zM205 483l17 91l-88 -91h71z" />
    <glyph glyph-name="five.numerator" unicode="&#xf666;" horiz-adv-x="323" 
d="M325 687l-10 -50h-115l-15 -81q49 -3 81.5 -30t32.5 -73q0 -49 -40 -87.5t-116 -38.5q-61 0 -103 29l21 47q43 -27 82 -27q40 0 64.5 21t24.5 53q0 31 -22.5 45t-53.5 14q-14 0 -44 -5l37 183h176z" />
    <glyph glyph-name="six.numerator" unicode="&#xf667;" horiz-adv-x="323" 
d="M290 687l-110 -141q13 5 38 5q50 0 76 -26t26 -61q0 -53 -42.5 -95t-102.5 -42q-52 0 -82 29.5t-30 76.5q0 26 11.5 53t23.5 44t41 55l80 102h71zM256 457q0 25 -14.5 36t-34.5 11q-34 0 -56.5 -22.5t-22.5 -51.5q0 -21 13.5 -37t36.5 -16q31 0 54.5 24.5t23.5 55.5z" />
    <glyph glyph-name="seven.numerator" unicode="&#xf668;" horiz-adv-x="323" 
d="M349 687l-190 -360h-67l165 309h-160l8 51h244z" />
    <glyph glyph-name="eight.numerator" unicode="&#xf669;" horiz-adv-x="323" 
d="M270 517q48 -23 48 -72q0 -46 -38.5 -82t-105.5 -36q-55 0 -87 28.5t-32 69.5q0 71 82 98q-42 25 -42 66q0 42 36.5 72t90.5 30q49 0 80.5 -26t31.5 -64q0 -24 -15 -47.5t-49 -36.5zM270 599q0 16 -13 29.5t-37 13.5q-27 0 -44 -16.5t-17 -39.5q0 -20 14 -32t36 -12
q29 0 45 18t16 39zM254 442q0 27 -17.5 39.5t-41.5 12.5q-33 0 -54 -21t-21 -47q0 -27 19.5 -39t40.5 -12q29 0 51.5 19.5t22.5 47.5z" />
    <glyph glyph-name="nine.numerator" unicode="&#xf66a;" horiz-adv-x="323" 
d="M96 327l114 145q-22 -6 -40 -6q-51 0 -76.5 27.5t-25.5 59.5q0 52 42.5 95t105.5 43q48 0 79 -30t31 -75q0 -36 -16 -67.5t-48 -72.5l-95 -119h-71zM261 588q0 20 -12.5 36t-39.5 16q-31 0 -53.5 -25t-22.5 -55q0 -47 49 -47q32 0 55.5 22t23.5 53z" />
    <glyph glyph-name="abreve.sc" unicode="&#xf66d;" horiz-adv-x="415" 
d="M290 0l-27 146h-127l-60 -146h-79l206 485h70l91 -485h-74zM224 365l-61 -152h88zM117 678h62q1 -11 3 -17.5t8.5 -20t22 -21t37.5 -7.5q23 0 43 11t30.5 22.5t25.5 32.5h63q-4 -12 -15 -31t-31.5 -46t-53 -45.5t-69.5 -18.5t-63 13.5t-39 37t-18 45t-6 45.5z" />
    <glyph glyph-name="amacron.sc" unicode="&#xf66e;" horiz-adv-x="415" 
d="M290 0l-27 146h-127l-60 -146h-79l206 485h70l91 -485h-74zM224 365l-61 -152h88zM393 607l-11 -70h-281l11 70h281z" />
    <glyph glyph-name="aogonek.sc" unicode="&#xf66f;" horiz-adv-x="415" 
d="M224 365l-61 -152h88zM439 -111l-10 -68q-32 -8 -62 -8q-46 0 -78 27t-32 66q0 38 33 94l-27 146h-127l-60 -146h-79l206 485h70l91 -485q-25 -44 -25 -67q0 -21 18.5 -35.5t43.5 -14.5q14 0 38 6z" />
    <glyph glyph-name="aeacute.sc" unicode="&#xf670;" horiz-adv-x="615" 
d="M565 0h-314l28 211h-85l-113 -211h-84l267 483h303l-10 -73h-173l-17 -126h162l-9 -73h-163l-19 -138h236zM302 414l-72 -137h58l19 137h-5zM588 688l-166 -151h-52l73 151h145z" />
    <glyph glyph-name="cacute.sc" unicode="&#xf671;" horiz-adv-x="388" 
d="M376 412h-40q-52 0 -93.5 -14t-67 -36t-42.5 -51t-23.5 -56.5t-6.5 -54.5q0 -60 30 -95t80 -35q67 0 145 64l-14 -102q-66 -38 -140 -38q-81 0 -131.5 56.5t-50.5 145.5q0 128 86 210.5t230 82.5h54zM430 688l-166 -151h-52l73 151h145z" />
    <glyph glyph-name="ccaron.sc" unicode="&#xf672;" horiz-adv-x="388" 
d="M376 412h-40q-52 0 -93.5 -14t-67 -36t-42.5 -51t-23.5 -56.5t-6.5 -54.5q0 -60 30 -95t80 -35q67 0 145 64l-14 -102q-66 -38 -140 -38q-81 0 -131.5 56.5t-50.5 145.5q0 128 86 210.5t230 82.5h54zM453 688l-136 -151h-123l-70 151h50l82 -86l138 86h59z" />
    <glyph glyph-name="ccircumflex.sc" unicode="&#xf673;" horiz-adv-x="388" 
d="M376 412h-40q-52 0 -93.5 -14t-67 -36t-42.5 -51t-23.5 -56.5t-6.5 -54.5q0 -60 30 -95t80 -35q67 0 145 64l-14 -102q-66 -38 -140 -38q-81 0 -131.5 56.5t-50.5 145.5q0 128 86 210.5t230 82.5h54zM421 537h-48l-81 84l-141 -84h-60l138 151h124z" />
    <glyph glyph-name="cdotaccent.sc" unicode="&#xf674;" horiz-adv-x="388" 
d="M376 412h-40q-52 0 -93.5 -14t-67 -36t-42.5 -51t-23.5 -56.5t-6.5 -54.5q0 -60 30 -95t80 -35q67 0 145 64l-14 -102q-66 -38 -140 -38q-81 0 -131.5 56.5t-50.5 145.5q0 128 86 210.5t230 82.5h54zM275 557q-22 0 -37.5 15.5t-15.5 37.5t15.5 37.5t37.5 15.5
t37.5 -15.5t15.5 -37.5t-15.5 -37.5t-37.5 -15.5z" />
    <glyph glyph-name="dcaron.sc" unicode="&#xf675;" horiz-adv-x="430" 
d="M165 0h-157l66 483h61q122 0 197.5 -61.5t75.5 -180.5q0 -103 -60 -172t-183 -69zM155 409h-12l-46 -336h44q60 0 89.5 9.5t52.5 32.5q44 42 44 128q0 83 -54.5 124.5t-117.5 41.5zM434 688l-136 -151h-123l-70 151h50l82 -86l138 86h59z" />
    <glyph glyph-name="dcroat.sc" unicode="&#xf676;" horiz-adv-x="430" 
d="M116 209l-19 -136h62q168 0 168 170q0 72 -49 119t-121 47h-14l-18 -133h116l-11 -67h-114zM46 276l28 207h61q121 0 197 -61.5t76 -180.5q0 -116 -65.5 -178.5t-177.5 -62.5h-157l29 209h-37l10 67h36z" />
    <glyph glyph-name="ebreve.sc" unicode="&#xf677;" horiz-adv-x="372" 
d="M321 0h-313l68 483h255l-10 -73h-179l-18 -128h159l-10 -73h-159l-19 -136h236zM90 678h62q1 -11 3 -17.5t8.5 -20t22 -21t37.5 -7.5q23 0 43 11t30.5 22.5t25.5 32.5h63q-4 -12 -15 -31t-31.5 -46t-53 -45.5t-69.5 -18.5t-63 13.5t-39 37t-18 45t-6 45.5z" />
    <glyph glyph-name="ecaron.sc" unicode="&#xf678;" horiz-adv-x="372" 
d="M321 0h-313l68 483h255l-10 -73h-179l-18 -128h159l-10 -73h-159l-19 -136h236zM404 688l-136 -151h-123l-70 151h50l82 -86l138 86h59z" />
    <glyph glyph-name="edotaccent.sc" unicode="&#xf679;" horiz-adv-x="372" 
d="M321 0h-313l68 483h255l-10 -73h-179l-18 -128h159l-10 -73h-159l-19 -136h236zM201 557q-22 0 -37.5 15.5t-15.5 37.5t15.5 37.5t37.5 15.5t37.5 -15.5t15.5 -37.5t-15.5 -37.5t-37.5 -15.5z" />
    <glyph glyph-name="emacron.sc" unicode="&#xf67a;" horiz-adv-x="372" 
d="M321 0h-313l68 483h255l-10 -73h-179l-18 -128h159l-10 -73h-159l-19 -136h236zM372 607l-11 -70h-281l11 70h281z" />
    <glyph glyph-name="eng.sc" unicode="&#xf67b;" horiz-adv-x="494" 
d="M249 -4l-18 70q27 -8 56 -8q33 0 46 19t19 61l19 142q9 69 -17.5 111t-80.5 42q-32 0 -60 -15.5t-41 -30t-29 -36.5l-48 -351h-78l67 489h76l-4 -44q61 50 133 50q86 0 129 -62t29 -160l-18 -128q-5 -34 -9.5 -53t-18 -46.5t-40 -41t-66.5 -13.5q-19 0 -46 5z" />
    <glyph glyph-name="eogonek.sc" unicode="&#xf67c;" horiz-adv-x="372" 
d="M331 73l-10 -73h-86q-25 -44 -25 -67q0 -21 17 -35.5t42 -14.5q14 0 38 6l-10 -68q-32 -8 -62 -8q-46 0 -78 27t-32 66q0 38 33 94h-150l68 483h255l-10 -73h-179l-18 -128h159l-10 -73h-159l-19 -136h236z" />
    <glyph glyph-name="gbreve.sc" unicode="&#xf67d;" horiz-adv-x="436" 
d="M419 408q-58 7 -88 7q-59 0 -105 -20t-71.5 -51.5t-38 -66t-12.5 -68.5q0 -64 33.5 -103t87.5 -39q37 0 79 20l8 66h-64l9 67h142l-25 -182q-83 -44 -153 -44q-95 0 -147 63t-52 150q0 45 16.5 91.5t51 90.5t99.5 72t151 28q24 0 88 -8zM153 678h62q1 -11 3 -17.5
t8.5 -20t22 -21t37.5 -7.5q23 0 43 11t30.5 22.5t25.5 32.5h63q-4 -12 -15 -31t-31.5 -46t-53 -45.5t-69.5 -18.5t-63 13.5t-39 37t-18 45t-6 45.5z" />
    <glyph glyph-name="gcircumflex.sc" unicode="&#xf67e;" horiz-adv-x="436" 
d="M419 408q-58 7 -88 7q-59 0 -105 -20t-71.5 -51.5t-38 -66t-12.5 -68.5q0 -64 33.5 -103t87.5 -39q37 0 79 20l8 66h-64l9 67h142l-25 -182q-83 -44 -153 -44q-95 0 -147 63t-52 150q0 45 16.5 91.5t51 90.5t99.5 72t151 28q24 0 88 -8zM450 537h-48l-81 84l-141 -84h-60
l138 151h124z" />
    <glyph glyph-name="gcommaaccent.sc" unicode="&#xf67f;" horiz-adv-x="436" 
d="M419 408q-58 7 -88 7q-59 0 -105 -20t-71.5 -51.5t-38 -66t-12.5 -68.5q0 -64 33.5 -103t87.5 -39q37 0 79 20l8 66h-64l9 67h142l-25 -182q-83 -44 -153 -44q-95 0 -147 63t-52 150q0 45 16.5 91.5t51 90.5t99.5 72t151 28q24 0 88 -8zM69 -211l16 51q36 -8 58 -8
q25 0 43 11t18 29q0 15 -8.5 24t-26 12t-29.5 4t-34 1l20 50q34 0 60 -2t54.5 -10t44.5 -26.5t16 -46.5q0 -36 -35.5 -66.5t-107.5 -30.5q-50 0 -89 8z" />
    <glyph glyph-name="gdotaccent.sc" unicode="&#xf680;" horiz-adv-x="436" 
d="M419 408q-58 7 -88 7q-59 0 -105 -20t-71.5 -51.5t-38 -66t-12.5 -68.5q0 -64 33.5 -103t87.5 -39q37 0 79 20l8 66h-64l9 67h142l-25 -182q-83 -44 -153 -44q-95 0 -147 63t-52 150q0 45 16.5 91.5t51 90.5t99.5 72t151 28q24 0 88 -8zM314 557q-22 0 -37.5 15.5
t-15.5 37.5t15.5 37.5t37.5 15.5t37.5 -15.5t15.5 -37.5t-15.5 -37.5t-37.5 -15.5z" />
    <glyph glyph-name="hbar.sc" unicode="&#xf681;" horiz-adv-x="468" 
d="M502 414l-11 -71h-50l-47 -343h-80l28 206h-226l-28 -206h-80l47 343h-50l11 71h49l9 69h79l-9 -69h226l10 69h80l-9 -69h51zM360 343h-226l-8 -61h226z" />
    <glyph glyph-name="hcircumflex.sc" unicode="&#xf682;" horiz-adv-x="468" 
d="M394 0h-80l28 206h-226l-28 -206h-80l66 483h79l-27 -201h226l28 201h80zM436 537h-48l-81 84l-141 -84h-60l138 151h124z" />
    <glyph glyph-name="ibreve.sc" unicode="&#xf683;" horiz-adv-x="158" 
d="M86 0h-78l64 483h78zM-20 678h62q1 -11 3 -17.5t8.5 -20t22 -21t37.5 -7.5q23 0 43 11t30.5 22.5t25.5 32.5h63q-4 -12 -15 -31t-31.5 -46t-53 -45.5t-69.5 -18.5t-63 13.5t-39 37t-18 45t-6 45.5z" />
    <glyph glyph-name="i_j.sc" unicode="&#xf684;" horiz-adv-x="327" 
d="M86 0h-78l64 483h78zM251 -28q-18 -131 -124 -131q-18 0 -50 6l-18 77q40 -9 55 -9q28 0 42.5 14.5t18.5 49.5l68 504h77z" />
    <glyph glyph-name="imacron.sc" unicode="&#xf685;" horiz-adv-x="158" 
d="M86 0h-78l64 483h78zM254 607l-11 -70h-281l11 70h281z" />
    <glyph glyph-name="iogonek.sc" unicode="&#xf686;" horiz-adv-x="158" 
d="M82 0q-25 -44 -25 -67q0 -26 16 -38t40 -12q20 0 44 6l-10 -68q-32 -8 -62 -8q-36 0 -73 23t-37 70q0 46 33 94l64 483h78l-64 -483h-4z" />
    <glyph glyph-name="itilde.sc" unicode="&#xf687;" horiz-adv-x="158" 
d="M86 0h-78l64 483h78zM16 537h-53q-1 50 28 86t76 36q10 0 18 -1t17.5 -4.5t14.5 -6l18.5 -9.5l21.5 -11q34 -17 48 -17q29 0 37 49h53q-1 -60 -31 -91t-71 -31q-38 0 -81 25q-39 23 -58 23q-33 0 -38 -48z" />
    <glyph glyph-name="jcircumflex.sc" unicode="&#xf688;" horiz-adv-x="169" 
d="M92 -28q-18 -131 -124 -131q-18 0 -50 6l-18 77q40 -9 55 -9q28 0 42.5 14.5t18.5 49.5l68 504h77zM286 537h-48l-81 84l-141 -84h-60l138 151h124z" />
    <glyph glyph-name="kcommaaccent.sc" unicode="&#xf689;" horiz-adv-x="398" 
d="M179 258l208 -258h-94l-175 230l-31 -230h-79l66 483h79l-28 -185l177 185h93zM35 -211l16 51q36 -8 58 -8q25 0 43 11t18 29q0 15 -8.5 24t-26 12t-29.5 4t-34 1l20 50q34 0 60 -2t54.5 -10t44.5 -26.5t16 -46.5q0 -36 -35.5 -66.5t-107.5 -30.5q-50 0 -89 8z" />
    <glyph glyph-name="lacute.sc" unicode="&#xf68a;" horiz-adv-x="309" 
d="M266 0h-258l65 483h77l-58 -413h183zM335 688l-166 -151h-52l73 151h145z" />
    <glyph glyph-name="lcaron.sc" unicode="&#xf68b;" horiz-adv-x="309" 
d="M266 0h-258l65 483h77l-58 -413h183zM186 284l5 31q27 9 42 22.5t18.5 24.5t4.5 30q-36 12 -36 45q0 52 50 52q24 0 39 -17.5t15 -47.5q0 -46 -33 -85t-105 -55z" />
    <glyph glyph-name="lcommaaccent.sc" unicode="&#xf68c;" horiz-adv-x="309" 
d="M266 0h-258l65 483h77l-58 -413h183zM5 -211l16 51q36 -8 58 -8q25 0 43 11t18 29q0 15 -8.5 24t-26 12t-29.5 4t-34 1l20 50q34 0 60 -2t54.5 -10t44.5 -26.5t16 -46.5q0 -36 -35.5 -66.5t-107.5 -30.5q-50 0 -89 8z" />
    <glyph glyph-name="ldot.sc" unicode="&#xf68d;" horiz-adv-x="309" 
d="M266 0h-258l65 483h77l-58 -413h183zM227 221q-22 0 -37.5 15.5t-15.5 37.5t15.5 37.5t37.5 15.5t37.5 -15.5t15.5 -37.5t-15.5 -37.5t-37.5 -15.5z" />
    <glyph glyph-name="nacute.sc" unicode="&#xf68e;" horiz-adv-x="459" 
d="M385 0h-45l-214 324l-44 -324h-74l66 483h43l215 -327l44 327h75zM450 688l-166 -151h-52l73 151h145z" />
    <glyph glyph-name="ncaron.sc" unicode="&#xf68f;" horiz-adv-x="459" 
d="M385 0h-45l-214 324l-44 -324h-74l66 483h43l215 -327l44 327h75zM453 688l-136 -151h-123l-70 151h50l82 -86l138 86h59z" />
    <glyph glyph-name="ncommaaccent.sc" unicode="&#xf690;" horiz-adv-x="459" 
d="M385 0h-45l-214 324l-44 -324h-74l66 483h43l215 -327l44 327h75zM80 -211l16 51q36 -8 58 -8q25 0 43 11t18 29q0 15 -8.5 24t-26 12t-30 4t-33.5 1l20 50q34 0 60 -2t54.5 -10t44.5 -26.5t16 -46.5q0 -36 -35.5 -66.5t-107.5 -30.5q-50 0 -89 8z" />
    <glyph glyph-name="obreve.sc" unicode="&#xf691;" horiz-adv-x="439" 
d="M191 -6q-75 0 -122 58t-47 147q0 48 14.5 97.5t41.5 93.5t72 71.5t99 27.5q76 0 122 -57t46 -147q0 -125 -66.5 -208t-159.5 -83zM249 415q-68 0 -108 -70.5t-40 -154.5q0 -58 25 -89t67 -31q58 0 102 65.5t44 160.5q0 58 -24.5 88.5t-65.5 30.5zM134 678h62
q1 -11 3 -17.5t8.5 -20t22 -21t37.5 -7.5q23 0 43 11t30.5 22.5t25.5 32.5h63q-4 -12 -15 -31t-31.5 -46t-53 -45.5t-69.5 -18.5t-63 13.5t-39 37t-18 45t-6 45.5z" />
    <glyph glyph-name="ohungarumlaut.sc" unicode="&#xf692;" horiz-adv-x="439" 
d="M191 -6q-75 0 -122 58t-47 147q0 48 14.5 97.5t41.5 93.5t72 71.5t99 27.5q76 0 122 -57t46 -147q0 -125 -66.5 -208t-159.5 -83zM249 415q-68 0 -108 -70.5t-40 -154.5q0 -58 25 -89t67 -31q58 0 102 65.5t44 160.5q0 58 -24.5 88.5t-65.5 30.5zM314 688l-122 -151h-49
l49 151h122zM476 688l-123 -151h-49l49 151h123z" />
    <glyph glyph-name="omacron.sc" unicode="&#xf693;" horiz-adv-x="439" 
d="M191 -6q-75 0 -122 58t-47 147q0 48 14.5 97.5t41.5 93.5t72 71.5t99 27.5q76 0 122 -57t46 -147q0 -125 -66.5 -208t-159.5 -83zM249 415q-68 0 -108 -70.5t-40 -154.5q0 -58 25 -89t67 -31q58 0 102 65.5t44 160.5q0 58 -24.5 88.5t-65.5 30.5zM412 607l-11 -70h-281
l11 70h281z" />
    <glyph glyph-name="oslashacute.sc" unicode="&#xf694;" horiz-adv-x="439" 
d="M431 456l-43 -50q29 -53 29 -121q0 -125 -66.5 -208t-159.5 -83q-67 0 -113 48l-44 -51l-28 34l45 53q-29 50 -29 121q0 48 14.5 97.5t41.5 93.5t72 71.5t99 27.5q68 0 113 -47l38 45zM313 386q-23 29 -64 29q-68 0 -108 -70.5t-40 -154.5q0 -30 5 -47zM339 296
q0 23 -5 46l-207 -242q24 -30 66 -30q58 0 102 65.5t44 160.5zM440 688l-166 -151h-52l73 151h145z" />
    <glyph glyph-name="racute.sc" unicode="&#xf695;" horiz-adv-x="365" 
d="M270 0l-53 116q-27 58 -43 73.5t-43 15.5h-16l-27 -205h-80l65 483h89q83 0 122 -36q40 -37 40 -99q0 -41 -22.5 -72.5t-61.5 -45.5q17 -18 28 -44l86 -186h-84zM170 410h-27l-17 -132h21q52 0 73.5 21.5t21.5 51.5q0 59 -72 59zM383 688l-166 -151h-52l73 151h145z" />
    <glyph glyph-name="rcaron.sc" unicode="&#xf696;" horiz-adv-x="365" 
d="M270 0l-53 116q-27 58 -43 73.5t-43 15.5h-16l-27 -205h-80l65 483h89q83 0 122 -36q40 -37 40 -99q0 -41 -22.5 -72.5t-61.5 -45.5q17 -18 28 -44l86 -186h-84zM170 410h-27l-17 -132h21q52 0 73.5 21.5t21.5 51.5q0 59 -72 59zM401 688l-136 -151h-123l-70 151h50
l82 -86l138 86h59z" />
    <glyph glyph-name="rcommaaccent.sc" unicode="&#xf697;" horiz-adv-x="365" 
d="M270 0l-53 116q-27 58 -43 73.5t-43 15.5h-16l-27 -205h-80l65 483h89q83 0 122 -36q40 -37 40 -99q0 -41 -22.5 -72.5t-61.5 -45.5q17 -18 28 -44l86 -186h-84zM170 410h-27l-17 -132h21q52 0 73.5 21.5t21.5 51.5q0 59 -72 59zM33 -211l16 51q36 -8 58 -8q25 0 43 11
t18 29q0 15 -8.5 24t-26 12t-29.5 4t-34 1l20 50q34 0 60 -2t54.5 -10t44.5 -26.5t16 -46.5q0 -36 -35.5 -66.5t-107.5 -30.5q-50 0 -89 8z" />
    <glyph glyph-name="sacute.sc" unicode="&#xf698;" horiz-adv-x="322" 
d="M282 383q-47 31 -86 31q-32 0 -51 -17t-19 -45t45 -66q2 -2 18.5 -16l20 -17t17 -16.5t17.5 -19.5t13 -18.5t12 -22.5t6 -23.5t3 -27.5q0 -51 -38 -91t-104 -40q-56 0 -117 38l12 88q70 -51 111 -51q20 0 39 13.5t19 37.5q0 33 -47 73l-28 24q-36 31 -56.5 62t-20.5 74
q0 60 46 98t107 38q44 0 92 -22zM382 688l-166 -151h-52l73 151h145z" />
    <glyph glyph-name="scedilla.sc" unicode="&#xf699;" horiz-adv-x="322" 
d="M293 467l-11 -84q-47 31 -86 31q-32 0 -51 -17t-19 -45t45 -66q2 -2 18.5 -16l20 -17t17 -16.5t17.5 -19.5t13 -18.5t12 -22.5t6 -23.5t3 -27.5q0 -48 -34 -87t-94 -43l-4 -12q46 -21 46 -68q0 -37 -30.5 -61.5t-75.5 -24.5q-33 0 -68 7l12 46q28 -7 42 -7
q22 0 34.5 10.5t12.5 27.5q0 21 -27 35l23 48q-47 5 -96 36l12 88q70 -51 111 -51q20 0 39 13.5t19 37.5q0 33 -47 73l-28 24q-36 31 -56.5 62t-20.5 74q0 60 46 98t107 38q44 0 92 -22z" />
    <glyph glyph-name="scircumflex.sc" unicode="&#xf69a;" horiz-adv-x="322" 
d="M282 383q-47 31 -86 31q-32 0 -51 -17t-19 -45t45 -66q2 -2 18.5 -16l20 -17t17 -16.5t17.5 -19.5t13 -18.5t12 -22.5t6 -23.5t3 -27.5q0 -51 -38 -91t-104 -40q-56 0 -117 38l12 88q70 -51 111 -51q20 0 39 13.5t19 37.5q0 33 -47 73l-28 24q-36 31 -56.5 62t-20.5 74
q0 60 46 98t107 38q44 0 92 -22zM378 537h-48l-81 84l-141 -84h-60l138 151h124z" />
    <glyph glyph-name="scommaaccent.sc" unicode="&#xf69b;" horiz-adv-x="322" 
d="M282 383q-47 31 -86 31q-32 0 -51 -17t-19 -45t45 -66q2 -2 18.5 -16l20 -17t17 -16.5t17.5 -19.5t13 -18.5t12 -22.5t6 -23.5t3 -27.5q0 -51 -38 -91t-104 -40q-56 0 -117 38l12 88q70 -51 111 -51q20 0 39 13.5t19 37.5q0 33 -47 73l-28 24q-36 31 -56.5 62t-20.5 74
q0 60 46 98t107 38q44 0 92 -22zM12 -211l16 51q36 -8 58 -8q25 0 43 11t18 29q0 15 -8.5 24t-26 12t-30 4t-33.5 1l20 50q34 0 60 -2t54.5 -10t44.5 -26.5t16 -46.5q0 -36 -35.5 -66.5t-107.5 -30.5q-50 0 -89 8z" />
    <glyph glyph-name="tbar.sc" unicode="&#xf69c;" horiz-adv-x="365" 
d="M38 234l11 71h106l12 102h-126l10 76h332l-10 -76h-126l-12 -102h106l-11 -71h-107l-32 -234h-79l32 234h-106z" />
    <glyph glyph-name="tcaron.sc" unicode="&#xf69d;" horiz-adv-x="365" 
d="M373 407h-126l-56 -407h-79l55 407h-126l10 76h332zM426 688l-136 -151h-123l-70 151h50l82 -86l138 86h59z" />
    <glyph glyph-name="tcommaaccent.sc" unicode="&#xf69e;" horiz-adv-x="365" 
d="M373 407h-126l-56 -407h-79l55 407h-126l10 76h332zM33 -211l16 51q36 -8 58 -8q25 0 43 11t18 29q0 15 -8.5 24t-26 12t-29.5 4t-34 1l20 50q34 0 60 -2t54.5 -10t44.5 -26.5t16 -46.5q0 -36 -35.5 -66.5t-107.5 -30.5q-50 0 -89 8z" />
    <glyph glyph-name="ubreve.sc" unicode="&#xf69f;" horiz-adv-x="433" 
d="M388 186q-13 -96 -64 -144t-132 -48q-82 0 -127.5 50.5t-34.5 131.5l42 307h78l-43 -315q-6 -49 19.5 -75t68.5 -26q49 0 80 33q24 24 36 108l37 275h80zM126 678h62q1 -11 3 -17.5t8.5 -20t22 -21t37.5 -7.5q23 0 43 11t30.5 22.5t25.5 32.5h63q-4 -12 -15 -31
t-31.5 -46t-53 -45.5t-69.5 -18.5t-63 13.5t-39 37t-18 45t-6 45.5z" />
    <glyph glyph-name="uhungarumlaut.sc" unicode="&#xf6a0;" horiz-adv-x="433" 
d="M388 186q-13 -96 -64 -144t-132 -48q-82 0 -127.5 50.5t-34.5 131.5l42 307h78l-43 -315q-6 -49 19.5 -75t68.5 -26q49 0 80 33q24 24 36 108l37 275h80zM311 688l-122 -151h-49l49 151h122zM473 688l-123 -151h-49l49 151h123z" />
    <glyph glyph-name="umacron.sc" unicode="&#xf6a1;" horiz-adv-x="433" 
d="M388 186q-13 -96 -64 -144t-132 -48q-82 0 -127.5 50.5t-34.5 131.5l42 307h78l-43 -315q-6 -49 19.5 -75t68.5 -26q49 0 80 33q24 24 36 108l37 275h80zM407 607l-11 -70h-281l11 70h281z" />
    <glyph glyph-name="uogonek.sc" unicode="&#xf6a2;" horiz-adv-x="433" 
d="M284 -111l-10 -68q-32 -8 -62 -8q-46 0 -78 27t-32 66q0 40 34 95q-57 17 -86 63.5t-20 111.5l42 307h78l-43 -315q-6 -49 19.5 -75t68.5 -26q49 0 80 33q24 24 36 108l37 275h80l-40 -297q-13 -90 -59 -138t-120 -53q-22 -40 -22 -62q0 -21 17 -35.5t42 -14.5q14 0 38 6
z" />
    <glyph glyph-name="uring.sc" unicode="&#xf6a3;" horiz-adv-x="433" 
d="M388 186q-13 -96 -64 -144t-132 -48q-82 0 -127.5 50.5t-34.5 131.5l42 307h78l-43 -315q-6 -49 19.5 -75t68.5 -26q49 0 80 33q24 24 36 108l37 275h80zM361 625q0 -41 -28.5 -71t-71.5 -30q-42 0 -71 29t-29 71t29 71.5t71 29.5q43 0 71.5 -30t28.5 -70zM317 625
q0 22 -16 39t-41 17q-23 0 -39 -16.5t-16 -39.5t16 -39.5t40 -16.5q25 0 40.5 17t15.5 39z" />
    <glyph glyph-name="utilde.sc" unicode="&#xf6a4;" horiz-adv-x="433" 
d="M388 186q-13 -96 -64 -144t-132 -48q-82 0 -127.5 50.5t-34.5 131.5l42 307h78l-43 -315q-6 -49 19.5 -75t68.5 -26q49 0 80 33q24 24 36 108l37 275h80zM149 537h-53q-1 50 28 86t76 36q10 0 18 -1t17.5 -4.5t14.5 -6l18.5 -9.5l21.5 -11q34 -17 48 -17q29 0 37 49h53
q-1 -60 -31 -91t-71 -31q-38 0 -81 25q-39 23 -58 23q-33 0 -38 -48z" />
    <glyph glyph-name="wacute.sc" unicode="&#xf6a5;" horiz-adv-x="682" 
d="M468 -4h-35l-83 313l-146 -313h-37l-111 487h75l70 -313l145 313h36l84 -318l147 318h83zM532 688l-166 -151h-52l73 151h145z" />
    <glyph glyph-name="wcircumflex.sc" unicode="&#xf6a6;" horiz-adv-x="682" 
d="M468 -4h-35l-83 313l-146 -313h-37l-111 487h75l70 -313l145 313h36l84 -318l147 318h83zM533 537h-48l-81 84l-141 -84h-60l138 151h124z" />
    <glyph glyph-name="wdieresis.sc" unicode="&#xf6a7;" horiz-adv-x="682" 
d="M468 -4h-35l-83 313l-146 -313h-37l-111 487h75l70 -313l145 313h36l84 -318l147 318h83zM543 610q0 -21 -15 -37t-38 -16q-22 0 -37 15.5t-15 36.5q0 22 14.5 37.5t36.5 15.5q24 0 39 -16.5t15 -35.5zM336 611q0 -20 -14.5 -37t-38.5 -17q-21 0 -36.5 16t-15.5 37
t15 36.5t37 15.5q23 0 38 -15t15 -36z" />
    <glyph glyph-name="wgrave.sc" unicode="&#xf6a8;" horiz-adv-x="682" 
d="M468 -4h-35l-83 313l-146 -313h-37l-111 487h75l70 -313l145 313h36l84 -318l147 318h83zM381 686l74 -149h-51l-167 149h144z" />
    <glyph glyph-name="ycircumflex.sc" unicode="&#xf6a9;" horiz-adv-x="380" 
d="M232 237l-32 -237h-77l33 239l-110 244h82l72 -162l108 162h90zM393 537h-48l-81 84l-141 -84h-60l138 151h124z" />
    <glyph glyph-name="ygrave.sc" unicode="&#xf6aa;" horiz-adv-x="380" 
d="M232 237l-32 -237h-77l33 239l-110 244h82l72 -162l108 162h90zM219 686l74 -149h-51l-167 149h144z" />
    <glyph glyph-name="zacute.sc" unicode="&#xf6ab;" horiz-adv-x="461" 
d="M142 76h259l-10 -76h-406l327 407h-248l10 76h397zM451 688l-166 -151h-52l73 151h145z" />
    <glyph glyph-name="zdotaccent.sc" unicode="&#xf6ac;" horiz-adv-x="461" 
d="M142 76h259l-10 -76h-406l327 407h-248l10 76h397zM291 557q-22 0 -37.5 15.5t-15.5 37.5t15.5 37.5t37.5 15.5t37.5 -15.5t15.5 -37.5t-15.5 -37.5t-37.5 -15.5z" />
    <glyph glyph-name="idotaccent.sc" unicode="&#xf6ad;" horiz-adv-x="158" 
d="M86 0h-78l64 483h78zM121 557q-22 0 -37.5 15.5t-15.5 37.5t15.5 37.5t37.5 15.5t37.5 -15.5t15.5 -37.5t-15.5 -37.5t-37.5 -15.5z" />
    <glyph glyph-name="one.fitted" unicode="&#xf6dc;" horiz-adv-x="261" 
d="M245 691l-108 -691h-90l109 691h89z" />
    <glyph glyph-name="lslash.sc" unicode="&#xf6f9;" horiz-adv-x="309" 
d="M275 70l-9 -70h-258l26 193l-46 -31l7 61l47 32l31 228h77l-24 -171l124 85l-9 -62l-124 -85l-25 -180h183z" />
    <glyph glyph-name="oe.sc" unicode="&#xf6fa;" horiz-adv-x="672" 
d="M621 0h-307q-18 0 -32 -1q-30 -2 -47 -2q-59 0 -102 19t-66.5 52t-34 69.5t-10.5 77.5q0 35 13.5 77.5t41.5 87t81 74t122 29.5h346l-11 -73h-182l-17 -128h171l-10 -73h-171l-18 -136h243zM329 410h-58q-76 0 -121.5 -54t-45.5 -147q0 -68 31 -102t85 -34h90l46 337h-27
z" />
    <glyph glyph-name="scaron.sc" unicode="&#xf6fd;" horiz-adv-x="322" 
d="M282 383q-47 31 -86 31q-32 0 -51 -17t-19 -45t45 -66q2 -2 18.5 -16l20 -17t17 -16.5t17.5 -19.5t13 -18.5t12 -22.5t6 -23.5t3 -27.5q0 -51 -38 -91t-104 -40q-56 0 -117 38l12 88q70 -51 111 -51q20 0 39 13.5t19 37.5q0 33 -47 73l-28 24q-36 31 -56.5 62t-20.5 74
q0 60 46 98t107 38q44 0 92 -22zM405 688l-136 -151h-123l-70 151h50l82 -86l138 86h59z" />
    <glyph glyph-name="zcaron.sc" unicode="&#xf6ff;" horiz-adv-x="461" 
d="M142 76h259l-10 -76h-406l327 407h-248l10 76h397zM474 688l-136 -151h-123l-70 151h50l82 -86l138 86h59z" />
    <glyph glyph-name="ampersand.sc" unicode="&#xf726;" horiz-adv-x="462" 
d="M408 -1q-11 -5 -23 -5q-23 0 -50.5 13.5t-47.5 34.5q-66 -48 -138 -48q-66 0 -101.5 40t-35.5 99q0 42 28 80t74 62q-22 49 -22 94q0 50 32.5 85t81.5 35q40 0 68.5 -30.5t28.5 -73.5q0 -81 -93 -137q28 -48 79 -109q37 41 65 113h78q-40 -107 -92 -162q33 -29 68 -29
q8 0 32 9zM197 419q-13 0 -23.5 -14.5t-10.5 -37.5q0 -25 14 -57q51 30 51 72q0 17 -9 27t-22 10zM149 211q-58 -36 -58 -79q0 -31 20 -50.5t52 -19.5q31 0 74 29q-49 58 -88 120z" />
    <glyph glyph-name="zero.oldstyle" unicode="&#xf730;" horiz-adv-x="510" 
d="M475 261q0 -116 -70 -193t-180 -77q-92 0 -146.5 56t-54.5 144q0 63 27 123.5t87.5 104.5t141.5 44q93 0 144 -57.5t51 -144.5zM381 272q0 48 -29.5 78.5t-77.5 30.5q-59 0 -107 -49.5t-48 -136.5q0 -56 31 -89.5t82 -33.5q69 0 109 55.5t40 144.5z" />
    <glyph glyph-name="one.oldstyle" unicode="&#xf731;" horiz-adv-x="362" 
d="M127 0l51 326l-143 -82l16 95l198 124h37l-71 -463h-88z" />
    <glyph glyph-name="two.oldstyle" unicode="&#xf732;" horiz-adv-x="484" 
d="M73 331l17 93q72 39 153 39q35 0 66 -10t55.5 -39.5t24.5 -75.5q0 -37 -15 -74.5t-44 -73t-50.5 -57t-55.5 -51.5h178l-11 -82h-365l125 113q76 69 113 125q29 43 29 79t-27.5 50.5t-60.5 14.5q-73 0 -132 -51z" />
    <glyph glyph-name="three.oldstyle" unicode="&#xf733;" horiz-adv-x="448" 
d="M285 371h-236l12 83h378l-218 -319q53 -8 87.5 -39t45.5 -62.5t11 -62.5q0 -32 -12.5 -65.5t-38.5 -65t-73.5 -51.5t-108.5 -20q-78 0 -169 39l13 83q94 -40 159 -40q64 0 101 35.5t37 81.5q0 51 -42 81.5t-103 30.5q-13 0 -37 -3z" />
    <glyph glyph-name="four.oldstyle" unicode="&#xf734;" horiz-adv-x="500" 
d="M365 73h111l-12 -73h-111l-40 -231h-80l39 231h-284v33l404 430h36zM116 73h169l43 232z" />
    <glyph glyph-name="five.oldstyle" unicode="&#xf735;" horiz-adv-x="468" 
d="M434 454l-14 -83h-173l-61 -207q91 -7 142 -56t51 -122q0 -96 -69 -157t-178 -61q-83 0 -167 46l29 74q75 -40 144 -40q73 0 111.5 36.5t38.5 81.5q0 55 -45 91q-39 29 -112 29q-17 0 -51 -2l110 370h244z" />
    <glyph glyph-name="six.oldstyle" unicode="&#xf736;" horiz-adv-x="475" 
d="M359 644l-174 -253q39 26 94 26q75 0 118 -48.5t43 -114.5q0 -62 -26.5 -121t-81.5 -100.5t-124 -41.5q-90 0 -137 59t-47 139q0 67 32.5 138t124.5 206l102 149zM348 237q0 49 -25.5 74.5t-67.5 25.5q-58 0 -98.5 -43.5t-40.5 -107.5q0 -48 26 -78.5t70 -30.5
q57 0 96.5 48.5t39.5 111.5z" />
    <glyph glyph-name="seven.oldstyle" unicode="&#xf737;" horiz-adv-x="465" 
d="M67 371l13 83h391l-319 -686l-87 37l276 566h-274z" />
    <glyph glyph-name="eight.oldstyle" unicode="&#xf738;" horiz-adv-x="521" 
d="M361 362q102 -41 102 -148q0 -87 -63 -155t-172 -68q-90 0 -141 55t-51 129q0 41 14.5 74.5t32.5 52t44 33t39 18.5t28 8q-41 24 -65 54.5t-24 83.5q0 77 57.5 134.5t147.5 57.5q81 0 129.5 -50t48.5 -118q0 -48 -29 -93.5t-98 -67.5zM401 515q0 39 -26 66t-69 27
q-49 0 -81.5 -35t-32.5 -80q0 -42 27 -67.5t69 -25.5q55 0 84 38t29 77zM373 211q0 52 -31.5 79t-77.5 27q-61 0 -99.5 -42t-38.5 -98q0 -52 35 -78t76 -26q54 0 95 39.5t41 98.5z" />
    <glyph glyph-name="nine.oldstyle" unicode="&#xf739;" horiz-adv-x="476" 
d="M105 -182l179 246q-47 -29 -99 -29q-81 0 -121 52t-40 111q0 101 69 183t170 82q47 0 83 -17.5t55.5 -47t29 -62.5t9.5 -68q0 -68 -30 -139.5t-105 -177.5l-130 -182zM348 265q0 57 -26.5 83.5t-67.5 26.5q-57 0 -97.5 -51t-40.5 -113q0 -52 27 -74.5t63 -22.5
q58 0 100 45t42 106z" />
    <glyph glyph-name="a.sc" unicode="&#xf761;" horiz-adv-x="415" 
d="M290 0l-27 146h-127l-60 -146h-79l206 485h70l91 -485h-74zM224 365l-61 -152h88z" />
    <glyph glyph-name="b.sc" unicode="&#xf762;" horiz-adv-x="352" 
d="M157 0h-149l65 483h73q76 0 113.5 -36t37.5 -91q0 -58 -50 -91q81 -38 81 -126q0 -63 -48.5 -101t-122.5 -38zM140 412l-15 -115h22q34 0 53 16.5t19 43.5q0 59 -79 55zM151 227h-36l-21 -157h57q99 0 99 72q0 36 -29 60.5t-70 24.5z" />
    <glyph glyph-name="c.sc" unicode="&#xf763;" horiz-adv-x="388" 
d="M376 412h-40q-52 0 -93.5 -14t-67 -36t-42.5 -51t-23.5 -56.5t-6.5 -54.5q0 -60 30 -95t80 -35q67 0 145 64l-14 -102q-66 -38 -140 -38q-81 0 -131.5 56.5t-50.5 145.5q0 128 86 210.5t230 82.5h54z" />
    <glyph glyph-name="d.sc" unicode="&#xf764;" horiz-adv-x="430" 
d="M165 0h-157l66 483h61q122 0 197.5 -61.5t75.5 -180.5q0 -103 -60 -172t-183 -69zM155 409h-12l-46 -336h44q60 0 89.5 9.5t52.5 32.5q44 42 44 128q0 83 -54.5 124.5t-117.5 41.5z" />
    <glyph glyph-name="e.sc" unicode="&#xf765;" horiz-adv-x="372" 
d="M321 0h-313l68 483h255l-10 -73h-179l-18 -128h159l-10 -73h-159l-19 -136h236z" />
    <glyph glyph-name="f.sc" unicode="&#xf766;" horiz-adv-x="289" 
d="M295 410h-156l-17 -128h143l-11 -73h-143l-28 -209h-78l68 483h231z" />
    <glyph glyph-name="g.sc" unicode="&#xf767;" horiz-adv-x="436" 
d="M419 408q-58 7 -88 7q-59 0 -105 -20t-71.5 -51.5t-38 -66t-12.5 -68.5q0 -64 33.5 -103t87.5 -39q37 0 79 20l8 66h-64l9 67h142l-25 -182q-83 -44 -153 -44q-95 0 -147 63t-52 150q0 45 16.5 91.5t51 90.5t99.5 72t151 28q24 0 88 -8z" />
    <glyph glyph-name="h.sc" unicode="&#xf768;" horiz-adv-x="468" 
d="M394 0h-80l28 206h-226l-28 -206h-80l66 483h79l-27 -201h226l28 201h80z" />
    <glyph glyph-name="i.sc" unicode="&#xf769;" horiz-adv-x="158" 
d="M86 0h-78l64 483h78z" />
    <glyph glyph-name="j.sc" unicode="&#xf76a;" horiz-adv-x="169" 
d="M92 -28q-18 -131 -124 -131q-18 0 -50 6l-18 77q40 -9 55 -9q28 0 42.5 14.5t18.5 49.5l68 504h77z" />
    <glyph glyph-name="k.sc" unicode="&#xf76b;" horiz-adv-x="398" 
d="M179 258l208 -258h-94l-175 230l-31 -230h-79l66 483h79l-28 -185l177 185h93z" />
    <glyph glyph-name="l.sc" unicode="&#xf76c;" horiz-adv-x="309" 
d="M266 0h-258l65 483h77l-58 -413h183z" />
    <glyph glyph-name="m.sc" unicode="&#xf76d;" horiz-adv-x="556" 
d="M425 0v327l-173 -327l-81 332l-104 -332h-78l155 483h65l70 -281l150 281h74v-483h-78z" />
    <glyph glyph-name="n.sc" unicode="&#xf76e;" horiz-adv-x="459" 
d="M385 0h-45l-214 324l-44 -324h-74l66 483h43l215 -327l44 327h75z" />
    <glyph glyph-name="o.sc" unicode="&#xf76f;" horiz-adv-x="439" 
d="M191 -6q-75 0 -122 58t-47 147q0 48 14.5 97.5t41.5 93.5t72 71.5t99 27.5q76 0 122 -57t46 -147q0 -125 -66.5 -208t-159.5 -83zM249 415q-68 0 -108 -70.5t-40 -154.5q0 -58 25 -89t67 -31q58 0 102 65.5t44 160.5q0 58 -24.5 88.5t-65.5 30.5z" />
    <glyph glyph-name="p.sc" unicode="&#xf770;" horiz-adv-x="324" 
d="M160 196h-46l-27 -196h-79l65 483h85q64 0 109 -32.5t45 -108.5q0 -52 -37.5 -99t-114.5 -47zM161 410h-18l-19 -141h33q39 0 58 22.5t19 52.5q0 28 -17.5 47t-55.5 19z" />
    <glyph glyph-name="q.sc" unicode="&#xf771;" horiz-adv-x="439" 
d="M310 -135q-50 0 -92 33t-64 102q-63 15 -97.5 70.5t-34.5 136.5q0 61 24 124t78 110.5t124 47.5q79 0 124.5 -55t45.5 -150q0 -105 -48.5 -182t-130.5 -101q11 -30 34 -46t50 -16q22 0 44.5 16t34.5 51h26q-3 -59 -31.5 -100t-86.5 -41zM250 415q-49 0 -85 -40.5
t-50 -89.5t-14 -94q0 -120 96 -120q57 0 99.5 63.5t42.5 157.5q0 61 -23.5 92t-65.5 31z" />
    <glyph glyph-name="r.sc" unicode="&#xf772;" horiz-adv-x="365" 
d="M270 0l-53 116q-27 58 -43 73.5t-43 15.5h-16l-27 -205h-80l65 483h89q83 0 122 -36q40 -37 40 -99q0 -41 -22.5 -72.5t-61.5 -45.5q17 -18 28 -44l86 -186h-84zM170 410h-27l-17 -132h21q52 0 73.5 21.5t21.5 51.5q0 59 -72 59z" />
    <glyph glyph-name="s.sc" unicode="&#xf773;" horiz-adv-x="322" 
d="M282 383q-47 31 -86 31q-32 0 -51 -17t-19 -45t45 -66q2 -2 18.5 -16l20 -17t17 -16.5t17.5 -19.5t13 -18.5t12 -22.5t6 -23.5t3 -27.5q0 -51 -38 -91t-104 -40q-56 0 -117 38l12 88q70 -51 111 -51q20 0 39 13.5t19 37.5q0 33 -47 73l-28 24q-36 31 -56.5 62t-20.5 74
q0 60 46 98t107 38q44 0 92 -22z" />
    <glyph glyph-name="t.sc" unicode="&#xf774;" horiz-adv-x="365" 
d="M373 407h-126l-56 -407h-79l55 407h-126l10 76h332z" />
    <glyph glyph-name="u.sc" unicode="&#xf775;" horiz-adv-x="433" 
d="M388 186q-13 -96 -64 -144t-132 -48q-82 0 -127.5 50.5t-34.5 131.5l42 307h78l-43 -315q-6 -49 19.5 -75t68.5 -26q49 0 80 33q24 24 36 108l37 275h80z" />
    <glyph glyph-name="v.sc" unicode="&#xf776;" horiz-adv-x="397" 
d="M183 -4h-36l-91 487h76l55 -307l142 307h82z" />
    <glyph glyph-name="w.sc" unicode="&#xf777;" horiz-adv-x="682" 
d="M468 -4h-35l-83 313l-146 -313h-37l-111 487h75l70 -313l145 313h36l84 -318l147 318h83z" />
    <glyph glyph-name="x.sc" unicode="&#xf778;" horiz-adv-x="518" 
d="M312 247l152 -247h-92l-113 185l-157 -185h-105l219 256l-139 227h89l104 -165l141 165h103z" />
    <glyph glyph-name="y.sc" unicode="&#xf779;" horiz-adv-x="380" 
d="M232 237l-32 -237h-77l33 239l-110 244h82l72 -162l108 162h90z" />
    <glyph glyph-name="z.sc" unicode="&#xf77a;" horiz-adv-x="461" 
d="M142 76h259l-10 -76h-406l327 407h-248l10 76h397z" />
    <glyph glyph-name="agrave.sc" unicode="&#xf7e0;" horiz-adv-x="415" 
d="M290 0l-27 146h-127l-60 -146h-79l206 485h70l91 -485h-74zM224 365l-61 -152h88zM257 686l74 -149h-51l-167 149h144z" />
    <glyph glyph-name="aacute.sc" unicode="&#xf7e1;" horiz-adv-x="415" 
d="M290 0l-27 146h-127l-60 -146h-79l206 485h70l91 -485h-74zM224 365l-61 -152h88zM403 688l-166 -151h-52l73 151h145z" />
    <glyph glyph-name="acircumflex.sc" unicode="&#xf7e2;" horiz-adv-x="415" 
d="M290 0l-27 146h-127l-60 -146h-79l206 485h70l91 -485h-74zM224 365l-61 -152h88zM404 537h-48l-81 84l-141 -84h-60l138 151h124z" />
    <glyph glyph-name="atilde.sc" unicode="&#xf7e3;" horiz-adv-x="415" 
d="M290 0l-27 146h-127l-60 -146h-79l206 485h70l91 -485h-74zM224 365l-61 -152h88zM135 537h-53q-1 50 28 86t76 36q10 0 18 -1t17.5 -4.5t14.5 -6l18.5 -9.5l21.5 -11q34 -17 48 -17q29 0 37 49h53q-1 -60 -31 -91t-71 -31q-38 0 -81 25q-39 23 -58 23q-33 0 -38 -48z
" />
    <glyph glyph-name="adieresis.sc" unicode="&#xf7e4;" horiz-adv-x="415" 
d="M290 0l-27 146h-127l-60 -146h-79l206 485h70l91 -485h-74zM224 365l-61 -152h88zM404 610q0 -21 -15 -37t-38 -16q-22 0 -37 15.5t-15 36.5q0 22 14.5 37.5t36.5 15.5q24 0 39 -16.5t15 -35.5zM197 611q0 -20 -14.5 -37t-38.5 -17q-21 0 -36.5 16t-15.5 37t15 36.5
t37 15.5q23 0 38 -15t15 -36z" />
    <glyph glyph-name="aring.sc" unicode="&#xf7e5;" horiz-adv-x="415" 
d="M290 0l-27 146h-127l-60 -146h-79l206 485h70l91 -485h-74zM224 365l-61 -152h88zM352 625q0 -41 -28.5 -71t-71.5 -30q-42 0 -71 29t-29 71t29 71.5t71 29.5q43 0 71.5 -30t28.5 -70zM308 625q0 22 -16 39t-41 17q-23 0 -39 -16.5t-16 -39.5t16 -39.5t40 -16.5t40 17
t16 39z" />
    <glyph glyph-name="ae.sc" unicode="&#xf7e6;" horiz-adv-x="615" 
d="M565 0h-314l28 211h-85l-113 -211h-84l267 483h303l-10 -73h-173l-17 -126h162l-9 -73h-163l-19 -138h236zM302 414l-72 -137h58l19 137h-5z" />
    <glyph glyph-name="ccedilla.sc" unicode="&#xf7e7;" horiz-adv-x="388" 
d="M222 -5l-4 -12q46 -21 46 -68q0 -37 -30.5 -61.5t-75.5 -24.5q-33 0 -68 7l12 46q28 -7 42 -7q22 0 34.5 10.5t12.5 27.5q0 21 -27 35l22 47q-73 7 -118.5 62.5t-45.5 138.5q0 128 86 210.5t230 82.5h54l-16 -77h-40q-52 0 -93.5 -14t-67 -36t-42.5 -51t-23.5 -56.5
t-6.5 -54.5q0 -60 30 -95t80 -35q67 0 145 64l-14 -102q-27 -17 -63.5 -27t-58.5 -10z" />
    <glyph glyph-name="egrave.sc" unicode="&#xf7e8;" horiz-adv-x="372" 
d="M321 0h-313l68 483h255l-10 -73h-179l-18 -128h159l-10 -73h-159l-19 -136h236zM230 686l74 -149h-51l-167 149h144z" />
    <glyph glyph-name="eacute.sc" unicode="&#xf7e9;" horiz-adv-x="372" 
d="M321 0h-313l68 483h255l-10 -73h-179l-18 -128h159l-10 -73h-159l-19 -136h236zM386 688l-166 -151h-52l73 151h145z" />
    <glyph glyph-name="ecircumflex.sc" unicode="&#xf7ea;" horiz-adv-x="372" 
d="M321 0h-313l68 483h255l-10 -73h-179l-18 -128h159l-10 -73h-159l-19 -136h236zM393 537h-48l-81 84l-141 -84h-60l138 151h124z" />
    <glyph glyph-name="edieresis.sc" unicode="&#xf7eb;" horiz-adv-x="372" 
d="M321 0h-313l68 483h255l-10 -73h-179l-18 -128h159l-10 -73h-159l-19 -136h236zM393 610q0 -21 -15 -37t-38 -16q-22 0 -37 15.5t-15 36.5q0 22 14.5 37.5t36.5 15.5q24 0 39 -16.5t15 -35.5zM186 611q0 -20 -14.5 -37t-38.5 -17q-21 0 -36.5 16t-15.5 37t15 36.5
t37 15.5q23 0 38 -15t15 -36z" />
    <glyph glyph-name="igrave.sc" unicode="&#xf7ec;" horiz-adv-x="158" 
d="M86 0h-78l64 483h78zM143 686l74 -149h-51l-167 149h144z" />
    <glyph glyph-name="iacute.sc" unicode="&#xf7ed;" horiz-adv-x="158" 
d="M86 0h-78l64 483h78zM289 688l-166 -151h-52l73 151h145z" />
    <glyph glyph-name="icircumflex.sc" unicode="&#xf7ee;" horiz-adv-x="158" 
d="M86 0h-78l64 483h78zM285 537h-48l-81 84l-141 -84h-60l138 151h124z" />
    <glyph glyph-name="idieresis.sc" unicode="&#xf7ef;" horiz-adv-x="158" 
d="M86 0h-78l64 483h78zM285 610q0 -21 -15 -37t-38 -16q-22 0 -37 15.5t-15 36.5q0 22 14.5 37.5t36.5 15.5q24 0 39 -16.5t15 -35.5zM78 611q0 -20 -14.5 -37t-38.5 -17q-21 0 -36.5 16t-15.5 37t15 36.5t37 15.5q23 0 38 -15t15 -36z" />
    <glyph glyph-name="eth.sc" unicode="&#xf7f0;" horiz-adv-x="430" 
d="M116 209l-19 -136h62q168 0 168 170q0 72 -49 119t-121 47h-14l-18 -133h116l-11 -67h-114zM46 276l28 207h61q121 0 197 -61.5t76 -180.5q0 -116 -65.5 -178.5t-177.5 -62.5h-157l29 209h-37l10 67h36z" />
    <glyph glyph-name="ntilde.sc" unicode="&#xf7f1;" horiz-adv-x="459" 
d="M385 0h-45l-214 324l-44 -324h-74l66 483h43l215 -327l44 327h75zM167 537h-53q-1 50 28 86t76 36q10 0 18 -1t17.5 -4.5t14.5 -6l18.5 -9.5l21.5 -11q34 -17 48 -17q29 0 37 49h53q-1 -60 -31 -91t-71 -31q-38 0 -81 25q-39 23 -58 23q-33 0 -38 -48z" />
    <glyph glyph-name="ograve.sc" unicode="&#xf7f2;" horiz-adv-x="439" 
d="M191 -6q-75 0 -122 58t-47 147q0 48 14.5 97.5t41.5 93.5t72 71.5t99 27.5q76 0 122 -57t46 -147q0 -125 -66.5 -208t-159.5 -83zM249 415q-68 0 -108 -70.5t-40 -154.5q0 -58 25 -89t67 -31q58 0 102 65.5t44 160.5q0 58 -24.5 88.5t-65.5 30.5zM294 686l74 -149h-51
l-167 149h144z" />
    <glyph glyph-name="oacute.sc" unicode="&#xf7f3;" horiz-adv-x="439" 
d="M191 -6q-75 0 -122 58t-47 147q0 48 14.5 97.5t41.5 93.5t72 71.5t99 27.5q76 0 122 -57t46 -147q0 -125 -66.5 -208t-159.5 -83zM249 415q-68 0 -108 -70.5t-40 -154.5q0 -58 25 -89t67 -31q58 0 102 65.5t44 160.5q0 58 -24.5 88.5t-65.5 30.5zM440 688l-166 -151h-52
l73 151h145z" />
    <glyph glyph-name="ocircumflex.sc" unicode="&#xf7f4;" horiz-adv-x="439" 
d="M191 -6q-75 0 -122 58t-47 147q0 48 14.5 97.5t41.5 93.5t72 71.5t99 27.5q76 0 122 -57t46 -147q0 -125 -66.5 -208t-159.5 -83zM249 415q-68 0 -108 -70.5t-40 -154.5q0 -58 25 -89t67 -31q58 0 102 65.5t44 160.5q0 58 -24.5 88.5t-65.5 30.5zM426 537h-48l-81 84
l-141 -84h-60l138 151h124z" />
    <glyph glyph-name="otilde.sc" unicode="&#xf7f5;" horiz-adv-x="439" 
d="M191 -6q-75 0 -122 58t-47 147q0 48 14.5 97.5t41.5 93.5t72 71.5t99 27.5q76 0 122 -57t46 -147q0 -125 -66.5 -208t-159.5 -83zM249 415q-68 0 -108 -70.5t-40 -154.5q0 -58 25 -89t67 -31q58 0 102 65.5t44 160.5q0 58 -24.5 88.5t-65.5 30.5zM169 537h-53
q-1 50 28 86t76 36q10 0 18 -1t17.5 -4.5t14.5 -6l18.5 -9.5l21.5 -11q34 -17 48 -17q29 0 37 49h53q-1 -60 -31 -91t-71 -31q-38 0 -81 25q-39 23 -58 23q-33 0 -38 -48z" />
    <glyph glyph-name="odieresis.sc" unicode="&#xf7f6;" horiz-adv-x="439" 
d="M191 -6q-75 0 -122 58t-47 147q0 48 14.5 97.5t41.5 93.5t72 71.5t99 27.5q76 0 122 -57t46 -147q0 -125 -66.5 -208t-159.5 -83zM249 415q-68 0 -108 -70.5t-40 -154.5q0 -58 25 -89t67 -31q58 0 102 65.5t44 160.5q0 58 -24.5 88.5t-65.5 30.5zM436 610q0 -21 -15 -37
t-38 -16q-22 0 -37 15.5t-15 36.5q0 22 14.5 37.5t36.5 15.5q24 0 39 -16.5t15 -35.5zM229 611q0 -20 -14.5 -37t-38.5 -17q-21 0 -36.5 16t-15.5 37t15 36.5t37 15.5q23 0 38 -15t15 -36z" />
    <glyph glyph-name="oslash.sc" unicode="&#xf7f8;" horiz-adv-x="439" 
d="M431 456l-43 -50q29 -53 29 -121q0 -125 -66.5 -208t-159.5 -83q-67 0 -113 48l-44 -51l-28 34l45 53q-29 50 -29 121q0 48 14.5 97.5t41.5 93.5t72 71.5t99 27.5q68 0 113 -47l38 45zM313 386q-23 29 -64 29q-68 0 -108 -70.5t-40 -154.5q0 -30 5 -47zM339 296
q0 23 -5 46l-207 -242q24 -30 66 -30q58 0 102 65.5t44 160.5z" />
    <glyph glyph-name="ugrave.sc" unicode="&#xf7f9;" horiz-adv-x="433" 
d="M388 186q-13 -96 -64 -144t-132 -48q-82 0 -127.5 50.5t-34.5 131.5l42 307h78l-43 -315q-6 -49 19.5 -75t68.5 -26q49 0 80 33q24 24 36 108l37 275h80zM266 686l74 -149h-51l-167 149h144z" />
    <glyph glyph-name="uacute.sc" unicode="&#xf7fa;" horiz-adv-x="433" 
d="M388 186q-13 -96 -64 -144t-132 -48q-82 0 -127.5 50.5t-34.5 131.5l42 307h78l-43 -315q-6 -49 19.5 -75t68.5 -26q49 0 80 33q24 24 36 108l37 275h80zM452 688l-166 -151h-52l73 151h145z" />
    <glyph glyph-name="ucircumflex.sc" unicode="&#xf7fb;" horiz-adv-x="433" 
d="M388 186q-13 -96 -64 -144t-132 -48q-82 0 -127.5 50.5t-34.5 131.5l42 307h78l-43 -315q-6 -49 19.5 -75t68.5 -26q49 0 80 33q24 24 36 108l37 275h80zM428 537h-48l-81 84l-141 -84h-60l138 151h124z" />
    <glyph glyph-name="udieresis.sc" unicode="&#xf7fc;" horiz-adv-x="433" 
d="M388 186q-13 -96 -64 -144t-132 -48q-82 0 -127.5 50.5t-34.5 131.5l42 307h78l-43 -315q-6 -49 19.5 -75t68.5 -26q49 0 80 33q24 24 36 108l37 275h80zM418 610q0 -21 -15 -37t-38 -16q-22 0 -37 15.5t-15 36.5q0 22 14.5 37.5t36.5 15.5q24 0 39 -16.5t15 -35.5z
M211 611q0 -20 -14.5 -37t-38.5 -17q-21 0 -36.5 16t-15.5 37t15 36.5t37 15.5q23 0 38 -15t15 -36z" />
    <glyph glyph-name="yacute.sc" unicode="&#xf7fd;" horiz-adv-x="380" 
d="M232 237l-32 -237h-77l33 239l-110 244h82l72 -162l108 162h90zM411 688l-166 -151h-52l73 151h145z" />
    <glyph glyph-name="thorn.sc" unicode="&#xf7fe;" horiz-adv-x="324" 
d="M300 244q0 -52 -37.5 -98.5t-114.5 -47.5l-46 -1l-15 -97h-79l65 483h80l-12 -98q69 0 114 -32t45 -109zM222 246q0 28 -17.5 47t-55.5 19h-18l-19 -141h33q39 0 58 22.5t19 52.5z" />
    <glyph glyph-name="ydieresis.sc" unicode="&#xf7ff;" horiz-adv-x="380" 
d="M232 237l-32 -237h-77l33 239l-110 244h82l72 -162l108 162h90zM392 610q0 -21 -15 -37t-38 -16q-22 0 -37 15.5t-15 36.5q0 22 14.5 37.5t36.5 15.5q24 0 39 -16.5t15 -35.5zM185 611q0 -20 -14.5 -37t-38.5 -17q-21 0 -36.5 16t-15.5 37t15 36.5t37 15.5q23 0 38 -15
t15 -36z" />
    </font>
</defs>
</svg>
