<?xml version="1.0" encoding="utf-8"?>
<!-- Generator: Adobe Illustrator 15.0.0, SVG Export Plug-In . SVG Version: 6.00 Build 0)  -->
<!DOCTYPE svg PUBLIC "-//W3C//DTD SVG 1.1//EN" "http://www.w3.org/Graphics/SVG/1.1/DTD/svg11.dtd">
<svg version="1.1" id="Layer_1" xmlns="http://www.w3.org/2000/svg" xmlns:xlink="http://www.w3.org/1999/xlink" x="0px" y="0px"
	 width="37.254px" height="36px" viewBox="0 0 37.254 36" enable-background="new 0 0 37.254 36" xml:space="preserve">
<path fill="#FBAB34" d="M31.413,33c0,0.139,0.012,0.246,0.037,0.326c-0.052,0.809-0.337,1.458-0.846,1.944
	C30.092,35.754,29.561,36,29.004,36c-0.55,0-0.989-0.081-1.312-0.246c-0.322-0.161-0.498-0.256-0.527-0.282l-8.569-6.479
	l-8.488,6.479C9.565,35.824,9.026,36,8.488,36c-0.542,0-1.065-0.165-1.574-0.487c-0.513-0.406-0.843-0.897-0.993-1.479
	c-0.149-0.579-0.113-1.113,0.1-1.597l3.479-10.085L1.292,17.25c-0.432-0.242-0.758-0.601-0.97-1.073C0.106,15.705,0,15.36,0,15.144
	c0-0.216,0.025-0.513,0.081-0.89c0.242-0.648,0.564-1.121,0.966-1.417c0.542-0.352,1.081-0.527,1.619-0.527h10.188l3.237-10.446
	c0.106-0.459,0.402-0.884,0.887-1.276C17.464,0.196,18.003,0,18.596,0h0.04c0.568,0,1.092,0.176,1.579,0.527
	c0.483,0.352,0.791,0.797,0.931,1.336l3.229,10.446h10.188c0.571,0,1.105,0.176,1.618,0.527c0.271,0.216,0.608,0.688,1.011,1.417
	c0.231,1.335-0.176,2.335-1.212,2.996l-8.246,5.101l3.395,9.76l0.241,0.567C31.398,32.759,31.413,32.869,31.413,33z"/>
</svg>
