<?xml version="1.0" encoding="utf-8"?>
<!-- Generator: Adobe Illustrator 15.0.0, SVG Export Plug-In . SVG Version: 6.00 Build 0)  -->
<!DOCTYPE svg PUBLIC "-//W3C//DTD SVG 1.1//EN" "http://www.w3.org/Graphics/SVG/1.1/DTD/svg11.dtd">
<svg version="1.1" id="Layer_1" xmlns="http://www.w3.org/2000/svg" xmlns:xlink="http://www.w3.org/1999/xlink" x="0px" y="0px"
	 width="50.361px" height="36px" viewBox="0 0 50.361 36" enable-background="new 0 0 50.361 36" xml:space="preserve">
<path fill="#CCD6DD" d="M23.614,35.9c-0.328,0.063-0.71,0.1-1.141,0.1c-0.428,0-0.958-0.234-1.582-0.697L1.339,20.592
	c-0.396-0.197-0.71-0.58-0.943-1.142C0.131,18.984,0,18.498,0,17.982c0-1.042,0.444-1.912,1.339-2.608L20.89,0.664
	c0.524-0.365,1.114-0.58,1.762-0.646c0.643-0.067,1.195,0.05,1.659,0.349c0.528,0.231,0.966,0.62,1.314,1.167
	c0.348,0.548,0.521,1.119,0.521,1.714v9.841h6.5c4.961,0,9.149,1.755,12.576,5.267c3.424,3.512,5.137,7.755,5.137,12.726
	c0,1.357-0.468,2.518-1.402,3.479C48.023,35.52,46.896,36,45.575,36c-1.322,0-2.445-0.504-3.362-1.52
	c-0.917-1.008-1.376-2.142-1.376-3.398c0-2.292-0.796-4.225-2.381-5.816c-1.592-1.59-3.523-2.386-5.808-2.386h-6.5v9.839
	c0,1.26-0.61,2.237-1.837,2.93L23.614,35.9z"/>
</svg>
