<?xml version="1.0" encoding="utf-8"?>
<!-- Generator: Adobe Illustrator 15.0.0, SVG Export Plug-In . SVG Version: 6.00 Build 0)  -->
<!DOCTYPE svg PUBLIC "-//W3C//DTD SVG 1.1//EN" "http://www.w3.org/Graphics/SVG/1.1/DTD/svg11.dtd">
<svg version="1.1" id="Layer_1" xmlns="http://www.w3.org/2000/svg" xmlns:xlink="http://www.w3.org/1999/xlink" x="0px" y="0px"
	 width="59.955px" height="35.835px" viewBox="0 0 59.955 35.835" enable-background="new 0 0 59.955 35.835" xml:space="preserve">
<path fill="#5C913B" d="M16.5,27.012h13.448c1.251,0,2.313,0.438,3.188,1.315c0.875,0.881,1.313,1.939,1.313,3.178
	c0,1.24-0.438,2.299-1.316,3.176C32.256,35.562,31.192,36,29.938,36H11.942c-1.221,0-2.271-0.438-3.146-1.318
	c-0.877-0.877-1.315-1.928-1.315-3.154V18.024H2.969c-0.503,0-1.018-0.158-1.552-0.471C0.4,16.955-0.07,16.014,0.008,14.729
	c0.033-0.502,0.22-1.019,0.564-1.553L9.604,1.128C10.172,0.377,10.965,0,11.989,0c1.024,0,1.817,0.377,2.384,1.128l8.793,11.765
	c0.563,0.785,0.847,1.539,0.847,2.26c0,0.721-0.298,1.379-0.892,1.977c-0.596,0.596-1.301,0.895-2.113,0.895H16.5V27.012z
	 M38.938,18.024h4.512V8.988H29.998c-1.251,0-2.313-0.44-3.188-1.319c-0.874-0.877-1.313-1.937-1.313-3.175
	c0-1.24,0.438-2.298,1.317-3.177C27.691,0.438,28.755,0,30.008,0h17.951c1.252,0,2.315,0.438,3.192,1.317
	c0.875,0.879,1.314,1.945,1.314,3.2v13.506h4.512c1.269,0,2.162,0.549,2.676,1.646c0.253,0.531,0.347,1.09,0.281,1.668
	c-0.059,0.582-0.246,1.076-0.563,1.48l-9.029,12.001C49.619,35.609,48.908,36,48.215,36c-0.688,0-1.209-0.109-1.557-0.332
	c-0.375-0.152-0.732-0.438-1.082-0.847L36.545,22.82c-0.313-0.404-0.502-0.896-0.562-1.48c-0.145-1.285,0.326-2.25,1.404-2.893
	C37.86,18.164,38.375,18.024,38.938,18.024z"/>
</svg>
