<?xml version="1.0" encoding="utf-8" standalone="no"?>
<!DOCTYPE svg PUBLIC "-//W3C//DTD SVG 1.1//EN"
  "http://www.w3.org/Graphics/SVG/1.1/DTD/svg11.dtd">
<!-- Created with matplotlib (https://matplotlib.org/) -->
<svg height="288pt" version="1.1" viewBox="0 0 576 288" width="576pt" xmlns="http://www.w3.org/2000/svg" xmlns:xlink="http://www.w3.org/1999/xlink">
 <defs>
  <style type="text/css">
*{stroke-linecap:butt;stroke-linejoin:round;}
  </style>
 </defs>
 <g id="figure_1">
  <g id="patch_1">
   <path d="M 0 288 
L 576 288 
L 576 0 
L 0 0 
z
" style="fill:#ffffff;"/>
  </g>
  <g id="axes_1">
   <g id="patch_2">
    <path d="M 72 252 
L 518.4 252 
L 518.4 34.56 
L 72 34.56 
z
" style="fill:#ffffff;"/>
   </g>
   <g id="matplotlib.axis_1">
    <g id="xtick_1">
     <g id="line2d_1">
      <defs>
       <path d="M 0 0 
L 0 3.5 
" id="maa069e986d" style="stroke:#000000;stroke-width:0.8;"/>
      </defs>
      <g>
       <use style="stroke:#000000;stroke-width:0.8;" x="92.290909" xlink:href="#maa069e986d" y="252"/>
      </g>
     </g>
     <g id="text_1">
      <!-- 0 -->
      <defs>
       <path d="M 31.78125 66.40625 
Q 24.171875 66.40625 20.328125 58.90625 
Q 16.5 51.421875 16.5 36.375 
Q 16.5 21.390625 20.328125 13.890625 
Q 24.171875 6.390625 31.78125 6.390625 
Q 39.453125 6.390625 43.28125 13.890625 
Q 47.125 21.390625 47.125 36.375 
Q 47.125 51.421875 43.28125 58.90625 
Q 39.453125 66.40625 31.78125 66.40625 
z
M 31.78125 74.21875 
Q 44.046875 74.21875 50.515625 64.515625 
Q 56.984375 54.828125 56.984375 36.375 
Q 56.984375 17.96875 50.515625 8.265625 
Q 44.046875 -1.421875 31.78125 -1.421875 
Q 19.53125 -1.421875 13.0625 8.265625 
Q 6.59375 17.96875 6.59375 36.375 
Q 6.59375 54.828125 13.0625 64.515625 
Q 19.53125 74.21875 31.78125 74.21875 
z
" id="DejaVuSans-48"/>
      </defs>
      <g transform="translate(89.109659 266.598437)scale(0.1 -0.1)">
       <use xlink:href="#DejaVuSans-48"/>
      </g>
     </g>
    </g>
    <g id="xtick_2">
     <g id="line2d_2">
      <g>
       <use style="stroke:#000000;stroke-width:0.8;" x="159.983683" xlink:href="#maa069e986d" y="252"/>
      </g>
     </g>
     <g id="text_2">
      <!-- 200 -->
      <defs>
       <path d="M 19.1875 8.296875 
L 53.609375 8.296875 
L 53.609375 0 
L 7.328125 0 
L 7.328125 8.296875 
Q 12.9375 14.109375 22.625 23.890625 
Q 32.328125 33.6875 34.8125 36.53125 
Q 39.546875 41.84375 41.421875 45.53125 
Q 43.3125 49.21875 43.3125 52.78125 
Q 43.3125 58.59375 39.234375 62.25 
Q 35.15625 65.921875 28.609375 65.921875 
Q 23.96875 65.921875 18.8125 64.3125 
Q 13.671875 62.703125 7.8125 59.421875 
L 7.8125 69.390625 
Q 13.765625 71.78125 18.9375 73 
Q 24.125 74.21875 28.421875 74.21875 
Q 39.75 74.21875 46.484375 68.546875 
Q 53.21875 62.890625 53.21875 53.421875 
Q 53.21875 48.921875 51.53125 44.890625 
Q 49.859375 40.875 45.40625 35.40625 
Q 44.1875 33.984375 37.640625 27.21875 
Q 31.109375 20.453125 19.1875 8.296875 
z
" id="DejaVuSans-50"/>
      </defs>
      <g transform="translate(150.439933 266.598437)scale(0.1 -0.1)">
       <use xlink:href="#DejaVuSans-50"/>
       <use x="63.623047" xlink:href="#DejaVuSans-48"/>
       <use x="127.246094" xlink:href="#DejaVuSans-48"/>
      </g>
     </g>
    </g>
    <g id="xtick_3">
     <g id="line2d_3">
      <g>
       <use style="stroke:#000000;stroke-width:0.8;" x="227.676458" xlink:href="#maa069e986d" y="252"/>
      </g>
     </g>
     <g id="text_3">
      <!-- 400 -->
      <defs>
       <path d="M 37.796875 64.3125 
L 12.890625 25.390625 
L 37.796875 25.390625 
z
M 35.203125 72.90625 
L 47.609375 72.90625 
L 47.609375 25.390625 
L 58.015625 25.390625 
L 58.015625 17.1875 
L 47.609375 17.1875 
L 47.609375 0 
L 37.796875 0 
L 37.796875 17.1875 
L 4.890625 17.1875 
L 4.890625 26.703125 
z
" id="DejaVuSans-52"/>
      </defs>
      <g transform="translate(218.132708 266.598437)scale(0.1 -0.1)">
       <use xlink:href="#DejaVuSans-52"/>
       <use x="63.623047" xlink:href="#DejaVuSans-48"/>
       <use x="127.246094" xlink:href="#DejaVuSans-48"/>
      </g>
     </g>
    </g>
    <g id="xtick_4">
     <g id="line2d_4">
      <g>
       <use style="stroke:#000000;stroke-width:0.8;" x="295.369232" xlink:href="#maa069e986d" y="252"/>
      </g>
     </g>
     <g id="text_4">
      <!-- 600 -->
      <defs>
       <path d="M 33.015625 40.375 
Q 26.375 40.375 22.484375 35.828125 
Q 18.609375 31.296875 18.609375 23.390625 
Q 18.609375 15.53125 22.484375 10.953125 
Q 26.375 6.390625 33.015625 6.390625 
Q 39.65625 6.390625 43.53125 10.953125 
Q 47.40625 15.53125 47.40625 23.390625 
Q 47.40625 31.296875 43.53125 35.828125 
Q 39.65625 40.375 33.015625 40.375 
z
M 52.59375 71.296875 
L 52.59375 62.3125 
Q 48.875 64.0625 45.09375 64.984375 
Q 41.3125 65.921875 37.59375 65.921875 
Q 27.828125 65.921875 22.671875 59.328125 
Q 17.53125 52.734375 16.796875 39.40625 
Q 19.671875 43.65625 24.015625 45.921875 
Q 28.375 48.1875 33.59375 48.1875 
Q 44.578125 48.1875 50.953125 41.515625 
Q 57.328125 34.859375 57.328125 23.390625 
Q 57.328125 12.15625 50.6875 5.359375 
Q 44.046875 -1.421875 33.015625 -1.421875 
Q 20.359375 -1.421875 13.671875 8.265625 
Q 6.984375 17.96875 6.984375 36.375 
Q 6.984375 53.65625 15.1875 63.9375 
Q 23.390625 74.21875 37.203125 74.21875 
Q 40.921875 74.21875 44.703125 73.484375 
Q 48.484375 72.75 52.59375 71.296875 
z
" id="DejaVuSans-54"/>
      </defs>
      <g transform="translate(285.825482 266.598437)scale(0.1 -0.1)">
       <use xlink:href="#DejaVuSans-54"/>
       <use x="63.623047" xlink:href="#DejaVuSans-48"/>
       <use x="127.246094" xlink:href="#DejaVuSans-48"/>
      </g>
     </g>
    </g>
    <g id="xtick_5">
     <g id="line2d_5">
      <g>
       <use style="stroke:#000000;stroke-width:0.8;" x="363.062006" xlink:href="#maa069e986d" y="252"/>
      </g>
     </g>
     <g id="text_5">
      <!-- 800 -->
      <defs>
       <path d="M 31.78125 34.625 
Q 24.75 34.625 20.71875 30.859375 
Q 16.703125 27.09375 16.703125 20.515625 
Q 16.703125 13.921875 20.71875 10.15625 
Q 24.75 6.390625 31.78125 6.390625 
Q 38.8125 6.390625 42.859375 10.171875 
Q 46.921875 13.96875 46.921875 20.515625 
Q 46.921875 27.09375 42.890625 30.859375 
Q 38.875 34.625 31.78125 34.625 
z
M 21.921875 38.8125 
Q 15.578125 40.375 12.03125 44.71875 
Q 8.5 49.078125 8.5 55.328125 
Q 8.5 64.0625 14.71875 69.140625 
Q 20.953125 74.21875 31.78125 74.21875 
Q 42.671875 74.21875 48.875 69.140625 
Q 55.078125 64.0625 55.078125 55.328125 
Q 55.078125 49.078125 51.53125 44.71875 
Q 48 40.375 41.703125 38.8125 
Q 48.828125 37.15625 52.796875 32.3125 
Q 56.78125 27.484375 56.78125 20.515625 
Q 56.78125 9.90625 50.3125 4.234375 
Q 43.84375 -1.421875 31.78125 -1.421875 
Q 19.734375 -1.421875 13.25 4.234375 
Q 6.78125 9.90625 6.78125 20.515625 
Q 6.78125 27.484375 10.78125 32.3125 
Q 14.796875 37.15625 21.921875 38.8125 
z
M 18.3125 54.390625 
Q 18.3125 48.734375 21.84375 45.5625 
Q 25.390625 42.390625 31.78125 42.390625 
Q 38.140625 42.390625 41.71875 45.5625 
Q 45.3125 48.734375 45.3125 54.390625 
Q 45.3125 60.0625 41.71875 63.234375 
Q 38.140625 66.40625 31.78125 66.40625 
Q 25.390625 66.40625 21.84375 63.234375 
Q 18.3125 60.0625 18.3125 54.390625 
z
" id="DejaVuSans-56"/>
      </defs>
      <g transform="translate(353.518256 266.598437)scale(0.1 -0.1)">
       <use xlink:href="#DejaVuSans-56"/>
       <use x="63.623047" xlink:href="#DejaVuSans-48"/>
       <use x="127.246094" xlink:href="#DejaVuSans-48"/>
      </g>
     </g>
    </g>
    <g id="xtick_6">
     <g id="line2d_6">
      <g>
       <use style="stroke:#000000;stroke-width:0.8;" x="430.75478" xlink:href="#maa069e986d" y="252"/>
      </g>
     </g>
     <g id="text_6">
      <!-- 1000 -->
      <defs>
       <path d="M 12.40625 8.296875 
L 28.515625 8.296875 
L 28.515625 63.921875 
L 10.984375 60.40625 
L 10.984375 69.390625 
L 28.421875 72.90625 
L 38.28125 72.90625 
L 38.28125 8.296875 
L 54.390625 8.296875 
L 54.390625 0 
L 12.40625 0 
z
" id="DejaVuSans-49"/>
      </defs>
      <g transform="translate(418.02978 266.598437)scale(0.1 -0.1)">
       <use xlink:href="#DejaVuSans-49"/>
       <use x="63.623047" xlink:href="#DejaVuSans-48"/>
       <use x="127.246094" xlink:href="#DejaVuSans-48"/>
       <use x="190.869141" xlink:href="#DejaVuSans-48"/>
      </g>
     </g>
    </g>
    <g id="xtick_7">
     <g id="line2d_7">
      <g>
       <use style="stroke:#000000;stroke-width:0.8;" x="498.447555" xlink:href="#maa069e986d" y="252"/>
      </g>
     </g>
     <g id="text_7">
      <!-- 1200 -->
      <g transform="translate(485.722555 266.598437)scale(0.1 -0.1)">
       <use xlink:href="#DejaVuSans-49"/>
       <use x="63.623047" xlink:href="#DejaVuSans-50"/>
       <use x="127.246094" xlink:href="#DejaVuSans-48"/>
       <use x="190.869141" xlink:href="#DejaVuSans-48"/>
      </g>
     </g>
    </g>
    <g id="text_8">
     <!-- iteration $j$ -->
     <defs>
      <path d="M 9.421875 54.6875 
L 18.40625 54.6875 
L 18.40625 0 
L 9.421875 0 
z
M 9.421875 75.984375 
L 18.40625 75.984375 
L 18.40625 64.59375 
L 9.421875 64.59375 
z
" id="DejaVuSans-105"/>
      <path d="M 18.3125 70.21875 
L 18.3125 54.6875 
L 36.8125 54.6875 
L 36.8125 47.703125 
L 18.3125 47.703125 
L 18.3125 18.015625 
Q 18.3125 11.328125 20.140625 9.421875 
Q 21.96875 7.515625 27.59375 7.515625 
L 36.8125 7.515625 
L 36.8125 0 
L 27.59375 0 
Q 17.1875 0 13.234375 3.875 
Q 9.28125 7.765625 9.28125 18.015625 
L 9.28125 47.703125 
L 2.6875 47.703125 
L 2.6875 54.6875 
L 9.28125 54.6875 
L 9.28125 70.21875 
z
" id="DejaVuSans-116"/>
      <path d="M 56.203125 29.59375 
L 56.203125 25.203125 
L 14.890625 25.203125 
Q 15.484375 15.921875 20.484375 11.0625 
Q 25.484375 6.203125 34.421875 6.203125 
Q 39.59375 6.203125 44.453125 7.46875 
Q 49.3125 8.734375 54.109375 11.28125 
L 54.109375 2.78125 
Q 49.265625 0.734375 44.1875 -0.34375 
Q 39.109375 -1.421875 33.890625 -1.421875 
Q 20.796875 -1.421875 13.15625 6.1875 
Q 5.515625 13.8125 5.515625 26.8125 
Q 5.515625 40.234375 12.765625 48.109375 
Q 20.015625 56 32.328125 56 
Q 43.359375 56 49.78125 48.890625 
Q 56.203125 41.796875 56.203125 29.59375 
z
M 47.21875 32.234375 
Q 47.125 39.59375 43.09375 43.984375 
Q 39.0625 48.390625 32.421875 48.390625 
Q 24.90625 48.390625 20.390625 44.140625 
Q 15.875 39.890625 15.1875 32.171875 
z
" id="DejaVuSans-101"/>
      <path d="M 41.109375 46.296875 
Q 39.59375 47.171875 37.8125 47.578125 
Q 36.03125 48 33.890625 48 
Q 26.265625 48 22.1875 43.046875 
Q 18.109375 38.09375 18.109375 28.8125 
L 18.109375 0 
L 9.078125 0 
L 9.078125 54.6875 
L 18.109375 54.6875 
L 18.109375 46.1875 
Q 20.953125 51.171875 25.484375 53.578125 
Q 30.03125 56 36.53125 56 
Q 37.453125 56 38.578125 55.875 
Q 39.703125 55.765625 41.0625 55.515625 
z
" id="DejaVuSans-114"/>
      <path d="M 34.28125 27.484375 
Q 23.390625 27.484375 19.1875 25 
Q 14.984375 22.515625 14.984375 16.5 
Q 14.984375 11.71875 18.140625 8.90625 
Q 21.296875 6.109375 26.703125 6.109375 
Q 34.1875 6.109375 38.703125 11.40625 
Q 43.21875 16.703125 43.21875 25.484375 
L 43.21875 27.484375 
z
M 52.203125 31.203125 
L 52.203125 0 
L 43.21875 0 
L 43.21875 8.296875 
Q 40.140625 3.328125 35.546875 0.953125 
Q 30.953125 -1.421875 24.3125 -1.421875 
Q 15.921875 -1.421875 10.953125 3.296875 
Q 6 8.015625 6 15.921875 
Q 6 25.140625 12.171875 29.828125 
Q 18.359375 34.515625 30.609375 34.515625 
L 43.21875 34.515625 
L 43.21875 35.40625 
Q 43.21875 41.609375 39.140625 45 
Q 35.0625 48.390625 27.6875 48.390625 
Q 23 48.390625 18.546875 47.265625 
Q 14.109375 46.140625 10.015625 43.890625 
L 10.015625 52.203125 
Q 14.9375 54.109375 19.578125 55.046875 
Q 24.21875 56 28.609375 56 
Q 40.484375 56 46.34375 49.84375 
Q 52.203125 43.703125 52.203125 31.203125 
z
" id="DejaVuSans-97"/>
      <path d="M 30.609375 48.390625 
Q 23.390625 48.390625 19.1875 42.75 
Q 14.984375 37.109375 14.984375 27.296875 
Q 14.984375 17.484375 19.15625 11.84375 
Q 23.34375 6.203125 30.609375 6.203125 
Q 37.796875 6.203125 41.984375 11.859375 
Q 46.1875 17.53125 46.1875 27.296875 
Q 46.1875 37.015625 41.984375 42.703125 
Q 37.796875 48.390625 30.609375 48.390625 
z
M 30.609375 56 
Q 42.328125 56 49.015625 48.375 
Q 55.71875 40.765625 55.71875 27.296875 
Q 55.71875 13.875 49.015625 6.21875 
Q 42.328125 -1.421875 30.609375 -1.421875 
Q 18.84375 -1.421875 12.171875 6.21875 
Q 5.515625 13.875 5.515625 27.296875 
Q 5.515625 40.765625 12.171875 48.375 
Q 18.84375 56 30.609375 56 
z
" id="DejaVuSans-111"/>
      <path d="M 54.890625 33.015625 
L 54.890625 0 
L 45.90625 0 
L 45.90625 32.71875 
Q 45.90625 40.484375 42.875 44.328125 
Q 39.84375 48.1875 33.796875 48.1875 
Q 26.515625 48.1875 22.3125 43.546875 
Q 18.109375 38.921875 18.109375 30.90625 
L 18.109375 0 
L 9.078125 0 
L 9.078125 54.6875 
L 18.109375 54.6875 
L 18.109375 46.1875 
Q 21.34375 51.125 25.703125 53.5625 
Q 30.078125 56 35.796875 56 
Q 45.21875 56 50.046875 50.171875 
Q 54.890625 44.34375 54.890625 33.015625 
z
" id="DejaVuSans-110"/>
      <path id="DejaVuSans-32"/>
      <path d="M 14.5 54.6875 
L 23.484375 54.6875 
L 12.703125 -0.984375 
L 12.640625 -1.21875 
Q 10.84375 -10.546875 8.5 -14.015625 
Q 6.296875 -17.28125 2.0625 -19.03125 
Q -2.15625 -20.796875 -7.90625 -20.796875 
L -11.28125 -20.796875 
L -9.8125 -13.1875 
L -7.515625 -13.1875 
Q -2.25 -13.1875 -0.015625 -10.984375 
Q 2.203125 -8.796875 3.71875 -0.984375 
z
M 18.703125 75.984375 
L 27.6875 75.984375 
L 25.484375 64.59375 
L 16.5 64.59375 
z
" id="DejaVuSans-Oblique-106"/>
     </defs>
     <g transform="translate(271.05 280.278125)scale(0.1 -0.1)">
      <use transform="translate(0 0.015625)" xlink:href="#DejaVuSans-105"/>
      <use transform="translate(27.783203 0.015625)" xlink:href="#DejaVuSans-116"/>
      <use transform="translate(66.992188 0.015625)" xlink:href="#DejaVuSans-101"/>
      <use transform="translate(128.515625 0.015625)" xlink:href="#DejaVuSans-114"/>
      <use transform="translate(169.628906 0.015625)" xlink:href="#DejaVuSans-97"/>
      <use transform="translate(230.908203 0.015625)" xlink:href="#DejaVuSans-116"/>
      <use transform="translate(270.117188 0.015625)" xlink:href="#DejaVuSans-105"/>
      <use transform="translate(297.900391 0.015625)" xlink:href="#DejaVuSans-111"/>
      <use transform="translate(359.082031 0.015625)" xlink:href="#DejaVuSans-110"/>
      <use transform="translate(422.460938 0.015625)" xlink:href="#DejaVuSans-32"/>
      <use transform="translate(454.248047 0.015625)" xlink:href="#DejaVuSans-Oblique-106"/>
     </g>
    </g>
   </g>
   <g id="matplotlib.axis_2">
    <g id="ytick_1">
     <g id="line2d_8">
      <defs>
       <path d="M 0 0 
L -3.5 0 
" id="m769a79b1c0" style="stroke:#000000;stroke-width:0.8;"/>
      </defs>
      <g>
       <use style="stroke:#000000;stroke-width:0.8;" x="72" xlink:href="#m769a79b1c0" y="252.329587"/>
      </g>
     </g>
     <g id="text_9">
      <!-- $\mathdefault{10^{-14}}$ -->
      <defs>
       <path d="M 10.59375 35.5 
L 73.1875 35.5 
L 73.1875 27.203125 
L 10.59375 27.203125 
z
" id="DejaVuSans-8722"/>
      </defs>
      <g transform="translate(37.1 256.128805)scale(0.1 -0.1)">
       <use transform="translate(0 0.684375)" xlink:href="#DejaVuSans-49"/>
       <use transform="translate(63.623047 0.684375)" xlink:href="#DejaVuSans-48"/>
       <use transform="translate(128.203125 38.965625)scale(0.7)" xlink:href="#DejaVuSans-8722"/>
       <use transform="translate(186.855469 38.965625)scale(0.7)" xlink:href="#DejaVuSans-49"/>
       <use transform="translate(231.391602 38.965625)scale(0.7)" xlink:href="#DejaVuSans-52"/>
      </g>
     </g>
    </g>
    <g id="ytick_2">
     <g id="line2d_9">
      <g>
       <use style="stroke:#000000;stroke-width:0.8;" x="72" xlink:href="#m769a79b1c0" y="222.631594"/>
      </g>
     </g>
     <g id="text_10">
      <!-- $\mathdefault{10^{-12}}$ -->
      <g transform="translate(37.1 226.430813)scale(0.1 -0.1)">
       <use transform="translate(0 0.765625)" xlink:href="#DejaVuSans-49"/>
       <use transform="translate(63.623047 0.765625)" xlink:href="#DejaVuSans-48"/>
       <use transform="translate(128.203125 39.046875)scale(0.7)" xlink:href="#DejaVuSans-8722"/>
       <use transform="translate(186.855469 39.046875)scale(0.7)" xlink:href="#DejaVuSans-49"/>
       <use transform="translate(231.391602 39.046875)scale(0.7)" xlink:href="#DejaVuSans-50"/>
      </g>
     </g>
    </g>
    <g id="ytick_3">
     <g id="line2d_10">
      <g>
       <use style="stroke:#000000;stroke-width:0.8;" x="72" xlink:href="#m769a79b1c0" y="192.933601"/>
      </g>
     </g>
     <g id="text_11">
      <!-- $\mathdefault{10^{-10}}$ -->
      <g transform="translate(37.1 196.73282)scale(0.1 -0.1)">
       <use transform="translate(0 0.765625)" xlink:href="#DejaVuSans-49"/>
       <use transform="translate(63.623047 0.765625)" xlink:href="#DejaVuSans-48"/>
       <use transform="translate(128.203125 39.046875)scale(0.7)" xlink:href="#DejaVuSans-8722"/>
       <use transform="translate(186.855469 39.046875)scale(0.7)" xlink:href="#DejaVuSans-49"/>
       <use transform="translate(231.391602 39.046875)scale(0.7)" xlink:href="#DejaVuSans-48"/>
      </g>
     </g>
    </g>
    <g id="ytick_4">
     <g id="line2d_11">
      <g>
       <use style="stroke:#000000;stroke-width:0.8;" x="72" xlink:href="#m769a79b1c0" y="163.235608"/>
      </g>
     </g>
     <g id="text_12">
      <!-- $\mathdefault{10^{-8}}$ -->
      <g transform="translate(41.5 167.034827)scale(0.1 -0.1)">
       <use transform="translate(0 0.765625)" xlink:href="#DejaVuSans-49"/>
       <use transform="translate(63.623047 0.765625)" xlink:href="#DejaVuSans-48"/>
       <use transform="translate(128.203125 39.046875)scale(0.7)" xlink:href="#DejaVuSans-8722"/>
       <use transform="translate(186.855469 39.046875)scale(0.7)" xlink:href="#DejaVuSans-56"/>
      </g>
     </g>
    </g>
    <g id="ytick_5">
     <g id="line2d_12">
      <g>
       <use style="stroke:#000000;stroke-width:0.8;" x="72" xlink:href="#m769a79b1c0" y="133.537615"/>
      </g>
     </g>
     <g id="text_13">
      <!-- $\mathdefault{10^{-6}}$ -->
      <g transform="translate(41.5 137.336834)scale(0.1 -0.1)">
       <use transform="translate(0 0.765625)" xlink:href="#DejaVuSans-49"/>
       <use transform="translate(63.623047 0.765625)" xlink:href="#DejaVuSans-48"/>
       <use transform="translate(128.203125 39.046875)scale(0.7)" xlink:href="#DejaVuSans-8722"/>
       <use transform="translate(186.855469 39.046875)scale(0.7)" xlink:href="#DejaVuSans-54"/>
      </g>
     </g>
    </g>
    <g id="ytick_6">
     <g id="line2d_13">
      <g>
       <use style="stroke:#000000;stroke-width:0.8;" x="72" xlink:href="#m769a79b1c0" y="103.839622"/>
      </g>
     </g>
     <g id="text_14">
      <!-- $\mathdefault{10^{-4}}$ -->
      <g transform="translate(41.5 107.638841)scale(0.1 -0.1)">
       <use transform="translate(0 0.684375)" xlink:href="#DejaVuSans-49"/>
       <use transform="translate(63.623047 0.684375)" xlink:href="#DejaVuSans-48"/>
       <use transform="translate(128.203125 38.965625)scale(0.7)" xlink:href="#DejaVuSans-8722"/>
       <use transform="translate(186.855469 38.965625)scale(0.7)" xlink:href="#DejaVuSans-52"/>
      </g>
     </g>
    </g>
    <g id="ytick_7">
     <g id="line2d_14">
      <g>
       <use style="stroke:#000000;stroke-width:0.8;" x="72" xlink:href="#m769a79b1c0" y="74.141629"/>
      </g>
     </g>
     <g id="text_15">
      <!-- $\mathdefault{10^{-2}}$ -->
      <g transform="translate(41.5 77.940848)scale(0.1 -0.1)">
       <use transform="translate(0 0.765625)" xlink:href="#DejaVuSans-49"/>
       <use transform="translate(63.623047 0.765625)" xlink:href="#DejaVuSans-48"/>
       <use transform="translate(128.203125 39.046875)scale(0.7)" xlink:href="#DejaVuSans-8722"/>
       <use transform="translate(186.855469 39.046875)scale(0.7)" xlink:href="#DejaVuSans-50"/>
      </g>
     </g>
    </g>
    <g id="ytick_8">
     <g id="line2d_15">
      <g>
       <use style="stroke:#000000;stroke-width:0.8;" x="72" xlink:href="#m769a79b1c0" y="44.443636"/>
      </g>
     </g>
     <g id="text_16">
      <!-- $\mathdefault{10^{0}}$ -->
      <g transform="translate(47.4 48.242855)scale(0.1 -0.1)">
       <use transform="translate(0 0.765625)" xlink:href="#DejaVuSans-49"/>
       <use transform="translate(63.623047 0.765625)" xlink:href="#DejaVuSans-48"/>
       <use transform="translate(128.203125 39.046875)scale(0.7)" xlink:href="#DejaVuSans-48"/>
      </g>
     </g>
    </g>
    <g id="text_17">
     <!-- $\|\| x-x_j \|\|_A$ -->
     <defs>
      <path d="M 21 76.421875 
L 21 -23.578125 
L 12.703125 -23.578125 
L 12.703125 76.421875 
z
" id="DejaVuSans-124"/>
      <path d="M 60.015625 54.6875 
L 34.90625 27.875 
L 50.296875 0 
L 39.984375 0 
L 28.421875 21.6875 
L 8.296875 0 
L -2.59375 0 
L 24.3125 28.8125 
L 10.015625 54.6875 
L 20.3125 54.6875 
L 30.8125 34.90625 
L 49.125 54.6875 
z
" id="DejaVuSans-Oblique-120"/>
      <path d="M 36.8125 72.90625 
L 48 72.90625 
L 61.53125 0 
L 51.21875 0 
L 48.1875 18.703125 
L 15.375 18.703125 
L 5.078125 0 
L -5.328125 0 
z
M 40.375 63.1875 
L 19.921875 26.90625 
L 46.6875 26.90625 
z
" id="DejaVuSans-Oblique-65"/>
     </defs>
     <g transform="translate(30 165.78)rotate(-90)scale(0.1 -0.1)">
      <use transform="translate(0 0.578125)" xlink:href="#DejaVuSans-124"/>
      <use transform="translate(33.691406 0.578125)" xlink:href="#DejaVuSans-124"/>
      <use transform="translate(67.382812 0.578125)" xlink:href="#DejaVuSans-Oblique-120"/>
      <use transform="translate(146.044922 0.578125)" xlink:href="#DejaVuSans-8722"/>
      <use transform="translate(249.316406 0.578125)" xlink:href="#DejaVuSans-Oblique-120"/>
      <use transform="translate(308.496094 -15.828125)scale(0.7)" xlink:href="#DejaVuSans-Oblique-106"/>
      <use transform="translate(330.678711 0.578125)" xlink:href="#DejaVuSans-124"/>
      <use transform="translate(364.370117 0.578125)" xlink:href="#DejaVuSans-124"/>
      <use transform="translate(399.018555 -15.828125)scale(0.7)" xlink:href="#DejaVuSans-Oblique-65"/>
     </g>
    </g>
   </g>
   <g id="line2d_16">
    <path clip-path="url(#p132891846c)" d="M 92.290909 44.443636 
L 92.629373 44.444124 
L 92.967837 44.445356 
L 93.306301 44.445563 
L 93.644765 44.449443 
L 93.983228 44.460349 
L 94.321692 44.475277 
L 94.660156 44.49175 
L 94.99862 44.503118 
L 95.337084 44.513739 
L 95.675548 44.525965 
L 96.014012 44.551076 
L 96.352476 44.572875 
L 96.690939 44.575683 
L 97.029403 44.593196 
L 97.367867 44.594198 
L 97.706331 44.601908 
L 98.044795 44.608281 
L 98.383259 44.616484 
L 98.721723 44.628128 
L 99.060187 44.645662 
L 99.39865 44.657098 
L 99.737114 44.666661 
L 100.075578 44.686673 
L 100.414042 44.713524 
L 100.752506 44.746549 
L 101.09097 44.760886 
L 101.429434 44.777873 
L 101.767897 44.795921 
L 102.106361 44.80627 
L 102.444825 44.817525 
L 102.783289 44.831188 
L 103.121753 44.865168 
L 103.460217 44.8753 
L 103.798681 44.91636 
L 104.137145 44.946122 
L 104.475608 44.950261 
L 104.814072 44.95801 
L 105.152536 45.013946 
L 105.491 45.019281 
L 105.829464 45.026144 
L 106.167928 45.118442 
L 106.506392 45.124308 
L 106.844856 45.126439 
L 107.183319 45.346726 
L 107.521783 45.361621 
L 107.860247 45.43015 
L 108.198711 45.462682 
L 108.537175 45.62284 
L 108.875639 45.656745 
L 109.214103 45.666173 
L 109.552567 45.67916 
L 109.89103 45.716288 
L 110.229494 45.833536 
L 110.567958 45.944272 
L 110.906422 46.002607 
L 111.244886 46.011467 
L 111.58335 46.017927 
L 111.921814 46.04378 
L 112.260278 46.054687 
L 112.598741 46.451913 
L 112.937205 46.460357 
L 113.275669 46.585218 
L 113.614133 46.648437 
L 113.952597 46.666787 
L 114.291061 46.878755 
L 114.629525 46.882086 
L 114.967988 46.943266 
L 115.306452 46.999233 
L 115.644916 47.001393 
L 115.98338 47.213619 
L 116.321844 47.300738 
L 116.660308 47.303434 
L 116.998772 47.592835 
L 117.337236 48.074417 
L 117.675699 48.425732 
L 118.014163 49.19215 
L 118.352627 49.772648 
L 118.691091 49.977331 
L 119.029555 50.518346 
L 119.368019 50.814353 
L 119.706483 50.846987 
L 120.044947 51.109316 
L 120.38341 51.260663 
L 120.721874 51.552597 
L 121.060338 51.940655 
L 121.398802 52.34669 
L 121.737266 52.463462 
L 122.07573 52.646056 
L 122.414194 53.068104 
L 122.752658 53.404726 
L 123.091121 53.832396 
L 123.429585 54.314859 
L 123.768049 55.544353 
L 124.106513 57.670567 
L 124.444977 58.351582 
L 124.783441 59.490857 
L 125.121905 60.893808 
L 125.460368 62.462379 
L 125.798832 62.652983 
L 126.137296 69.659008 
L 126.47576 72.07823 
L 126.814224 81.875364 
L 127.152688 84.531676 
L 127.491152 86.427585 
L 127.829616 94.163406 
L 128.168079 107.267411 
L 128.506543 110.828383 
L 128.845007 118.512186 
L 129.183471 136.537619 
L 129.521935 175.086316 
L 129.860399 193.40823 
" style="fill:none;stroke:#333333;stroke-linecap:square;stroke-width:1.5;"/>
   </g>
   <g id="line2d_17">
    <path clip-path="url(#p132891846c)" d="M 92.290909 44.443636 
L 96.014012 44.551076 
L 99.737114 44.664015 
L 102.444825 44.796369 
L 107.860247 45.027975 
L 108.537175 45.125029 
L 108.875639 45.134915 
L 109.552567 45.347925 
L 110.567958 45.46092 
L 111.244886 45.627308 
L 113.614133 45.936872 
L 114.291061 46.011765 
L 116.321844 46.078135 
L 116.660308 46.456624 
L 116.998772 46.463406 
L 117.675699 46.6338 
L 119.029555 46.669294 
L 119.706483 46.879722 
L 121.737266 47.001234 
L 122.414194 47.07531 
L 122.752658 47.280524 
L 123.429585 47.330052 
L 123.768049 47.476124 
L 125.460368 47.602447 
L 125.798832 48.067569 
L 126.47576 48.091901 
L 126.814224 48.300303 
L 128.506543 48.440629 
L 129.183471 48.936242 
L 129.521935 49.021714 
L 129.860399 49.486106 
L 130.198863 49.492004 
L 130.87579 49.803273 
L 131.891182 49.834313 
L 132.906574 50.316776 
L 133.583501 50.377699 
L 134.260429 50.551219 
L 134.937357 50.555375 
L 135.614285 50.751019 
L 137.306604 50.848987 
L 139.675851 51.025324 
L 140.014315 51.18077 
L 142.045098 51.275751 
L 143.737418 51.299958 
L 144.414345 51.581289 
L 145.768201 51.584847 
L 147.122056 51.948826 
L 149.152839 52.009739 
L 149.491303 52.405739 
L 151.522087 52.524961 
L 153.214406 52.668744 
L 153.55287 52.815663 
L 153.891334 53.171671 
L 154.568261 53.173087 
L 155.583653 53.535959 
L 157.275972 53.650019 
L 157.614436 53.722949 
L 157.9529 53.912455 
L 162.014467 54.282276 
L 162.691394 54.420445 
L 164.383714 54.583154 
L 164.722178 55.590855 
L 167.091425 55.897893 
L 167.429889 56.18437 
L 168.783744 56.581651 
L 169.122208 56.959224 
L 172.506847 57.746059 
L 174.876094 57.852506 
L 176.568413 57.972404 
L 176.906877 58.842372 
L 177.583805 58.900876 
L 178.260732 59.215191 
L 179.276124 59.272222 
L 180.291516 59.404936 
L 180.62998 59.697175 
L 180.968443 59.822555 
L 182.322299 59.863646 
L 182.999227 60.78405 
L 183.33769 60.987518 
L 185.03001 61.004625 
L 185.368474 61.31651 
L 185.706938 61.37837 
L 186.045401 61.798999 
L 186.383865 62.502004 
L 187.399257 62.565349 
L 189.43004 62.644272 
L 191.12236 62.906664 
L 191.460823 63.067067 
L 192.814679 63.121643 
L 193.153143 63.407847 
L 193.491607 64.49238 
L 193.830071 64.528316 
L 194.168534 67.949501 
L 194.506998 68.15714 
L 194.845462 68.203607 
L 195.183926 69.121229 
L 195.860854 69.709198 
L 196.537781 69.926588 
L 199.92242 69.973783 
L 200.260884 70.520355 
L 200.937812 72.186502 
L 206.353234 72.626046 
L 206.691698 73.200723 
L 207.030161 73.444364 
L 207.368625 73.473324 
L 207.707089 73.935175 
L 208.045553 76.121091 
L 208.384017 82.07596 
L 209.060945 82.651874 
L 211.091728 82.788547 
L 211.430192 83.014523 
L 211.768656 83.024148 
L 212.10712 83.184079 
L 212.784047 83.23131 
L 213.122511 84.353632 
L 213.460975 84.603048 
L 214.137903 84.689367 
L 218.537933 84.890887 
L 220.230252 85.168669 
L 220.568716 85.574424 
L 220.90718 85.664493 
L 221.245644 86.589652 
L 227.676458 86.823141 
L 228.691849 87.256007 
L 229.030313 87.318765 
L 229.368777 87.680846 
L 230.384169 87.782227 
L 230.722632 91.127795 
L 231.061096 91.282052 
L 231.738024 93.80039 
L 232.076488 93.986045 
L 232.414952 94.001717 
L 233.09188 94.147017 
L 233.768807 94.179942 
L 234.107271 95.090483 
L 235.122663 95.760219 
L 236.138054 95.784189 
L 236.476518 96.352434 
L 238.845765 96.48382 
L 239.184229 96.767545 
L 239.861157 106.335861 
L 240.199621 106.477232 
L 240.538085 107.395046 
L 242.907332 107.752635 
L 243.245796 107.947503 
L 246.291971 108.06737 
L 247.307362 108.113043 
L 248.661218 108.179997 
L 248.999682 108.63854 
L 249.676609 108.988272 
L 250.015073 109.367694 
L 250.353537 110.625657 
L 251.030465 110.666163 
L 251.707393 110.8827 
L 261.184381 111.182471 
L 261.522845 111.769336 
L 262.199773 116.004216 
L 262.538236 116.027764 
L 262.8767 116.800997 
L 263.215164 117.230009 
L 264.230556 117.287559 
L 264.907484 117.957781 
L 265.245947 118.031716 
L 265.922875 118.674464 
L 267.953658 118.795916 
L 272.015225 118.871593 
L 272.692153 118.963527 
L 275.0614 118.987754 
L 275.399864 119.198794 
L 276.076791 119.2991 
L 278.784502 119.487398 
L 279.46143 119.585179 
L 280.476822 119.62799 
L 280.815285 119.937396 
L 281.153749 121.502777 
L 281.492213 124.267718 
L 281.830677 124.926038 
L 282.169141 125.238519 
L 282.507605 125.360988 
L 282.846069 126.069454 
L 283.184533 126.124728 
L 283.522996 126.745477 
L 284.876852 126.816374 
L 285.215316 127.224958 
L 285.892244 135.353217 
L 286.230707 136.562932 
L 286.569171 136.617499 
L 286.907635 137.396909 
L 287.584563 137.777977 
L 289.276882 137.920728 
L 289.615346 137.952087 
L 289.95381 138.205901 
L 292.323057 138.269665 
L 292.999985 138.648015 
L 293.338449 138.656272 
L 294.35384 140.422449 
L 295.030768 140.502316 
L 295.369232 140.508521 
L 295.707696 140.98835 
L 296.384624 141.143015 
L 297.400015 141.262115 
L 298.076943 141.38778 
L 298.415407 144.684667 
L 298.753871 146.688507 
L 299.092335 151.125327 
L 299.430798 153.609581 
L 299.769262 153.823982 
L 300.107726 154.786529 
L 300.44619 155.111974 
L 301.123118 155.224808 
L 301.461582 155.239651 
L 302.138509 155.614754 
L 302.476973 155.63369 
L 302.815437 155.931226 
L 303.153901 155.964658 
L 303.492365 157.620368 
L 304.84622 157.867255 
L 305.861612 158.61188 
L 306.200076 158.952151 
L 306.877004 159.295072 
L 307.215467 167.629029 
L 307.553931 170.497311 
L 307.892395 172.413987 
L 308.230859 175.504723 
L 308.907787 175.751182 
L 309.923178 175.94515 
L 310.261642 176.450677 
L 310.600106 177.294065 
L 311.277034 177.509137 
L 311.953962 177.58758 
L 313.646281 177.694606 
L 316.353992 178.089163 
L 316.692456 178.310731 
L 319.400167 178.8254 
L 320.415558 178.917701 
L 320.754022 179.234897 
L 321.092486 179.809392 
L 321.43095 180.780577 
L 321.769414 181.384165 
L 322.446342 181.457128 
L 322.784806 182.125316 
L 323.123269 182.288382 
L 323.461733 189.898245 
L 323.800197 191.731888 
L 324.138661 191.827864 
L 324.477125 192.248853 
L 324.815589 194.395073 
L 326.169444 194.446783 
L 326.507908 194.456099 
L 327.184836 194.940089 
L 331.584866 195.137632 
L 332.938722 195.197682 
L 336.32336 195.264686 
L 336.661824 195.487555 
L 337.000288 195.911159 
L 337.677216 196.113026 
L 338.01568 196.122529 
L 338.354144 199.526179 
L 338.692607 199.751332 
L 339.031071 200.264274 
L 339.369535 202.939633 
L 339.707999 208.477689 
L 340.046463 211.354095 
L 340.723391 211.454749 
L 341.738782 211.471489 
L 342.077246 211.648421 
L 342.41571 212.84093 
L 342.754174 213.376608 
L 343.092638 213.656024 
L 343.431102 213.704287 
L 343.769566 213.909584 
L 345.123421 214.05117 
L 348.169596 214.354223 
L 348.50806 214.93583 
L 348.846524 216.624976 
L 349.184987 217.696172 
L 349.523451 217.772291 
L 349.861915 217.967557 
L 350.200379 219.01936 
L 350.538843 219.057305 
L 350.877307 220.566071 
L 351.554235 234.324281 
L 351.892698 235.879781 
L 352.231162 235.958442 
L 352.569626 237.823915 
L 352.90809 241.040773 
L 353.246554 241.31555 
L 355.277337 241.388253 
L 359.677368 241.660259 
L 360.015831 241.801212 
L 360.354295 241.793591 
L 360.692759 242.045212 
L 363.062006 242.10992 
L 429.400925 242.109213 
L 498.109091 242.109213 
L 498.109091 242.109213 
" style="fill:none;stroke:#1f77b4;stroke-linecap:square;stroke-width:1.5;"/>
   </g>
   <g id="line2d_18">
    <path clip-path="url(#p132891846c)" d="M 92.290909 44.443636 
L 96.014012 44.551074 
L 102.783289 44.806493 
L 105.152536 44.906602 
L 106.844856 44.989483 
L 108.875639 45.126438 
L 109.214103 45.333468 
L 110.906422 45.461821 
L 111.244886 45.614007 
L 113.275669 45.764464 
L 113.952597 45.99493 
L 116.321844 46.072321 
L 116.998772 46.458409 
L 118.014163 46.588041 
L 119.029555 46.667224 
L 119.368019 46.670911 
L 120.044947 46.882415 
L 126.137296 47.603403 
L 126.47576 48.041567 
L 127.829616 48.093198 
L 129.183471 48.16638 
L 129.860399 48.465349 
L 131.891182 48.585464 
L 132.229646 48.625484 
L 133.245038 49.752181 
L 135.952749 50.00279 
L 136.629676 50.238422 
L 137.306604 50.551004 
L 140.352779 50.681708 
L 140.691243 50.860394 
L 142.383562 50.908053 
L 142.722026 51.113466 
L 143.06049 51.116825 
L 143.737418 51.275158 
L 146.106665 51.396267 
L 146.783592 51.565147 
L 149.829767 51.773117 
L 150.168231 52.035305 
L 152.199014 52.146778 
L 152.537478 52.440846 
L 154.568261 52.5331 
L 154.906725 52.655707 
L 157.614436 52.711191 
L 159.64522 53.269767 
L 161.676003 53.372009 
L 163.368322 53.708684 
L 164.722178 53.767892 
L 165.060641 53.919149 
L 167.091425 54.079561 
L 167.429889 54.26991 
L 169.460672 54.35911 
L 170.814527 54.408274 
L 172.84531 54.574427 
L 173.183774 54.760551 
L 173.860702 54.884843 
L 174.199166 55.118678 
L 175.214558 55.29612 
L 175.553021 56.114468 
L 177.583805 56.274628 
L 177.922269 56.664326 
L 178.260732 56.782894 
L 178.599196 57.273657 
L 178.93766 57.437954 
L 179.614588 57.45868 
L 179.953052 57.79118 
L 181.645371 57.80808 
L 181.983835 58.488325 
L 182.660763 58.646701 
L 182.999227 58.997125 
L 185.706938 59.135873 
L 186.045401 59.341968 
L 187.399257 59.546577 
L 188.414649 59.87027 
L 190.445432 59.953231 
L 191.799287 60.446639 
L 192.137751 60.976416 
L 194.845462 61.117843 
L 195.183926 61.773194 
L 196.199318 62.275146 
L 197.214709 62.449977 
L 198.907029 62.523234 
L 199.583956 62.60835 
L 201.276276 62.62959 
L 202.291667 62.947418 
L 203.645523 63.007199 
L 203.983987 63.245704 
L 204.322451 63.70911 
L 204.999378 63.728522 
L 205.676306 65.77587 
L 206.01477 65.960084 
L 206.691698 66.05751 
L 207.030161 66.337004 
L 208.384017 66.843404 
L 209.060945 67.301295 
L 209.399409 67.951347 
L 209.737872 68.020203 
L 210.076336 68.253668 
L 210.4148 68.323884 
L 210.753264 68.538889 
L 211.091728 69.732213 
L 212.784047 70.105945 
L 213.460975 70.110002 
L 214.137903 71.504663 
L 214.814831 71.562612 
L 215.491758 71.89668 
L 216.168686 72.015817 
L 216.845614 72.139879 
L 218.199469 72.248133 
L 219.891789 72.370232 
L 222.5995 72.433015 
L 222.937963 72.782174 
L 223.276427 72.953166 
L 223.953355 72.99082 
L 224.291819 73.190553 
L 224.630283 74.421708 
L 225.307211 74.638598 
L 225.645674 75.442119 
L 225.984138 76.975531 
L 226.322602 77.492094 
L 226.661066 77.681163 
L 226.99953 77.684786 
L 227.337994 77.900872 
L 227.676458 78.383295 
L 228.014922 79.947256 
L 228.353385 80.439265 
L 229.030313 80.523351 
L 229.368777 80.629477 
L 229.707241 81.369254 
L 230.045705 81.395146 
L 231.061096 82.519807 
L 232.414952 82.635058 
L 233.09188 82.749863 
L 233.430343 82.77196 
L 233.768807 83.359376 
L 235.122663 83.412732 
L 235.461127 83.625197 
L 235.799591 83.693096 
L 236.138054 84.696232 
L 236.476518 84.932092 
L 239.522693 85.089965 
L 239.861157 85.452605 
L 240.876549 85.535772 
L 242.907332 85.629799 
L 243.245796 85.764417 
L 243.58426 86.030172 
L 244.599651 86.265288 
L 245.953507 86.880001 
L 252.38432 87.140276 
L 252.722784 87.972199 
L 253.738176 88.105612 
L 254.07664 88.336566 
L 254.415103 88.346132 
L 254.753567 88.536491 
L 255.430495 88.664584 
L 255.768959 89.162473 
L 257.461278 89.656727 
L 257.799742 89.721637 
L 258.138206 89.961224 
L 258.47667 95.698595 
L 258.815134 96.244778 
L 259.153598 96.250423 
L 260.168989 96.693252 
L 260.845917 96.697409 
L 261.184381 96.847159 
L 261.522845 97.321768 
L 263.892092 97.409756 
L 264.230556 97.708758 
L 264.907484 97.814635 
L 265.245947 97.82385 
L 265.584411 98.090833 
L 265.922875 98.772376 
L 266.261339 99.834302 
L 266.599803 99.984934 
L 267.276731 100.029233 
L 267.615194 102.792312 
L 267.953658 103.192054 
L 269.307514 103.42961 
L 269.645978 104.024676 
L 270.322905 104.216297 
L 270.999833 104.418239 
L 272.353689 104.718351 
L 272.692153 104.922819 
L 273.030616 105.894454 
L 274.046008 106.046113 
L 275.0614 106.24668 
L 275.399864 106.988725 
L 275.738327 108.140505 
L 279.46143 108.46201 
L 280.815285 108.4863 
L 281.492213 108.628404 
L 283.184533 108.73262 
L 283.522996 108.894521 
L 286.569171 109.043108 
L 286.907635 109.114636 
L 287.246099 109.467165 
L 287.923027 109.662918 
L 288.599955 109.744627 
L 288.938418 109.943248 
L 289.615346 109.94781 
L 290.630738 111.293949 
L 299.092335 111.502563 
L 299.430798 112.062162 
L 299.769262 112.080656 
L 300.107726 112.546422 
L 300.784654 112.639601 
L 301.123118 113.034206 
L 302.476973 113.163295 
L 302.815437 113.328115 
L 303.153901 113.736746 
L 303.830829 113.845268 
L 304.84622 114.018316 
L 305.184684 114.636311 
L 305.861612 114.686819 
L 306.53854 115.083344 
L 307.553931 115.268796 
L 308.230859 116.205315 
L 308.907787 116.840732 
L 309.246251 117.411574 
L 309.584715 118.989391 
L 311.277034 119.029483 
L 312.292426 119.043203 
L 312.969353 119.156411 
L 321.092486 119.488727 
L 322.107878 119.807388 
L 322.446342 119.81101 
L 322.784806 128.690158 
L 323.123269 128.924738 
L 323.800197 130.868832 
L 324.477125 134.702807 
L 324.815589 135.359212 
L 325.492516 135.445249 
L 326.169444 135.641404 
L 326.507908 135.791669 
L 326.846372 136.293643 
L 327.861764 136.654801 
L 329.215619 136.709928 
L 330.231011 137.223625 
L 331.584866 137.267937 
L 331.92333 137.725037 
L 332.938722 137.836176 
L 334.631041 137.96552 
L 335.307969 138.288658 
L 335.984897 138.362432 
L 336.661824 138.866038 
L 338.692607 138.937081 
L 339.369535 139.182639 
L 342.077246 139.321206 
L 343.431102 139.400697 
L 344.108029 139.486713 
L 344.446493 139.723042 
L 346.477277 140.206366 
L 346.81574 141.595177 
L 347.831132 142.210047 
L 348.169596 142.384906 
L 348.50806 142.425573 
L 349.184987 148.568936 
L 349.523451 149.350492 
L 349.861915 149.445494 
L 350.200379 153.774008 
L 350.538843 154.924787 
L 350.877307 155.251032 
L 351.554235 155.314871 
L 351.892698 158.283167 
L 352.231162 158.631994 
L 352.90809 158.77768 
L 353.585018 159.313431 
L 354.261946 159.407569 
L 354.600409 159.755646 
L 354.938873 163.314674 
L 355.277337 169.541975 
L 355.954265 174.273084 
L 356.292729 175.877251 
L 357.646584 175.920291 
L 358.323512 176.069373 
L 358.661976 176.120277 
L 359.677368 176.634515 
L 360.015831 177.10294 
L 363.738934 177.526387 
L 364.077398 177.721823 
L 365.431253 177.820177 
L 366.446645 177.852831 
L 366.785109 178.055102 
L 367.123573 178.901282 
L 368.477428 178.92676 
L 369.154356 179.456037 
L 372.877458 179.559766 
L 373.215922 180.026064 
L 373.89285 180.142164 
L 374.231314 180.186527 
L 374.569778 180.353343 
L 374.908242 181.05047 
L 376.262097 181.130281 
L 376.600561 181.331661 
L 376.939025 181.340404 
L 377.277489 181.483824 
L 377.954417 181.892332 
L 378.29288 181.965075 
L 378.969808 182.652538 
L 379.646736 183.943327 
L 380.323664 184.066114 
L 381.000591 184.966488 
L 381.677519 185.083958 
L 383.369839 185.308951 
L 384.046766 185.434982 
L 385.400622 185.534823 
L 386.416013 185.599506 
L 386.754477 185.682676 
L 387.431405 186.671019 
L 389.123724 186.919802 
L 389.462188 195.440192 
L 389.800652 196.287025 
L 393.523755 196.500647 
L 397.923785 196.562881 
L 398.600713 197.069859 
L 399.27764 197.202061 
L 399.954568 197.228163 
L 400.293032 197.636724 
L 401.646888 197.756932 
L 401.985351 197.815701 
L 402.323815 199.792492 
L 402.662279 199.990858 
L 405.031526 200.096779 
L 407.06231 200.186681 
L 407.739237 201.157426 
L 408.077701 201.28182 
L 408.754629 201.313563 
L 409.431557 201.445538 
L 409.77002 201.454888 
L 410.108484 201.751408 
L 410.446948 202.327454 
L 411.123876 202.431433 
L 411.800804 202.469476 
L 412.477731 202.612006 
L 413.154659 202.66505 
L 413.831587 209.154324 
L 414.170051 209.203199 
L 414.508515 209.38696 
L 414.846979 210.148321 
L 415.185442 213.912659 
L 415.523906 214.002378 
L 415.86237 214.864893 
L 416.200834 215.195029 
L 417.893153 215.392977 
L 418.231617 215.923844 
L 418.570081 216.096897 
L 418.908545 216.129369 
L 419.247009 216.355961 
L 419.585473 216.74576 
L 419.923937 216.783993 
L 420.2624 217.2039 
L 420.600864 217.399224 
L 421.277792 217.487448 
L 421.95472 217.619766 
L 423.308575 217.681928 
L 423.647039 218.648779 
L 425.339359 218.866312 
L 426.35475 218.910509 
L 427.031678 219.239651 
L 428.04707 219.317542 
L 428.723997 220.233084 
L 429.062461 222.854202 
L 429.400925 223.983755 
L 430.077853 223.99319 
L 430.75478 224.319854 
L 431.431708 224.403496 
L 431.770172 224.719035 
L 432.108636 225.646306 
L 432.785564 225.914725 
L 433.800955 226.187591 
L 435.493275 226.331244 
L 436.170202 226.433275 
L 440.908697 226.574734 
L 441.924088 226.631103 
L 442.93948 226.660337 
L 443.616408 226.823612 
L 444.631799 226.855911 
L 444.970263 227.033682 
L 450.724149 227.084078 
L 451.401077 227.197467 
L 453.43186 227.249882 
L 470.01659 227.255825 
L 498.109091 227.251648 
L 498.109091 227.251648 
" style="fill:none;stroke:#ff7f0e;stroke-linecap:square;stroke-width:1.5;"/>
   </g>
   <g id="line2d_19">
    <path clip-path="url(#p132891846c)" d="M 92.290909 44.443636 
L 96.014012 44.551077 
L 98.721723 44.628128 
L 109.89103 45.180375 
L 110.229494 45.351003 
L 111.58335 45.488003 
L 112.937205 45.664259 
L 114.291061 45.739584 
L 115.306452 46.010273 
L 117.337236 46.081266 
L 117.675699 46.176231 
L 118.014163 46.460062 
L 119.368019 46.538632 
L 120.044947 46.668802 
L 120.721874 46.695391 
L 121.060338 46.882558 
L 122.414194 46.974127 
L 124.444977 47.013608 
L 125.121905 47.12393 
L 125.798832 47.303161 
L 126.814224 47.325697 
L 127.491152 47.492932 
L 130.537327 47.89705 
L 131.214254 48.073518 
L 133.921965 48.175207 
L 134.260429 48.425853 
L 135.614285 48.524329 
L 137.983532 48.670865 
L 138.660459 49.449612 
L 139.337387 49.695629 
L 140.014315 49.731032 
L 140.352779 49.919055 
L 142.722026 50.016164 
L 143.06049 50.385988 
L 143.737418 50.625391 
L 145.768201 50.704799 
L 146.106665 50.888282 
L 148.814376 51.006774 
L 149.491303 51.217315 
L 153.214406 51.310735 
L 154.906725 51.613847 
L 156.260581 51.630063 
L 156.599045 51.809154 
L 161.337539 52.173069 
L 161.676003 52.20107 
L 162.014467 52.381947 
L 174.199166 53.028894 
L 176.906877 53.545591 
L 177.922269 53.561863 
L 178.93766 54.017707 
L 180.291516 54.043638 
L 180.968443 54.339243 
L 183.33769 54.469001 
L 184.014618 54.593828 
L 186.722329 54.745575 
L 187.060793 55.31563 
L 187.399257 55.448827 
L 187.737721 55.764212 
L 188.753112 55.848329 
L 189.43004 55.987437 
L 189.768504 55.990511 
L 190.445432 56.183414 
L 191.12236 56.20808 
L 192.137751 56.481652 
L 194.845462 56.765539 
L 195.183926 57.52324 
L 195.52239 57.804977 
L 198.568565 57.893121 
L 199.245492 57.961411 
L 200.937812 58.077848 
L 201.276276 58.792137 
L 201.61474 59.129043 
L 202.291667 59.209141 
L 207.030161 59.507863 
L 207.368625 59.730642 
L 207.707089 59.75146 
L 208.384017 60.015089 
L 210.753264 60.132048 
L 211.430192 60.320242 
L 211.768656 60.57706 
L 212.445583 60.650918 
L 212.784047 60.653157 
L 213.122511 60.982738 
L 213.799439 61.067202 
L 216.50715 61.150355 
L 221.245644 61.776557 
L 221.584108 62.144403 
L 222.261036 62.209544 
L 222.937963 62.433632 
L 224.291819 62.628841 
L 230.384169 62.76496 
L 231.39956 63.734493 
L 231.738024 63.784179 
L 232.076488 64.040964 
L 232.414952 65.29007 
L 234.445735 65.443466 
L 234.784199 65.964069 
L 235.122663 66.151456 
L 235.461127 66.158096 
L 235.799591 66.417366 
L 236.476518 66.488982 
L 236.814982 67.347908 
L 238.168838 67.561609 
L 238.507302 68.700351 
L 239.522693 68.836123 
L 239.861157 69.018422 
L 240.199621 69.409884 
L 240.538085 69.593492 
L 241.553476 69.708846 
L 242.568868 70.234081 
L 244.938115 70.30044 
L 245.276579 70.533945 
L 245.615043 70.552433 
L 245.953507 70.74777 
L 247.307362 70.814805 
L 247.645826 71.597635 
L 247.98429 71.621764 
L 248.322754 72.199983 
L 249.676609 72.376374 
L 251.368929 72.447733 
L 255.430495 72.552577 
L 258.815134 72.809693 
L 259.492062 72.906906 
L 260.168989 73.031914 
L 261.861309 73.168581 
L 262.199773 74.622508 
L 262.538236 74.644871 
L 262.8767 75.141571 
L 263.215164 75.406295 
L 263.892092 75.510354 
L 264.230556 76.322994 
L 264.56902 76.733691 
L 264.907484 76.773008 
L 265.245947 77.404565 
L 265.584411 77.524529 
L 265.922875 78.076192 
L 266.261339 78.167371 
L 266.599803 79.053444 
L 266.938267 80.409172 
L 267.276731 80.440715 
L 267.615194 82.349606 
L 268.630586 82.616147 
L 269.307514 83.391947 
L 269.984442 83.499375 
L 270.322905 83.658463 
L 278.107574 84.279333 
L 278.446038 84.454985 
L 281.830677 84.807062 
L 282.846069 84.965238 
L 284.199924 85.068907 
L 284.538388 85.194594 
L 286.230707 85.300661 
L 287.246099 85.35997 
L 288.599955 85.3837 
L 289.276882 85.701856 
L 292.323057 85.838989 
L 292.661521 86.184885 
L 294.015376 86.386676 
L 294.692304 86.480981 
L 298.753871 86.733418 
L 299.430798 87.006002 
L 300.784654 87.129321 
L 301.800045 87.30862 
L 307.215467 87.576471 
L 308.569323 87.734676 
L 311.953962 87.896069 
L 313.307817 88.263717 
L 313.984745 88.299727 
L 314.661673 88.649795 
L 315.000136 89.077894 
L 316.015528 89.231509 
L 317.369384 89.28142 
L 317.707847 90.314289 
L 318.723239 90.534108 
L 319.738631 90.770427 
L 320.077095 92.253798 
L 320.415558 92.701381 
L 320.754022 93.830344 
L 321.092486 94.02031 
L 321.43095 94.484213 
L 322.107878 94.730477 
L 322.446342 95.04034 
L 323.461733 95.082403 
L 324.138661 95.355404 
L 324.477125 95.848065 
L 325.83098 95.95697 
L 327.184836 96.873052 
L 327.5233 96.885088 
L 327.861764 97.327505 
L 328.200227 97.364372 
L 328.877155 97.595082 
L 329.215619 97.634949 
L 329.554083 97.871541 
L 330.231011 97.974356 
L 331.584866 98.178182 
L 331.92333 98.370821 
L 332.600258 99.227629 
L 332.938722 99.292343 
L 333.277186 99.774633 
L 333.954113 99.88259 
L 334.631041 99.985376 
L 335.646433 100.01397 
L 335.984897 100.31248 
L 336.661824 100.436097 
L 339.707999 100.667089 
L 340.046463 101.146183 
L 340.723391 101.527933 
L 342.41571 101.597014 
L 344.108029 101.93737 
L 344.784957 101.960727 
L 345.123421 102.123314 
L 345.461885 102.651914 
L 347.492668 103.37725 
L 348.50806 103.540039 
L 348.846524 103.810402 
L 349.184987 103.82125 
L 349.861915 105.023132 
L 350.200379 105.049803 
L 350.538843 105.357459 
L 351.554235 105.425282 
L 351.892698 105.714939 
L 352.90809 105.821943 
L 353.246554 106.11285 
L 353.585018 106.16574 
L 353.923482 106.699242 
L 356.969657 106.872851 
L 357.646584 107.621361 
L 359.338904 107.978818 
L 360.015831 108.950498 
L 361.031223 109.180234 
L 365.092789 109.295957 
L 368.477428 109.417109 
L 369.49282 109.468893 
L 371.185139 109.576646 
L 378.29288 109.887209 
L 379.646736 109.994195 
L 380.662128 110.102805 
L 382.692911 110.5279 
L 385.400622 110.725976 
L 385.739086 111.102075 
L 386.416013 111.176752 
L 399.616104 111.567073 
L 406.723846 111.686874 
L 410.108484 111.889725 
L 410.446948 112.053216 
L 410.785412 112.066059 
L 411.123876 112.453926 
L 411.46234 112.494377 
L 412.139268 112.881065 
L 413.154659 113.022115 
L 415.86237 113.26992 
L 416.539298 113.38347 
L 417.55469 113.429025 
L 419.923937 113.514714 
L 420.600864 113.605528 
L 422.631648 113.752957 
L 423.308575 113.889559 
L 424.323967 114.012223 
L 425.339359 114.639018 
L 427.031678 114.699821 
L 443.277944 114.688628 
L 449.03183 114.590224 
L 450.385685 114.372485 
L 455.462643 114.126513 
L 456.478035 114.030494 
L 457.83189 113.981067 
L 460.539601 113.875615 
L 462.231921 113.817526 
L 469.678126 113.659724 
L 487.616711 113.248901 
L 498.109091 113.160668 
L 498.109091 113.160668 
" style="fill:none;stroke:#2ca02c;stroke-linecap:square;stroke-width:1.5;"/>
   </g>
   <g id="patch_3">
    <path d="M 72 252 
L 72 34.56 
" style="fill:none;stroke:#000000;stroke-linecap:square;stroke-linejoin:miter;stroke-width:0.8;"/>
   </g>
   <g id="patch_4">
    <path d="M 518.4 252 
L 518.4 34.56 
" style="fill:none;stroke:#000000;stroke-linecap:square;stroke-linejoin:miter;stroke-width:0.8;"/>
   </g>
   <g id="patch_5">
    <path d="M 72 252 
L 518.4 252 
" style="fill:none;stroke:#000000;stroke-linecap:square;stroke-linejoin:miter;stroke-width:0.8;"/>
   </g>
   <g id="patch_6">
    <path d="M 72 34.56 
L 518.4 34.56 
" style="fill:none;stroke:#000000;stroke-linecap:square;stroke-linejoin:miter;stroke-width:0.8;"/>
   </g>
   <g id="text_18">
    <!-- bcsstk03, $A$-norm of error -->
    <defs>
     <path d="M 48.6875 27.296875 
Q 48.6875 37.203125 44.609375 42.84375 
Q 40.53125 48.484375 33.40625 48.484375 
Q 26.265625 48.484375 22.1875 42.84375 
Q 18.109375 37.203125 18.109375 27.296875 
Q 18.109375 17.390625 22.1875 11.75 
Q 26.265625 6.109375 33.40625 6.109375 
Q 40.53125 6.109375 44.609375 11.75 
Q 48.6875 17.390625 48.6875 27.296875 
z
M 18.109375 46.390625 
Q 20.953125 51.265625 25.265625 53.625 
Q 29.59375 56 35.59375 56 
Q 45.5625 56 51.78125 48.09375 
Q 58.015625 40.1875 58.015625 27.296875 
Q 58.015625 14.40625 51.78125 6.484375 
Q 45.5625 -1.421875 35.59375 -1.421875 
Q 29.59375 -1.421875 25.265625 0.953125 
Q 20.953125 3.328125 18.109375 8.203125 
L 18.109375 0 
L 9.078125 0 
L 9.078125 75.984375 
L 18.109375 75.984375 
z
" id="DejaVuSans-98"/>
     <path d="M 48.78125 52.59375 
L 48.78125 44.1875 
Q 44.96875 46.296875 41.140625 47.34375 
Q 37.3125 48.390625 33.40625 48.390625 
Q 24.65625 48.390625 19.8125 42.84375 
Q 14.984375 37.3125 14.984375 27.296875 
Q 14.984375 17.28125 19.8125 11.734375 
Q 24.65625 6.203125 33.40625 6.203125 
Q 37.3125 6.203125 41.140625 7.25 
Q 44.96875 8.296875 48.78125 10.40625 
L 48.78125 2.09375 
Q 45.015625 0.34375 40.984375 -0.53125 
Q 36.96875 -1.421875 32.421875 -1.421875 
Q 20.0625 -1.421875 12.78125 6.34375 
Q 5.515625 14.109375 5.515625 27.296875 
Q 5.515625 40.671875 12.859375 48.328125 
Q 20.21875 56 33.015625 56 
Q 37.15625 56 41.109375 55.140625 
Q 45.0625 54.296875 48.78125 52.59375 
z
" id="DejaVuSans-99"/>
     <path d="M 44.28125 53.078125 
L 44.28125 44.578125 
Q 40.484375 46.53125 36.375 47.5 
Q 32.28125 48.484375 27.875 48.484375 
Q 21.1875 48.484375 17.84375 46.4375 
Q 14.5 44.390625 14.5 40.28125 
Q 14.5 37.15625 16.890625 35.375 
Q 19.28125 33.59375 26.515625 31.984375 
L 29.59375 31.296875 
Q 39.15625 29.25 43.1875 25.515625 
Q 47.21875 21.78125 47.21875 15.09375 
Q 47.21875 7.46875 41.1875 3.015625 
Q 35.15625 -1.421875 24.609375 -1.421875 
Q 20.21875 -1.421875 15.453125 -0.5625 
Q 10.6875 0.296875 5.421875 2 
L 5.421875 11.28125 
Q 10.40625 8.6875 15.234375 7.390625 
Q 20.0625 6.109375 24.8125 6.109375 
Q 31.15625 6.109375 34.5625 8.28125 
Q 37.984375 10.453125 37.984375 14.40625 
Q 37.984375 18.0625 35.515625 20.015625 
Q 33.0625 21.96875 24.703125 23.78125 
L 21.578125 24.515625 
Q 13.234375 26.265625 9.515625 29.90625 
Q 5.8125 33.546875 5.8125 39.890625 
Q 5.8125 47.609375 11.28125 51.796875 
Q 16.75 56 26.8125 56 
Q 31.78125 56 36.171875 55.265625 
Q 40.578125 54.546875 44.28125 53.078125 
z
" id="DejaVuSans-115"/>
     <path d="M 9.078125 75.984375 
L 18.109375 75.984375 
L 18.109375 31.109375 
L 44.921875 54.6875 
L 56.390625 54.6875 
L 27.390625 29.109375 
L 57.625 0 
L 45.90625 0 
L 18.109375 26.703125 
L 18.109375 0 
L 9.078125 0 
z
" id="DejaVuSans-107"/>
     <path d="M 40.578125 39.3125 
Q 47.65625 37.796875 51.625 33 
Q 55.609375 28.21875 55.609375 21.1875 
Q 55.609375 10.40625 48.1875 4.484375 
Q 40.765625 -1.421875 27.09375 -1.421875 
Q 22.515625 -1.421875 17.65625 -0.515625 
Q 12.796875 0.390625 7.625 2.203125 
L 7.625 11.71875 
Q 11.71875 9.328125 16.59375 8.109375 
Q 21.484375 6.890625 26.8125 6.890625 
Q 36.078125 6.890625 40.9375 10.546875 
Q 45.796875 14.203125 45.796875 21.1875 
Q 45.796875 27.640625 41.28125 31.265625 
Q 36.765625 34.90625 28.71875 34.90625 
L 20.21875 34.90625 
L 20.21875 43.015625 
L 29.109375 43.015625 
Q 36.375 43.015625 40.234375 45.921875 
Q 44.09375 48.828125 44.09375 54.296875 
Q 44.09375 59.90625 40.109375 62.90625 
Q 36.140625 65.921875 28.71875 65.921875 
Q 24.65625 65.921875 20.015625 65.03125 
Q 15.375 64.15625 9.8125 62.3125 
L 9.8125 71.09375 
Q 15.4375 72.65625 20.34375 73.4375 
Q 25.25 74.21875 29.59375 74.21875 
Q 40.828125 74.21875 47.359375 69.109375 
Q 53.90625 64.015625 53.90625 55.328125 
Q 53.90625 49.265625 50.4375 45.09375 
Q 46.96875 40.921875 40.578125 39.3125 
z
" id="DejaVuSans-51"/>
     <path d="M 11.71875 12.40625 
L 22.015625 12.40625 
L 22.015625 4 
L 14.015625 -11.625 
L 7.71875 -11.625 
L 11.71875 4 
z
" id="DejaVuSans-44"/>
     <path d="M 4.890625 31.390625 
L 31.203125 31.390625 
L 31.203125 23.390625 
L 4.890625 23.390625 
z
" id="DejaVuSans-45"/>
     <path d="M 52 44.1875 
Q 55.375 50.25 60.0625 53.125 
Q 64.75 56 71.09375 56 
Q 79.640625 56 84.28125 50.015625 
Q 88.921875 44.046875 88.921875 33.015625 
L 88.921875 0 
L 79.890625 0 
L 79.890625 32.71875 
Q 79.890625 40.578125 77.09375 44.375 
Q 74.3125 48.1875 68.609375 48.1875 
Q 61.625 48.1875 57.5625 43.546875 
Q 53.515625 38.921875 53.515625 30.90625 
L 53.515625 0 
L 44.484375 0 
L 44.484375 32.71875 
Q 44.484375 40.625 41.703125 44.40625 
Q 38.921875 48.1875 33.109375 48.1875 
Q 26.21875 48.1875 22.15625 43.53125 
Q 18.109375 38.875 18.109375 30.90625 
L 18.109375 0 
L 9.078125 0 
L 9.078125 54.6875 
L 18.109375 54.6875 
L 18.109375 46.1875 
Q 21.1875 51.21875 25.484375 53.609375 
Q 29.78125 56 35.6875 56 
Q 41.65625 56 45.828125 52.96875 
Q 50 49.953125 52 44.1875 
z
" id="DejaVuSans-109"/>
     <path d="M 37.109375 75.984375 
L 37.109375 68.5 
L 28.515625 68.5 
Q 23.6875 68.5 21.796875 66.546875 
Q 19.921875 64.59375 19.921875 59.515625 
L 19.921875 54.6875 
L 34.71875 54.6875 
L 34.71875 47.703125 
L 19.921875 47.703125 
L 19.921875 0 
L 10.890625 0 
L 10.890625 47.703125 
L 2.296875 47.703125 
L 2.296875 54.6875 
L 10.890625 54.6875 
L 10.890625 58.5 
Q 10.890625 67.625 15.140625 71.796875 
Q 19.390625 75.984375 28.609375 75.984375 
z
" id="DejaVuSans-102"/>
    </defs>
    <g transform="translate(218.1 28.56)scale(0.12 -0.12)">
     <use transform="translate(0 0.015625)" xlink:href="#DejaVuSans-98"/>
     <use transform="translate(63.476562 0.015625)" xlink:href="#DejaVuSans-99"/>
     <use transform="translate(118.457031 0.015625)" xlink:href="#DejaVuSans-115"/>
     <use transform="translate(170.556641 0.015625)" xlink:href="#DejaVuSans-115"/>
     <use transform="translate(222.65625 0.015625)" xlink:href="#DejaVuSans-116"/>
     <use transform="translate(261.865234 0.015625)" xlink:href="#DejaVuSans-107"/>
     <use transform="translate(319.775391 0.015625)" xlink:href="#DejaVuSans-48"/>
     <use transform="translate(383.398438 0.015625)" xlink:href="#DejaVuSans-51"/>
     <use transform="translate(447.021484 0.015625)" xlink:href="#DejaVuSans-44"/>
     <use transform="translate(478.808594 0.015625)" xlink:href="#DejaVuSans-32"/>
     <use transform="translate(510.595703 0.015625)" xlink:href="#DejaVuSans-Oblique-65"/>
     <use transform="translate(579.003906 0.015625)" xlink:href="#DejaVuSans-45"/>
     <use transform="translate(615.087891 0.015625)" xlink:href="#DejaVuSans-110"/>
     <use transform="translate(678.466797 0.015625)" xlink:href="#DejaVuSans-111"/>
     <use transform="translate(739.648438 0.015625)" xlink:href="#DejaVuSans-114"/>
     <use transform="translate(780.761719 0.015625)" xlink:href="#DejaVuSans-109"/>
     <use transform="translate(878.173828 0.015625)" xlink:href="#DejaVuSans-32"/>
     <use transform="translate(909.960938 0.015625)" xlink:href="#DejaVuSans-111"/>
     <use transform="translate(971.142578 0.015625)" xlink:href="#DejaVuSans-102"/>
     <use transform="translate(1006.347656 0.015625)" xlink:href="#DejaVuSans-32"/>
     <use transform="translate(1038.134766 0.015625)" xlink:href="#DejaVuSans-101"/>
     <use transform="translate(1099.658203 0.015625)" xlink:href="#DejaVuSans-114"/>
     <use transform="translate(1140.771484 0.015625)" xlink:href="#DejaVuSans-114"/>
     <use transform="translate(1181.884766 0.015625)" xlink:href="#DejaVuSans-111"/>
     <use transform="translate(1243.066406 0.015625)" xlink:href="#DejaVuSans-114"/>
    </g>
   </g>
   <g id="legend_1">
    <g id="patch_7">
     <path d="M 434.935937 102.385 
L 511.4 102.385 
Q 513.4 102.385 513.4 100.385 
L 513.4 41.56 
Q 513.4 39.56 511.4 39.56 
L 434.935937 39.56 
Q 432.935937 39.56 432.935937 41.56 
L 432.935937 100.385 
Q 432.935937 102.385 434.935937 102.385 
z
" style="fill:#ffffff;opacity:0.8;stroke:#cccccc;stroke-linejoin:miter;"/>
    </g>
    <g id="line2d_20">
     <path d="M 436.935937 47.658437 
L 456.935937 47.658437 
" style="fill:none;stroke:#333333;stroke-linecap:square;stroke-width:1.5;"/>
    </g>
    <g id="line2d_21"/>
    <g id="text_19">
     <!-- exact_cg -->
     <defs>
      <path d="M 54.890625 54.6875 
L 35.109375 28.078125 
L 55.90625 0 
L 45.3125 0 
L 29.390625 21.484375 
L 13.484375 0 
L 2.875 0 
L 24.125 28.609375 
L 4.6875 54.6875 
L 15.28125 54.6875 
L 29.78125 35.203125 
L 44.28125 54.6875 
z
" id="DejaVuSans-120"/>
      <path d="M 50.984375 -16.609375 
L 50.984375 -23.578125 
L -0.984375 -23.578125 
L -0.984375 -16.609375 
z
" id="DejaVuSans-95"/>
      <path d="M 45.40625 27.984375 
Q 45.40625 37.75 41.375 43.109375 
Q 37.359375 48.484375 30.078125 48.484375 
Q 22.859375 48.484375 18.828125 43.109375 
Q 14.796875 37.75 14.796875 27.984375 
Q 14.796875 18.265625 18.828125 12.890625 
Q 22.859375 7.515625 30.078125 7.515625 
Q 37.359375 7.515625 41.375 12.890625 
Q 45.40625 18.265625 45.40625 27.984375 
z
M 54.390625 6.78125 
Q 54.390625 -7.171875 48.1875 -13.984375 
Q 42 -20.796875 29.203125 -20.796875 
Q 24.46875 -20.796875 20.265625 -20.09375 
Q 16.0625 -19.390625 12.109375 -17.921875 
L 12.109375 -9.1875 
Q 16.0625 -11.328125 19.921875 -12.34375 
Q 23.78125 -13.375 27.78125 -13.375 
Q 36.625 -13.375 41.015625 -8.765625 
Q 45.40625 -4.15625 45.40625 5.171875 
L 45.40625 9.625 
Q 42.625 4.78125 38.28125 2.390625 
Q 33.9375 0 27.875 0 
Q 17.828125 0 11.671875 7.65625 
Q 5.515625 15.328125 5.515625 27.984375 
Q 5.515625 40.671875 11.671875 48.328125 
Q 17.828125 56 27.875 56 
Q 33.9375 56 38.28125 53.609375 
Q 42.625 51.21875 45.40625 46.390625 
L 45.40625 54.6875 
L 54.390625 54.6875 
z
" id="DejaVuSans-103"/>
     </defs>
     <g transform="translate(464.935937 51.158437)scale(0.1 -0.1)">
      <use xlink:href="#DejaVuSans-101"/>
      <use x="61.507812" xlink:href="#DejaVuSans-120"/>
      <use x="120.6875" xlink:href="#DejaVuSans-97"/>
      <use x="181.966797" xlink:href="#DejaVuSans-99"/>
      <use x="236.947266" xlink:href="#DejaVuSans-116"/>
      <use x="276.15625" xlink:href="#DejaVuSans-95"/>
      <use x="326.15625" xlink:href="#DejaVuSans-99"/>
      <use x="381.136719" xlink:href="#DejaVuSans-103"/>
     </g>
    </g>
    <g id="line2d_22">
     <path d="M 436.935937 62.614688 
L 456.935937 62.614688 
" style="fill:none;stroke:#1f77b4;stroke-linecap:square;stroke-width:1.5;"/>
    </g>
    <g id="line2d_23"/>
    <g id="text_20">
     <!-- hs_cg -->
     <defs>
      <path d="M 54.890625 33.015625 
L 54.890625 0 
L 45.90625 0 
L 45.90625 32.71875 
Q 45.90625 40.484375 42.875 44.328125 
Q 39.84375 48.1875 33.796875 48.1875 
Q 26.515625 48.1875 22.3125 43.546875 
Q 18.109375 38.921875 18.109375 30.90625 
L 18.109375 0 
L 9.078125 0 
L 9.078125 75.984375 
L 18.109375 75.984375 
L 18.109375 46.1875 
Q 21.34375 51.125 25.703125 53.5625 
Q 30.078125 56 35.796875 56 
Q 45.21875 56 50.046875 50.171875 
Q 54.890625 44.34375 54.890625 33.015625 
z
" id="DejaVuSans-104"/>
     </defs>
     <g transform="translate(464.935937 66.114688)scale(0.1 -0.1)">
      <use xlink:href="#DejaVuSans-104"/>
      <use x="63.378906" xlink:href="#DejaVuSans-115"/>
      <use x="115.478516" xlink:href="#DejaVuSans-95"/>
      <use x="165.478516" xlink:href="#DejaVuSans-99"/>
      <use x="220.458984" xlink:href="#DejaVuSans-103"/>
     </g>
    </g>
    <g id="line2d_24">
     <path d="M 436.935937 77.570937 
L 456.935937 77.570937 
" style="fill:none;stroke:#ff7f0e;stroke-linecap:square;stroke-width:1.5;"/>
    </g>
    <g id="line2d_25"/>
    <g id="text_21">
     <!-- cg_cg -->
     <g transform="translate(464.935937 81.070937)scale(0.1 -0.1)">
      <use xlink:href="#DejaVuSans-99"/>
      <use x="54.980469" xlink:href="#DejaVuSans-103"/>
      <use x="118.457031" xlink:href="#DejaVuSans-95"/>
      <use x="168.457031" xlink:href="#DejaVuSans-99"/>
      <use x="223.4375" xlink:href="#DejaVuSans-103"/>
     </g>
    </g>
    <g id="line2d_26">
     <path d="M 436.935937 92.527187 
L 456.935937 92.527187 
" style="fill:none;stroke:#2ca02c;stroke-linecap:square;stroke-width:1.5;"/>
    </g>
    <g id="line2d_27"/>
    <g id="text_22">
     <!-- gv_cg -->
     <defs>
      <path d="M 2.984375 54.6875 
L 12.5 54.6875 
L 29.59375 8.796875 
L 46.6875 54.6875 
L 56.203125 54.6875 
L 35.6875 0 
L 23.484375 0 
z
" id="DejaVuSans-118"/>
     </defs>
     <g transform="translate(464.935937 96.027187)scale(0.1 -0.1)">
      <use xlink:href="#DejaVuSans-103"/>
      <use x="63.476562" xlink:href="#DejaVuSans-118"/>
      <use x="122.65625" xlink:href="#DejaVuSans-95"/>
      <use x="172.65625" xlink:href="#DejaVuSans-99"/>
      <use x="227.636719" xlink:href="#DejaVuSans-103"/>
     </g>
    </g>
   </g>
  </g>
 </g>
 <defs>
  <clipPath id="p132891846c">
   <rect height="217.44" width="446.4" x="72" y="34.56"/>
  </clipPath>
 </defs>
</svg>
