<?xml version="1.0" encoding="utf-8" standalone="no"?>
<!DOCTYPE svg PUBLIC "-//W3C//DTD SVG 1.1//EN"
  "http://www.w3.org/Graphics/SVG/1.1/DTD/svg11.dtd">
<!-- Created with matplotlib (https://matplotlib.org/) -->
<svg height="288pt" version="1.1" viewBox="0 0 576 288" width="576pt" xmlns="http://www.w3.org/2000/svg" xmlns:xlink="http://www.w3.org/1999/xlink">
 <defs>
  <style type="text/css">
*{stroke-linecap:butt;stroke-linejoin:round;}
  </style>
 </defs>
 <g id="figure_1">
  <g id="patch_1">
   <path d="M 0 288 
L 576 288 
L 576 0 
L 0 0 
z
" style="fill:#ffffff;"/>
  </g>
  <g id="axes_1">
   <g id="patch_2">
    <path d="M 72 252 
L 518.4 252 
L 518.4 34.56 
L 72 34.56 
z
" style="fill:#ffffff;"/>
   </g>
   <g id="matplotlib.axis_1">
    <g id="xtick_1">
     <g id="line2d_1">
      <defs>
       <path d="M 0 0 
L 0 3.5 
" id="m5862f2a049" style="stroke:#000000;stroke-width:0.8;"/>
      </defs>
      <g>
       <use style="stroke:#000000;stroke-width:0.8;" x="92.290909" xlink:href="#m5862f2a049" y="252"/>
      </g>
     </g>
     <g id="text_1">
      <!-- 0 -->
      <defs>
       <path d="M 31.78125 66.40625 
Q 24.171875 66.40625 20.328125 58.90625 
Q 16.5 51.421875 16.5 36.375 
Q 16.5 21.390625 20.328125 13.890625 
Q 24.171875 6.390625 31.78125 6.390625 
Q 39.453125 6.390625 43.28125 13.890625 
Q 47.125 21.390625 47.125 36.375 
Q 47.125 51.421875 43.28125 58.90625 
Q 39.453125 66.40625 31.78125 66.40625 
z
M 31.78125 74.21875 
Q 44.046875 74.21875 50.515625 64.515625 
Q 56.984375 54.828125 56.984375 36.375 
Q 56.984375 17.96875 50.515625 8.265625 
Q 44.046875 -1.421875 31.78125 -1.421875 
Q 19.53125 -1.421875 13.0625 8.265625 
Q 6.59375 17.96875 6.59375 36.375 
Q 6.59375 54.828125 13.0625 64.515625 
Q 19.53125 74.21875 31.78125 74.21875 
z
" id="DejaVuSans-48"/>
      </defs>
      <g transform="translate(89.109659 266.598437)scale(0.1 -0.1)">
       <use xlink:href="#DejaVuSans-48"/>
      </g>
     </g>
    </g>
    <g id="xtick_2">
     <g id="line2d_2">
      <g>
       <use style="stroke:#000000;stroke-width:0.8;" x="160.495646" xlink:href="#m5862f2a049" y="252"/>
      </g>
     </g>
     <g id="text_2">
      <!-- 20 -->
      <defs>
       <path d="M 19.1875 8.296875 
L 53.609375 8.296875 
L 53.609375 0 
L 7.328125 0 
L 7.328125 8.296875 
Q 12.9375 14.109375 22.625 23.890625 
Q 32.328125 33.6875 34.8125 36.53125 
Q 39.546875 41.84375 41.421875 45.53125 
Q 43.3125 49.21875 43.3125 52.78125 
Q 43.3125 58.59375 39.234375 62.25 
Q 35.15625 65.921875 28.609375 65.921875 
Q 23.96875 65.921875 18.8125 64.3125 
Q 13.671875 62.703125 7.8125 59.421875 
L 7.8125 69.390625 
Q 13.765625 71.78125 18.9375 73 
Q 24.125 74.21875 28.421875 74.21875 
Q 39.75 74.21875 46.484375 68.546875 
Q 53.21875 62.890625 53.21875 53.421875 
Q 53.21875 48.921875 51.53125 44.890625 
Q 49.859375 40.875 45.40625 35.40625 
Q 44.1875 33.984375 37.640625 27.21875 
Q 31.109375 20.453125 19.1875 8.296875 
z
" id="DejaVuSans-50"/>
      </defs>
      <g transform="translate(154.133146 266.598437)scale(0.1 -0.1)">
       <use xlink:href="#DejaVuSans-50"/>
       <use x="63.623047" xlink:href="#DejaVuSans-48"/>
      </g>
     </g>
    </g>
    <g id="xtick_3">
     <g id="line2d_3">
      <g>
       <use style="stroke:#000000;stroke-width:0.8;" x="228.700382" xlink:href="#m5862f2a049" y="252"/>
      </g>
     </g>
     <g id="text_3">
      <!-- 40 -->
      <defs>
       <path d="M 37.796875 64.3125 
L 12.890625 25.390625 
L 37.796875 25.390625 
z
M 35.203125 72.90625 
L 47.609375 72.90625 
L 47.609375 25.390625 
L 58.015625 25.390625 
L 58.015625 17.1875 
L 47.609375 17.1875 
L 47.609375 0 
L 37.796875 0 
L 37.796875 17.1875 
L 4.890625 17.1875 
L 4.890625 26.703125 
z
" id="DejaVuSans-52"/>
      </defs>
      <g transform="translate(222.337882 266.598437)scale(0.1 -0.1)">
       <use xlink:href="#DejaVuSans-52"/>
       <use x="63.623047" xlink:href="#DejaVuSans-48"/>
      </g>
     </g>
    </g>
    <g id="xtick_4">
     <g id="line2d_4">
      <g>
       <use style="stroke:#000000;stroke-width:0.8;" x="296.905118" xlink:href="#m5862f2a049" y="252"/>
      </g>
     </g>
     <g id="text_4">
      <!-- 60 -->
      <defs>
       <path d="M 33.015625 40.375 
Q 26.375 40.375 22.484375 35.828125 
Q 18.609375 31.296875 18.609375 23.390625 
Q 18.609375 15.53125 22.484375 10.953125 
Q 26.375 6.390625 33.015625 6.390625 
Q 39.65625 6.390625 43.53125 10.953125 
Q 47.40625 15.53125 47.40625 23.390625 
Q 47.40625 31.296875 43.53125 35.828125 
Q 39.65625 40.375 33.015625 40.375 
z
M 52.59375 71.296875 
L 52.59375 62.3125 
Q 48.875 64.0625 45.09375 64.984375 
Q 41.3125 65.921875 37.59375 65.921875 
Q 27.828125 65.921875 22.671875 59.328125 
Q 17.53125 52.734375 16.796875 39.40625 
Q 19.671875 43.65625 24.015625 45.921875 
Q 28.375 48.1875 33.59375 48.1875 
Q 44.578125 48.1875 50.953125 41.515625 
Q 57.328125 34.859375 57.328125 23.390625 
Q 57.328125 12.15625 50.6875 5.359375 
Q 44.046875 -1.421875 33.015625 -1.421875 
Q 20.359375 -1.421875 13.671875 8.265625 
Q 6.984375 17.96875 6.984375 36.375 
Q 6.984375 53.65625 15.1875 63.9375 
Q 23.390625 74.21875 37.203125 74.21875 
Q 40.921875 74.21875 44.703125 73.484375 
Q 48.484375 72.75 52.59375 71.296875 
z
" id="DejaVuSans-54"/>
      </defs>
      <g transform="translate(290.542618 266.598437)scale(0.1 -0.1)">
       <use xlink:href="#DejaVuSans-54"/>
       <use x="63.623047" xlink:href="#DejaVuSans-48"/>
      </g>
     </g>
    </g>
    <g id="xtick_5">
     <g id="line2d_5">
      <g>
       <use style="stroke:#000000;stroke-width:0.8;" x="365.109855" xlink:href="#m5862f2a049" y="252"/>
      </g>
     </g>
     <g id="text_5">
      <!-- 80 -->
      <defs>
       <path d="M 31.78125 34.625 
Q 24.75 34.625 20.71875 30.859375 
Q 16.703125 27.09375 16.703125 20.515625 
Q 16.703125 13.921875 20.71875 10.15625 
Q 24.75 6.390625 31.78125 6.390625 
Q 38.8125 6.390625 42.859375 10.171875 
Q 46.921875 13.96875 46.921875 20.515625 
Q 46.921875 27.09375 42.890625 30.859375 
Q 38.875 34.625 31.78125 34.625 
z
M 21.921875 38.8125 
Q 15.578125 40.375 12.03125 44.71875 
Q 8.5 49.078125 8.5 55.328125 
Q 8.5 64.0625 14.71875 69.140625 
Q 20.953125 74.21875 31.78125 74.21875 
Q 42.671875 74.21875 48.875 69.140625 
Q 55.078125 64.0625 55.078125 55.328125 
Q 55.078125 49.078125 51.53125 44.71875 
Q 48 40.375 41.703125 38.8125 
Q 48.828125 37.15625 52.796875 32.3125 
Q 56.78125 27.484375 56.78125 20.515625 
Q 56.78125 9.90625 50.3125 4.234375 
Q 43.84375 -1.421875 31.78125 -1.421875 
Q 19.734375 -1.421875 13.25 4.234375 
Q 6.78125 9.90625 6.78125 20.515625 
Q 6.78125 27.484375 10.78125 32.3125 
Q 14.796875 37.15625 21.921875 38.8125 
z
M 18.3125 54.390625 
Q 18.3125 48.734375 21.84375 45.5625 
Q 25.390625 42.390625 31.78125 42.390625 
Q 38.140625 42.390625 41.71875 45.5625 
Q 45.3125 48.734375 45.3125 54.390625 
Q 45.3125 60.0625 41.71875 63.234375 
Q 38.140625 66.40625 31.78125 66.40625 
Q 25.390625 66.40625 21.84375 63.234375 
Q 18.3125 60.0625 18.3125 54.390625 
z
" id="DejaVuSans-56"/>
      </defs>
      <g transform="translate(358.747355 266.598437)scale(0.1 -0.1)">
       <use xlink:href="#DejaVuSans-56"/>
       <use x="63.623047" xlink:href="#DejaVuSans-48"/>
      </g>
     </g>
    </g>
    <g id="xtick_6">
     <g id="line2d_6">
      <g>
       <use style="stroke:#000000;stroke-width:0.8;" x="433.314591" xlink:href="#m5862f2a049" y="252"/>
      </g>
     </g>
     <g id="text_6">
      <!-- 100 -->
      <defs>
       <path d="M 12.40625 8.296875 
L 28.515625 8.296875 
L 28.515625 63.921875 
L 10.984375 60.40625 
L 10.984375 69.390625 
L 28.421875 72.90625 
L 38.28125 72.90625 
L 38.28125 8.296875 
L 54.390625 8.296875 
L 54.390625 0 
L 12.40625 0 
z
" id="DejaVuSans-49"/>
      </defs>
      <g transform="translate(423.770841 266.598437)scale(0.1 -0.1)">
       <use xlink:href="#DejaVuSans-49"/>
       <use x="63.623047" xlink:href="#DejaVuSans-48"/>
       <use x="127.246094" xlink:href="#DejaVuSans-48"/>
      </g>
     </g>
    </g>
    <g id="xtick_7">
     <g id="line2d_7">
      <g>
       <use style="stroke:#000000;stroke-width:0.8;" x="501.519328" xlink:href="#m5862f2a049" y="252"/>
      </g>
     </g>
     <g id="text_7">
      <!-- 120 -->
      <g transform="translate(491.975578 266.598437)scale(0.1 -0.1)">
       <use xlink:href="#DejaVuSans-49"/>
       <use x="63.623047" xlink:href="#DejaVuSans-50"/>
       <use x="127.246094" xlink:href="#DejaVuSans-48"/>
      </g>
     </g>
    </g>
    <g id="text_8">
     <!-- iteration $j$ -->
     <defs>
      <path d="M 9.421875 54.6875 
L 18.40625 54.6875 
L 18.40625 0 
L 9.421875 0 
z
M 9.421875 75.984375 
L 18.40625 75.984375 
L 18.40625 64.59375 
L 9.421875 64.59375 
z
" id="DejaVuSans-105"/>
      <path d="M 18.3125 70.21875 
L 18.3125 54.6875 
L 36.8125 54.6875 
L 36.8125 47.703125 
L 18.3125 47.703125 
L 18.3125 18.015625 
Q 18.3125 11.328125 20.140625 9.421875 
Q 21.96875 7.515625 27.59375 7.515625 
L 36.8125 7.515625 
L 36.8125 0 
L 27.59375 0 
Q 17.1875 0 13.234375 3.875 
Q 9.28125 7.765625 9.28125 18.015625 
L 9.28125 47.703125 
L 2.6875 47.703125 
L 2.6875 54.6875 
L 9.28125 54.6875 
L 9.28125 70.21875 
z
" id="DejaVuSans-116"/>
      <path d="M 56.203125 29.59375 
L 56.203125 25.203125 
L 14.890625 25.203125 
Q 15.484375 15.921875 20.484375 11.0625 
Q 25.484375 6.203125 34.421875 6.203125 
Q 39.59375 6.203125 44.453125 7.46875 
Q 49.3125 8.734375 54.109375 11.28125 
L 54.109375 2.78125 
Q 49.265625 0.734375 44.1875 -0.34375 
Q 39.109375 -1.421875 33.890625 -1.421875 
Q 20.796875 -1.421875 13.15625 6.1875 
Q 5.515625 13.8125 5.515625 26.8125 
Q 5.515625 40.234375 12.765625 48.109375 
Q 20.015625 56 32.328125 56 
Q 43.359375 56 49.78125 48.890625 
Q 56.203125 41.796875 56.203125 29.59375 
z
M 47.21875 32.234375 
Q 47.125 39.59375 43.09375 43.984375 
Q 39.0625 48.390625 32.421875 48.390625 
Q 24.90625 48.390625 20.390625 44.140625 
Q 15.875 39.890625 15.1875 32.171875 
z
" id="DejaVuSans-101"/>
      <path d="M 41.109375 46.296875 
Q 39.59375 47.171875 37.8125 47.578125 
Q 36.03125 48 33.890625 48 
Q 26.265625 48 22.1875 43.046875 
Q 18.109375 38.09375 18.109375 28.8125 
L 18.109375 0 
L 9.078125 0 
L 9.078125 54.6875 
L 18.109375 54.6875 
L 18.109375 46.1875 
Q 20.953125 51.171875 25.484375 53.578125 
Q 30.03125 56 36.53125 56 
Q 37.453125 56 38.578125 55.875 
Q 39.703125 55.765625 41.0625 55.515625 
z
" id="DejaVuSans-114"/>
      <path d="M 34.28125 27.484375 
Q 23.390625 27.484375 19.1875 25 
Q 14.984375 22.515625 14.984375 16.5 
Q 14.984375 11.71875 18.140625 8.90625 
Q 21.296875 6.109375 26.703125 6.109375 
Q 34.1875 6.109375 38.703125 11.40625 
Q 43.21875 16.703125 43.21875 25.484375 
L 43.21875 27.484375 
z
M 52.203125 31.203125 
L 52.203125 0 
L 43.21875 0 
L 43.21875 8.296875 
Q 40.140625 3.328125 35.546875 0.953125 
Q 30.953125 -1.421875 24.3125 -1.421875 
Q 15.921875 -1.421875 10.953125 3.296875 
Q 6 8.015625 6 15.921875 
Q 6 25.140625 12.171875 29.828125 
Q 18.359375 34.515625 30.609375 34.515625 
L 43.21875 34.515625 
L 43.21875 35.40625 
Q 43.21875 41.609375 39.140625 45 
Q 35.0625 48.390625 27.6875 48.390625 
Q 23 48.390625 18.546875 47.265625 
Q 14.109375 46.140625 10.015625 43.890625 
L 10.015625 52.203125 
Q 14.9375 54.109375 19.578125 55.046875 
Q 24.21875 56 28.609375 56 
Q 40.484375 56 46.34375 49.84375 
Q 52.203125 43.703125 52.203125 31.203125 
z
" id="DejaVuSans-97"/>
      <path d="M 30.609375 48.390625 
Q 23.390625 48.390625 19.1875 42.75 
Q 14.984375 37.109375 14.984375 27.296875 
Q 14.984375 17.484375 19.15625 11.84375 
Q 23.34375 6.203125 30.609375 6.203125 
Q 37.796875 6.203125 41.984375 11.859375 
Q 46.1875 17.53125 46.1875 27.296875 
Q 46.1875 37.015625 41.984375 42.703125 
Q 37.796875 48.390625 30.609375 48.390625 
z
M 30.609375 56 
Q 42.328125 56 49.015625 48.375 
Q 55.71875 40.765625 55.71875 27.296875 
Q 55.71875 13.875 49.015625 6.21875 
Q 42.328125 -1.421875 30.609375 -1.421875 
Q 18.84375 -1.421875 12.171875 6.21875 
Q 5.515625 13.875 5.515625 27.296875 
Q 5.515625 40.765625 12.171875 48.375 
Q 18.84375 56 30.609375 56 
z
" id="DejaVuSans-111"/>
      <path d="M 54.890625 33.015625 
L 54.890625 0 
L 45.90625 0 
L 45.90625 32.71875 
Q 45.90625 40.484375 42.875 44.328125 
Q 39.84375 48.1875 33.796875 48.1875 
Q 26.515625 48.1875 22.3125 43.546875 
Q 18.109375 38.921875 18.109375 30.90625 
L 18.109375 0 
L 9.078125 0 
L 9.078125 54.6875 
L 18.109375 54.6875 
L 18.109375 46.1875 
Q 21.34375 51.125 25.703125 53.5625 
Q 30.078125 56 35.796875 56 
Q 45.21875 56 50.046875 50.171875 
Q 54.890625 44.34375 54.890625 33.015625 
z
" id="DejaVuSans-110"/>
      <path id="DejaVuSans-32"/>
      <path d="M 14.5 54.6875 
L 23.484375 54.6875 
L 12.703125 -0.984375 
L 12.640625 -1.21875 
Q 10.84375 -10.546875 8.5 -14.015625 
Q 6.296875 -17.28125 2.0625 -19.03125 
Q -2.15625 -20.796875 -7.90625 -20.796875 
L -11.28125 -20.796875 
L -9.8125 -13.1875 
L -7.515625 -13.1875 
Q -2.25 -13.1875 -0.015625 -10.984375 
Q 2.203125 -8.796875 3.71875 -0.984375 
z
M 18.703125 75.984375 
L 27.6875 75.984375 
L 25.484375 64.59375 
L 16.5 64.59375 
z
" id="DejaVuSans-Oblique-106"/>
     </defs>
     <g transform="translate(271.05 280.278125)scale(0.1 -0.1)">
      <use transform="translate(0 0.015625)" xlink:href="#DejaVuSans-105"/>
      <use transform="translate(27.783203 0.015625)" xlink:href="#DejaVuSans-116"/>
      <use transform="translate(66.992188 0.015625)" xlink:href="#DejaVuSans-101"/>
      <use transform="translate(128.515625 0.015625)" xlink:href="#DejaVuSans-114"/>
      <use transform="translate(169.628906 0.015625)" xlink:href="#DejaVuSans-97"/>
      <use transform="translate(230.908203 0.015625)" xlink:href="#DejaVuSans-116"/>
      <use transform="translate(270.117188 0.015625)" xlink:href="#DejaVuSans-105"/>
      <use transform="translate(297.900391 0.015625)" xlink:href="#DejaVuSans-111"/>
      <use transform="translate(359.082031 0.015625)" xlink:href="#DejaVuSans-110"/>
      <use transform="translate(422.460938 0.015625)" xlink:href="#DejaVuSans-32"/>
      <use transform="translate(454.248047 0.015625)" xlink:href="#DejaVuSans-Oblique-106"/>
     </g>
    </g>
   </g>
   <g id="matplotlib.axis_2">
    <g id="ytick_1">
     <g id="line2d_8">
      <defs>
       <path d="M 0 0 
L -3.5 0 
" id="m67f256ed48" style="stroke:#000000;stroke-width:0.8;"/>
      </defs>
      <g>
       <use style="stroke:#000000;stroke-width:0.8;" x="72" xlink:href="#m67f256ed48" y="252"/>
      </g>
     </g>
     <g id="text_9">
      <!-- $\mathdefault{10^{-15}}$ -->
      <defs>
       <path d="M 10.59375 35.5 
L 73.1875 35.5 
L 73.1875 27.203125 
L 10.59375 27.203125 
z
" id="DejaVuSans-8722"/>
       <path d="M 10.796875 72.90625 
L 49.515625 72.90625 
L 49.515625 64.59375 
L 19.828125 64.59375 
L 19.828125 46.734375 
Q 21.96875 47.46875 24.109375 47.828125 
Q 26.265625 48.1875 28.421875 48.1875 
Q 40.625 48.1875 47.75 41.5 
Q 54.890625 34.8125 54.890625 23.390625 
Q 54.890625 11.625 47.5625 5.09375 
Q 40.234375 -1.421875 26.90625 -1.421875 
Q 22.3125 -1.421875 17.546875 -0.640625 
Q 12.796875 0.140625 7.71875 1.703125 
L 7.71875 11.625 
Q 12.109375 9.234375 16.796875 8.0625 
Q 21.484375 6.890625 26.703125 6.890625 
Q 35.15625 6.890625 40.078125 11.328125 
Q 45.015625 15.765625 45.015625 23.390625 
Q 45.015625 31 40.078125 35.4375 
Q 35.15625 39.890625 26.703125 39.890625 
Q 22.75 39.890625 18.8125 39.015625 
Q 14.890625 38.140625 10.796875 36.28125 
z
" id="DejaVuSans-53"/>
      </defs>
      <g transform="translate(37.1 255.799219)scale(0.1 -0.1)">
       <use transform="translate(0 0.684375)" xlink:href="#DejaVuSans-49"/>
       <use transform="translate(63.623047 0.684375)" xlink:href="#DejaVuSans-48"/>
       <use transform="translate(128.203125 38.965625)scale(0.7)" xlink:href="#DejaVuSans-8722"/>
       <use transform="translate(186.855469 38.965625)scale(0.7)" xlink:href="#DejaVuSans-49"/>
       <use transform="translate(231.391602 38.965625)scale(0.7)" xlink:href="#DejaVuSans-53"/>
      </g>
     </g>
    </g>
    <g id="ytick_2">
     <g id="line2d_9">
      <g>
       <use style="stroke:#000000;stroke-width:0.8;" x="72" xlink:href="#m67f256ed48" y="223.578384"/>
      </g>
     </g>
     <g id="text_10">
      <!-- $\mathdefault{10^{-13}}$ -->
      <defs>
       <path d="M 40.578125 39.3125 
Q 47.65625 37.796875 51.625 33 
Q 55.609375 28.21875 55.609375 21.1875 
Q 55.609375 10.40625 48.1875 4.484375 
Q 40.765625 -1.421875 27.09375 -1.421875 
Q 22.515625 -1.421875 17.65625 -0.515625 
Q 12.796875 0.390625 7.625 2.203125 
L 7.625 11.71875 
Q 11.71875 9.328125 16.59375 8.109375 
Q 21.484375 6.890625 26.8125 6.890625 
Q 36.078125 6.890625 40.9375 10.546875 
Q 45.796875 14.203125 45.796875 21.1875 
Q 45.796875 27.640625 41.28125 31.265625 
Q 36.765625 34.90625 28.71875 34.90625 
L 20.21875 34.90625 
L 20.21875 43.015625 
L 29.109375 43.015625 
Q 36.375 43.015625 40.234375 45.921875 
Q 44.09375 48.828125 44.09375 54.296875 
Q 44.09375 59.90625 40.109375 62.90625 
Q 36.140625 65.921875 28.71875 65.921875 
Q 24.65625 65.921875 20.015625 65.03125 
Q 15.375 64.15625 9.8125 62.3125 
L 9.8125 71.09375 
Q 15.4375 72.65625 20.34375 73.4375 
Q 25.25 74.21875 29.59375 74.21875 
Q 40.828125 74.21875 47.359375 69.109375 
Q 53.90625 64.015625 53.90625 55.328125 
Q 53.90625 49.265625 50.4375 45.09375 
Q 46.96875 40.921875 40.578125 39.3125 
z
" id="DejaVuSans-51"/>
      </defs>
      <g transform="translate(37.1 227.377603)scale(0.1 -0.1)">
       <use transform="translate(0 0.765625)" xlink:href="#DejaVuSans-49"/>
       <use transform="translate(63.623047 0.765625)" xlink:href="#DejaVuSans-48"/>
       <use transform="translate(128.203125 39.046875)scale(0.7)" xlink:href="#DejaVuSans-8722"/>
       <use transform="translate(186.855469 39.046875)scale(0.7)" xlink:href="#DejaVuSans-49"/>
       <use transform="translate(231.391602 39.046875)scale(0.7)" xlink:href="#DejaVuSans-51"/>
      </g>
     </g>
    </g>
    <g id="ytick_3">
     <g id="line2d_10">
      <g>
       <use style="stroke:#000000;stroke-width:0.8;" x="72" xlink:href="#m67f256ed48" y="195.156768"/>
      </g>
     </g>
     <g id="text_11">
      <!-- $\mathdefault{10^{-11}}$ -->
      <g transform="translate(37.1 198.955987)scale(0.1 -0.1)">
       <use transform="translate(0 0.684375)" xlink:href="#DejaVuSans-49"/>
       <use transform="translate(63.623047 0.684375)" xlink:href="#DejaVuSans-48"/>
       <use transform="translate(128.203125 38.965625)scale(0.7)" xlink:href="#DejaVuSans-8722"/>
       <use transform="translate(186.855469 38.965625)scale(0.7)" xlink:href="#DejaVuSans-49"/>
       <use transform="translate(231.391602 38.965625)scale(0.7)" xlink:href="#DejaVuSans-49"/>
      </g>
     </g>
    </g>
    <g id="ytick_4">
     <g id="line2d_11">
      <g>
       <use style="stroke:#000000;stroke-width:0.8;" x="72" xlink:href="#m67f256ed48" y="166.735152"/>
      </g>
     </g>
     <g id="text_12">
      <!-- $\mathdefault{10^{-9}}$ -->
      <defs>
       <path d="M 10.984375 1.515625 
L 10.984375 10.5 
Q 14.703125 8.734375 18.5 7.8125 
Q 22.3125 6.890625 25.984375 6.890625 
Q 35.75 6.890625 40.890625 13.453125 
Q 46.046875 20.015625 46.78125 33.40625 
Q 43.953125 29.203125 39.59375 26.953125 
Q 35.25 24.703125 29.984375 24.703125 
Q 19.046875 24.703125 12.671875 31.3125 
Q 6.296875 37.9375 6.296875 49.421875 
Q 6.296875 60.640625 12.9375 67.421875 
Q 19.578125 74.21875 30.609375 74.21875 
Q 43.265625 74.21875 49.921875 64.515625 
Q 56.59375 54.828125 56.59375 36.375 
Q 56.59375 19.140625 48.40625 8.859375 
Q 40.234375 -1.421875 26.421875 -1.421875 
Q 22.703125 -1.421875 18.890625 -0.6875 
Q 15.09375 0.046875 10.984375 1.515625 
z
M 30.609375 32.421875 
Q 37.25 32.421875 41.125 36.953125 
Q 45.015625 41.5 45.015625 49.421875 
Q 45.015625 57.28125 41.125 61.84375 
Q 37.25 66.40625 30.609375 66.40625 
Q 23.96875 66.40625 20.09375 61.84375 
Q 16.21875 57.28125 16.21875 49.421875 
Q 16.21875 41.5 20.09375 36.953125 
Q 23.96875 32.421875 30.609375 32.421875 
z
" id="DejaVuSans-57"/>
      </defs>
      <g transform="translate(41.5 170.534371)scale(0.1 -0.1)">
       <use transform="translate(0 0.765625)" xlink:href="#DejaVuSans-49"/>
       <use transform="translate(63.623047 0.765625)" xlink:href="#DejaVuSans-48"/>
       <use transform="translate(128.203125 39.046875)scale(0.7)" xlink:href="#DejaVuSans-8722"/>
       <use transform="translate(186.855469 39.046875)scale(0.7)" xlink:href="#DejaVuSans-57"/>
      </g>
     </g>
    </g>
    <g id="ytick_5">
     <g id="line2d_12">
      <g>
       <use style="stroke:#000000;stroke-width:0.8;" x="72" xlink:href="#m67f256ed48" y="138.313536"/>
      </g>
     </g>
     <g id="text_13">
      <!-- $\mathdefault{10^{-7}}$ -->
      <defs>
       <path d="M 8.203125 72.90625 
L 55.078125 72.90625 
L 55.078125 68.703125 
L 28.609375 0 
L 18.3125 0 
L 43.21875 64.59375 
L 8.203125 64.59375 
z
" id="DejaVuSans-55"/>
      </defs>
      <g transform="translate(41.5 142.112754)scale(0.1 -0.1)">
       <use transform="translate(0 0.684375)" xlink:href="#DejaVuSans-49"/>
       <use transform="translate(63.623047 0.684375)" xlink:href="#DejaVuSans-48"/>
       <use transform="translate(128.203125 38.965625)scale(0.7)" xlink:href="#DejaVuSans-8722"/>
       <use transform="translate(186.855469 38.965625)scale(0.7)" xlink:href="#DejaVuSans-55"/>
      </g>
     </g>
    </g>
    <g id="ytick_6">
     <g id="line2d_13">
      <g>
       <use style="stroke:#000000;stroke-width:0.8;" x="72" xlink:href="#m67f256ed48" y="109.89192"/>
      </g>
     </g>
     <g id="text_14">
      <!-- $\mathdefault{10^{-5}}$ -->
      <g transform="translate(41.5 113.691138)scale(0.1 -0.1)">
       <use transform="translate(0 0.684375)" xlink:href="#DejaVuSans-49"/>
       <use transform="translate(63.623047 0.684375)" xlink:href="#DejaVuSans-48"/>
       <use transform="translate(128.203125 38.965625)scale(0.7)" xlink:href="#DejaVuSans-8722"/>
       <use transform="translate(186.855469 38.965625)scale(0.7)" xlink:href="#DejaVuSans-53"/>
      </g>
     </g>
    </g>
    <g id="ytick_7">
     <g id="line2d_14">
      <g>
       <use style="stroke:#000000;stroke-width:0.8;" x="72" xlink:href="#m67f256ed48" y="81.470304"/>
      </g>
     </g>
     <g id="text_15">
      <!-- $\mathdefault{10^{-3}}$ -->
      <g transform="translate(41.5 85.269522)scale(0.1 -0.1)">
       <use transform="translate(0 0.765625)" xlink:href="#DejaVuSans-49"/>
       <use transform="translate(63.623047 0.765625)" xlink:href="#DejaVuSans-48"/>
       <use transform="translate(128.203125 39.046875)scale(0.7)" xlink:href="#DejaVuSans-8722"/>
       <use transform="translate(186.855469 39.046875)scale(0.7)" xlink:href="#DejaVuSans-51"/>
      </g>
     </g>
    </g>
    <g id="ytick_8">
     <g id="line2d_15">
      <g>
       <use style="stroke:#000000;stroke-width:0.8;" x="72" xlink:href="#m67f256ed48" y="53.048688"/>
      </g>
     </g>
     <g id="text_16">
      <!-- $\mathdefault{10^{-1}}$ -->
      <g transform="translate(41.5 56.847906)scale(0.1 -0.1)">
       <use transform="translate(0 0.684375)" xlink:href="#DejaVuSans-49"/>
       <use transform="translate(63.623047 0.684375)" xlink:href="#DejaVuSans-48"/>
       <use transform="translate(128.203125 38.965625)scale(0.7)" xlink:href="#DejaVuSans-8722"/>
       <use transform="translate(186.855469 38.965625)scale(0.7)" xlink:href="#DejaVuSans-49"/>
      </g>
     </g>
    </g>
    <g id="text_17">
     <!-- $A$-norm of error -->
     <defs>
      <path d="M 36.8125 72.90625 
L 48 72.90625 
L 61.53125 0 
L 51.21875 0 
L 48.1875 18.703125 
L 15.375 18.703125 
L 5.078125 0 
L -5.328125 0 
z
M 40.375 63.1875 
L 19.921875 26.90625 
L 46.6875 26.90625 
z
" id="DejaVuSans-Oblique-65"/>
      <path d="M 4.890625 31.390625 
L 31.203125 31.390625 
L 31.203125 23.390625 
L 4.890625 23.390625 
z
" id="DejaVuSans-45"/>
      <path d="M 52 44.1875 
Q 55.375 50.25 60.0625 53.125 
Q 64.75 56 71.09375 56 
Q 79.640625 56 84.28125 50.015625 
Q 88.921875 44.046875 88.921875 33.015625 
L 88.921875 0 
L 79.890625 0 
L 79.890625 32.71875 
Q 79.890625 40.578125 77.09375 44.375 
Q 74.3125 48.1875 68.609375 48.1875 
Q 61.625 48.1875 57.5625 43.546875 
Q 53.515625 38.921875 53.515625 30.90625 
L 53.515625 0 
L 44.484375 0 
L 44.484375 32.71875 
Q 44.484375 40.625 41.703125 44.40625 
Q 38.921875 48.1875 33.109375 48.1875 
Q 26.21875 48.1875 22.15625 43.53125 
Q 18.109375 38.875 18.109375 30.90625 
L 18.109375 0 
L 9.078125 0 
L 9.078125 54.6875 
L 18.109375 54.6875 
L 18.109375 46.1875 
Q 21.1875 51.21875 25.484375 53.609375 
Q 29.78125 56 35.6875 56 
Q 41.65625 56 45.828125 52.96875 
Q 50 49.953125 52 44.1875 
z
" id="DejaVuSans-109"/>
      <path d="M 37.109375 75.984375 
L 37.109375 68.5 
L 28.515625 68.5 
Q 23.6875 68.5 21.796875 66.546875 
Q 19.921875 64.59375 19.921875 59.515625 
L 19.921875 54.6875 
L 34.71875 54.6875 
L 34.71875 47.703125 
L 19.921875 47.703125 
L 19.921875 0 
L 10.890625 0 
L 10.890625 47.703125 
L 2.296875 47.703125 
L 2.296875 54.6875 
L 10.890625 54.6875 
L 10.890625 58.5 
Q 10.890625 67.625 15.140625 71.796875 
Q 19.390625 75.984375 28.609375 75.984375 
z
" id="DejaVuSans-102"/>
     </defs>
     <g transform="translate(31.020312 181.98)rotate(-90)scale(0.1 -0.1)">
      <use transform="translate(0 0.015625)" xlink:href="#DejaVuSans-Oblique-65"/>
      <use transform="translate(68.408203 0.015625)" xlink:href="#DejaVuSans-45"/>
      <use transform="translate(104.492188 0.015625)" xlink:href="#DejaVuSans-110"/>
      <use transform="translate(167.871094 0.015625)" xlink:href="#DejaVuSans-111"/>
      <use transform="translate(229.052734 0.015625)" xlink:href="#DejaVuSans-114"/>
      <use transform="translate(270.166016 0.015625)" xlink:href="#DejaVuSans-109"/>
      <use transform="translate(367.578125 0.015625)" xlink:href="#DejaVuSans-32"/>
      <use transform="translate(399.365234 0.015625)" xlink:href="#DejaVuSans-111"/>
      <use transform="translate(460.546875 0.015625)" xlink:href="#DejaVuSans-102"/>
      <use transform="translate(495.751953 0.015625)" xlink:href="#DejaVuSans-32"/>
      <use transform="translate(527.539062 0.015625)" xlink:href="#DejaVuSans-101"/>
      <use transform="translate(589.0625 0.015625)" xlink:href="#DejaVuSans-114"/>
      <use transform="translate(630.175781 0.015625)" xlink:href="#DejaVuSans-114"/>
      <use transform="translate(671.289062 0.015625)" xlink:href="#DejaVuSans-111"/>
      <use transform="translate(732.470703 0.015625)" xlink:href="#DejaVuSans-114"/>
     </g>
    </g>
   </g>
   <g id="line2d_16">
    <path clip-path="url(#p126f5fc15b)" d="M 92.290909 38.837879 
L 95.701146 38.909118 
L 99.111383 39.026716 
L 102.52162 39.193069 
L 105.931856 39.460474 
L 109.342093 40.04791 
L 112.75233 40.611044 
L 116.162567 41.439374 
L 119.572804 41.778276 
L 122.98304 42.2597 
L 126.393277 43.045589 
L 129.803514 44.232284 
L 133.213751 45.649495 
L 136.623988 46.338362 
L 140.034225 47.032046 
L 143.444461 47.840638 
L 146.854698 49.758248 
L 150.264935 52.916864 
L 153.675172 55.130531 
L 157.085409 56.347506 
L 160.495646 57.263881 
L 163.905882 62.069607 
L 167.316119 65.266475 
L 170.726356 67.771651 
L 174.136593 71.653057 
L 177.54683 76.22367 
L 180.957066 80.456587 
L 184.367303 84.943918 
L 187.77754 90.474152 
L 191.187777 96.389114 
L 194.598014 102.740209 
L 198.008251 111.070619 
L 201.418487 121.936137 
L 204.828724 132.943899 
L 208.238961 148.248123 
L 211.649198 162.503147 
L 215.059435 181.81163 
L 218.469672 199.726618 
L 221.879908 213.902534 
L 225.290145 227.331279 
L 228.700382 247.615545 
L 232.110619 272.99976 
L 234.148183 289 
" style="fill:none;stroke:#333333;stroke-linecap:square;stroke-width:1.5;"/>
   </g>
   <g id="line2d_17">
    <path clip-path="url(#p126f5fc15b)" d="M 92.290909 38.837879 
L 95.701146 38.909118 
L 99.111383 39.026716 
L 102.52162 39.193069 
L 105.931856 39.460474 
L 109.342093 40.04791 
L 112.75233 40.611044 
L 116.162567 41.439374 
L 119.572804 41.778276 
L 122.98304 42.2597 
L 126.393277 43.045589 
L 129.803514 44.232284 
L 133.213751 45.649495 
L 136.623988 46.338362 
L 140.034225 47.032046 
L 143.444461 47.840638 
L 146.854698 49.758248 
L 150.264935 52.916826 
L 153.675172 54.901563 
L 157.085409 55.166682 
L 160.495646 56.371858 
L 163.905882 57.288854 
L 167.316119 58.146562 
L 170.726356 62.075034 
L 174.136593 62.197762 
L 177.54683 65.397304 
L 180.957066 65.569991 
L 184.367303 67.874134 
L 187.77754 67.999789 
L 191.187777 71.420696 
L 194.598014 71.944341 
L 198.008251 76.461737 
L 201.418487 76.507444 
L 204.828724 77.133801 
L 208.238961 80.734804 
L 211.649198 81.374264 
L 215.059435 85.101369 
L 218.469672 85.302989 
L 221.879908 85.558466 
L 225.290145 90.904346 
L 228.700382 90.961308 
L 232.110619 91.903901 
L 235.520856 97.068861 
L 238.931092 97.211046 
L 242.341329 99.934613 
L 245.751566 103.065058 
L 249.161803 103.301487 
L 252.57204 103.771078 
L 255.982277 104.261006 
L 259.392513 111.767005 
L 262.80275 111.905995 
L 266.212987 112.090436 
L 269.623224 112.587734 
L 273.033461 123.020373 
L 276.443697 124.183254 
L 279.853934 129.868408 
L 283.264171 132.866332 
L 286.674408 133.948629 
L 290.084645 135.248228 
L 293.494882 135.930652 
L 296.905118 138.11641 
L 300.315355 140.974764 
L 303.725592 149.490926 
L 307.135829 149.668802 
L 310.546066 150.886184 
L 313.956303 153.625436 
L 317.366539 157.943754 
L 320.776776 163.987835 
L 324.187013 164.255498 
L 327.59725 165.071349 
L 331.007487 165.35787 
L 334.417723 168.206832 
L 337.82796 174.564875 
L 341.238197 174.81176 
L 344.648434 184.2079 
L 348.058671 184.378947 
L 351.468908 184.852676 
L 354.879144 195.353762 
L 358.289381 198.950882 
L 361.699618 199.488325 
L 365.109855 201.280905 
L 368.520092 203.106412 
L 371.930328 204.133103 
L 375.340565 214.971317 
L 378.750802 216.44809 
L 382.161039 218.305747 
L 385.571276 218.403998 
L 388.981513 218.476815 
L 392.391749 220.922257 
L 395.801986 225.780601 
L 399.212223 229.176523 
L 402.62246 230.143731 
L 406.032697 230.405951 
L 409.442934 231.423593 
L 412.85317 232.497168 
L 416.263407 232.885892 
L 419.673644 234.432885 
L 423.083881 234.526445 
L 426.494118 234.524126 
L 429.904354 234.511689 
L 433.314591 234.519414 
L 436.724828 234.513124 
L 440.135065 234.541427 
L 443.545302 234.551192 
L 446.955539 234.551577 
L 450.365775 234.551568 
L 453.776012 234.551568 
L 457.186249 234.551559 
L 460.596486 234.551529 
L 464.006723 234.551476 
L 467.41696 234.551476 
L 470.827196 234.551485 
L 474.237433 234.551485 
L 477.64767 234.551485 
L 481.057907 234.551345 
L 484.468144 234.551345 
L 487.87838 234.551345 
L 491.288617 234.551345 
L 494.698854 234.551345 
L 498.109091 234.551345 
" style="fill:none;stroke:#1f77b4;stroke-linecap:square;stroke-width:1.5;"/>
   </g>
   <g id="line2d_18">
    <path clip-path="url(#p126f5fc15b)" d="M 92.290909 38.837879 
L 95.701146 38.909122 
L 99.111383 39.02672 
L 102.52162 39.193081 
L 105.931856 39.460479 
L 109.342093 40.047915 
L 112.75233 40.611046 
L 116.162567 41.439386 
L 119.572804 41.778286 
L 122.98304 42.259705 
L 126.393277 43.045589 
L 129.803514 44.232287 
L 133.213751 45.649054 
L 136.623988 46.304198 
L 140.034225 46.417401 
L 143.444461 47.090291 
L 146.854698 47.881618 
L 150.264935 48.249254 
L 153.675172 50.116269 
L 157.085409 52.155103 
L 160.495646 53.126512 
L 163.905882 55.09658 
L 167.316119 55.289114 
L 170.726356 55.418407 
L 174.136593 56.006279 
L 177.54683 56.554456 
L 180.957066 56.69212 
L 184.367303 57.650176 
L 187.77754 58.21292 
L 191.187777 61.503372 
L 194.598014 62.239931 
L 198.008251 62.68178 
L 201.418487 62.819643 
L 204.828724 64.131898 
L 208.238961 66.260704 
L 211.649198 66.989619 
L 215.059435 68.434759 
L 218.469672 68.559019 
L 221.879908 69.439756 
L 225.290145 70.120552 
L 228.700382 70.97939 
L 232.110619 72.528707 
L 235.520856 72.799327 
L 238.931092 72.949086 
L 242.341329 73.711244 
L 245.751566 74.832191 
L 249.161803 77.614981 
L 252.57204 79.621326 
L 255.982277 80.076521 
L 259.392513 80.723652 
L 262.80275 81.399064 
L 266.212987 81.943051 
L 269.623224 82.014816 
L 273.033461 82.968421 
L 276.443697 83.952688 
L 279.853934 86.562188 
L 283.264171 86.867912 
L 286.674408 87.426729 
L 290.084645 90.489823 
L 293.494882 91.714784 
L 296.905118 92.144419 
L 300.315355 92.755307 
L 303.725592 92.864553 
L 307.135829 93.007851 
L 310.546066 93.684743 
L 313.956303 97.036796 
L 317.366539 97.957495 
L 320.776776 99.264664 
L 324.187013 99.552747 
L 327.59725 99.748817 
L 331.007487 100.420632 
L 334.417723 103.934375 
L 337.82796 104.857972 
L 341.238197 104.977244 
L 344.648434 105.2784 
L 348.058671 105.46411 
L 351.468908 107.728585 
L 354.879144 109.657785 
L 358.289381 111.85384 
L 361.699618 112.42521 
L 365.109855 112.414633 
L 368.520092 112.487019 
L 371.930328 113.094779 
L 375.340565 113.27212 
L 378.750802 113.28283 
L 382.161039 113.422701 
L 385.571276 113.53355 
L 388.981513 114.621502 
L 392.391749 114.571172 
L 395.801986 114.78719 
L 399.212223 114.773348 
L 402.62246 114.780086 
L 406.032697 114.894196 
L 409.442934 114.912199 
L 412.85317 114.860826 
L 416.263407 114.850084 
L 419.673644 114.762847 
L 423.083881 114.751154 
L 426.494118 114.742065 
L 429.904354 114.739737 
L 433.314591 114.739023 
L 436.724828 114.736985 
L 440.135065 114.730844 
L 443.545302 114.724986 
L 446.955539 114.758365 
L 450.365775 114.753661 
L 453.776012 114.743345 
L 457.186249 114.758474 
L 460.596486 114.75124 
L 464.006723 114.751263 
L 467.41696 114.751072 
L 470.827196 114.750527 
L 474.237433 114.749826 
L 477.64767 114.749058 
L 481.057907 114.748629 
L 484.468144 114.747741 
L 487.87838 114.745687 
L 491.288617 114.745483 
L 494.698854 114.745034 
L 498.109091 114.74497 
" style="fill:none;stroke:#1f77b4;stroke-dasharray:5.55,2.4;stroke-dashoffset:0;stroke-width:1.5;"/>
   </g>
   <g id="line2d_19">
    <path clip-path="url(#p126f5fc15b)" d="M 92.290909 38.837879 
L 95.701146 38.910631 
L 99.111383 39.024497 
L 102.52162 39.188161 
L 105.931856 39.455404 
L 109.342093 40.045626 
L 112.75233 40.601318 
L 116.162567 41.31922 
L 119.572804 41.676224 
L 122.98304 42.065314 
L 126.393277 42.657097 
L 129.803514 43.240567 
L 133.213751 44.423259 
L 136.623988 45.729143 
L 140.034225 46.006833 
L 143.444461 46.353369 
L 146.854698 46.586878 
L 150.264935 47.233017 
L 153.675172 47.411746 
L 157.085409 48.034521 
L 160.495646 48.307951 
L 163.905882 49.010455 
L 167.316119 50.636343 
L 170.726356 51.487452 
L 174.136593 53.053963 
L 177.54683 53.27269 
L 180.957066 53.430947 
L 184.367303 55.084736 
L 187.77754 55.17445 
L 191.187777 55.401853 
L 194.598014 55.847779 
L 198.008251 56.160913 
L 201.418487 56.214158 
L 204.828724 56.409086 
L 208.238961 56.560264 
L 211.649198 57.216062 
L 215.059435 57.621284 
L 218.469672 58.439754 
L 221.879908 59.796656 
L 225.290145 60.54892 
L 228.700382 60.758806 
L 232.110619 60.732586 
L 235.520856 60.881547 
L 238.931092 61.750817 
L 242.341329 61.855853 
L 245.751566 62.211155 
L 249.161803 62.087718 
L 252.57204 62.095871 
L 255.982277 62.153244 
L 259.392513 62.112209 
L 262.80275 62.153244 
L 266.212987 62.112209 
L 269.623224 62.157362 
L 273.033461 62.182132 
L 276.443697 62.104034 
L 279.853934 62.219473 
L 283.264171 62.240316 
L 286.674408 62.29484 
L 290.084645 62.3244 
L 293.494882 62.328635 
L 296.905118 62.337112 
L 300.315355 62.358357 
L 303.725592 62.286421 
L 307.135829 62.345602 
L 310.546066 62.332872 
L 313.956303 62.3244 
L 317.366539 62.320169 
L 320.776776 62.286421 
L 324.187013 62.231971 
L 327.59725 62.265421 
L 331.007487 62.236142 
L 334.417723 62.252856 
L 337.82796 62.248673 
L 341.238197 62.248673 
L 344.648434 62.248673 
L 348.058671 62.227802 
L 351.468908 62.207001 
L 354.879144 62.18627 
L 358.289381 62.165608 
L 361.699618 62.149128 
L 365.109855 62.145015 
L 368.520092 62.145015 
L 371.930328 62.136797 
L 375.340565 62.136797 
L 378.750802 62.132692 
L 382.161039 62.12859 
L 385.571276 62.12859 
L 388.981513 62.120394 
L 392.391749 62.120394 
L 395.801986 62.120394 
L 399.212223 62.1163 
L 402.62246 62.1163 
L 406.032697 62.1163 
L 409.442934 62.1163 
L 412.85317 62.120394 
L 416.263407 62.1163 
L 419.673644 62.120394 
L 423.083881 62.120394 
L 426.494118 62.120394 
L 429.904354 62.120394 
L 433.314591 62.124491 
L 436.724828 62.124491 
L 440.135065 62.124491 
L 443.545302 62.12859 
L 446.955539 62.12859 
L 450.365775 62.12859 
L 453.776012 62.12859 
L 457.186249 62.12859 
L 460.596486 62.12859 
L 464.006723 62.12859 
L 467.41696 62.12859 
L 470.827196 62.12859 
" style="fill:none;stroke:#1f77b4;stroke-dasharray:1.5,2.475;stroke-dashoffset:0;stroke-width:1.5;"/>
   </g>
   <g id="patch_3">
    <path d="M 72 252 
L 72 34.56 
" style="fill:none;stroke:#000000;stroke-linecap:square;stroke-linejoin:miter;stroke-width:0.8;"/>
   </g>
   <g id="patch_4">
    <path d="M 518.4 252 
L 518.4 34.56 
" style="fill:none;stroke:#000000;stroke-linecap:square;stroke-linejoin:miter;stroke-width:0.8;"/>
   </g>
   <g id="patch_5">
    <path d="M 72 252 
L 518.4 252 
" style="fill:none;stroke:#000000;stroke-linecap:square;stroke-linejoin:miter;stroke-width:0.8;"/>
   </g>
   <g id="patch_6">
    <path d="M 72 34.56 
L 518.4 34.56 
" style="fill:none;stroke:#000000;stroke-linecap:square;stroke-linejoin:miter;stroke-width:0.8;"/>
   </g>
   <g id="text_18">
    <!-- model problem, $A$-norm of error: $\|\| x-x_j \|\|_A$ -->
    <defs>
     <path d="M 45.40625 46.390625 
L 45.40625 75.984375 
L 54.390625 75.984375 
L 54.390625 0 
L 45.40625 0 
L 45.40625 8.203125 
Q 42.578125 3.328125 38.25 0.953125 
Q 33.9375 -1.421875 27.875 -1.421875 
Q 17.96875 -1.421875 11.734375 6.484375 
Q 5.515625 14.40625 5.515625 27.296875 
Q 5.515625 40.1875 11.734375 48.09375 
Q 17.96875 56 27.875 56 
Q 33.9375 56 38.25 53.625 
Q 42.578125 51.265625 45.40625 46.390625 
z
M 14.796875 27.296875 
Q 14.796875 17.390625 18.875 11.75 
Q 22.953125 6.109375 30.078125 6.109375 
Q 37.203125 6.109375 41.296875 11.75 
Q 45.40625 17.390625 45.40625 27.296875 
Q 45.40625 37.203125 41.296875 42.84375 
Q 37.203125 48.484375 30.078125 48.484375 
Q 22.953125 48.484375 18.875 42.84375 
Q 14.796875 37.203125 14.796875 27.296875 
z
" id="DejaVuSans-100"/>
     <path d="M 9.421875 75.984375 
L 18.40625 75.984375 
L 18.40625 0 
L 9.421875 0 
z
" id="DejaVuSans-108"/>
     <path d="M 18.109375 8.203125 
L 18.109375 -20.796875 
L 9.078125 -20.796875 
L 9.078125 54.6875 
L 18.109375 54.6875 
L 18.109375 46.390625 
Q 20.953125 51.265625 25.265625 53.625 
Q 29.59375 56 35.59375 56 
Q 45.5625 56 51.78125 48.09375 
Q 58.015625 40.1875 58.015625 27.296875 
Q 58.015625 14.40625 51.78125 6.484375 
Q 45.5625 -1.421875 35.59375 -1.421875 
Q 29.59375 -1.421875 25.265625 0.953125 
Q 20.953125 3.328125 18.109375 8.203125 
z
M 48.6875 27.296875 
Q 48.6875 37.203125 44.609375 42.84375 
Q 40.53125 48.484375 33.40625 48.484375 
Q 26.265625 48.484375 22.1875 42.84375 
Q 18.109375 37.203125 18.109375 27.296875 
Q 18.109375 17.390625 22.1875 11.75 
Q 26.265625 6.109375 33.40625 6.109375 
Q 40.53125 6.109375 44.609375 11.75 
Q 48.6875 17.390625 48.6875 27.296875 
z
" id="DejaVuSans-112"/>
     <path d="M 48.6875 27.296875 
Q 48.6875 37.203125 44.609375 42.84375 
Q 40.53125 48.484375 33.40625 48.484375 
Q 26.265625 48.484375 22.1875 42.84375 
Q 18.109375 37.203125 18.109375 27.296875 
Q 18.109375 17.390625 22.1875 11.75 
Q 26.265625 6.109375 33.40625 6.109375 
Q 40.53125 6.109375 44.609375 11.75 
Q 48.6875 17.390625 48.6875 27.296875 
z
M 18.109375 46.390625 
Q 20.953125 51.265625 25.265625 53.625 
Q 29.59375 56 35.59375 56 
Q 45.5625 56 51.78125 48.09375 
Q 58.015625 40.1875 58.015625 27.296875 
Q 58.015625 14.40625 51.78125 6.484375 
Q 45.5625 -1.421875 35.59375 -1.421875 
Q 29.59375 -1.421875 25.265625 0.953125 
Q 20.953125 3.328125 18.109375 8.203125 
L 18.109375 0 
L 9.078125 0 
L 9.078125 75.984375 
L 18.109375 75.984375 
z
" id="DejaVuSans-98"/>
     <path d="M 11.71875 12.40625 
L 22.015625 12.40625 
L 22.015625 4 
L 14.015625 -11.625 
L 7.71875 -11.625 
L 11.71875 4 
z
" id="DejaVuSans-44"/>
     <path d="M 11.71875 12.40625 
L 22.015625 12.40625 
L 22.015625 0 
L 11.71875 0 
z
M 11.71875 51.703125 
L 22.015625 51.703125 
L 22.015625 39.3125 
L 11.71875 39.3125 
z
" id="DejaVuSans-58"/>
     <path d="M 21 76.421875 
L 21 -23.578125 
L 12.703125 -23.578125 
L 12.703125 76.421875 
z
" id="DejaVuSans-124"/>
     <path d="M 60.015625 54.6875 
L 34.90625 27.875 
L 50.296875 0 
L 39.984375 0 
L 28.421875 21.6875 
L 8.296875 0 
L -2.59375 0 
L 24.3125 28.8125 
L 10.015625 54.6875 
L 20.3125 54.6875 
L 30.8125 34.90625 
L 49.125 54.6875 
z
" id="DejaVuSans-Oblique-120"/>
    </defs>
    <g transform="translate(168.48 28.56)scale(0.12 -0.12)">
     <use transform="translate(0 0.578125)" xlink:href="#DejaVuSans-109"/>
     <use transform="translate(97.412109 0.578125)" xlink:href="#DejaVuSans-111"/>
     <use transform="translate(158.59375 0.578125)" xlink:href="#DejaVuSans-100"/>
     <use transform="translate(222.070312 0.578125)" xlink:href="#DejaVuSans-101"/>
     <use transform="translate(283.59375 0.578125)" xlink:href="#DejaVuSans-108"/>
     <use transform="translate(311.376953 0.578125)" xlink:href="#DejaVuSans-32"/>
     <use transform="translate(343.164062 0.578125)" xlink:href="#DejaVuSans-112"/>
     <use transform="translate(406.640625 0.578125)" xlink:href="#DejaVuSans-114"/>
     <use transform="translate(447.753906 0.578125)" xlink:href="#DejaVuSans-111"/>
     <use transform="translate(508.935547 0.578125)" xlink:href="#DejaVuSans-98"/>
     <use transform="translate(572.412109 0.578125)" xlink:href="#DejaVuSans-108"/>
     <use transform="translate(600.195312 0.578125)" xlink:href="#DejaVuSans-101"/>
     <use transform="translate(661.71875 0.578125)" xlink:href="#DejaVuSans-109"/>
     <use transform="translate(759.130859 0.578125)" xlink:href="#DejaVuSans-44"/>
     <use transform="translate(790.917969 0.578125)" xlink:href="#DejaVuSans-32"/>
     <use transform="translate(822.705078 0.578125)" xlink:href="#DejaVuSans-Oblique-65"/>
     <use transform="translate(891.113281 0.578125)" xlink:href="#DejaVuSans-45"/>
     <use transform="translate(927.197266 0.578125)" xlink:href="#DejaVuSans-110"/>
     <use transform="translate(990.576172 0.578125)" xlink:href="#DejaVuSans-111"/>
     <use transform="translate(1051.757812 0.578125)" xlink:href="#DejaVuSans-114"/>
     <use transform="translate(1092.871094 0.578125)" xlink:href="#DejaVuSans-109"/>
     <use transform="translate(1190.283203 0.578125)" xlink:href="#DejaVuSans-32"/>
     <use transform="translate(1222.070312 0.578125)" xlink:href="#DejaVuSans-111"/>
     <use transform="translate(1283.251953 0.578125)" xlink:href="#DejaVuSans-102"/>
     <use transform="translate(1318.457031 0.578125)" xlink:href="#DejaVuSans-32"/>
     <use transform="translate(1350.244141 0.578125)" xlink:href="#DejaVuSans-101"/>
     <use transform="translate(1411.767578 0.578125)" xlink:href="#DejaVuSans-114"/>
     <use transform="translate(1452.880859 0.578125)" xlink:href="#DejaVuSans-114"/>
     <use transform="translate(1493.994141 0.578125)" xlink:href="#DejaVuSans-111"/>
     <use transform="translate(1555.175781 0.578125)" xlink:href="#DejaVuSans-114"/>
     <use transform="translate(1596.289062 0.578125)" xlink:href="#DejaVuSans-58"/>
     <use transform="translate(1629.980469 0.578125)" xlink:href="#DejaVuSans-32"/>
     <use transform="translate(1661.767578 0.578125)" xlink:href="#DejaVuSans-124"/>
     <use transform="translate(1695.458984 0.578125)" xlink:href="#DejaVuSans-124"/>
     <use transform="translate(1729.150391 0.578125)" xlink:href="#DejaVuSans-Oblique-120"/>
     <use transform="translate(1807.8125 0.578125)" xlink:href="#DejaVuSans-8722"/>
     <use transform="translate(1911.083984 0.578125)" xlink:href="#DejaVuSans-Oblique-120"/>
     <use transform="translate(1970.263672 -15.828125)scale(0.7)" xlink:href="#DejaVuSans-Oblique-106"/>
     <use transform="translate(1992.446289 0.578125)" xlink:href="#DejaVuSans-124"/>
     <use transform="translate(2026.137695 0.578125)" xlink:href="#DejaVuSans-124"/>
     <use transform="translate(2060.786133 -15.828125)scale(0.7)" xlink:href="#DejaVuSans-Oblique-65"/>
    </g>
   </g>
   <g id="legend_1">
    <g id="patch_7">
     <path d="M 444.209375 101.2725 
L 511.4 101.2725 
Q 513.4 101.2725 513.4 99.2725 
L 513.4 41.56 
Q 513.4 39.56 511.4 39.56 
L 444.209375 39.56 
Q 442.209375 39.56 442.209375 41.56 
L 442.209375 99.2725 
Q 442.209375 101.2725 444.209375 101.2725 
z
" style="fill:#ffffff;opacity:0.8;stroke:#cccccc;stroke-linejoin:miter;"/>
    </g>
    <g id="line2d_20">
     <path d="M 446.209375 47.658437 
L 466.209375 47.658437 
" style="fill:none;stroke:#333333;stroke-linecap:square;stroke-width:1.5;"/>
    </g>
    <g id="line2d_21"/>
    <g id="text_19">
     <!-- exact -->
     <defs>
      <path d="M 54.890625 54.6875 
L 35.109375 28.078125 
L 55.90625 0 
L 45.3125 0 
L 29.390625 21.484375 
L 13.484375 0 
L 2.875 0 
L 24.125 28.609375 
L 4.6875 54.6875 
L 15.28125 54.6875 
L 29.78125 35.203125 
L 44.28125 54.6875 
z
" id="DejaVuSans-120"/>
      <path d="M 48.78125 52.59375 
L 48.78125 44.1875 
Q 44.96875 46.296875 41.140625 47.34375 
Q 37.3125 48.390625 33.40625 48.390625 
Q 24.65625 48.390625 19.8125 42.84375 
Q 14.984375 37.3125 14.984375 27.296875 
Q 14.984375 17.28125 19.8125 11.734375 
Q 24.65625 6.203125 33.40625 6.203125 
Q 37.3125 6.203125 41.140625 7.25 
Q 44.96875 8.296875 48.78125 10.40625 
L 48.78125 2.09375 
Q 45.015625 0.34375 40.984375 -0.53125 
Q 36.96875 -1.421875 32.421875 -1.421875 
Q 20.0625 -1.421875 12.78125 6.34375 
Q 5.515625 14.109375 5.515625 27.296875 
Q 5.515625 40.671875 12.859375 48.328125 
Q 20.21875 56 33.015625 56 
Q 37.15625 56 41.109375 55.140625 
Q 45.0625 54.296875 48.78125 52.59375 
z
" id="DejaVuSans-99"/>
     </defs>
     <g transform="translate(474.209375 51.158437)scale(0.1 -0.1)">
      <use xlink:href="#DejaVuSans-101"/>
      <use x="61.507812" xlink:href="#DejaVuSans-120"/>
      <use x="120.6875" xlink:href="#DejaVuSans-97"/>
      <use x="181.966797" xlink:href="#DejaVuSans-99"/>
      <use x="236.947266" xlink:href="#DejaVuSans-116"/>
     </g>
    </g>
    <g id="line2d_22">
     <path d="M 446.209375 62.336562 
L 466.209375 62.336562 
" style="fill:none;stroke:#1f77b4;stroke-linecap:square;stroke-width:1.5;"/>
    </g>
    <g id="line2d_23"/>
    <g id="text_20">
     <!-- float64 -->
     <g transform="translate(474.209375 65.836562)scale(0.1 -0.1)">
      <use xlink:href="#DejaVuSans-102"/>
      <use x="35.205078" xlink:href="#DejaVuSans-108"/>
      <use x="62.988281" xlink:href="#DejaVuSans-111"/>
      <use x="124.169922" xlink:href="#DejaVuSans-97"/>
      <use x="185.449219" xlink:href="#DejaVuSans-116"/>
      <use x="224.658203" xlink:href="#DejaVuSans-54"/>
      <use x="288.28125" xlink:href="#DejaVuSans-52"/>
     </g>
    </g>
    <g id="line2d_24">
     <path d="M 446.209375 77.014687 
L 466.209375 77.014687 
" style="fill:none;stroke:#1f77b4;stroke-dasharray:5.55,2.4;stroke-dashoffset:0;stroke-width:1.5;"/>
    </g>
    <g id="line2d_25"/>
    <g id="text_21">
     <!-- float32 -->
     <g transform="translate(474.209375 80.514687)scale(0.1 -0.1)">
      <use xlink:href="#DejaVuSans-102"/>
      <use x="35.205078" xlink:href="#DejaVuSans-108"/>
      <use x="62.988281" xlink:href="#DejaVuSans-111"/>
      <use x="124.169922" xlink:href="#DejaVuSans-97"/>
      <use x="185.449219" xlink:href="#DejaVuSans-116"/>
      <use x="224.658203" xlink:href="#DejaVuSans-51"/>
      <use x="288.28125" xlink:href="#DejaVuSans-50"/>
     </g>
    </g>
    <g id="line2d_26">
     <path d="M 446.209375 91.692813 
L 466.209375 91.692813 
" style="fill:none;stroke:#1f77b4;stroke-dasharray:1.5,2.475;stroke-dashoffset:0;stroke-width:1.5;"/>
    </g>
    <g id="line2d_27"/>
    <g id="text_22">
     <!-- float16 -->
     <g transform="translate(474.209375 95.192813)scale(0.1 -0.1)">
      <use xlink:href="#DejaVuSans-102"/>
      <use x="35.205078" xlink:href="#DejaVuSans-108"/>
      <use x="62.988281" xlink:href="#DejaVuSans-111"/>
      <use x="124.169922" xlink:href="#DejaVuSans-97"/>
      <use x="185.449219" xlink:href="#DejaVuSans-116"/>
      <use x="224.658203" xlink:href="#DejaVuSans-49"/>
      <use x="288.28125" xlink:href="#DejaVuSans-54"/>
     </g>
    </g>
   </g>
  </g>
 </g>
 <defs>
  <clipPath id="p126f5fc15b">
   <rect height="217.44" width="446.4" x="72" y="34.56"/>
  </clipPath>
 </defs>
</svg>
