<?xml version="1.0" encoding="utf-8" standalone="no"?>
<!DOCTYPE svg PUBLIC "-//W3C//DTD SVG 1.1//EN"
  "http://www.w3.org/Graphics/SVG/1.1/DTD/svg11.dtd">
<!-- Created with matplotlib (https://matplotlib.org/) -->
<svg height="274.853533pt" version="1.1" viewBox="0 0 535.854959 274.853533" width="535.854959pt" xmlns="http://www.w3.org/2000/svg" xmlns:xlink="http://www.w3.org/1999/xlink">
 <defs>
  <style type="text/css">
*{stroke-linecap:butt;stroke-linejoin:round;}
  </style>
 </defs>
 <g id="figure_1">
  <g id="patch_1">
   <path d="M 0 274.853533 
L 535.854959 274.853533 
L 535.854959 0 
L 0 0 
z
" style="fill:#ffffff;"/>
  </g>
  <g id="axes_1">
   <g id="patch_2">
    <path d="M 52.294451 238.94218 
L 442.894451 238.94218 
L 442.894451 21.50218 
L 52.294451 21.50218 
z
" style="fill:#ffffff;"/>
   </g>
   <g id="matplotlib.axis_1">
    <g id="xtick_1">
     <g id="line2d_1">
      <path clip-path="url(#pb20f96d7ef)" d="M 70.048997 238.94218 
L 70.048997 21.50218 
" style="fill:none;stroke:#b0b0b0;stroke-dasharray:0.8,1.32;stroke-dashoffset:0;stroke-width:0.8;"/>
     </g>
     <g id="line2d_2">
      <defs>
       <path d="M 0 0 
L 0 3.5 
" id="m5bfcbef7d9" style="stroke:#000000;stroke-width:0.8;"/>
      </defs>
      <g>
       <use style="stroke:#000000;stroke-width:0.8;" x="70.048997" xlink:href="#m5bfcbef7d9" y="238.94218"/>
      </g>
     </g>
     <g id="text_1">
      <!-- $0$ -->
      <defs>
       <path d="M 42 31.84375 
C 42 37.96875 41.90625 48.421875 37.703125 56.453125 
C 34 63.484375 28.09375 66 22.90625 66 
C 18.09375 66 12 63.78125 8.203125 56.5625 
C 4.203125 49.015625 3.796875 39.671875 3.796875 31.84375 
C 3.796875 26.109375 3.90625 17.375 7 9.734375 
C 11.296875 -0.609375 19 -2 22.90625 -2 
C 27.5 -2 34.5 -0.109375 38.59375 9.4375 
C 41.59375 16.375 42 24.5 42 31.84375 
z
M 22.90625 -0.40625 
C 16.5 -0.40625 12.703125 5.125 11.296875 12.75 
C 10.203125 18.6875 10.203125 27.328125 10.203125 32.953125 
C 10.203125 40.6875 10.203125 47.109375 11.5 53.234375 
C 13.40625 61.78125 19 64.390625 22.90625 64.390625 
C 27 64.390625 32.296875 61.671875 34.203125 53.4375 
C 35.5 47.71875 35.59375 40.984375 35.59375 32.953125 
C 35.59375 26.421875 35.59375 18.375 34.40625 12.453125 
C 32.296875 1.5 26.40625 -0.40625 22.90625 -0.40625 
z
" id="CMR17-48"/>
      </defs>
      <g transform="translate(67.558329 252.860678)scale(0.1 -0.1)">
       <use transform="scale(0.996264)" xlink:href="#CMR17-48"/>
      </g>
     </g>
    </g>
    <g id="xtick_2">
     <g id="line2d_3">
      <path clip-path="url(#pb20f96d7ef)" d="M 141.067178 238.94218 
L 141.067178 21.50218 
" style="fill:none;stroke:#b0b0b0;stroke-dasharray:0.8,1.32;stroke-dashoffset:0;stroke-width:0.8;"/>
     </g>
     <g id="line2d_4">
      <g>
       <use style="stroke:#000000;stroke-width:0.8;" x="141.067178" xlink:href="#m5bfcbef7d9" y="238.94218"/>
      </g>
     </g>
     <g id="text_2">
      <!-- $20$ -->
      <defs>
       <path d="M 41.703125 15.46875 
L 39.90625 15.46875 
C 38.90625 8.390625 38.09375 7.1875 37.703125 6.59375 
C 37.203125 5.796875 30 5.796875 28.59375 5.796875 
L 9.40625 5.796875 
C 13 9.6875 20 16.765625 28.5 24.9375 
C 34.59375 30.71875 41.703125 37.5 41.703125 47.390625 
C 41.703125 59.1875 32.296875 66 21.796875 66 
C 10.796875 66 4.09375 56.296875 4.09375 47.296875 
C 4.09375 43.390625 7 42.890625 8.203125 42.890625 
C 9.203125 42.890625 12.203125 43.484375 12.203125 46.984375 
C 12.203125 50.09375 9.59375 51 8.203125 51 
C 7.59375 51 7 50.890625 6.59375 50.6875 
C 8.5 59.1875 14.296875 63.390625 20.40625 63.390625 
C 29.09375 63.390625 34.796875 56.5 34.796875 47.390625 
C 34.796875 38.703125 29.703125 31.21875 24 24.734375 
L 4.09375 2.296875 
L 4.09375 0 
L 39.296875 0 
z
" id="CMR17-50"/>
      </defs>
      <g transform="translate(136.085843 252.860678)scale(0.1 -0.1)">
       <use transform="scale(0.996264)" xlink:href="#CMR17-50"/>
       <use transform="translate(45.690477 0)scale(0.996264)" xlink:href="#CMR17-48"/>
      </g>
     </g>
    </g>
    <g id="xtick_3">
     <g id="line2d_5">
      <path clip-path="url(#pb20f96d7ef)" d="M 212.08536 238.94218 
L 212.08536 21.50218 
" style="fill:none;stroke:#b0b0b0;stroke-dasharray:0.8,1.32;stroke-dashoffset:0;stroke-width:0.8;"/>
     </g>
     <g id="line2d_6">
      <g>
       <use style="stroke:#000000;stroke-width:0.8;" x="212.08536" xlink:href="#m5bfcbef7d9" y="238.94218"/>
      </g>
     </g>
     <g id="text_3">
      <!-- $40$ -->
      <defs>
       <path d="M 33.59375 64.796875 
C 33.59375 66.890625 33.5 67 31.703125 67 
L 2 19.59375 
L 2 17 
L 27.796875 17 
L 27.796875 7.1875 
C 27.796875 3.59375 27.59375 2.59375 20.59375 2.59375 
L 18.703125 2.59375 
L 18.703125 0 
C 21.90625 0.1875 27.296875 0.1875 30.703125 0.1875 
C 34.09375 0.1875 39.5 0.1875 42.703125 0 
L 42.703125 2.59375 
L 40.796875 2.59375 
C 33.796875 2.59375 33.59375 3.59375 33.59375 7.1875 
L 33.59375 17 
L 43.796875 17 
L 43.796875 19.59375 
L 33.59375 19.59375 
z
M 28.09375 58.171875 
L 28.09375 19.59375 
L 4 19.59375 
z
" id="CMR17-52"/>
      </defs>
      <g transform="translate(207.104025 252.860678)scale(0.1 -0.1)">
       <use transform="scale(0.996264)" xlink:href="#CMR17-52"/>
       <use transform="translate(45.690477 0)scale(0.996264)" xlink:href="#CMR17-48"/>
      </g>
     </g>
    </g>
    <g id="xtick_4">
     <g id="line2d_7">
      <path clip-path="url(#pb20f96d7ef)" d="M 283.103542 238.94218 
L 283.103542 21.50218 
" style="fill:none;stroke:#b0b0b0;stroke-dasharray:0.8,1.32;stroke-dashoffset:0;stroke-width:0.8;"/>
     </g>
     <g id="line2d_8">
      <g>
       <use style="stroke:#000000;stroke-width:0.8;" x="283.103542" xlink:href="#m5bfcbef7d9" y="238.94218"/>
      </g>
     </g>
     <g id="text_4">
      <!-- $60$ -->
      <defs>
       <path d="M 10.59375 34.34375 
C 10.59375 58 21.796875 63.6875 28.296875 63.6875 
C 30.40625 63.6875 35.5 63.265625 37.5 59.09375 
C 35.90625 59.09375 32.90625 59.09375 32.90625 55.59375 
C 32.90625 52.890625 35.09375 52 36.5 52 
C 37.40625 52 40.09375 52.390625 40.09375 55.796875 
C 40.09375 62.296875 35.09375 66 28.203125 66 
C 16.296875 66 3.796875 53.296875 3.796875 31.421875 
C 3.796875 4.015625 15.09375 -2 23.09375 -2 
C 32.796875 -2 42 6.734375 42 20.234375 
C 42 32.828125 33.90625 42 23.703125 42 
C 17.59375 42 13.09375 37.96875 10.59375 30.921875 
z
M 23.09375 0.390625 
C 10.796875 0.390625 10.796875 18.9375 10.796875 22.65625 
C 10.796875 29.90625 14.203125 40.390625 23.5 40.390625 
C 25.203125 40.390625 30.09375 40.390625 33.40625 33.4375 
C 35.203125 29.515625 35.203125 25.375 35.203125 20.34375 
C 35.203125 14.90625 35.203125 10.875 33.09375 6.84375 
C 30.90625 2.703125 27.703125 0.390625 23.09375 0.390625 
z
" id="CMR17-54"/>
      </defs>
      <g transform="translate(278.122207 252.860678)scale(0.1 -0.1)">
       <use transform="scale(0.996264)" xlink:href="#CMR17-54"/>
       <use transform="translate(45.690477 0)scale(0.996264)" xlink:href="#CMR17-48"/>
      </g>
     </g>
    </g>
    <g id="xtick_5">
     <g id="line2d_9">
      <path clip-path="url(#pb20f96d7ef)" d="M 354.121724 238.94218 
L 354.121724 21.50218 
" style="fill:none;stroke:#b0b0b0;stroke-dasharray:0.8,1.32;stroke-dashoffset:0;stroke-width:0.8;"/>
     </g>
     <g id="line2d_10">
      <g>
       <use style="stroke:#000000;stroke-width:0.8;" x="354.121724" xlink:href="#m5bfcbef7d9" y="238.94218"/>
      </g>
     </g>
     <g id="text_5">
      <!-- $80$ -->
      <defs>
       <path d="M 27.203125 35.765625 
C 33.5 38.96875 39.90625 43.796875 39.90625 51.53125 
C 39.90625 60.6875 31.09375 66 23 66 
C 13.90625 66 5.90625 59.375 5.90625 50.234375 
C 5.90625 47.71875 6.5 43.390625 10.40625 39.578125 
C 11.40625 38.578125 15.59375 35.5625 18.296875 33.65625 
C 13.796875 31.34375 3.296875 25.8125 3.296875 14.765625 
C 3.296875 4.40625 13.09375 -2 22.796875 -2 
C 33.5 -2 42.5 5.71875 42.5 15.96875 
C 42.5 25.109375 36.40625 29.328125 32.40625 32.046875 
z
M 14.09375 44.609375 
C 13.296875 45.109375 9.296875 48.21875 9.296875 52.9375 
C 9.296875 59.078125 15.59375 63.6875 22.796875 63.6875 
C 30.703125 63.6875 36.5 58.0625 36.5 51.53125 
C 36.5 42.1875 26.09375 36.859375 25.59375 36.859375 
C 25.5 36.859375 25.40625 36.859375 24.59375 37.46875 
z
M 32.5 24 
C 34 22.90625 38.796875 19.578125 38.796875 13.453125 
C 38.796875 6.015625 31.40625 0.390625 23 0.390625 
C 13.90625 0.390625 7 6.921875 7 14.859375 
C 7 22.796875 13.09375 29.4375 20 32.546875 
z
" id="CMR17-56"/>
      </defs>
      <g transform="translate(349.140389 252.860678)scale(0.1 -0.1)">
       <use transform="scale(0.996264)" xlink:href="#CMR17-56"/>
       <use transform="translate(45.690477 0)scale(0.996264)" xlink:href="#CMR17-48"/>
      </g>
     </g>
    </g>
    <g id="xtick_6">
     <g id="line2d_11">
      <path clip-path="url(#pb20f96d7ef)" d="M 425.139906 238.94218 
L 425.139906 21.50218 
" style="fill:none;stroke:#b0b0b0;stroke-dasharray:0.8,1.32;stroke-dashoffset:0;stroke-width:0.8;"/>
     </g>
     <g id="line2d_12">
      <g>
       <use style="stroke:#000000;stroke-width:0.8;" x="425.139906" xlink:href="#m5bfcbef7d9" y="238.94218"/>
      </g>
     </g>
     <g id="text_6">
      <!-- $100$ -->
      <defs>
       <path d="M 26.59375 63.796875 
C 26.59375 65.890625 26.5 66 25.09375 66 
C 21.203125 61.359375 15.296875 59.890625 9.703125 59.6875 
C 9.40625 59.6875 8.90625 59.6875 8.796875 59.5 
C 8.703125 59.296875 8.703125 59.09375 8.703125 57 
C 11.796875 57 17 57.59375 21 59.984375 
L 21 7.296875 
C 21 3.796875 20.796875 2.59375 12.203125 2.59375 
L 9.203125 2.59375 
L 9.203125 0 
C 14 0.09375 19 0.1875 23.796875 0.1875 
C 28.59375 0.1875 33.59375 0.09375 38.40625 0 
L 38.40625 2.59375 
L 35.40625 2.59375 
C 26.796875 2.59375 26.59375 3.6875 26.59375 7.296875 
z
" id="CMR17-49"/>
      </defs>
      <g transform="translate(417.667903 252.860678)scale(0.1 -0.1)">
       <use transform="scale(0.996264)" xlink:href="#CMR17-49"/>
       <use transform="translate(45.690477 0)scale(0.996264)" xlink:href="#CMR17-48"/>
       <use transform="translate(91.380954 0)scale(0.996264)" xlink:href="#CMR17-48"/>
      </g>
     </g>
    </g>
    <g id="text_7">
     <!-- iteration $k$ -->
     <defs>
      <path d="M 15.5 61.890625 
C 15.5 64.09375 13.703125 66 11.40625 66 
C 9.203125 66 7.296875 64.1875 7.296875 61.890625 
C 7.296875 59.6875 9.09375 57.796875 11.40625 57.796875 
C 13.59375 57.796875 15.5 59.59375 15.5 61.890625 
z
M 3.796875 42.890625 
L 3.796875 40.296875 
C 9.40625 40.296875 10.203125 39.6875 10.203125 34.859375 
L 10.203125 6.921875 
C 10.203125 3.09375 9.796875 2.59375 3.40625 2.59375 
L 3.40625 0 
C 5.796875 0.1875 10.09375 0.1875 12.59375 0.1875 
C 15 0.1875 19.09375 0.1875 21.40625 0 
L 21.40625 2.59375 
C 15.5 2.59375 15.296875 3.203125 15.296875 6.8125 
L 15.296875 44 
z
" id="CMR17-105"/>
      <path d="M 15.09375 40.390625 
L 29.09375 40.390625 
L 29.09375 43 
L 15.09375 43 
L 15.09375 62 
L 13.296875 62 
C 13.09375 51.4375 9.59375 42.1875 1.09375 41.984375 
L 1.09375 40.390625 
L 9.796875 40.390625 
L 9.796875 12.15625 
C 9.796875 10.234375 9.796875 -1 21.40625 -1 
C 27.296875 -1 30.703125 4.8125 30.703125 12.25 
L 30.703125 17.984375 
L 28.90625 17.984375 
L 28.90625 12.34375 
C 28.90625 5.421875 26.203125 0.796875 22 0.796875 
C 19.09375 0.796875 15.09375 2.796875 15.09375 11.953125 
z
" id="CMR17-116"/>
      <path d="M 38.09375 23.484375 
C 38.5 23.890625 38.5 24.09375 38.5 25.09375 
C 38.5 35.171875 33.09375 44 21.703125 44 
C 11.09375 44 2.703125 33.984375 2.703125 21.78125 
C 2.703125 8.65625 12.203125 -1 22.796875 -1 
C 34 -1 38.40625 9.671875 38.40625 11.796875 
C 38.40625 12.5 37.796875 12.5 37.59375 12.5 
C 36.90625 12.5 36.796875 12.296875 36.40625 11.078125 
C 34.203125 4.21875 28.703125 0.796875 23.5 0.796875 
C 19.203125 0.796875 14.90625 3.21875 12.203125 7.65625 
C 9.09375 12.796875 9.09375 18.75 9.09375 23.484375 
z
M 9.203125 25 
C 9.90625 39.234375 17.59375 42.390625 21.59375 42.390625 
C 28.40625 42.390625 33 36.0625 33.09375 25 
z
" id="CMR17-101"/>
      <path d="M 15 23.703125 
C 15 33.34375 19.09375 42.390625 26.59375 42.390625 
C 27.296875 42.390625 28 42.296875 28.703125 41.984375 
C 28.703125 41.984375 26.5 41.28125 26.5 38.671875 
C 26.5 36.265625 28.40625 35.265625 29.90625 35.265625 
C 31.09375 35.265625 33.296875 35.96875 33.296875 38.78125 
C 33.296875 41.984375 30.09375 44 26.703125 44 
C 19.09375 44 15.796875 36.5625 14.796875 33.046875 
L 14.703125 33.046875 
L 14.703125 44 
L 3.09375 42.890625 
L 3.09375 40.28125 
C 9 40.28125 9.90625 39.6875 9.90625 34.859375 
L 9.90625 6.921875 
C 9.90625 3.09375 9.5 2.59375 3.09375 2.59375 
L 3.09375 0 
C 5.5 0.1875 10.09375 0.1875 12.703125 0.1875 
C 15.59375 0.1875 20.703125 0.1875 23.40625 0 
L 23.40625 2.59375 
C 16.203125 2.59375 15 2.59375 15 7.109375 
z
" id="CMR17-114"/>
      <path d="M 36 25.875 
C 36 32 36 35.546875 31.796875 39.59375 
C 28.09375 42.984375 23.796875 44 20.40625 44 
C 12.5 44 6.796875 37.625 6.796875 30.890625 
C 6.796875 27.1875 9.796875 27 10.40625 27 
C 11.703125 27 14 27.796875 14 30.59375 
C 14 33.09375 12.09375 34.1875 10.40625 34.1875 
C 10 34.1875 9.5 34.09375 9.203125 34 
C 11.296875 40.53125 16.703125 42.390625 20.203125 42.390625 
C 25.203125 42.390625 30.703125 37.828125 30.703125 29.296875 
L 30.703125 25.5 
C 24.796875 25.296875 17.703125 24.5 12.09375 21.453125 
C 5.796875 17.921875 4 12.84375 4 9 
C 4 1.203125 13 -1 18.296875 -1 
C 23.796875 -1 28.90625 2.109375 31.09375 7.890625 
C 31.296875 3.421875 34.09375 -0.609375 38.5 -0.609375 
C 40.59375 -0.609375 45.90625 0.796875 45.90625 8.796875 
L 45.90625 14.46875 
L 44.09375 14.46875 
L 44.09375 8.703125 
C 44.09375 2.515625 41.40625 1.703125 40.09375 1.703125 
C 36 1.703125 36 6.96875 36 11.4375 
z
M 30.703125 13.859375 
C 30.703125 5.046875 24.5 0.59375 19 0.59375 
C 14 0.59375 10.09375 4.34375 10.09375 9 
C 10.09375 12.046875 11.40625 17.40625 17.203125 20.65625 
C 22 23.390625 27.5 23.796875 30.703125 24 
z
" id="CMR17-97"/>
      <path d="M 43.09375 21.1875 
C 43.09375 34 33.796875 44 22.90625 44 
C 12 44 2.703125 34 2.703125 21.1875 
C 2.703125 8.59375 12 -1 22.90625 -1 
C 33.796875 -1 43.09375 8.59375 43.09375 21.1875 
z
M 22.90625 0.796875 
C 18.203125 0.796875 14.203125 3.59375 11.90625 7.5 
C 9.40625 12 9.09375 17.59375 9.09375 22 
C 9.09375 26.1875 9.296875 31.390625 11.90625 35.890625 
C 13.90625 39.1875 17.796875 42.390625 22.90625 42.390625 
C 27.40625 42.390625 31.203125 39.890625 33.59375 36.390625 
C 36.703125 31.6875 36.703125 25.09375 36.703125 22 
C 36.703125 18.09375 36.5 12.09375 33.796875 7.296875 
C 31 2.6875 26.703125 0.796875 22.90625 0.796875 
z
" id="CMR17-111"/>
      <path d="M 41.5 30.53125 
C 41.5 35.65625 40.5 44 28.703125 44 
C 20.796875 44 16.703125 37.875 15.203125 33.84375 
L 15.09375 33.84375 
L 15.09375 44 
L 3.296875 42.890625 
L 3.296875 40.28125 
C 9.203125 40.28125 10.09375 39.6875 10.09375 34.859375 
L 10.09375 6.921875 
C 10.09375 3.09375 9.703125 2.59375 3.296875 2.59375 
L 3.296875 0 
C 5.703125 0.1875 10.09375 0.1875 12.703125 0.1875 
C 15.296875 0.1875 19.796875 0.1875 22.203125 0 
L 22.203125 2.59375 
C 15.796875 2.59375 15.40625 3 15.40625 6.921875 
L 15.40625 26.21875 
C 15.40625 35.453125 21 42.390625 28 42.390625 
C 35.40625 42.390625 36.203125 35.765625 36.203125 30.9375 
L 36.203125 6.921875 
C 36.203125 3.09375 35.796875 2.59375 29.40625 2.59375 
L 29.40625 0 
C 31.796875 0.1875 36.203125 0.1875 38.796875 0.1875 
C 41.40625 0.1875 45.90625 0.1875 48.296875 0 
L 48.296875 2.59375 
C 41.90625 2.59375 41.5 3 41.5 6.921875 
z
" id="CMR17-110"/>
      <path d="M 28.09375 66.484375 
C 28.203125 66.890625 28.40625 67.484375 28.40625 67.984375 
C 28.40625 69 27.40625 69 27.203125 69 
C 27.09375 69 23.5 68.6875 21.703125 68.484375 
C 20 68.390625 18.5 68.1875 16.703125 68.09375 
C 14.296875 67.890625 13.59375 67.796875 13.59375 65.984375 
C 13.59375 64.984375 14.59375 64.984375 15.59375 64.984375 
C 20.703125 64.984375 20.703125 64.109375 20.703125 63.125 
C 20.703125 62.71875 20.703125 62.53125 20.203125 60.75 
L 5.90625 3.90625 
C 5.5 2.390625 5.5 2.203125 5.5 1.59375 
C 5.5 -0.609375 7.203125 -1 8.203125 -1 
C 11 -1 11.59375 1.1875 12.40625 4.296875 
L 17.09375 23.0625 
C 24.296875 22.265625 28.59375 19.25 28.59375 14.4375 
C 28.59375 13.828125 28.59375 13.4375 28.296875 11.921875 
C 27.90625 10.421875 27.90625 9.21875 27.90625 8.71875 
C 27.90625 2.890625 31.703125 -1 36.796875 -1 
C 41.40625 -1 43.796875 3.203125 44.59375 4.609375 
C 46.703125 8.3125 48 13.9375 48 14.328125 
C 48 14.828125 47.59375 15.234375 47 15.234375 
C 46.09375 15.234375 46 14.828125 45.59375 13.234375 
C 44.203125 8.015625 42.09375 1 37 1 
C 35 1 33.703125 2 33.703125 5.8125 
C 33.703125 7.71875 34.09375 9.921875 34.5 11.421875 
C 34.90625 13.234375 34.90625 13.328125 34.90625 14.53125 
C 34.90625 20.453125 29.59375 23.765625 20.40625 24.96875 
C 24 27.171875 27.59375 31.078125 29 32.59375 
C 34.703125 38.984375 38.59375 41.984375 43.203125 41.984375 
C 45.5 41.984375 46.09375 41.484375 46.796875 41 
C 43.09375 40.59375 41.703125 37.984375 41.703125 35.984375 
C 41.703125 33.59375 43.59375 32.796875 45 32.796875 
C 47.703125 32.796875 50.09375 35.09375 50.09375 38.296875 
C 50.09375 41.15625 47.796875 44 43.296875 44 
C 37.796875 44 33.296875 40.296875 26.203125 32.296875 
C 25.203125 31.078125 21.5 27.28125 17.796875 25.875 
z
" id="CMMI12-107"/>
     </defs>
     <g transform="translate(224.785256 265.716355)scale(0.1 -0.1)">
      <use transform="scale(0.996264)" xlink:href="#CMR17-105"/>
      <use transform="translate(24.871058 0)scale(0.996264)" xlink:href="#CMR17-116"/>
      <use transform="translate(60.151826 0)scale(0.996264)" xlink:href="#CMR17-101"/>
      <use transform="translate(100.637487 0)scale(0.996264)" xlink:href="#CMR17-114"/>
      <use transform="translate(135.918255 0)scale(0.996264)" xlink:href="#CMR17-97"/>
      <use transform="translate(181.608732 0)scale(0.996264)" xlink:href="#CMR17-116"/>
      <use transform="translate(216.889499 0)scale(0.996264)" xlink:href="#CMR17-105"/>
      <use transform="translate(241.760558 0)scale(0.996264)" xlink:href="#CMR17-111"/>
      <use transform="translate(287.451035 0)scale(0.996264)" xlink:href="#CMR17-110"/>
      <use transform="translate(368.422371 0)scale(0.996264)" xlink:href="#CMMI12-107"/>
     </g>
    </g>
   </g>
   <g id="matplotlib.axis_2">
    <g id="ytick_1">
     <g id="line2d_13">
      <path clip-path="url(#pb20f96d7ef)" d="M 52.294451 238.94218 
L 442.894451 238.94218 
" style="fill:none;stroke:#b0b0b0;stroke-dasharray:0.8,1.32;stroke-dashoffset:0;stroke-width:0.8;"/>
     </g>
     <g id="line2d_14">
      <defs>
       <path d="M 0 0 
L -3.5 0 
" id="m355ec1b51a" style="stroke:#000000;stroke-width:0.8;"/>
      </defs>
      <g>
       <use style="stroke:#000000;stroke-width:0.8;" x="52.294451" xlink:href="#m355ec1b51a" y="238.94218"/>
      </g>
     </g>
     <g id="text_8">
      <!-- $10^{-16}$ -->
      <defs>
       <path d="M 65.90625 23 
C 67.59375 23 69.40625 23 69.40625 25 
C 69.40625 27 67.59375 27 65.90625 27 
L 11.796875 27 
C 10.09375 27 8.296875 27 8.296875 25 
C 8.296875 23 10.09375 23 11.796875 23 
z
" id="CMSY10-0"/>
      </defs>
      <g transform="translate(21.16264 242.401429)scale(0.1 -0.1)">
       <use transform="scale(0.996264)" xlink:href="#CMR17-49"/>
       <use transform="translate(45.690477 0)scale(0.996264)" xlink:href="#CMR17-48"/>
       <use transform="translate(91.380954 36.153639)scale(0.697382)" xlink:href="#CMSY10-0"/>
       <use transform="translate(145.621947 36.153639)scale(0.697382)" xlink:href="#CMR17-49"/>
       <use transform="translate(177.605129 36.153639)scale(0.697382)" xlink:href="#CMR17-54"/>
      </g>
     </g>
    </g>
    <g id="ytick_2">
     <g id="line2d_15">
      <path clip-path="url(#pb20f96d7ef)" d="M 52.294451 212.899855 
L 442.894451 212.899855 
" style="fill:none;stroke:#b0b0b0;stroke-dasharray:0.8,1.32;stroke-dashoffset:0;stroke-width:0.8;"/>
     </g>
     <g id="line2d_16">
      <g>
       <use style="stroke:#000000;stroke-width:0.8;" x="52.294451" xlink:href="#m355ec1b51a" y="212.899855"/>
      </g>
     </g>
     <g id="text_9">
      <!-- $10^{-14}$ -->
      <g transform="translate(21.16264 216.359104)scale(0.1 -0.1)">
       <use transform="scale(0.996264)" xlink:href="#CMR17-49"/>
       <use transform="translate(45.690477 0)scale(0.996264)" xlink:href="#CMR17-48"/>
       <use transform="translate(91.380954 36.153639)scale(0.697382)" xlink:href="#CMSY10-0"/>
       <use transform="translate(145.621947 36.153639)scale(0.697382)" xlink:href="#CMR17-49"/>
       <use transform="translate(177.605129 36.153639)scale(0.697382)" xlink:href="#CMR17-52"/>
      </g>
     </g>
    </g>
    <g id="ytick_3">
     <g id="line2d_17">
      <path clip-path="url(#pb20f96d7ef)" d="M 52.294451 186.85753 
L 442.894451 186.85753 
" style="fill:none;stroke:#b0b0b0;stroke-dasharray:0.8,1.32;stroke-dashoffset:0;stroke-width:0.8;"/>
     </g>
     <g id="line2d_18">
      <g>
       <use style="stroke:#000000;stroke-width:0.8;" x="52.294451" xlink:href="#m355ec1b51a" y="186.85753"/>
      </g>
     </g>
     <g id="text_10">
      <!-- $10^{-12}$ -->
      <g transform="translate(21.16264 190.316779)scale(0.1 -0.1)">
       <use transform="scale(0.996264)" xlink:href="#CMR17-49"/>
       <use transform="translate(45.690477 0)scale(0.996264)" xlink:href="#CMR17-48"/>
       <use transform="translate(91.380954 36.153639)scale(0.697382)" xlink:href="#CMSY10-0"/>
       <use transform="translate(145.621947 36.153639)scale(0.697382)" xlink:href="#CMR17-49"/>
       <use transform="translate(177.605129 36.153639)scale(0.697382)" xlink:href="#CMR17-50"/>
      </g>
     </g>
    </g>
    <g id="ytick_4">
     <g id="line2d_19">
      <path clip-path="url(#pb20f96d7ef)" d="M 52.294451 160.815206 
L 442.894451 160.815206 
" style="fill:none;stroke:#b0b0b0;stroke-dasharray:0.8,1.32;stroke-dashoffset:0;stroke-width:0.8;"/>
     </g>
     <g id="line2d_20">
      <g>
       <use style="stroke:#000000;stroke-width:0.8;" x="52.294451" xlink:href="#m355ec1b51a" y="160.815206"/>
      </g>
     </g>
     <g id="text_11">
      <!-- $10^{-10}$ -->
      <g transform="translate(21.16264 164.274455)scale(0.1 -0.1)">
       <use transform="scale(0.996264)" xlink:href="#CMR17-49"/>
       <use transform="translate(45.690477 0)scale(0.996264)" xlink:href="#CMR17-48"/>
       <use transform="translate(91.380954 36.153639)scale(0.697382)" xlink:href="#CMSY10-0"/>
       <use transform="translate(145.621947 36.153639)scale(0.697382)" xlink:href="#CMR17-49"/>
       <use transform="translate(177.605129 36.153639)scale(0.697382)" xlink:href="#CMR17-48"/>
      </g>
     </g>
    </g>
    <g id="ytick_5">
     <g id="line2d_21">
      <path clip-path="url(#pb20f96d7ef)" d="M 52.294451 134.772881 
L 442.894451 134.772881 
" style="fill:none;stroke:#b0b0b0;stroke-dasharray:0.8,1.32;stroke-dashoffset:0;stroke-width:0.8;"/>
     </g>
     <g id="line2d_22">
      <g>
       <use style="stroke:#000000;stroke-width:0.8;" x="52.294451" xlink:href="#m355ec1b51a" y="134.772881"/>
      </g>
     </g>
     <g id="text_12">
      <!-- $10^{-8}$ -->
      <g transform="translate(25.133878 138.23213)scale(0.1 -0.1)">
       <use transform="scale(0.996264)" xlink:href="#CMR17-49"/>
       <use transform="translate(45.690477 0)scale(0.996264)" xlink:href="#CMR17-48"/>
       <use transform="translate(91.380954 36.153639)scale(0.697382)" xlink:href="#CMSY10-0"/>
       <use transform="translate(145.621947 36.153639)scale(0.697382)" xlink:href="#CMR17-56"/>
      </g>
     </g>
    </g>
    <g id="ytick_6">
     <g id="line2d_23">
      <path clip-path="url(#pb20f96d7ef)" d="M 52.294451 108.730556 
L 442.894451 108.730556 
" style="fill:none;stroke:#b0b0b0;stroke-dasharray:0.8,1.32;stroke-dashoffset:0;stroke-width:0.8;"/>
     </g>
     <g id="line2d_24">
      <g>
       <use style="stroke:#000000;stroke-width:0.8;" x="52.294451" xlink:href="#m355ec1b51a" y="108.730556"/>
      </g>
     </g>
     <g id="text_13">
      <!-- $10^{-6}$ -->
      <g transform="translate(25.133878 112.189805)scale(0.1 -0.1)">
       <use transform="scale(0.996264)" xlink:href="#CMR17-49"/>
       <use transform="translate(45.690477 0)scale(0.996264)" xlink:href="#CMR17-48"/>
       <use transform="translate(91.380954 36.153639)scale(0.697382)" xlink:href="#CMSY10-0"/>
       <use transform="translate(145.621947 36.153639)scale(0.697382)" xlink:href="#CMR17-54"/>
      </g>
     </g>
    </g>
    <g id="ytick_7">
     <g id="line2d_25">
      <path clip-path="url(#pb20f96d7ef)" d="M 52.294451 82.688231 
L 442.894451 82.688231 
" style="fill:none;stroke:#b0b0b0;stroke-dasharray:0.8,1.32;stroke-dashoffset:0;stroke-width:0.8;"/>
     </g>
     <g id="line2d_26">
      <g>
       <use style="stroke:#000000;stroke-width:0.8;" x="52.294451" xlink:href="#m355ec1b51a" y="82.688231"/>
      </g>
     </g>
     <g id="text_14">
      <!-- $10^{-4}$ -->
      <g transform="translate(25.133878 86.14748)scale(0.1 -0.1)">
       <use transform="scale(0.996264)" xlink:href="#CMR17-49"/>
       <use transform="translate(45.690477 0)scale(0.996264)" xlink:href="#CMR17-48"/>
       <use transform="translate(91.380954 36.153639)scale(0.697382)" xlink:href="#CMSY10-0"/>
       <use transform="translate(145.621947 36.153639)scale(0.697382)" xlink:href="#CMR17-52"/>
      </g>
     </g>
    </g>
    <g id="ytick_8">
     <g id="line2d_27">
      <path clip-path="url(#pb20f96d7ef)" d="M 52.294451 56.645906 
L 442.894451 56.645906 
" style="fill:none;stroke:#b0b0b0;stroke-dasharray:0.8,1.32;stroke-dashoffset:0;stroke-width:0.8;"/>
     </g>
     <g id="line2d_28">
      <g>
       <use style="stroke:#000000;stroke-width:0.8;" x="52.294451" xlink:href="#m355ec1b51a" y="56.645906"/>
      </g>
     </g>
     <g id="text_15">
      <!-- $10^{-2}$ -->
      <g transform="translate(25.133878 60.105156)scale(0.1 -0.1)">
       <use transform="scale(0.996264)" xlink:href="#CMR17-49"/>
       <use transform="translate(45.690477 0)scale(0.996264)" xlink:href="#CMR17-48"/>
       <use transform="translate(91.380954 36.153639)scale(0.697382)" xlink:href="#CMSY10-0"/>
       <use transform="translate(145.621947 36.153639)scale(0.697382)" xlink:href="#CMR17-50"/>
      </g>
     </g>
    </g>
    <g id="ytick_9">
     <g id="line2d_29">
      <path clip-path="url(#pb20f96d7ef)" d="M 52.294451 30.603582 
L 442.894451 30.603582 
" style="fill:none;stroke:#b0b0b0;stroke-dasharray:0.8,1.32;stroke-dashoffset:0;stroke-width:0.8;"/>
     </g>
     <g id="line2d_30">
      <g>
       <use style="stroke:#000000;stroke-width:0.8;" x="52.294451" xlink:href="#m355ec1b51a" y="30.603582"/>
      </g>
     </g>
     <g id="text_16">
      <!-- $10^{0}$ -->
      <g transform="translate(31.360543 34.062831)scale(0.1 -0.1)">
       <use transform="scale(0.996264)" xlink:href="#CMR17-49"/>
       <use transform="translate(45.690477 0)scale(0.996264)" xlink:href="#CMR17-48"/>
       <use transform="translate(91.380954 36.153639)scale(0.697382)" xlink:href="#CMR17-48"/>
      </g>
     </g>
    </g>
    <g id="text_17">
     <!-- $\mathbf{A}$-norm of error: $\| \mathbf{x}-\mathbf{x}_k \|_\mathbf{A}$ -->
     <defs>
      <path d="M 45.796875 67.703125 
C 45.09375 69.5 44.90625 70 42.5 70 
C 40 70 39.796875 69.5 39.09375 67.703125 
L 14.296875 6.703125 
C 13.59375 5.09375 13.59375 4.890625 10.796875 4.59375 
C 8.296875 4.296875 7.90625 4.296875 5.703125 4.296875 
L 3.90625 4.296875 
L 3.90625 0 
C 6.5 0.1875 12.5 0.1875 15.40625 0.1875 
C 18.09375 0.1875 25.40625 0.1875 27.703125 0 
L 27.703125 4.296875 
C 25.5 4.296875 21.703125 4.296875 18.90625 5.40625 
C 19.203125 6.3125 19.203125 6.5 19.40625 6.90625 
L 24.703125 20 
L 51.5 20 
L 57.796875 4.296875 
L 48.40625 4.296875 
L 48.40625 0 
C 51.59375 0.1875 61.296875 0.1875 65.09375 0.1875 
C 68.296875 0.1875 78.5 0.1875 81 0 
L 81 4.296875 
L 71.5 4.296875 
z
M 38.09375 53.03125 
L 49.703125 24.296875 
L 26.40625 24.296875 
z
" id="CMBX12-65"/>
      <path d="M 25.5 19.59375 
L 25.5 24 
L 0.40625 24 
L 0.40625 19.59375 
z
" id="CMR17-45"/>
      <path d="M 67.59375 30.53125 
C 67.59375 35.5625 66.703125 44 54.796875 44 
C 48 44 43.296875 39.375 41.5 33.953125 
L 41.40625 33.953125 
C 40.203125 42.1875 34.296875 44 28.703125 44 
C 20.796875 44 16.703125 37.875 15.203125 33.84375 
L 15.09375 33.84375 
L 15.09375 44 
L 3.296875 42.890625 
L 3.296875 40.28125 
C 9.203125 40.28125 10.09375 39.6875 10.09375 34.859375 
L 10.09375 6.921875 
C 10.09375 3.09375 9.703125 2.59375 3.296875 2.59375 
L 3.296875 0 
C 5.703125 0.1875 10.09375 0.1875 12.703125 0.1875 
C 15.296875 0.1875 19.796875 0.1875 22.203125 0 
L 22.203125 2.59375 
C 15.796875 2.59375 15.40625 3 15.40625 6.921875 
L 15.40625 26.21875 
C 15.40625 35.453125 21 42.390625 28 42.390625 
C 35.40625 42.390625 36.203125 35.765625 36.203125 30.9375 
L 36.203125 6.921875 
C 36.203125 3.09375 35.796875 2.59375 29.40625 2.59375 
L 29.40625 0 
C 31.796875 0.1875 36.203125 0.1875 38.796875 0.1875 
C 41.40625 0.1875 45.90625 0.1875 48.296875 0 
L 48.296875 2.59375 
C 41.90625 2.59375 41.5 3 41.5 6.921875 
L 41.5 26.21875 
C 41.5 35.453125 47.09375 42.390625 54.09375 42.390625 
C 61.5 42.390625 62.296875 35.765625 62.296875 30.9375 
L 62.296875 6.921875 
C 62.296875 3.09375 61.90625 2.59375 55.5 2.59375 
L 55.5 0 
C 57.90625 0.1875 62.296875 0.1875 64.90625 0.1875 
C 67.5 0.1875 72 0.1875 74.40625 0 
L 74.40625 2.59375 
C 68 2.59375 67.59375 3 67.59375 6.921875 
z
" id="CMR17-109"/>
      <path d="M 15.296875 40.390625 
L 26.703125 40.390625 
L 26.703125 43 
L 15.09375 43 
L 15.09375 55.296875 
C 15.09375 63.6875 19.296875 68.390625 23.59375 68.390625 
C 24.90625 68.390625 26.40625 68.171875 27.40625 67.796875 
C 26.59375 67.59375 24.5 66.890625 24.5 64.390625 
C 24.5 61.796875 26.5 61 27.90625 61 
C 29.296875 61 31.296875 61.796875 31.296875 64.390625 
C 31.296875 68.015625 27.703125 70 23.703125 70 
C 18 70 10.203125 65.796875 10.203125 55.09375 
L 10.203125 43 
L 2.203125 43 
L 2.203125 40.390625 
L 10.203125 40.390625 
L 10.203125 6.890625 
C 10.203125 3.09375 9.796875 2.59375 3.40625 2.59375 
L 3.40625 0 
C 5.796875 0.1875 10.40625 0.1875 13 0.1875 
C 15.90625 0.1875 21 0.1875 23.703125 0 
L 23.703125 2.59375 
C 16.5 2.59375 15.296875 2.59375 15.296875 7.09375 
z
" id="CMR17-102"/>
      <path d="M 16.59375 38.890625 
C 16.59375 41.390625 14.59375 43 12.5 43 
C 10.5 43 8.40625 41.390625 8.40625 38.890625 
C 8.40625 36.390625 10.40625 34.796875 12.5 34.796875 
C 14.5 34.796875 16.59375 36.390625 16.59375 38.890625 
z
M 16.59375 4.09375 
C 16.59375 6.59375 14.59375 8.1875 12.5 8.1875 
C 10.5 8.1875 8.40625 6.59375 8.40625 4.09375 
C 8.40625 1.59375 10.40625 0 12.5 0 
C 14.5 0 16.59375 1.59375 16.59375 4.09375 
z
" id="CMR17-58"/>
      <path d="M 17.203125 71.59375 
C 17.203125 73.1875 17.203125 75 15.203125 75 
C 13.203125 75 13.203125 72.796875 13.203125 71.296875 
L 13.203125 -21.3125 
C 13.203125 -22.90625 13.203125 -25 15.203125 -25 
C 17.203125 -25 17.203125 -23.203125 17.203125 -21.609375 
z
M 36.703125 71.296875 
C 36.703125 72.890625 36.703125 75 34.703125 75 
C 32.703125 75 32.703125 73.1875 32.703125 71.59375 
L 32.703125 -21.609375 
C 32.703125 -23.203125 32.703125 -25 34.703125 -25 
C 36.703125 -25 36.703125 -22.8125 36.703125 -21.3125 
z
" id="CMSY10-107"/>
      <path d="M 33.703125 24.46875 
L 45.296875 37.609375 
C 46.40625 38.90625 47.296875 39.6875 55.59375 39.6875 
L 55.59375 44 
C 50 43.796875 49.796875 43.796875 46.40625 43.796875 
C 43.5 43.796875 39.203125 43.796875 36.40625 44 
L 36.40625 39.6875 
C 38.296875 39.6875 40.40625 39.203125 40.40625 38.5 
C 40.40625 38.3125 39.90625 37.609375 39.703125 37.421875 
L 31 27.71875 
L 21.09375 39.6875 
L 25.296875 39.6875 
L 25.296875 44 
C 23 43.796875 16.203125 43.796875 13.5 43.796875 
C 10.5 43.796875 5.09375 43.796875 2.296875 44 
L 2.296875 39.6875 
L 9.40625 39.6875 
L 25 20.90625 
L 12 6.375 
C 10.796875 4.984375 10.09375 4.296875 1.796875 4.296875 
L 1.796875 0 
C 7.796875 0.1875 8 0.1875 11.09375 0.1875 
C 14 0.1875 18.203125 0.1875 21 0 
L 21 4.296875 
C 19.09375 4.296875 17 4.78125 17 5.484375 
C 17 5.578125 17 5.671875 17.703125 6.46875 
L 27.703125 17.640625 
L 38.796875 4.296875 
L 34.59375 4.296875 
L 34.59375 0 
C 37 0.1875 43.703125 0.1875 46.5 0.1875 
C 49.5 0.1875 54.796875 0.1875 57.59375 0 
L 57.59375 4.296875 
L 50.59375 4.296875 
z
" id="CMBX12-120"/>
     </defs>
     <g transform="translate(15.225462 192.004716)rotate(-90)scale(0.1 -0.1)">
      <use transform="translate(0 14.943915)scale(0.996264)" xlink:href="#CMBX12-65"/>
      <use transform="translate(84.636395 14.943915)scale(0.996264)" xlink:href="#CMR17-45"/>
      <use transform="translate(114.712361 14.943915)scale(0.996264)" xlink:href="#CMR17-110"/>
      <use transform="translate(165.607731 14.943915)scale(0.996264)" xlink:href="#CMR17-111"/>
      <use transform="translate(211.298208 14.943915)scale(0.996264)" xlink:href="#CMR17-114"/>
      <use transform="translate(246.578976 14.943915)scale(0.996264)" xlink:href="#CMR17-109"/>
      <use transform="translate(353.574532 14.943915)scale(0.996264)" xlink:href="#CMR17-111"/>
      <use transform="translate(399.265009 14.943915)scale(0.996264)" xlink:href="#CMR17-102"/>
      <use transform="translate(456.814488 14.943915)scale(0.996264)" xlink:href="#CMR17-101"/>
      <use transform="translate(497.300148 14.943915)scale(0.996264)" xlink:href="#CMR17-114"/>
      <use transform="translate(532.580916 14.943915)scale(0.996264)" xlink:href="#CMR17-114"/>
      <use transform="translate(567.861684 14.943915)scale(0.996264)" xlink:href="#CMR17-111"/>
      <use transform="translate(613.552161 14.943915)scale(0.996264)" xlink:href="#CMR17-114"/>
      <use transform="translate(648.832929 14.943915)scale(0.996264)" xlink:href="#CMR17-58"/>
      <use transform="translate(714.189648 14.943915)scale(0.996264)" xlink:href="#CMSY10-107"/>
      <use transform="translate(764.003031 14.943915)scale(0.996264)" xlink:href="#CMBX12-120"/>
      <use transform="translate(845.295413 14.943915)scale(0.996264)" xlink:href="#CMSY10-0"/>
      <use transform="translate(944.922088 14.943915)scale(0.996264)" xlink:href="#CMBX12-120"/>
      <use transform="translate(1004.075263 0)scale(0.697382)" xlink:href="#CMMI12-107"/>
      <use transform="translate(1042.428646 14.943915)scale(0.996264)" xlink:href="#CMSY10-107"/>
      <use transform="translate(1092.242029 0)scale(0.697382)" xlink:href="#CMBX12-65"/>
     </g>
    </g>
   </g>
   <g id="line2d_31">
    <path clip-path="url(#pb20f96d7ef)" d="M 70.048997 30.603582 
L 73.599906 34.65754 
L 77.150815 37.84999 
L 80.701724 40.275773 
L 84.252633 42.008721 
L 87.803542 43.353943 
L 91.354451 44.039265 
L 94.90536 45.517384 
L 98.456269 46.355571 
L 102.007178 47.262624 
L 105.558087 47.88365 
L 109.108997 48.359951 
L 112.659906 48.941393 
L 116.210815 49.443826 
L 119.761724 50.123825 
L 123.312633 50.922221 
L 126.863542 51.938791 
L 130.414451 53.237453 
L 133.96536 55.599044 
L 137.516269 57.496111 
L 141.067178 59.950734 
L 144.618087 62.424783 
L 148.168997 64.321237 
L 151.719906 67.455239 
L 155.270815 72.504947 
L 158.821724 76.192848 
L 162.372633 81.748247 
L 165.923542 89.046139 
L 169.474451 94.36123 
L 173.02536 99.170468 
L 176.576269 107.302188 
L 180.127178 116.2188 
L 183.678087 128.299083 
L 187.228997 137.513921 
L 190.779906 146.082269 
L 194.330815 157.626212 
L 197.881724 169.541526 
L 201.432633 184.210811 
L 204.983542 201.776766 
L 205.004012 275.853533 
" style="fill:none;stroke:#000000;stroke-linecap:square;stroke-width:0.5;"/>
   </g>
   <g id="line2d_32">
    <path clip-path="url(#pb20f96d7ef)" d="M 70.048997 30.603582 
L 73.599906 34.65754 
L 77.150815 37.84999 
L 80.701724 40.275773 
L 84.252633 42.008721 
L 87.803542 43.353943 
L 91.354451 44.039265 
L 94.90536 45.517384 
L 98.456269 46.355571 
L 102.007178 47.262624 
L 105.558087 47.88365 
L 109.108997 48.359951 
L 112.659906 48.941393 
L 116.210815 49.443826 
L 119.761724 50.123825 
L 123.312633 50.922221 
L 126.863542 51.938777 
L 130.414451 53.180419 
L 133.96536 53.298453 
L 137.516269 55.645895 
L 141.067178 57.374916 
L 144.618087 57.558228 
L 148.168997 59.983983 
L 151.719906 60.051268 
L 155.270815 62.509359 
L 158.821724 62.917708 
L 162.372633 64.491153 
L 165.923542 67.540486 
L 169.474451 67.723447 
L 173.02536 68.924682 
L 176.576269 72.791245 
L 180.127178 72.841467 
L 183.678087 75.671072 
L 187.228997 76.360839 
L 190.779906 81.693499 
L 194.330815 81.867927 
L 197.881724 82.076086 
L 201.432633 82.937095 
L 204.983542 89.545588 
L 208.534451 89.613137 
L 212.08536 94.132118 
L 215.636269 94.866998 
L 219.187178 94.952781 
L 222.738087 99.479415 
L 226.288997 99.569153 
L 229.839906 99.892042 
L 233.390815 103.965829 
L 236.941724 107.743018 
L 240.492633 108.232368 
L 244.043542 108.977296 
L 247.594451 110.653011 
L 251.14536 114.572281 
L 254.696269 116.991221 
L 258.247178 120.580559 
L 261.798087 123.588929 
L 265.348997 126.254143 
L 268.899906 129.243034 
L 272.450815 129.294246 
L 276.001724 132.346925 
L 279.552633 133.677657 
L 283.103542 135.580312 
L 286.654451 138.95704 
L 290.20536 139.517539 
L 293.756269 143.975009 
L 297.307178 144.33968 
L 300.858087 147.886726 
L 304.408997 149.932321 
L 307.959906 159.149656 
L 311.510815 159.210631 
L 315.061724 159.947844 
L 318.612633 160.093033 
L 322.163542 163.834796 
L 325.714451 166.994362 
L 329.26536 171.005958 
L 332.816269 172.153602 
L 336.367178 172.824671 
L 339.918087 173.505981 
L 343.468997 177.019878 
L 347.019906 178.72299 
L 350.570815 179.971535 
L 354.121724 182.469399 
L 357.672633 187.21466 
L 361.223542 187.261547 
L 364.774451 187.34202 
L 368.32536 195.933785 
L 371.876269 196.548494 
L 375.427178 198.113506 
L 378.978087 200.937277 
L 382.528997 205.460483 
L 386.079906 205.571056 
L 389.630815 212.748186 
L 393.181724 213.151761 
L 396.732633 213.215922 
L 400.283542 215.746802 
L 403.834451 216.16976 
L 407.38536 216.614143 
L 410.936269 216.678058 
L 414.487178 216.91298 
L 418.038087 216.956009 
L 421.588997 216.975284 
L 425.139906 217.018695 
" style="fill:none;stroke:#073642;stroke-linecap:square;stroke-width:1.5;"/>
   </g>
   <g id="line2d_33">
    <path clip-path="url(#pb20f96d7ef)" d="M 70.048997 30.603582 
L 73.599906 34.657541 
L 77.150815 37.84999 
L 80.701724 40.275773 
L 84.252633 42.008721 
L 87.803542 43.353947 
L 91.354451 44.039266 
L 94.90536 45.517377 
L 98.456269 46.355563 
L 102.007178 47.262574 
L 105.558087 47.874516 
L 109.108997 48.253493 
L 112.659906 48.446329 
L 116.210815 49.011447 
L 119.761724 49.469679 
L 123.312633 49.576825 
L 126.863542 50.212544 
L 130.414451 51.020451 
L 133.96536 51.451872 
L 137.516269 52.086094 
L 141.067178 52.190187 
L 144.618087 52.929091 
L 148.168997 53.616999 
L 151.719906 55.912103 
L 155.270815 56.447004 
L 158.821724 57.663874 
L 162.372633 57.816083 
L 165.923542 59.072951 
L 169.474451 59.667219 
L 173.02536 60.273799 
L 176.576269 60.393193 
L 180.127178 62.184975 
L 183.678087 62.821306 
L 187.228997 63.060853 
L 190.779906 63.334662 
L 194.330815 64.821346 
L 197.881724 65.403999 
L 201.432633 65.519108 
L 204.983542 68.40619 
L 208.534451 68.544639 
L 212.08536 71.385325 
L 215.636269 73.142218 
L 219.187178 73.620054 
L 222.738087 73.774136 
L 226.288997 74.398572 
L 229.839906 74.798721 
L 233.390815 75.625239 
L 236.941724 76.804025 
L 240.492633 76.878011 
L 244.043542 77.177168 
L 247.594451 77.760842 
L 251.14536 78.007688 
L 254.696269 82.243817 
L 258.247178 83.105826 
L 261.798087 83.163869 
L 265.348997 83.280558 
L 268.899906 83.789078 
L 272.450815 89.14695 
L 276.001724 90.675715 
L 279.552633 91.242107 
L 283.103542 91.317954 
L 286.654451 91.486392 
L 290.20536 91.865248 
L 293.756269 94.344415 
L 297.307178 94.643474 
L 300.858087 94.990744 
L 304.408997 96.18423 
L 307.959906 96.236176 
L 311.510815 96.635085 
L 315.061724 98.696236 
L 318.612633 99.37506 
L 322.163542 99.454504 
L 325.714451 99.735357 
L 329.26536 99.970333 
L 332.816269 100.066068 
L 336.367178 100.501927 
L 339.918087 102.472592 
L 343.468997 102.774836 
L 347.019906 102.802177 
L 350.570815 102.827775 
L 354.121724 102.954226 
L 357.672633 102.958355 
L 361.223542 102.973979 
L 364.774451 102.982462 
L 368.32536 102.973118 
L 371.876269 103.009597 
L 375.427178 103.030788 
L 378.978087 103.032427 
L 382.528997 103.040462 
L 386.079906 103.05122 
L 389.630815 103.05122 
L 393.181724 103.049598 
L 396.732633 103.050748 
L 400.283542 103.054499 
L 403.834451 103.019107 
L 407.38536 103.019107 
L 410.936269 103.01768 
L 414.487178 103.01768 
L 418.038087 103.01768 
L 421.588997 103.019112 
L 425.139906 103.019112 
" style="fill:none;stroke:#073642;stroke-dasharray:5.55,2.4;stroke-dashoffset:0;stroke-width:1.5;"/>
   </g>
   <g id="line2d_34">
    <path clip-path="url(#pb20f96d7ef)" d="M 70.048997 30.603582 
L 73.599906 34.660288 
L 77.150815 37.85613 
L 80.701724 40.279975 
L 84.252633 42.009644 
L 87.803542 43.353176 
L 91.354451 44.034064 
L 94.90536 45.504767 
L 98.456269 46.332546 
L 102.007178 47.233597 
L 105.558087 47.836313 
L 109.108997 48.313846 
L 112.659906 48.818133 
L 116.210815 48.975958 
L 119.761724 49.438984 
L 123.312633 49.726002 
L 126.863542 50.174839 
L 130.414451 50.954352 
L 133.96536 51.101327 
L 137.516269 52.046904 
L 141.067178 52.525752 
L 144.618087 53.495487 
L 148.168997 53.630554 
L 151.719906 55.864291 
L 155.270815 56.257131 
L 158.821724 57.254431 
L 162.372633 57.667971 
L 165.923542 57.99242 
L 169.474451 59.420259 
L 173.02536 59.646706 
L 176.576269 60.348641 
L 180.127178 60.934316 
L 183.678087 61.027176 
L 187.228997 61.145437 
L 190.779906 61.271109 
L 194.330815 61.793009 
L 197.881724 61.91218 
L 201.432633 61.928627 
L 204.983542 62.227367 
L 208.534451 62.353202 
L 212.08536 62.362087 
L 215.636269 62.818683 
L 219.187178 62.825113 
L 222.738087 62.834771 
L 226.288997 62.844446 
L 229.839906 62.863846 
L 233.390815 62.880063 
L 236.941724 62.880063 
L 240.492633 62.880063 
L 244.043542 62.880063 
L 247.594451 62.880063 
L 251.14536 62.880063 
L 254.696269 62.906108 
L 258.247178 62.912638 
L 261.798087 62.912638 
L 265.348997 62.915906 
L 268.899906 62.915906 
L 272.450815 62.919176 
L 276.001724 62.919176 
L 279.552633 62.922448 
L 283.103542 62.922448 
L 286.654451 62.925721 
L 290.20536 62.925721 
L 293.756269 62.925721 
L 297.307178 62.925721 
L 300.858087 62.925721 
L 304.408997 62.925721 
L 307.959906 62.925721 
L 311.510815 62.925721 
L 315.061724 62.928997 
L 318.612633 62.928997 
L 322.163542 62.928997 
L 325.714451 62.928997 
L 329.26536 62.928997 
L 332.816269 62.928997 
L 336.367178 62.928997 
L 339.918087 62.928997 
L 343.468997 62.928997 
L 347.019906 62.928997 
L 350.570815 62.928997 
L 354.121724 62.928997 
L 357.672633 62.928997 
L 361.223542 62.928997 
L 364.774451 62.928997 
L 368.32536 62.928997 
L 371.876269 62.928997 
L 375.427178 62.928997 
L 378.978087 62.928997 
L 382.528997 62.928997 
L 386.079906 62.928997 
L 389.630815 62.928997 
L 393.181724 62.928997 
L 396.732633 62.928997 
L 400.283542 62.928997 
L 403.834451 62.928997 
L 407.38536 62.928997 
L 410.936269 62.928997 
L 414.487178 62.928997 
L 418.038087 62.928997 
L 421.588997 62.928997 
L 425.139906 62.928997 
" style="fill:none;stroke:#073642;stroke-dasharray:1.5,2.475;stroke-dashoffset:0;stroke-width:1.5;"/>
   </g>
   <g id="line2d_35">
    <path clip-path="url(#pb20f96d7ef)" d="M 70.048997 26.683821 
L 73.599906 27.041595 
L 77.150815 27.399369 
L 80.701724 27.757144 
L 84.252633 28.114918 
L 87.803542 28.472692 
L 91.354451 28.830466 
L 94.90536 29.18824 
L 98.456269 29.546014 
L 102.007178 29.903788 
L 105.558087 30.261562 
L 109.108997 30.619336 
L 112.659906 30.97711 
L 116.210815 31.334884 
L 119.761724 31.692659 
L 123.312633 32.050433 
L 126.863542 32.408207 
L 130.414451 32.765981 
L 133.96536 33.123755 
L 137.516269 33.481529 
L 141.067178 33.839303 
L 144.618087 34.197077 
L 148.168997 34.554851 
L 151.719906 34.912625 
L 155.270815 35.2704 
L 158.821724 35.628174 
L 162.372633 35.985948 
L 165.923542 36.343722 
L 169.474451 36.701496 
L 173.02536 37.05927 
L 176.576269 37.417044 
L 180.127178 37.774818 
L 183.678087 38.132592 
L 187.228997 38.490366 
L 190.779906 38.84814 
L 194.330815 39.205915 
L 197.881724 39.563689 
L 201.432633 39.921463 
L 204.983542 40.279237 
L 208.534451 40.637011 
L 212.08536 40.994785 
L 215.636269 41.352559 
L 219.187178 41.710333 
L 222.738087 42.068107 
L 226.288997 42.425881 
L 229.839906 42.783655 
L 233.390815 43.14143 
L 236.941724 43.499204 
L 240.492633 43.856978 
L 244.043542 44.214752 
L 247.594451 44.572526 
L 251.14536 44.9303 
L 254.696269 45.288074 
L 258.247178 45.645848 
L 261.798087 46.003622 
L 265.348997 46.361396 
L 268.899906 46.71917 
L 272.450815 47.076945 
L 276.001724 47.434719 
L 279.552633 47.792493 
L 283.103542 48.150267 
L 286.654451 48.508041 
L 290.20536 48.865815 
L 293.756269 49.223589 
L 297.307178 49.581363 
L 300.858087 49.939137 
L 304.408997 50.296911 
L 307.959906 50.654686 
L 311.510815 51.01246 
L 315.061724 51.370234 
L 318.612633 51.728008 
L 322.163542 52.085782 
L 325.714451 52.443556 
L 329.26536 52.80133 
L 332.816269 53.159104 
L 336.367178 53.516878 
L 339.918087 53.874652 
L 343.468997 54.232426 
L 347.019906 54.590201 
L 350.570815 54.947975 
L 354.121724 55.305749 
L 357.672633 55.663523 
L 361.223542 56.021297 
L 364.774451 56.379071 
L 368.32536 56.736845 
L 371.876269 57.094619 
L 375.427178 57.452393 
L 378.978087 57.810167 
L 382.528997 58.167941 
L 386.079906 58.525716 
L 389.630815 58.88349 
L 393.181724 59.241264 
L 396.732633 59.599038 
L 400.283542 59.956812 
L 403.834451 60.314586 
L 407.38536 60.67236 
L 410.936269 61.030134 
L 414.487178 61.387908 
L 418.038087 61.745682 
L 421.588997 62.103456 
L 425.139906 62.461231 
" style="fill:none;stroke:#000000;stroke-dasharray:1.85,0.8;stroke-dashoffset:0;stroke-width:0.5;"/>
   </g>
   <g id="patch_3">
    <path d="M 52.294451 238.94218 
L 52.294451 21.50218 
" style="fill:none;stroke:#000000;stroke-linecap:square;stroke-linejoin:miter;stroke-width:0.8;"/>
   </g>
   <g id="patch_4">
    <path d="M 442.894451 238.94218 
L 442.894451 21.50218 
" style="fill:none;stroke:#000000;stroke-linecap:square;stroke-linejoin:miter;stroke-width:0.8;"/>
   </g>
   <g id="patch_5">
    <path d="M 52.294451 238.94218 
L 442.894451 238.94218 
" style="fill:none;stroke:#000000;stroke-linecap:square;stroke-linejoin:miter;stroke-width:0.8;"/>
   </g>
   <g id="patch_6">
    <path d="M 52.294451 21.50218 
L 442.894451 21.50218 
" style="fill:none;stroke:#000000;stroke-linecap:square;stroke-linejoin:miter;stroke-width:0.8;"/>
   </g>
   <g id="text_18">
    <!-- \texttt{model\_48\_8\_3} -->
    <defs>
     <path d="M 45.296875 30.515625 
C 45.296875 32.75 45.296875 44 36.5 44 
C 33 44 29.59375 42.390625 26.90625 38.6875 
C 26.296875 40.1875 24.09375 44 19.296875 44 
C 14.796875 44 11.703125 41.09375 10.90625 40.1875 
C 10.796875 43.390625 8.703125 43.390625 6.90625 43.390625 
L 3.90625 43.390625 
C 2.5 43.390625 -0.109375 43.390625 -0.109375 40.484375 
C -0.109375 37.59375 2.203125 37.59375 5.296875 37.59375 
L 5.296875 5.796875 
C 2.09375 5.796875 -0.109375 5.796875 -0.109375 2.890625 
C -0.109375 0 2.5 0 3.90625 0 
L 12.296875 0 
C 13.703125 0 16.296875 0 16.296875 2.890625 
C 16.296875 5.796875 14 5.796875 10.90625 5.796875 
L 10.90625 24.359375 
C 10.90625 32.84375 14.5 38.1875 18.90625 38.1875 
C 21.703125 38.1875 22.5 34.65625 22.5 29.921875 
L 22.5 5.796875 
C 20.796875 5.796875 18.09375 5.796875 18.09375 2.890625 
C 18.09375 0 20.796875 0 22.203125 0 
L 29.5 0 
C 30.90625 0 33.5 0 33.5 2.890625 
C 33.5 5.796875 31.203125 5.796875 28.09375 5.796875 
L 28.09375 24.359375 
C 28.09375 32.84375 31.703125 38.1875 36.09375 38.1875 
C 38.90625 38.1875 39.703125 34.65625 39.703125 29.921875 
L 39.703125 5.796875 
C 38 5.796875 35.296875 5.796875 35.296875 2.890625 
C 35.296875 0 38 0 39.40625 0 
L 46.703125 0 
C 48.09375 0 50.703125 0 50.703125 2.890625 
C 50.703125 5.796875 48.40625 5.796875 45.296875 5.796875 
z
" id="CMTT12-109"/>
     <path d="M 45.59375 21.390625 
C 45.59375 34.046875 36.5 44 25.703125 44 
C 14.90625 44 5.796875 34.046875 5.796875 21.390625 
C 5.796875 8.640625 15 -1 25.703125 -1 
C 36.40625 -1 45.59375 8.640625 45.59375 21.390625 
z
M 25.703125 4.796875 
C 18.5 4.796875 12.296875 12.484375 12.296875 22.09375 
C 12.296875 31.515625 18.703125 38.1875 25.703125 38.1875 
C 32.703125 38.1875 39.09375 31.515625 39.09375 22.09375 
C 39.09375 12.390625 32.90625 4.796875 25.703125 4.796875 
z
" id="CMTT12-111"/>
     <path d="M 41.796875 56.890625 
C 41.796875 59.984375 41.203125 61 37.796875 61 
L 31.203125 61 
C 29.796875 61 27.203125 61 27.203125 58.09375 
C 27.203125 55.1875 29.796875 55.1875 31.203125 55.1875 
L 35.296875 55.1875 
L 35.296875 38.984375 
C 33.703125 40.59375 29.59375 44 23.5 44 
C 12.90625 44 3.703125 34.3125 3.703125 21.4375 
C 3.703125 8.875 12.296875 -1 22.59375 -1 
C 29.09375 -1 33.40625 2.890625 35.296875 5.09375 
C 35.296875 0.890625 35.296875 -0.40625 39.296875 -0.40625 
L 45.90625 -0.40625 
C 47.296875 -0.40625 49.90625 -0.40625 49.90625 2.5 
C 49.90625 5.40625 47.296875 5.40625 45.90625 5.40625 
L 41.796875 5.40625 
z
M 35.296875 18.890625 
C 35.296875 13.171875 30.703125 4.796875 23.203125 4.796875 
C 16 4.796875 10.203125 12.25 10.203125 21.4375 
C 10.203125 31.25 17 38.1875 24.09375 38.1875 
C 30.59375 38.1875 35.296875 32.171875 35.296875 26.859375 
z
" id="CMTT12-100"/>
     <path d="M 41.59375 19 
C 43.703125 19 45.59375 19 45.59375 22.6875 
C 45.59375 34.53125 39 44 26.5 44 
C 14.90625 44 5.59375 33.921875 5.59375 21.59375 
C 5.59375 8.84375 15.703125 -1 28 -1 
C 40.90625 -1 45.59375 7.9375 45.59375 10.578125 
C 45.59375 11.1875 45.40625 13.40625 42.296875 13.40625 
C 40.40625 13.40625 39.796875 12.703125 39.203125 11.1875 
C 36.703125 5.296875 30.203125 4.796875 28.296875 4.796875 
C 20 4.796875 13.40625 11.1875 12.296875 19 
z
M 12.40625 24.5 
C 13.703125 33.125 20.203125 38.1875 26.5 38.1875 
C 36.5 38.1875 38.59375 29.5625 39 24.5 
z
" id="CMTT12-101"/>
     <path d="M 29 56.890625 
C 29 59.984375 28.40625 61 25 61 
L 10.296875 61 
C 8.90625 61 6.296875 61 6.296875 58.09375 
C 6.296875 55.1875 8.90625 55.1875 10.296875 55.1875 
L 22.5 55.1875 
L 22.5 5.796875 
L 10.296875 5.796875 
C 8.90625 5.796875 6.296875 5.796875 6.296875 2.890625 
C 6.296875 0 8.90625 0 10.296875 0 
L 41.203125 0 
C 42.59375 0 45.203125 0 45.203125 2.890625 
C 45.203125 5.796875 42.59375 5.796875 41.203125 5.796875 
L 29 5.796875 
z
" id="CMTT12-108"/>
     <path d="M 3.796875 24.203125 
C 2.90625 22.890625 2.90625 22.6875 2.90625 20.890625 
C 2.90625 17.390625 4.203125 17 6.90625 17 
L 31.40625 17 
L 31.40625 5.796875 
L 25.40625 5.796875 
C 24 5.796875 21.40625 5.796875 21.40625 2.890625 
C 21.40625 0 24 0 25.40625 0 
L 43 0 
C 44.40625 0 47 0 47 2.890625 
C 47 5.796875 44.40625 5.796875 43 5.796875 
L 37 5.796875 
L 37 17 
L 44.5 17 
C 45.90625 17 48.5 17 48.5 19.890625 
C 48.5 22.796875 45.90625 22.796875 44.5 22.796875 
L 37 22.796875 
L 37 58.875 
C 37 62.1875 36.296875 63 32.90625 63 
L 30.59375 63 
C 28.203125 63 27.703125 62.890625 26.5 60.984375 
z
M 9.59375 22.796875 
L 31.40625 58.0625 
L 31.40625 22.796875 
z
" id="CMTT12-52"/>
     <path d="M 33.203125 32.890625 
C 41.203125 35.296875 45.703125 40.546875 45.703125 46.09375 
C 45.703125 54.21875 37.40625 62 25.703125 62 
C 14 62 5.703125 54.21875 5.703125 46.09375 
C 5.703125 40.34375 10.5 35.1875 18.203125 32.890625 
C 8.09375 29.6875 4.296875 22.875 4.296875 17.34375 
C 4.296875 7.65625 13.5 -1 25.703125 -1 
C 37.90625 -1 47.09375 7.5625 47.09375 17.34375 
C 47.09375 22.78125 43.40625 29.6875 33.203125 32.890625 
z
M 25.703125 35.796875 
C 17.796875 35.796875 12.203125 40.640625 12.203125 46 
C 12.203125 51.4375 18 56.1875 25.703125 56.1875 
C 33.40625 56.1875 39.203125 51.4375 39.203125 46 
C 39.203125 40.640625 33.5 35.796875 25.703125 35.796875 
z
M 25.703125 4.796875 
C 17.09375 4.796875 10.796875 10.828125 10.796875 17.34375 
C 10.796875 24.359375 17.5 30 25.703125 30 
C 34.09375 30 40.59375 24.0625 40.59375 17.4375 
C 40.59375 10.53125 34.09375 4.796875 25.703125 4.796875 
z
" id="CMTT12-56"/>
     <path d="M 25.59375 30 
C 36 30 40.59375 22.78125 40.59375 17.4375 
C 40.59375 10.921875 34.796875 4.796875 26 4.796875 
C 16 4.796875 11.5 10.125 11.5 11.515625 
C 11.5 11.703125 11.59375 11.90625 11.703125 12 
C 12.09375 12.703125 12.40625 13.484375 12.40625 14.375 
C 12.40625 16.453125 10.796875 18.328125 8.40625 18.328125 
C 6.296875 18.328125 4.296875 17.046875 4.296875 13.984375 
C 4.296875 5.390625 13.796875 -1 26 -1 
C 38.59375 -1 47.09375 7.953125 47.09375 17.34375 
C 47.09375 22.375 44.296875 29.390625 35.5 33.1875 
C 41.59375 36.984375 44.296875 42.921875 44.296875 48.078125 
C 44.296875 55.5 36.796875 62 26 62 
C 14.90625 62 7.09375 57.1875 7.09375 49.859375 
C 7.09375 46.59375 9.59375 45.59375 11.203125 45.59375 
C 13 45.59375 15.203125 46.984375 15.203125 49.65625 
C 15.203125 51.234375 14.40625 52.125 14.40625 52.234375 
C 17.40625 56 24.296875 56.1875 26 56.1875 
C 32.796875 56.1875 37.796875 52.625 37.796875 47.96875 
C 37.796875 45.109375 35.90625 36.890625 25.40625 36.1875 
C 21.703125 36 20.09375 35.796875 19.703125 35.796875 
C 17.703125 35.59375 17.203125 34.296875 17.203125 32.890625 
C 17.203125 30 19.296875 30 21 30 
z
" id="CMTT12-51"/>
    </defs>
    <g transform="translate(213.266668 15.50218)scale(0.12 -0.12)">
     <use transform="scale(0.996264)" xlink:href="#CMTT12-109"/>
     <use transform="translate(51.266111 0)scale(0.996264)" xlink:href="#CMTT12-111"/>
     <use transform="translate(102.532222 0)scale(0.996264)" xlink:href="#CMTT12-100"/>
     <use transform="translate(153.798333 0)scale(0.996264)" xlink:href="#CMTT12-101"/>
     <use transform="translate(205.064443 0)scale(0.996264)" xlink:href="#CMTT12-108"/>
     <use transform="translate(293.2422 0)scale(0.996264)" xlink:href="#CMTT12-52"/>
     <use transform="translate(344.508311 0)scale(0.996264)" xlink:href="#CMTT12-56"/>
     <use transform="translate(432.686067 0)scale(0.996264)" xlink:href="#CMTT12-56"/>
     <use transform="translate(520.863823 0)scale(0.996264)" xlink:href="#CMTT12-51"/>
     <path d="M 262.482229 0 
L 293.2422 0 
L 293.2422 0.3985 
L 262.482229 0.3985 
L 262.482229 0 
z
"/>
     <path d="M 401.926096 0 
L 432.686067 0 
L 432.686067 0.3985 
L 401.926096 0.3985 
L 401.926096 0 
z
"/>
     <path d="M 490.103852 0 
L 520.863823 0 
L 520.863823 0.3985 
L 490.103852 0.3985 
L 490.103852 0 
z
"/>
    </g>
   </g>
   <g id="legend_1">
    <g id="patch_7">
     <path d="M 449.894451 100.213518 
L 526.654959 100.213518 
Q 528.654959 100.213518 528.654959 98.213518 
L 528.654959 28.50218 
Q 528.654959 26.50218 526.654959 26.50218 
L 449.894451 26.50218 
Q 447.894451 26.50218 447.894451 28.50218 
L 447.894451 98.213518 
Q 447.894451 100.213518 449.894451 100.213518 
z
" style="fill:#ffffff;opacity:0.8;stroke:#cccccc;stroke-linejoin:miter;"/>
    </g>
    <g id="line2d_36">
     <path d="M 451.894451 34.00218 
L 471.894451 34.00218 
" style="fill:none;stroke:#000000;stroke-linecap:square;stroke-width:0.5;"/>
    </g>
    <g id="line2d_37"/>
    <g id="text_19">
     <!-- exact -->
     <defs>
      <path d="M 26 23.296875 
C 29 27.1875 32.40625 31.59375 35.203125 34.890625 
C 38.5 38.6875 42.296875 40.296875 46.703125 40.390625 
L 46.703125 43 
C 45 42.890625 41.5 42.796875 39.703125 42.796875 
C 37 42.796875 33.90625 42.796875 31.59375 43 
L 31.59375 40.390625 
C 33 40.1875 33.796875 39.1875 33.796875 37.796875 
C 33.796875 36 32.796875 34.890625 32.296875 34.1875 
L 24.90625 24.796875 
L 16.09375 36.296875 
C 15.203125 37.390625 15.203125 37.59375 15.203125 38.09375 
C 15.203125 39.296875 16.203125 40.296875 17.90625 40.390625 
L 17.90625 43 
C 15.5 42.796875 11.203125 42.796875 8.703125 42.796875 
C 6 42.796875 2.796875 42.796875 0.59375 43 
L 0.59375 40.390625 
C 6 40.390625 7.203125 40 9.59375 37 
L 21.09375 22.09375 
C 21.296875 21.890625 21.796875 21.296875 21.796875 21 
C 21.796875 20.59375 13.09375 9.890625 12 8.5 
C 7.5 3.09375 2.796875 2.6875 0.09375 2.59375 
L 0.09375 0 
C 1.796875 0.09375 5.296875 0.1875 7.09375 0.1875 
C 9.09375 0.1875 13.5 0.1875 15.296875 0 
L 15.296875 2.59375 
C 14.703125 2.6875 13.09375 2.890625 13.09375 5.1875 
C 13.09375 7 13.90625 8.09375 14.796875 9.296875 
L 23.09375 19.5 
L 31.796875 8.1875 
C 32.59375 7.09375 33.796875 5.59375 33.796875 4.890625 
C 33.796875 3.5 32.59375 2.6875 31 2.59375 
L 31 0 
C 33.40625 0.1875 37.703125 0.1875 40.203125 0.1875 
C 42.90625 0.1875 46.09375 0.1875 48.296875 0 
L 48.296875 2.59375 
C 43.296875 2.59375 41.796875 2.796875 39.40625 5.890625 
z
" id="CMR17-120"/>
      <path d="M 34.90625 35 
C 33 35 30.203125 35 30.203125 31.484375 
C 30.203125 28.6875 32.5 27.890625 33.796875 27.890625 
C 34.5 27.890625 37.40625 28.1875 37.40625 31.6875 
C 37.40625 38.6875 30.59375 44 22.90625 44 
C 12.296875 44 3.296875 34.390625 3.296875 21.546875 
C 3.296875 8.140625 12.703125 -1 22.90625 -1 
C 35.296875 -1 38.40625 10.5625 38.40625 11.671875 
C 38.40625 12.078125 38.296875 12.375 37.59375 12.375 
C 36.90625 12.375 36.796875 12.28125 36.40625 10.96875 
C 33.796875 2.8125 28.09375 0.796875 23.796875 0.796875 
C 17.40625 0.796875 9.703125 6.734375 9.703125 21.640625 
C 9.703125 36.84375 17.09375 42.1875 23 42.1875 
C 26.90625 42.1875 32.703125 40.34375 34.90625 35 
z
" id="CMR17-99"/>
     </defs>
     <g transform="translate(479.894451 37.50218)scale(0.1 -0.1)">
      <use transform="scale(0.996264)" xlink:href="#CMR17-101"/>
      <use transform="translate(40.48566 0)scale(0.996264)" xlink:href="#CMR17-120"/>
      <use transform="translate(88.778576 0)scale(0.996264)" xlink:href="#CMR17-97"/>
      <use transform="translate(134.469053 0)scale(0.996264)" xlink:href="#CMR17-99"/>
      <use transform="translate(174.954714 0)scale(0.996264)" xlink:href="#CMR17-116"/>
     </g>
    </g>
    <g id="line2d_38">
     <path d="M 451.894451 47.939358 
L 471.894451 47.939358 
" style="fill:none;stroke:#073642;stroke-linecap:square;stroke-width:1.5;"/>
    </g>
    <g id="line2d_39"/>
    <g id="text_20">
     <!-- float 64 -->
     <defs>
      <path d="M 39.90625 69.1875 
C 38.796875 68.984375 37.90625 68.796875 36.59375 68.484375 
C 33.703125 70 29.90625 70 28.90625 70 
C 20.40625 70 9.90625 65.21875 9.90625 54.59375 
L 9.90625 43 
L 1.90625 43 
L 1.90625 40.390625 
L 9.90625 40.390625 
L 9.90625 6.890625 
C 9.90625 3.09375 9.5 2.59375 3.09375 2.59375 
L 3.09375 0 
C 5.5 0.1875 9.90625 0.1875 12.40625 0.1875 
C 15 0.1875 19.40625 0.1875 21.796875 0 
L 21.796875 2.59375 
C 15.40625 2.59375 15 3 15 6.890625 
L 15 40.390625 
L 34.796875 40.390625 
L 34.796875 6.890625 
C 34.796875 3.09375 34.40625 2.59375 28 2.59375 
L 28 0 
C 30.40625 0.1875 34.796875 0.1875 37.296875 0.1875 
C 39.90625 0.1875 44.296875 0.1875 46.703125 0 
L 46.703125 2.59375 
C 40.296875 2.59375 39.90625 3 39.90625 6.890625 
z
M 14.796875 43 
L 14.796875 54.59375 
C 14.796875 63.328125 21.40625 68.390625 28.703125 68.390625 
C 29.203125 68.390625 34.703125 68.1875 34.703125 67.203125 
C 34.703125 67.09375 34.59375 67 34.09375 66.5 
C 33.203125 65.90625 32.796875 64.921875 32.796875 63.921875 
C 32.796875 62.53125 33.5 61.34375 34.796875 60.84375 
L 34.796875 43 
z
" id="CMR17-13"/>
     </defs>
     <g transform="translate(479.894451 51.439358)scale(0.1 -0.1)">
      <use transform="scale(0.996264)" xlink:href="#CMR17-13"/>
      <use transform="translate(49.742223 0)scale(0.996264)" xlink:href="#CMR17-111"/>
      <use transform="translate(95.4327 0)scale(0.996264)" xlink:href="#CMR17-97"/>
      <use transform="translate(141.123178 0)scale(0.996264)" xlink:href="#CMR17-116"/>
      <use transform="translate(206.479912 0)scale(0.996264)" xlink:href="#CMR17-54"/>
      <use transform="translate(252.170389 0)scale(0.996264)" xlink:href="#CMR17-52"/>
     </g>
    </g>
    <g id="line2d_40">
     <path d="M 451.894451 61.876536 
L 471.894451 61.876536 
" style="fill:none;stroke:#073642;stroke-dasharray:5.55,2.4;stroke-dashoffset:0;stroke-width:1.5;"/>
    </g>
    <g id="line2d_41"/>
    <g id="text_21">
     <!-- float 32 -->
     <defs>
      <path d="M 22.09375 34 
C 31 34 34.90625 26.140625 34.90625 17.09375 
C 34.90625 5.03125 28.5 0.390625 22.703125 0.390625 
C 17.40625 0.390625 8.796875 3.015625 6.09375 10.796875 
C 6.59375 10.59375 7.09375 10.59375 7.59375 10.59375 
C 10 10.59375 11.796875 12.1875 11.796875 14.796875 
C 11.796875 17.6875 9.59375 19 7.59375 19 
C 5.90625 19 3.296875 18.1875 3.296875 14.484375 
C 3.296875 5.234375 12.296875 -2 22.90625 -2 
C 34 -2 42.5 6.75 42.5 16.984375 
C 42.5 26.84375 34.5 34 25 35.09375 
C 32.59375 36.671875 39.90625 43.375 39.90625 52.390625 
C 39.90625 60.25 32 66 23 66 
C 13.90625 66 5.90625 60.34375 5.90625 52.296875 
C 5.90625 48.796875 8.5 48.1875 9.796875 48.1875 
C 11.90625 48.1875 13.703125 49.484375 13.703125 52.09375 
C 13.703125 54.6875 11.90625 56 9.796875 56 
C 9.40625 56 8.90625 56 8.5 55.796875 
C 11.40625 62.484375 19.296875 63.6875 22.796875 63.6875 
C 26.296875 63.6875 32.90625 61.96875 32.90625 52.296875 
C 32.90625 49.484375 32.5 44.546875 29.09375 40.21875 
C 26.09375 36.390625 22.703125 36.1875 19.40625 35.890625 
C 18.90625 35.890625 16.59375 35.6875 16.203125 35.6875 
C 15.5 35.59375 15.09375 35.5 15.09375 34.796875 
C 15.09375 34.09375 15.203125 34 17.203125 34 
z
" id="CMR17-51"/>
     </defs>
     <g transform="translate(479.894451 65.376536)scale(0.1 -0.1)">
      <use transform="scale(0.996264)" xlink:href="#CMR17-13"/>
      <use transform="translate(49.742223 0)scale(0.996264)" xlink:href="#CMR17-111"/>
      <use transform="translate(95.4327 0)scale(0.996264)" xlink:href="#CMR17-97"/>
      <use transform="translate(141.123178 0)scale(0.996264)" xlink:href="#CMR17-116"/>
      <use transform="translate(206.479912 0)scale(0.996264)" xlink:href="#CMR17-51"/>
      <use transform="translate(252.170389 0)scale(0.996264)" xlink:href="#CMR17-50"/>
     </g>
    </g>
    <g id="line2d_42">
     <path d="M 451.894451 75.813715 
L 471.894451 75.813715 
" style="fill:none;stroke:#073642;stroke-dasharray:1.5,2.475;stroke-dashoffset:0;stroke-width:1.5;"/>
    </g>
    <g id="line2d_43"/>
    <g id="text_22">
     <!-- float 16 -->
     <g transform="translate(479.894451 79.313715)scale(0.1 -0.1)">
      <use transform="scale(0.996264)" xlink:href="#CMR17-13"/>
      <use transform="translate(49.742223 0)scale(0.996264)" xlink:href="#CMR17-111"/>
      <use transform="translate(95.4327 0)scale(0.996264)" xlink:href="#CMR17-97"/>
      <use transform="translate(141.123178 0)scale(0.996264)" xlink:href="#CMR17-116"/>
      <use transform="translate(206.479912 0)scale(0.996264)" xlink:href="#CMR17-49"/>
      <use transform="translate(252.170389 0)scale(0.996264)" xlink:href="#CMR17-54"/>
     </g>
    </g>
    <g id="line2d_44">
     <path d="M 451.894451 90.325227 
L 471.894451 90.325227 
" style="fill:none;stroke:#000000;stroke-dasharray:1.85,0.8;stroke-dashoffset:0;stroke-width:0.5;"/>
    </g>
    <g id="line2d_45"/>
    <g id="text_23">
     <!-- $\sqrt{\kappa}$ bound -->
     <defs>
      <path d="M 38.90625 -85.5 
L 21.296875 -46.609375 
C 20.59375 -45 20.09375 -45 19.796875 -45 
C 19.703125 -45 19.203125 -45 18.09375 -45.8125 
L 8.59375 -53 
C 7.296875 -54 7.296875 -54.3125 7.296875 -54.609375 
C 7.296875 -55.109375 7.59375 -55.703125 8.296875 -55.703125 
C 8.90625 -55.703125 10.59375 -54.3125 11.703125 -53.5 
C 12.296875 -53 13.796875 -51.90625 14.90625 -51.109375 
L 34.59375 -94.40625 
C 35.296875 -96 35.796875 -96 36.703125 -96 
C 38.203125 -96 38.5 -95.40625 39.203125 -94 
L 84.59375 0 
C 85.296875 1.390625 85.296875 1.796875 85.296875 2 
C 85.296875 3 84.5 4 83.296875 4 
C 82.5 4 81.796875 3.5 81 1.890625 
z
" id="CMSY10-112"/>
      <path d="M 21.296875 24.921875 
C 24.59375 26.71875 28.296875 29.8125 30.796875 31.90625 
C 36.796875 37.09375 39 38.6875 42.796875 40.1875 
C 42.40625 39.59375 42.296875 38.796875 42.296875 38.09375 
C 42.296875 35.390625 44.59375 34.890625 45.59375 34.890625 
C 48.796875 34.890625 50.59375 37.890625 50.59375 39.796875 
C 50.59375 40.390625 50.40625 43 46.90625 43 
C 40.90625 43 35 37.890625 30.59375 34.1875 
C 24.796875 29.109375 21.90625 26.921875 17.796875 25.625 
L 21.59375 41.484375 
C 21.59375 43.09375 20.296875 44 19 44 
C 18.09375 44 15.90625 43.6875 15.09375 40.484375 
L 5.796875 3.484375 
C 5.5 2.28125 5.5 2.09375 5.5 1.484375 
C 5.5 0.09375 6.59375 -1 8.09375 -1 
C 11.09375 -1 11.703125 1.59375 12.203125 3.6875 
C 12.796875 5.765625 16.90625 22.390625 17.09375 23 
C 29.796875 22.390625 34.09375 19.203125 34.09375 14.328125 
C 34.09375 13.640625 34.09375 13.34375 33.796875 12.234375 
C 33.40625 10.34375 33.40625 9.25 33.40625 8.65625 
C 33.40625 2.6875 37.296875 -1 42.203125 -1 
C 46.296875 -1 48.59375 1.890625 50.09375 4.46875 
C 52.203125 8.359375 53.5 13.828125 53.5 14.234375 
C 53.5 14.734375 53.09375 15.125 52.5 15.125 
C 51.59375 15.125 51.5 14.734375 51.09375 13.140625 
C 49.796875 8.359375 47.59375 1 42.5 1 
C 40.296875 1 39.203125 2.28125 39.203125 5.765625 
C 39.203125 7.65625 39.59375 9.859375 40 11.34375 
C 40.203125 12.34375 40.5 13.53125 40.5 14.625 
C 40.5 23.71875 27.90625 24.625 21.296875 24.921875 
z
" id="CMMI12-20"/>
      <path d="M 15 69 
L 3.09375 67.890625 
L 3.09375 65.296875 
C 9 65.296875 9.90625 64.703125 9.90625 60.046875 
L 9.90625 -0.203125 
L 11.703125 -0.203125 
L 14.59375 6.953125 
C 17.5 2.203125 21.796875 -1 27.59375 -1 
C 37.59375 -1 47.703125 7.859375 47.703125 21.59375 
C 47.703125 34.515625 38.703125 44 28.59375 44 
C 22.40625 44 18 40.671875 15 36.734375 
z
M 15.203125 31.59375 
C 15.203125 33.40625 15.203125 33.703125 16.59375 35.828125 
C 20.5 41.890625 26.09375 42.390625 28 42.390625 
C 31 42.390625 41.296875 40.78125 41.296875 21.6875 
C 41.296875 1.703125 29.5 0.59375 27.09375 0.59375 
C 24 0.59375 19.5 1.796875 16.296875 7.65625 
C 15.203125 9.578125 15.203125 9.78125 15.203125 11.59375 
z
" id="CMR17-98"/>
      <path d="M 29.40625 42.890625 
L 29.40625 40.296875 
C 35.296875 40.296875 36.203125 39.6875 36.203125 34.828125 
L 36.203125 16.453125 
C 36.203125 7.96875 31.703125 0.59375 24.296875 0.59375 
C 16.09375 0.59375 15.40625 5.546875 15.40625 10.796875 
L 15.40625 44 
L 3.296875 42.890625 
L 3.296875 40.296875 
C 7.296875 40.296875 10 40.296875 10.09375 36.25 
L 10.09375 16.859375 
C 10.09375 10.09375 10.09375 5.75 12.703125 2.921875 
C 14 1.609375 16.5 -1 23.703125 -1 
C 32.203125 -1 35.5 6.25 36.296875 8.375 
L 36.40625 8.375 
L 36.40625 -1 
L 48.296875 -0.203125 
L 48.296875 2.40625 
C 42.40625 2.40625 41.5 3.015625 41.5 7.859375 
L 41.5 44 
z
" id="CMR17-117"/>
      <path d="M 29.203125 67.890625 
L 29.203125 65.296875 
C 35.09375 65.296875 36 64.703125 36 60.046875 
L 36 37.046875 
C 35.59375 37.546875 31.5 44 23.40625 44 
C 13.203125 44 3.296875 34.8125 3.296875 21.5 
C 3.296875 8.265625 12.59375 -1 22.40625 -1 
C 30.90625 -1 35.296875 5.640625 35.796875 6.34375 
L 35.796875 -1 
L 47.90625 -0.203125 
L 47.90625 2.40625 
C 42 2.40625 41.09375 3.015625 41.09375 7.859375 
L 41.09375 69 
z
M 35.796875 11.90625 
C 35.796875 8.875 34 6.140625 31.703125 4.125 
C 28.296875 1.09375 24.90625 0.59375 23 0.59375 
C 20.09375 0.59375 9.703125 2.109375 9.703125 21.390625 
C 9.703125 41.1875 21.296875 42.390625 23.90625 42.390625 
C 28.5 42.390625 32.203125 39.765625 34.5 36.140625 
C 35.796875 34.015625 35.796875 33.703125 35.796875 31.890625 
z
" id="CMR17-100"/>
     </defs>
     <g transform="translate(479.894451 93.825227)scale(0.1 -0.1)">
      <use transform="translate(0 71.758691)scale(0.996264)" xlink:href="#CMSY10-112"/>
      <use transform="translate(83.022254 0)scale(0.996264)" xlink:href="#CMMI12-20"/>
      <use transform="translate(169.252845 0)scale(0.996264)" xlink:href="#CMR17-98"/>
      <use transform="translate(222.750653 0)scale(0.996264)" xlink:href="#CMR17-111"/>
      <use transform="translate(268.44113 0)scale(0.996264)" xlink:href="#CMR17-117"/>
      <use transform="translate(319.3365 0)scale(0.996264)" xlink:href="#CMR17-110"/>
      <use transform="translate(370.23187 0)scale(0.996264)" xlink:href="#CMR17-100"/>
      <path d="M 83.022254 71.758691 
L 139.176878 71.758691 
L 139.176878 75.743641 
L 83.022254 75.743641 
L 83.022254 71.758691 
z
"/>
     </g>
    </g>
   </g>
  </g>
 </g>
 <defs>
  <clipPath id="pb20f96d7ef">
   <rect height="217.44" width="390.6" x="52.294451" y="21.50218"/>
  </clipPath>
 </defs>
</svg>
